solid OpenSCAD_Model
  facet normal -0 0 -1
    outer loop
      vertex -11 0 -4
      vertex -10.7596 2.28703 -4
      vertex -10.7596 -2.28703 -4
    endloop
  endfacet
  facet normal 0 -0 -1
    outer loop
      vertex -10.7596 -2.28703 -4
      vertex -10.7596 2.28703 -4
      vertex -10.049 4.4741 -4
    endloop
  endfacet
  facet normal 0 0 -1
    outer loop
      vertex -10.7596 -2.28703 -4
      vertex -10.049 4.4741 -4
      vertex -8.89919 6.46564 -4
    endloop
  endfacet
  facet normal 0 0 -1
    outer loop
      vertex -10.7596 -2.28703 -4
      vertex -8.89919 6.46564 -4
      vertex -7.36044 8.17459 -4
    endloop
  endfacet
  facet normal 0 0 -1
    outer loop
      vertex -10.7596 -2.28703 -4
      vertex -7.36044 8.17459 -4
      vertex -5.5 9.52628 -4
    endloop
  endfacet
  facet normal 0 0 -1
    outer loop
      vertex -10.7596 -2.28703 -4
      vertex -5.5 9.52628 -4
      vertex -3.39919 10.4616 -4
    endloop
  endfacet
  facet normal 0 0 -1
    outer loop
      vertex -10.7596 -2.28703 -4
      vertex -3.39919 10.4616 -4
      vertex -1.14981 10.9397 -4
    endloop
  endfacet
  facet normal 0 0 -1
    outer loop
      vertex -10.7596 -2.28703 -4
      vertex -1.14981 10.9397 -4
      vertex 1.14981 10.9397 -4
    endloop
  endfacet
  facet normal 0 0 -1
    outer loop
      vertex -10.7596 -2.28703 -4
      vertex 1.14981 10.9397 -4
      vertex 3.39919 10.4616 -4
    endloop
  endfacet
  facet normal 0 0 -1
    outer loop
      vertex -10.7596 -2.28703 -4
      vertex 3.39919 10.4616 -4
      vertex 5.5 9.52628 -4
    endloop
  endfacet
  facet normal 0 0 -1
    outer loop
      vertex 0 4 -4
      vertex 5.5 9.52628 -4
      vertex 7.36044 8.17459 -4
    endloop
  endfacet
  facet normal 0 0 -1
    outer loop
      vertex 1.23607 3.80423 -4
      vertex 7.36044 8.17459 -4
      vertex 8.89919 6.46564 -4
    endloop
  endfacet
  facet normal 0 0 -1
    outer loop
      vertex 3.23607 2.35114 -4
      vertex 8.89919 6.46564 -4
      vertex 10.049 4.4741 -4
    endloop
  endfacet
  facet normal 0 0 -1
    outer loop
      vertex 3.80423 1.23607 -4
      vertex 10.049 4.4741 -4
      vertex 10.7596 2.28703 -4
    endloop
  endfacet
  facet normal -0 0 -1
    outer loop
      vertex 4 0 -4
      vertex 10.7596 2.28703 -4
      vertex 11 0 -4
    endloop
  endfacet
  facet normal -0 0 -1
    outer loop
      vertex 3.80423 -1.23607 -4
      vertex 11 0 -4
      vertex 10.7596 -2.28703 -4
    endloop
  endfacet
  facet normal -0 0 -1
    outer loop
      vertex 2.35114 -3.23607 -4
      vertex 10.7596 -2.28703 -4
      vertex 10.049 -4.4741 -4
    endloop
  endfacet
  facet normal 0 0 -1
    outer loop
      vertex 1.23607 -3.80423 -4
      vertex 10.049 -4.4741 -4
      vertex 8.89919 -6.46564 -4
    endloop
  endfacet
  facet normal 0 0 -1
    outer loop
      vertex -10.7596 -2.28703 -4
      vertex 8.89919 -6.46564 -4
      vertex 7.36044 -8.17459 -4
    endloop
  endfacet
  facet normal 0 0 -1
    outer loop
      vertex -10.7596 -2.28703 -4
      vertex 7.36044 -8.17459 -4
      vertex 5.5 -9.52628 -4
    endloop
  endfacet
  facet normal 0 0 -1
    outer loop
      vertex -10.7596 -2.28703 -4
      vertex 5.5 -9.52628 -4
      vertex 3.39919 -10.4616 -4
    endloop
  endfacet
  facet normal 0 0 -1
    outer loop
      vertex -10.7596 -2.28703 -4
      vertex 3.39919 -10.4616 -4
      vertex 1.14981 -10.9397 -4
    endloop
  endfacet
  facet normal 0 0 -1
    outer loop
      vertex -10.7596 -2.28703 -4
      vertex 1.14981 -10.9397 -4
      vertex -1.14981 -10.9397 -4
    endloop
  endfacet
  facet normal 0 0 -1
    outer loop
      vertex -10.7596 -2.28703 -4
      vertex -1.14981 -10.9397 -4
      vertex -3.39919 -10.4616 -4
    endloop
  endfacet
  facet normal 0 0 -1
    outer loop
      vertex -10.7596 -2.28703 -4
      vertex -3.39919 -10.4616 -4
      vertex -5.5 -9.52628 -4
    endloop
  endfacet
  facet normal 0 0 -1
    outer loop
      vertex -10.7596 -2.28703 -4
      vertex -5.5 -9.52628 -4
      vertex -7.36044 -8.17459 -4
    endloop
  endfacet
  facet normal 0 0 -1
    outer loop
      vertex -10.7596 -2.28703 -4
      vertex -7.36044 -8.17459 -4
      vertex -8.89919 -6.46564 -4
    endloop
  endfacet
  facet normal 0 0 -1
    outer loop
      vertex -10.7596 -2.28703 -4
      vertex -8.89919 -6.46564 -4
      vertex -10.049 -4.4741 -4
    endloop
  endfacet
  facet normal -0 0 -1
    outer loop
      vertex 1.23607 3.80423 -4
      vertex 8.89919 6.46564 -4
      vertex 2.35114 3.23607 -4
    endloop
  endfacet
  facet normal 0 0 -1
    outer loop
      vertex -3.23607 -2.35114 -4
      vertex -10.7596 -2.28703 -4
      vertex -3.80423 -1.23607 -4
    endloop
  endfacet
  facet normal 0 0 -1
    outer loop
      vertex -2.35114 -3.23607 -4
      vertex -10.7596 -2.28703 -4
      vertex -3.23607 -2.35114 -4
    endloop
  endfacet
  facet normal 0 0 -1
    outer loop
      vertex 1.23607 -3.80423 -4
      vertex 8.89919 -6.46564 -4
      vertex 0 -4 -4
    endloop
  endfacet
  facet normal 0 0 -1
    outer loop
      vertex -10.7596 -2.28703 -4
      vertex -2.35114 -3.23607 -4
      vertex -1.23607 -3.80423 -4
    endloop
  endfacet
  facet normal 0 0 -1
    outer loop
      vertex -10.7596 -2.28703 -4
      vertex -1.23607 -3.80423 -4
      vertex 8.89919 -6.46564 -4
    endloop
  endfacet
  facet normal 0 0 -1
    outer loop
      vertex -1.23607 -3.80423 -4
      vertex 0 -4 -4
      vertex 8.89919 -6.46564 -4
    endloop
  endfacet
  facet normal 0 0 -1
    outer loop
      vertex 2.35114 -3.23607 -4
      vertex 10.049 -4.4741 -4
      vertex 1.23607 -3.80423 -4
    endloop
  endfacet
  facet normal -0 0 -1
    outer loop
      vertex 3.23607 -2.35114 -4
      vertex 10.7596 -2.28703 -4
      vertex 2.35114 -3.23607 -4
    endloop
  endfacet
  facet normal 0 0 -1
    outer loop
      vertex 3.80423 -1.23607 -4
      vertex 10.7596 -2.28703 -4
      vertex 3.23607 -2.35114 -4
    endloop
  endfacet
  facet normal -0 0 -1
    outer loop
      vertex 3.80423 1.23607 -4
      vertex 10.7596 2.28703 -4
      vertex 4 0 -4
    endloop
  endfacet
  facet normal 0 0 -1
    outer loop
      vertex 4 0 -4
      vertex 11 0 -4
      vertex 3.80423 -1.23607 -4
    endloop
  endfacet
  facet normal -0 0 -1
    outer loop
      vertex 2.35114 3.23607 -4
      vertex 8.89919 6.46564 -4
      vertex 3.23607 2.35114 -4
    endloop
  endfacet
  facet normal 0 0 -1
    outer loop
      vertex -3.80423 -1.23607 -4
      vertex -10.7596 -2.28703 -4
      vertex -4 0 -4
    endloop
  endfacet
  facet normal -0 0 -1
    outer loop
      vertex 0 4 -4
      vertex 7.36044 8.17459 -4
      vertex 1.23607 3.80423 -4
    endloop
  endfacet
  facet normal 0 0 -1
    outer loop
      vertex -1.23607 3.80423 -4
      vertex 5.5 9.52628 -4
      vertex 0 4 -4
    endloop
  endfacet
  facet normal 0 -0 -1
    outer loop
      vertex -3.23607 2.35114 -4
      vertex -10.7596 -2.28703 -4
      vertex -2.35114 3.23607 -4
    endloop
  endfacet
  facet normal 0 0 -1
    outer loop
      vertex -2.35114 3.23607 -4
      vertex 5.5 9.52628 -4
      vertex -1.23607 3.80423 -4
    endloop
  endfacet
  facet normal 0 0 -1
    outer loop
      vertex -10.7596 -2.28703 -4
      vertex 5.5 9.52628 -4
      vertex -2.35114 3.23607 -4
    endloop
  endfacet
  facet normal 0 -0 -1
    outer loop
      vertex -3.80423 1.23607 -4
      vertex -10.7596 -2.28703 -4
      vertex -3.23607 2.35114 -4
    endloop
  endfacet
  facet normal -0 0 -1
    outer loop
      vertex 3.23607 2.35114 -4
      vertex 10.049 4.4741 -4
      vertex 3.80423 1.23607 -4
    endloop
  endfacet
  facet normal 0 -0 -1
    outer loop
      vertex -4 0 -4
      vertex -10.7596 -2.28703 -4
      vertex -3.80423 1.23607 -4
    endloop
  endfacet
  facet normal -0.994522 0.104528 0
    outer loop
      vertex -11 0 -4
      vertex -11 0 4
      vertex -10.7596 2.28703 -4
    endloop
  endfacet
  facet normal -0.994522 0.104528 0
    outer loop
      vertex -10.7596 2.28703 -4
      vertex -11 0 4
      vertex -10.7596 2.28703 4
    endloop
  endfacet
  facet normal -0.994522 -0.104528 -0
    outer loop
      vertex -11 0 -4
      vertex -10.7596 -2.28703 -4
      vertex -11 0 4
    endloop
  endfacet
  facet normal -0.994522 -0.104528 0
    outer loop
      vertex -11 0 4
      vertex -10.7596 -2.28703 -4
      vertex -10.7596 -2.28703 4
    endloop
  endfacet
  facet normal -0.951056 -0.309017 -0
    outer loop
      vertex -10.7596 -2.28703 -4
      vertex -10.049 -4.4741 -4
      vertex -10.7596 -2.28703 4
    endloop
  endfacet
  facet normal -0.951056 -0.309017 0
    outer loop
      vertex -10.7596 -2.28703 4
      vertex -10.049 -4.4741 -4
      vertex -10.049 -4.4741 4
    endloop
  endfacet
  facet normal -0.866025 -0.5 -0
    outer loop
      vertex -10.049 -4.4741 -4
      vertex -8.89919 -6.46564 -4
      vertex -10.049 -4.4741 4
    endloop
  endfacet
  facet normal -0.866025 -0.5 0
    outer loop
      vertex -10.049 -4.4741 4
      vertex -8.89919 -6.46564 -4
      vertex -8.89919 -6.46564 4
    endloop
  endfacet
  facet normal -0.743145 -0.669131 -0
    outer loop
      vertex -8.89919 -6.46564 -4
      vertex -7.36044 -8.17459 -4
      vertex -8.89919 -6.46564 4
    endloop
  endfacet
  facet normal -0.743145 -0.669131 0
    outer loop
      vertex -8.89919 -6.46564 4
      vertex -7.36044 -8.17459 -4
      vertex -7.36044 -8.17459 4
    endloop
  endfacet
  facet normal -0.587785 -0.809017 0
    outer loop
      vertex -7.36044 -8.17459 4
      vertex -7.36044 -8.17459 -4
      vertex -5.5 -9.52628 -4
    endloop
  endfacet
  facet normal -0.587785 -0.809017 0
    outer loop
      vertex -5.5 -9.52628 4
      vertex -7.36044 -8.17459 4
      vertex -5.5 -9.52628 -4
    endloop
  endfacet
  facet normal -0.406737 -0.913545 0
    outer loop
      vertex -5.5 -9.52628 4
      vertex -5.5 -9.52628 -4
      vertex -3.39919 -10.4616 -4
    endloop
  endfacet
  facet normal -0.406737 -0.913545 0
    outer loop
      vertex -3.39919 -10.4616 4
      vertex -5.5 -9.52628 4
      vertex -3.39919 -10.4616 -4
    endloop
  endfacet
  facet normal -0.207912 -0.978148 0
    outer loop
      vertex -3.39919 -10.4616 4
      vertex -3.39919 -10.4616 -4
      vertex -1.14981 -10.9397 -4
    endloop
  endfacet
  facet normal -0.207912 -0.978148 0
    outer loop
      vertex -1.14981 -10.9397 4
      vertex -3.39919 -10.4616 4
      vertex -1.14981 -10.9397 -4
    endloop
  endfacet
  facet normal 0 -1 0
    outer loop
      vertex -1.14981 -10.9397 4
      vertex -1.14981 -10.9397 -4
      vertex 1.14981 -10.9397 -4
    endloop
  endfacet
  facet normal 0 -1 0
    outer loop
      vertex 1.14981 -10.9397 4
      vertex -1.14981 -10.9397 4
      vertex 1.14981 -10.9397 -4
    endloop
  endfacet
  facet normal 0.207912 -0.978148 0
    outer loop
      vertex 1.14981 -10.9397 4
      vertex 1.14981 -10.9397 -4
      vertex 3.39919 -10.4616 -4
    endloop
  endfacet
  facet normal 0.207912 -0.978148 0
    outer loop
      vertex 3.39919 -10.4616 4
      vertex 1.14981 -10.9397 4
      vertex 3.39919 -10.4616 -4
    endloop
  endfacet
  facet normal 0.406737 -0.913545 0
    outer loop
      vertex 3.39919 -10.4616 4
      vertex 3.39919 -10.4616 -4
      vertex 5.5 -9.52628 -4
    endloop
  endfacet
  facet normal 0.406737 -0.913545 0
    outer loop
      vertex 5.5 -9.52628 4
      vertex 3.39919 -10.4616 4
      vertex 5.5 -9.52628 -4
    endloop
  endfacet
  facet normal 0.587785 -0.809017 0
    outer loop
      vertex 5.5 -9.52628 4
      vertex 5.5 -9.52628 -4
      vertex 7.36044 -8.17459 -4
    endloop
  endfacet
  facet normal 0.587785 -0.809017 0
    outer loop
      vertex 7.36044 -8.17459 4
      vertex 5.5 -9.52628 4
      vertex 7.36044 -8.17459 -4
    endloop
  endfacet
  facet normal 0.743145 -0.669131 0
    outer loop
      vertex 7.36044 -8.17459 4
      vertex 7.36044 -8.17459 -4
      vertex 8.89919 -6.46564 -4
    endloop
  endfacet
  facet normal 0.743145 -0.669131 0
    outer loop
      vertex 8.89919 -6.46564 4
      vertex 7.36044 -8.17459 4
      vertex 8.89919 -6.46564 -4
    endloop
  endfacet
  facet normal 0.866025 -0.5 0
    outer loop
      vertex 8.89919 -6.46564 4
      vertex 8.89919 -6.46564 -4
      vertex 10.049 -4.4741 -4
    endloop
  endfacet
  facet normal 0.866025 -0.5 0
    outer loop
      vertex 10.049 -4.4741 4
      vertex 8.89919 -6.46564 4
      vertex 10.049 -4.4741 -4
    endloop
  endfacet
  facet normal 0.951056 -0.309017 0
    outer loop
      vertex 10.049 -4.4741 4
      vertex 10.049 -4.4741 -4
      vertex 10.7596 -2.28703 -4
    endloop
  endfacet
  facet normal 0.951056 -0.309017 0
    outer loop
      vertex 10.7596 -2.28703 4
      vertex 10.049 -4.4741 4
      vertex 10.7596 -2.28703 -4
    endloop
  endfacet
  facet normal 0.994522 -0.104528 0
    outer loop
      vertex 10.7596 -2.28703 4
      vertex 10.7596 -2.28703 -4
      vertex 11 0 -4
    endloop
  endfacet
  facet normal 0.994522 -0.104528 0
    outer loop
      vertex 11 0 4
      vertex 10.7596 -2.28703 4
      vertex 11 0 -4
    endloop
  endfacet
  facet normal 0.994522 0.104528 0
    outer loop
      vertex 11 0 -4
      vertex 10.7596 2.28703 -4
      vertex 10.7596 2.28703 4
    endloop
  endfacet
  facet normal 0.994522 0.104528 -0
    outer loop
      vertex 11 0 4
      vertex 11 0 -4
      vertex 10.7596 2.28703 4
    endloop
  endfacet
  facet normal 0.951056 0.309017 0
    outer loop
      vertex 10.7596 2.28703 -4
      vertex 10.049 4.4741 -4
      vertex 10.049 4.4741 4
    endloop
  endfacet
  facet normal 0.951056 0.309017 -0
    outer loop
      vertex 10.7596 2.28703 4
      vertex 10.7596 2.28703 -4
      vertex 10.049 4.4741 4
    endloop
  endfacet
  facet normal 0.866025 0.5 0
    outer loop
      vertex 10.049 4.4741 -4
      vertex 8.89919 6.46564 -4
      vertex 8.89919 6.46564 4
    endloop
  endfacet
  facet normal 0.866025 0.5 -0
    outer loop
      vertex 10.049 4.4741 4
      vertex 10.049 4.4741 -4
      vertex 8.89919 6.46564 4
    endloop
  endfacet
  facet normal 0.743145 0.669131 0
    outer loop
      vertex 8.89919 6.46564 -4
      vertex 7.36044 8.17459 -4
      vertex 7.36044 8.17459 4
    endloop
  endfacet
  facet normal 0.743145 0.669131 -0
    outer loop
      vertex 8.89919 6.46564 4
      vertex 8.89919 6.46564 -4
      vertex 7.36044 8.17459 4
    endloop
  endfacet
  facet normal 0.587785 0.809017 0
    outer loop
      vertex 5.5 9.52628 -4
      vertex 5.5 9.52628 4
      vertex 7.36044 8.17459 -4
    endloop
  endfacet
  facet normal 0.587785 0.809017 0
    outer loop
      vertex 7.36044 8.17459 -4
      vertex 5.5 9.52628 4
      vertex 7.36044 8.17459 4
    endloop
  endfacet
  facet normal 0.406737 0.913545 0
    outer loop
      vertex 3.39919 10.4616 -4
      vertex 3.39919 10.4616 4
      vertex 5.5 9.52628 -4
    endloop
  endfacet
  facet normal 0.406737 0.913545 0
    outer loop
      vertex 5.5 9.52628 -4
      vertex 3.39919 10.4616 4
      vertex 5.5 9.52628 4
    endloop
  endfacet
  facet normal 0.207912 0.978148 0
    outer loop
      vertex 1.14981 10.9397 -4
      vertex 1.14981 10.9397 4
      vertex 3.39919 10.4616 -4
    endloop
  endfacet
  facet normal 0.207912 0.978148 0
    outer loop
      vertex 3.39919 10.4616 -4
      vertex 1.14981 10.9397 4
      vertex 3.39919 10.4616 4
    endloop
  endfacet
  facet normal 0 1 0
    outer loop
      vertex -1.14981 10.9397 -4
      vertex -1.14981 10.9397 4
      vertex 1.14981 10.9397 -4
    endloop
  endfacet
  facet normal 0 1 0
    outer loop
      vertex 1.14981 10.9397 -4
      vertex -1.14981 10.9397 4
      vertex 1.14981 10.9397 4
    endloop
  endfacet
  facet normal -0.207912 0.978148 0
    outer loop
      vertex -3.39919 10.4616 -4
      vertex -3.39919 10.4616 4
      vertex -1.14981 10.9397 -4
    endloop
  endfacet
  facet normal -0.207912 0.978148 0
    outer loop
      vertex -1.14981 10.9397 -4
      vertex -3.39919 10.4616 4
      vertex -1.14981 10.9397 4
    endloop
  endfacet
  facet normal -0.406737 0.913545 0
    outer loop
      vertex -5.5 9.52628 -4
      vertex -5.5 9.52628 4
      vertex -3.39919 10.4616 -4
    endloop
  endfacet
  facet normal -0.406737 0.913545 0
    outer loop
      vertex -3.39919 10.4616 -4
      vertex -5.5 9.52628 4
      vertex -3.39919 10.4616 4
    endloop
  endfacet
  facet normal -0.587785 0.809017 0
    outer loop
      vertex -7.36044 8.17459 -4
      vertex -7.36044 8.17459 4
      vertex -5.5 9.52628 -4
    endloop
  endfacet
  facet normal -0.587785 0.809017 0
    outer loop
      vertex -5.5 9.52628 -4
      vertex -7.36044 8.17459 4
      vertex -5.5 9.52628 4
    endloop
  endfacet
  facet normal -0.743145 0.669131 0
    outer loop
      vertex -8.89919 6.46564 -4
      vertex -8.89919 6.46564 4
      vertex -7.36044 8.17459 -4
    endloop
  endfacet
  facet normal -0.743145 0.669131 0
    outer loop
      vertex -7.36044 8.17459 -4
      vertex -8.89919 6.46564 4
      vertex -7.36044 8.17459 4
    endloop
  endfacet
  facet normal -0.866025 0.5 0
    outer loop
      vertex -10.049 4.4741 -4
      vertex -10.049 4.4741 4
      vertex -8.89919 6.46564 -4
    endloop
  endfacet
  facet normal -0.866025 0.5 0
    outer loop
      vertex -8.89919 6.46564 -4
      vertex -10.049 4.4741 4
      vertex -8.89919 6.46564 4
    endloop
  endfacet
  facet normal -0.951056 0.309017 0
    outer loop
      vertex -10.7596 2.28703 -4
      vertex -10.7596 2.28703 4
      vertex -10.049 4.4741 -4
    endloop
  endfacet
  facet normal -0.951056 0.309017 0
    outer loop
      vertex -10.049 4.4741 -4
      vertex -10.7596 2.28703 4
      vertex -10.049 4.4741 4
    endloop
  endfacet
  facet normal 0.987688 -0.156435 0
    outer loop
      vertex -3.80423 1.23607 -4
      vertex -3.80423 1.23607 4
      vertex -4 0 4
    endloop
  endfacet
  facet normal 0.987688 -0.156435 0
    outer loop
      vertex -4 0 -4
      vertex -3.80423 1.23607 -4
      vertex -4 0 4
    endloop
  endfacet
  facet normal 0.987688 0.156435 0
    outer loop
      vertex -4 0 4
      vertex -3.80423 -1.23607 4
      vertex -3.80423 -1.23607 -4
    endloop
  endfacet
  facet normal 0.987688 0.156435 0
    outer loop
      vertex -4 0 -4
      vertex -4 0 4
      vertex -3.80423 -1.23607 -4
    endloop
  endfacet
  facet normal 0.891007 -0.45399 0
    outer loop
      vertex -3.23607 2.35114 -4
      vertex -3.23607 2.35114 4
      vertex -3.80423 1.23607 4
    endloop
  endfacet
  facet normal 0.891007 -0.45399 0
    outer loop
      vertex -3.80423 1.23607 -4
      vertex -3.23607 2.35114 -4
      vertex -3.80423 1.23607 4
    endloop
  endfacet
  facet normal 0.707107 -0.707107 0
    outer loop
      vertex -2.35114 3.23607 -4
      vertex -2.35114 3.23607 4
      vertex -3.23607 2.35114 4
    endloop
  endfacet
  facet normal 0.707107 -0.707107 0
    outer loop
      vertex -3.23607 2.35114 -4
      vertex -2.35114 3.23607 -4
      vertex -3.23607 2.35114 4
    endloop
  endfacet
  facet normal 0.45399 -0.891007 0
    outer loop
      vertex -1.23607 3.80423 -4
      vertex -1.23607 3.80423 4
      vertex -2.35114 3.23607 4
    endloop
  endfacet
  facet normal 0.45399 -0.891007 0
    outer loop
      vertex -2.35114 3.23607 -4
      vertex -1.23607 3.80423 -4
      vertex -2.35114 3.23607 4
    endloop
  endfacet
  facet normal 0.156435 -0.987688 0
    outer loop
      vertex 0 4 -4
      vertex 0 4 4
      vertex -1.23607 3.80423 4
    endloop
  endfacet
  facet normal 0.156435 -0.987688 0
    outer loop
      vertex -1.23607 3.80423 -4
      vertex 0 4 -4
      vertex -1.23607 3.80423 4
    endloop
  endfacet
  facet normal -0.156435 -0.987688 -0
    outer loop
      vertex 1.23607 3.80423 -4
      vertex 1.23607 3.80423 4
      vertex 0 4 4
    endloop
  endfacet
  facet normal -0.156435 -0.987688 -0
    outer loop
      vertex 0 4 -4
      vertex 1.23607 3.80423 -4
      vertex 0 4 4
    endloop
  endfacet
  facet normal -0.45399 -0.891007 -0
    outer loop
      vertex 2.35114 3.23607 -4
      vertex 2.35114 3.23607 4
      vertex 1.23607 3.80423 4
    endloop
  endfacet
  facet normal -0.45399 -0.891007 -0
    outer loop
      vertex 1.23607 3.80423 -4
      vertex 2.35114 3.23607 -4
      vertex 1.23607 3.80423 4
    endloop
  endfacet
  facet normal -0.707107 -0.707107 -0
    outer loop
      vertex 3.23607 2.35114 -4
      vertex 3.23607 2.35114 4
      vertex 2.35114 3.23607 4
    endloop
  endfacet
  facet normal -0.707107 -0.707107 -0
    outer loop
      vertex 2.35114 3.23607 -4
      vertex 3.23607 2.35114 -4
      vertex 2.35114 3.23607 4
    endloop
  endfacet
  facet normal -0.891007 -0.45399 0
    outer loop
      vertex 3.80423 1.23607 4
      vertex 3.23607 2.35114 4
      vertex 3.80423 1.23607 -4
    endloop
  endfacet
  facet normal -0.891007 -0.45399 0
    outer loop
      vertex 3.80423 1.23607 -4
      vertex 3.23607 2.35114 4
      vertex 3.23607 2.35114 -4
    endloop
  endfacet
  facet normal -0.987688 -0.156435 0
    outer loop
      vertex 4 0 4
      vertex 3.80423 1.23607 4
      vertex 4 0 -4
    endloop
  endfacet
  facet normal -0.987688 -0.156435 0
    outer loop
      vertex 4 0 -4
      vertex 3.80423 1.23607 4
      vertex 3.80423 1.23607 -4
    endloop
  endfacet
  facet normal -0.987688 0.156435 0
    outer loop
      vertex 4 0 4
      vertex 4 0 -4
      vertex 3.80423 -1.23607 4
    endloop
  endfacet
  facet normal -0.987688 0.156435 0
    outer loop
      vertex 3.80423 -1.23607 4
      vertex 4 0 -4
      vertex 3.80423 -1.23607 -4
    endloop
  endfacet
  facet normal -0.891007 0.45399 0
    outer loop
      vertex 3.80423 -1.23607 4
      vertex 3.80423 -1.23607 -4
      vertex 3.23607 -2.35114 4
    endloop
  endfacet
  facet normal -0.891007 0.45399 0
    outer loop
      vertex 3.23607 -2.35114 4
      vertex 3.80423 -1.23607 -4
      vertex 3.23607 -2.35114 -4
    endloop
  endfacet
  facet normal -0.707107 0.707107 0
    outer loop
      vertex 3.23607 -2.35114 4
      vertex 3.23607 -2.35114 -4
      vertex 2.35114 -3.23607 4
    endloop
  endfacet
  facet normal -0.707107 0.707107 0
    outer loop
      vertex 2.35114 -3.23607 4
      vertex 3.23607 -2.35114 -4
      vertex 2.35114 -3.23607 -4
    endloop
  endfacet
  facet normal -0.45399 0.891007 0
    outer loop
      vertex 2.35114 -3.23607 4
      vertex 2.35114 -3.23607 -4
      vertex 1.23607 -3.80423 4
    endloop
  endfacet
  facet normal -0.45399 0.891007 0
    outer loop
      vertex 1.23607 -3.80423 4
      vertex 2.35114 -3.23607 -4
      vertex 1.23607 -3.80423 -4
    endloop
  endfacet
  facet normal -0.156435 0.987688 0
    outer loop
      vertex 1.23607 -3.80423 4
      vertex 1.23607 -3.80423 -4
      vertex 0 -4 4
    endloop
  endfacet
  facet normal -0.156435 0.987688 0
    outer loop
      vertex 0 -4 4
      vertex 1.23607 -3.80423 -4
      vertex 0 -4 -4
    endloop
  endfacet
  facet normal 0.156435 0.987688 -0
    outer loop
      vertex 0 -4 4
      vertex 0 -4 -4
      vertex -1.23607 -3.80423 4
    endloop
  endfacet
  facet normal 0.156435 0.987688 -0
    outer loop
      vertex -1.23607 -3.80423 4
      vertex 0 -4 -4
      vertex -1.23607 -3.80423 -4
    endloop
  endfacet
  facet normal 0.45399 0.891007 -0
    outer loop
      vertex -1.23607 -3.80423 4
      vertex -1.23607 -3.80423 -4
      vertex -2.35114 -3.23607 4
    endloop
  endfacet
  facet normal 0.45399 0.891007 -0
    outer loop
      vertex -2.35114 -3.23607 4
      vertex -1.23607 -3.80423 -4
      vertex -2.35114 -3.23607 -4
    endloop
  endfacet
  facet normal 0.707107 0.707107 -0
    outer loop
      vertex -2.35114 -3.23607 4
      vertex -2.35114 -3.23607 -4
      vertex -3.23607 -2.35114 4
    endloop
  endfacet
  facet normal 0.707107 0.707107 -0
    outer loop
      vertex -3.23607 -2.35114 4
      vertex -2.35114 -3.23607 -4
      vertex -3.23607 -2.35114 -4
    endloop
  endfacet
  facet normal 0.891007 0.45399 0
    outer loop
      vertex -3.80423 -1.23607 4
      vertex -3.23607 -2.35114 4
      vertex -3.23607 -2.35114 -4
    endloop
  endfacet
  facet normal 0.891007 0.45399 0
    outer loop
      vertex -3.80423 -1.23607 -4
      vertex -3.80423 -1.23607 4
      vertex -3.23607 -2.35114 -4
    endloop
  endfacet
  facet normal 0 0 1
    outer loop
      vertex -10.7596 2.28703 4
      vertex -11 0 4
      vertex -10.7596 -2.28703 4
    endloop
  endfacet
  facet normal 0 0 1
    outer loop
      vertex -8.89919 -6.46564 4
      vertex -10.7596 2.28703 4
      vertex -10.049 -4.4741 4
    endloop
  endfacet
  facet normal 0 0 1
    outer loop
      vertex -10.049 -4.4741 4
      vertex -10.7596 2.28703 4
      vertex -10.7596 -2.28703 4
    endloop
  endfacet
  facet normal 0 0 1
    outer loop
      vertex -7.36044 -8.17459 4
      vertex -10.7596 2.28703 4
      vertex -8.89919 -6.46564 4
    endloop
  endfacet
  facet normal 0 0 1
    outer loop
      vertex -5.5 -9.52628 4
      vertex -10.7596 2.28703 4
      vertex -7.36044 -8.17459 4
    endloop
  endfacet
  facet normal 0 0 1
    outer loop
      vertex -3.39919 -10.4616 4
      vertex -10.7596 2.28703 4
      vertex -5.5 -9.52628 4
    endloop
  endfacet
  facet normal 0 0 1
    outer loop
      vertex -1.14981 -10.9397 4
      vertex -10.7596 2.28703 4
      vertex -3.39919 -10.4616 4
    endloop
  endfacet
  facet normal -0 0 1
    outer loop
      vertex 1.14981 -10.9397 4
      vertex -10.7596 2.28703 4
      vertex -1.14981 -10.9397 4
    endloop
  endfacet
  facet normal -0 0 1
    outer loop
      vertex 3.39919 -10.4616 4
      vertex -10.7596 2.28703 4
      vertex 1.14981 -10.9397 4
    endloop
  endfacet
  facet normal -0 0 1
    outer loop
      vertex 5.5 -9.52628 4
      vertex -10.7596 2.28703 4
      vertex 3.39919 -10.4616 4
    endloop
  endfacet
  facet normal -0 -0 1
    outer loop
      vertex -2.35114 -3.23607 4
      vertex -10.7596 2.28703 4
      vertex 5.5 -9.52628 4
    endloop
  endfacet
  facet normal 0 -0 1
    outer loop
      vertex 1.23607 -3.80423 4
      vertex 0 -4 4
      vertex 7.36044 -8.17459 4
    endloop
  endfacet
  facet normal 0 -0 1
    outer loop
      vertex 4 0 4
      vertex 3.80423 -1.23607 4
      vertex 10.7596 -2.28703 4
    endloop
  endfacet
  facet normal 0 0 1
    outer loop
      vertex 1.23607 3.80423 4
      vertex 2.35114 3.23607 4
      vertex 10.049 4.4741 4
    endloop
  endfacet
  facet normal 0 0 1
    outer loop
      vertex 3.23607 2.35114 4
      vertex 3.80423 1.23607 4
      vertex 10.7596 2.28703 4
    endloop
  endfacet
  facet normal 0 -0 1
    outer loop
      vertex 7.36044 8.17459 4
      vertex -10.7596 2.28703 4
      vertex 8.89919 6.46564 4
    endloop
  endfacet
  facet normal 0 -0 1
    outer loop
      vertex 5.5 9.52628 4
      vertex -10.7596 2.28703 4
      vertex 7.36044 8.17459 4
    endloop
  endfacet
  facet normal 0 -0 1
    outer loop
      vertex 3.39919 10.4616 4
      vertex -10.7596 2.28703 4
      vertex 5.5 9.52628 4
    endloop
  endfacet
  facet normal 0 -0 1
    outer loop
      vertex 1.14981 10.9397 4
      vertex -10.7596 2.28703 4
      vertex 3.39919 10.4616 4
    endloop
  endfacet
  facet normal 0 -0 1
    outer loop
      vertex -1.14981 10.9397 4
      vertex -10.7596 2.28703 4
      vertex 1.14981 10.9397 4
    endloop
  endfacet
  facet normal 0 -0 1
    outer loop
      vertex -3.39919 10.4616 4
      vertex -10.7596 2.28703 4
      vertex -1.14981 10.9397 4
    endloop
  endfacet
  facet normal 0 -0 1
    outer loop
      vertex -5.5 9.52628 4
      vertex -10.7596 2.28703 4
      vertex -3.39919 10.4616 4
    endloop
  endfacet
  facet normal 0 -0 1
    outer loop
      vertex -7.36044 8.17459 4
      vertex -10.7596 2.28703 4
      vertex -5.5 9.52628 4
    endloop
  endfacet
  facet normal 0 -0 1
    outer loop
      vertex -8.89919 6.46564 4
      vertex -10.7596 2.28703 4
      vertex -7.36044 8.17459 4
    endloop
  endfacet
  facet normal 0 -0 1
    outer loop
      vertex -10.049 4.4741 4
      vertex -10.7596 2.28703 4
      vertex -8.89919 6.46564 4
    endloop
  endfacet
  facet normal 0 0 1
    outer loop
      vertex -2.35114 -3.23607 4
      vertex -3.23607 -2.35114 4
      vertex -10.7596 2.28703 4
    endloop
  endfacet
  facet normal 0 -0 1
    outer loop
      vertex 3.23607 -2.35114 4
      vertex 2.35114 -3.23607 4
      vertex 8.89919 -6.46564 4
    endloop
  endfacet
  facet normal 0 -0 1
    outer loop
      vertex 2.35114 -3.23607 4
      vertex 1.23607 -3.80423 4
      vertex 8.89919 -6.46564 4
    endloop
  endfacet
  facet normal 0 0 1
    outer loop
      vertex -3.80423 1.23607 4
      vertex -3.23607 2.35114 4
      vertex -10.7596 2.28703 4
    endloop
  endfacet
  facet normal 0 0 1
    outer loop
      vertex 0 4 4
      vertex 1.23607 3.80423 4
      vertex 8.89919 6.46564 4
    endloop
  endfacet
  facet normal 0 0 1
    outer loop
      vertex 3.80423 1.23607 4
      vertex 4 0 4
      vertex 11 0 4
    endloop
  endfacet
  facet normal 0 0 1
    outer loop
      vertex -1.23607 3.80423 4
      vertex -10.7596 2.28703 4
      vertex -2.35114 3.23607 4
    endloop
  endfacet
  facet normal 0 0 1
    outer loop
      vertex 8.89919 6.46564 4
      vertex -10.7596 2.28703 4
      vertex -1.23607 3.80423 4
    endloop
  endfacet
  facet normal 0 0 1
    outer loop
      vertex 8.89919 6.46564 4
      vertex -1.23607 3.80423 4
      vertex 0 4 4
    endloop
  endfacet
  facet normal 0 -0 1
    outer loop
      vertex 8.89919 6.46564 4
      vertex 1.23607 3.80423 4
      vertex 10.049 4.4741 4
    endloop
  endfacet
  facet normal 0 -0 1
    outer loop
      vertex 10.049 4.4741 4
      vertex 2.35114 3.23607 4
      vertex 10.7596 2.28703 4
    endloop
  endfacet
  facet normal 0 0 1
    outer loop
      vertex 2.35114 3.23607 4
      vertex 3.23607 2.35114 4
      vertex 10.7596 2.28703 4
    endloop
  endfacet
  facet normal 0 -0 1
    outer loop
      vertex 10.7596 2.28703 4
      vertex 3.80423 1.23607 4
      vertex 11 0 4
    endloop
  endfacet
  facet normal -0 0 1
    outer loop
      vertex -3.23607 2.35114 4
      vertex -2.35114 3.23607 4
      vertex -10.7596 2.28703 4
    endloop
  endfacet
  facet normal 0 0 1
    outer loop
      vertex 11 0 4
      vertex 4 0 4
      vertex 10.7596 -2.28703 4
    endloop
  endfacet
  facet normal -0 0 1
    outer loop
      vertex 10.7596 -2.28703 4
      vertex 3.80423 -1.23607 4
      vertex 10.049 -4.4741 4
    endloop
  endfacet
  facet normal 0 -0 1
    outer loop
      vertex 3.80423 -1.23607 4
      vertex 3.23607 -2.35114 4
      vertex 10.049 -4.4741 4
    endloop
  endfacet
  facet normal -0 0 1
    outer loop
      vertex 10.049 -4.4741 4
      vertex 3.23607 -2.35114 4
      vertex 8.89919 -6.46564 4
    endloop
  endfacet
  facet normal -0 0 1
    outer loop
      vertex 8.89919 -6.46564 4
      vertex 1.23607 -3.80423 4
      vertex 7.36044 -8.17459 4
    endloop
  endfacet
  facet normal -0 0 1
    outer loop
      vertex 7.36044 -8.17459 4
      vertex 0 -4 4
      vertex 5.5 -9.52628 4
    endloop
  endfacet
  facet normal -0 -0 1
    outer loop
      vertex 0 -4 4
      vertex -1.23607 -3.80423 4
      vertex 5.5 -9.52628 4
    endloop
  endfacet
  facet normal -0 -0 1
    outer loop
      vertex -1.23607 -3.80423 4
      vertex -2.35114 -3.23607 4
      vertex 5.5 -9.52628 4
    endloop
  endfacet
  facet normal 0 0 1
    outer loop
      vertex -3.80423 -1.23607 4
      vertex -4 0 4
      vertex -10.7596 2.28703 4
    endloop
  endfacet
  facet normal 0 0 1
    outer loop
      vertex -3.23607 -2.35114 4
      vertex -3.80423 -1.23607 4
      vertex -10.7596 2.28703 4
    endloop
  endfacet
  facet normal 0 0 1
    outer loop
      vertex -4 0 4
      vertex -3.80423 1.23607 4
      vertex -10.7596 2.28703 4
    endloop
  endfacet
endsolid OpenSCAD_Model
