solid OpenSCAD_Model
  facet normal -0 0 -1
    outer loop
      vertex -1.61803 1.17557 -0.75
      vertex -1.17557 1.61803 -0.75
      vertex -1.90211 0.618034 -0.75
    endloop
  endfacet
  facet normal 0 0 -1
    outer loop
      vertex -1.90211 0.618034 -0.75
      vertex -1.17557 1.61803 -0.75
      vertex -0.618034 1.90211 -0.75
    endloop
  endfacet
  facet normal 0 0 -1
    outer loop
      vertex -1.90211 0.618034 -0.75
      vertex -0.618034 1.90211 -0.75
      vertex 0 2 -0.75
    endloop
  endfacet
  facet normal 0 0 -1
    outer loop
      vertex -1.90211 0.618034 -0.75
      vertex 0 2 -0.75
      vertex 0.618034 1.90211 -0.75
    endloop
  endfacet
  facet normal 0 0 -1
    outer loop
      vertex -1.90211 0.618034 -0.75
      vertex 0.618034 1.90211 -0.75
      vertex 1.17557 1.61803 -0.75
    endloop
  endfacet
  facet normal 0 0 -1
    outer loop
      vertex 0 1 -0.75
      vertex 1.17557 1.61803 -0.75
      vertex 1.61803 1.17557 -0.75
    endloop
  endfacet
  facet normal -0 0 -1
    outer loop
      vertex 0.587785 0.809017 -0.75
      vertex 1.61803 1.17557 -0.75
      vertex 1.90211 0.618034 -0.75
    endloop
  endfacet
  facet normal -0 0 -1
    outer loop
      vertex 0.951057 0.309017 -0.75
      vertex 1.90211 0.618034 -0.75
      vertex 2 0 -0.75
    endloop
  endfacet
  facet normal -0 0 -1
    outer loop
      vertex 0.951057 -0.309017 -0.75
      vertex 2 0 -0.75
      vertex 1.90211 -0.618034 -0.75
    endloop
  endfacet
  facet normal 0 0 -1
    outer loop
      vertex 0.809017 -0.587785 -0.75
      vertex 1.90211 -0.618034 -0.75
      vertex 1.61803 -1.17557 -0.75
    endloop
  endfacet
  facet normal 0 0 -1
    outer loop
      vertex 0.309017 -0.951057 -0.75
      vertex 1.61803 -1.17557 -0.75
      vertex 1.17557 -1.61803 -0.75
    endloop
  endfacet
  facet normal 0 0 -1
    outer loop
      vertex -0.309017 -0.951057 -0.75
      vertex 1.17557 -1.61803 -0.75
      vertex 0.618034 -1.90211 -0.75
    endloop
  endfacet
  facet normal 0 0 -1
    outer loop
      vertex -0.587785 -0.809017 -0.75
      vertex 0.618034 -1.90211 -0.75
      vertex 0 -2 -0.75
    endloop
  endfacet
  facet normal 0 0 -1
    outer loop
      vertex -1.90211 0.618034 -0.75
      vertex 0 -2 -0.75
      vertex -0.618034 -1.90211 -0.75
    endloop
  endfacet
  facet normal 0 0 -1
    outer loop
      vertex -1.90211 0.618034 -0.75
      vertex -0.618034 -1.90211 -0.75
      vertex -1.17557 -1.61803 -0.75
    endloop
  endfacet
  facet normal 0 0 -1
    outer loop
      vertex -1.90211 0.618034 -0.75
      vertex -1.17557 -1.61803 -0.75
      vertex -1.61803 -1.17557 -0.75
    endloop
  endfacet
  facet normal 0 0 -1
    outer loop
      vertex -1.90211 0.618034 -0.75
      vertex -1.61803 -1.17557 -0.75
      vertex -1.90211 -0.618034 -0.75
    endloop
  endfacet
  facet normal 0 0 -1
    outer loop
      vertex -1.90211 0.618034 -0.75
      vertex -1.90211 -0.618034 -0.75
      vertex -2 0 -0.75
    endloop
  endfacet
  facet normal 0 0 -1
    outer loop
      vertex -0.809017 -0.587785 -0.75
      vertex -1.90211 0.618034 -0.75
      vertex -0.951057 -0.309017 -0.75
    endloop
  endfacet
  facet normal 0 0 -1
    outer loop
      vertex -0.309017 -0.951057 -0.75
      vertex 0.618034 -1.90211 -0.75
      vertex -0.587785 -0.809017 -0.75
    endloop
  endfacet
  facet normal 0 0 -1
    outer loop
      vertex -1.90211 0.618034 -0.75
      vertex -0.809017 -0.587785 -0.75
      vertex 0 -2 -0.75
    endloop
  endfacet
  facet normal 0 0 -1
    outer loop
      vertex -0.809017 -0.587785 -0.75
      vertex -0.587785 -0.809017 -0.75
      vertex 0 -2 -0.75
    endloop
  endfacet
  facet normal 0 0 -1
    outer loop
      vertex 0 -1 -0.75
      vertex 1.17557 -1.61803 -0.75
      vertex -0.309017 -0.951057 -0.75
    endloop
  endfacet
  facet normal 0 0 -1
    outer loop
      vertex 0.309017 -0.951057 -0.75
      vertex 1.17557 -1.61803 -0.75
      vertex 0 -1 -0.75
    endloop
  endfacet
  facet normal 0 0 -1
    outer loop
      vertex 0.587785 -0.809017 -0.75
      vertex 1.61803 -1.17557 -0.75
      vertex 0.309017 -0.951057 -0.75
    endloop
  endfacet
  facet normal 0 -0 -1
    outer loop
      vertex -1 0 -0.75
      vertex -1.90211 0.618034 -0.75
      vertex -0.951057 0.309017 -0.75
    endloop
  endfacet
  facet normal 0 0 -1
    outer loop
      vertex 0.951057 -0.309017 -0.75
      vertex 1.90211 -0.618034 -0.75
      vertex 0.809017 -0.587785 -0.75
    endloop
  endfacet
  facet normal 0 0 -1
    outer loop
      vertex 1 0 -0.75
      vertex 2 0 -0.75
      vertex 0.951057 -0.309017 -0.75
    endloop
  endfacet
  facet normal 0 0 -1
    outer loop
      vertex 0.951057 0.309017 -0.75
      vertex 2 0 -0.75
      vertex 1 0 -0.75
    endloop
  endfacet
  facet normal -0 0 -1
    outer loop
      vertex 0.809017 0.587785 -0.75
      vertex 1.90211 0.618034 -0.75
      vertex 0.951057 0.309017 -0.75
    endloop
  endfacet
  facet normal 0 0 -1
    outer loop
      vertex 0.587785 0.809017 -0.75
      vertex 1.90211 0.618034 -0.75
      vertex 0.809017 0.587785 -0.75
    endloop
  endfacet
  facet normal -0 0 -1
    outer loop
      vertex 0.309017 0.951057 -0.75
      vertex 1.61803 1.17557 -0.75
      vertex 0.587785 0.809017 -0.75
    endloop
  endfacet
  facet normal -0 0 -1
    outer loop
      vertex 0 1 -0.75
      vertex 1.61803 1.17557 -0.75
      vertex 0.309017 0.951057 -0.75
    endloop
  endfacet
  facet normal 0 0 -1
    outer loop
      vertex -0.309017 0.951057 -0.75
      vertex 1.17557 1.61803 -0.75
      vertex 0 1 -0.75
    endloop
  endfacet
  facet normal 0 -0 -1
    outer loop
      vertex -0.587785 0.809017 -0.75
      vertex -1.90211 0.618034 -0.75
      vertex -0.309017 0.951057 -0.75
    endloop
  endfacet
  facet normal 0 0 -1
    outer loop
      vertex -1.90211 0.618034 -0.75
      vertex 1.17557 1.61803 -0.75
      vertex -0.309017 0.951057 -0.75
    endloop
  endfacet
  facet normal 0 -0 -1
    outer loop
      vertex -0.809017 0.587785 -0.75
      vertex -1.90211 0.618034 -0.75
      vertex -0.587785 0.809017 -0.75
    endloop
  endfacet
  facet normal 0 -0 -1
    outer loop
      vertex -0.951057 0.309017 -0.75
      vertex -1.90211 0.618034 -0.75
      vertex -0.809017 0.587785 -0.75
    endloop
  endfacet
  facet normal 0 0 -1
    outer loop
      vertex -0.951057 -0.309017 -0.75
      vertex -1.90211 0.618034 -0.75
      vertex -1 0 -0.75
    endloop
  endfacet
  facet normal 0 0 -1
    outer loop
      vertex 0.809017 -0.587785 -0.75
      vertex 1.61803 -1.17557 -0.75
      vertex 0.587785 -0.809017 -0.75
    endloop
  endfacet
  facet normal -0.987688 0.156435 0
    outer loop
      vertex -2 0 -0.75
      vertex -2 0 0
      vertex -1.90211 0.618034 -0.75
    endloop
  endfacet
  facet normal -0.987688 0.156435 2.51634e-16
    outer loop
      vertex -1.90211 0.618034 -0.75
      vertex -2 0 0
      vertex -1.92081 0.5 0
    endloop
  endfacet
  facet normal -0.987688 0.156435 0
    outer loop
      vertex -1.90211 0.618034 -0.75
      vertex -1.92081 0.5 0
      vertex -1.92081 0.5 0.75
    endloop
  endfacet
  facet normal -0.987688 0.156435 0
    outer loop
      vertex -1.90211 0.618034 -0.75
      vertex -1.92081 0.5 0.75
      vertex -1.90211 0.618034 0.75
    endloop
  endfacet
  facet normal -0.987688 -0.156435 -0
    outer loop
      vertex -2 0 -0.75
      vertex -1.90211 -0.618034 -0.75
      vertex -2 0 0
    endloop
  endfacet
  facet normal -0.987688 -0.156435 0
    outer loop
      vertex -1.92081 -0.5 0
      vertex -1.90211 -0.618034 -0.75
      vertex -1.90211 -0.618034 0.75
    endloop
  endfacet
  facet normal -0.987688 -0.156435 2.61231e-16
    outer loop
      vertex -2 0 0
      vertex -1.90211 -0.618034 -0.75
      vertex -1.92081 -0.5 0
    endloop
  endfacet
  facet normal -0.987688 -0.156435 -0
    outer loop
      vertex -1.92081 -0.5 0
      vertex -1.90211 -0.618034 0.75
      vertex -1.92081 -0.5 0.75
    endloop
  endfacet
  facet normal -0.891007 0.45399 0
    outer loop
      vertex -1.90211 0.618034 -0.75
      vertex -1.90211 0.618034 0.75
      vertex -1.61803 1.17557 -0.75
    endloop
  endfacet
  facet normal -0.891007 0.45399 0
    outer loop
      vertex -1.61803 1.17557 -0.75
      vertex -1.90211 0.618034 0.75
      vertex -1.61803 1.17557 0.75
    endloop
  endfacet
  facet normal -0.891007 -0.45399 -0
    outer loop
      vertex -1.90211 -0.618034 -0.75
      vertex -1.61803 -1.17557 -0.75
      vertex -1.90211 -0.618034 0.75
    endloop
  endfacet
  facet normal -0.891007 -0.45399 0
    outer loop
      vertex -1.90211 -0.618034 0.75
      vertex -1.61803 -1.17557 -0.75
      vertex -1.61803 -1.17557 0.75
    endloop
  endfacet
  facet normal -0.707107 -0.707107 0
    outer loop
      vertex -1.61803 -1.17557 0.75
      vertex -1.61803 -1.17557 -0.75
      vertex -1.17557 -1.61803 -0.75
    endloop
  endfacet
  facet normal -0.707107 -0.707107 0
    outer loop
      vertex -1.17557 -1.61803 0.75
      vertex -1.61803 -1.17557 0.75
      vertex -1.17557 -1.61803 -0.75
    endloop
  endfacet
  facet normal -0.45399 -0.891007 0
    outer loop
      vertex -1.17557 -1.61803 0.75
      vertex -1.17557 -1.61803 -0.75
      vertex -0.618034 -1.90211 -0.75
    endloop
  endfacet
  facet normal -0.45399 -0.891007 0
    outer loop
      vertex -0.618034 -1.90211 0.75
      vertex -1.17557 -1.61803 0.75
      vertex -0.618034 -1.90211 -0.75
    endloop
  endfacet
  facet normal -0.156435 -0.987688 0
    outer loop
      vertex -0.618034 -1.90211 0.75
      vertex -0.618034 -1.90211 -0.75
      vertex 0 -2 -0.75
    endloop
  endfacet
  facet normal -0.156435 -0.987688 0
    outer loop
      vertex 0 -2 0.75
      vertex -0.618034 -1.90211 0.75
      vertex 0 -2 -0.75
    endloop
  endfacet
  facet normal 0.156435 -0.987688 0
    outer loop
      vertex 0 -2 0.75
      vertex 0 -2 -0.75
      vertex 0.618034 -1.90211 -0.75
    endloop
  endfacet
  facet normal 0.156435 -0.987688 0
    outer loop
      vertex 0.618034 -1.90211 0.75
      vertex 0 -2 0.75
      vertex 0.618034 -1.90211 -0.75
    endloop
  endfacet
  facet normal 0.45399 -0.891007 0
    outer loop
      vertex 0.618034 -1.90211 0.75
      vertex 0.618034 -1.90211 -0.75
      vertex 1.17557 -1.61803 -0.75
    endloop
  endfacet
  facet normal 0.45399 -0.891007 0
    outer loop
      vertex 1.17557 -1.61803 0.75
      vertex 0.618034 -1.90211 0.75
      vertex 1.17557 -1.61803 -0.75
    endloop
  endfacet
  facet normal 0.707107 -0.707107 0
    outer loop
      vertex 1.17557 -1.61803 0.75
      vertex 1.17557 -1.61803 -0.75
      vertex 1.61803 -1.17557 -0.75
    endloop
  endfacet
  facet normal 0.707107 -0.707107 0
    outer loop
      vertex 1.61803 -1.17557 0.75
      vertex 1.17557 -1.61803 0.75
      vertex 1.61803 -1.17557 -0.75
    endloop
  endfacet
  facet normal 0.891007 -0.45399 0
    outer loop
      vertex 1.61803 -1.17557 0.75
      vertex 1.61803 -1.17557 -0.75
      vertex 1.90211 -0.618034 -0.75
    endloop
  endfacet
  facet normal 0.891007 -0.45399 0
    outer loop
      vertex 1.90211 -0.618034 0.75
      vertex 1.61803 -1.17557 0.75
      vertex 1.90211 -0.618034 -0.75
    endloop
  endfacet
  facet normal 0.987688 -0.156435 2.05058e-16
    outer loop
      vertex 1.92081 -0.5 0
      vertex 1.90211 -0.618034 -0.75
      vertex 2 0 -0.75
    endloop
  endfacet
  facet normal 0.987688 -0.156435 0
    outer loop
      vertex 1.92081 -0.5 0
      vertex 1.92081 -0.5 0.75
      vertex 1.90211 -0.618034 0.75
    endloop
  endfacet
  facet normal 0.987688 -0.156435 0
    outer loop
      vertex 1.90211 -0.618034 0.75
      vertex 1.90211 -0.618034 -0.75
      vertex 1.92081 -0.5 0
    endloop
  endfacet
  facet normal 0.987688 -0.156435 0
    outer loop
      vertex 2 0 0
      vertex 1.92081 -0.5 0
      vertex 2 0 -0.75
    endloop
  endfacet
  facet normal 0.987688 0.156435 0
    outer loop
      vertex 1.92081 0.5 0
      vertex 1.90211 0.618034 -0.75
      vertex 1.90211 0.618034 0.75
    endloop
  endfacet
  facet normal 0.987688 0.156435 0
    outer loop
      vertex 1.92081 0.5 0
      vertex 2 0 0
      vertex 2 0 -0.75
    endloop
  endfacet
  facet normal 0.987688 0.156435 2.11341e-16
    outer loop
      vertex 2 0 -0.75
      vertex 1.90211 0.618034 -0.75
      vertex 1.92081 0.5 0
    endloop
  endfacet
  facet normal 0.987688 0.156435 -0
    outer loop
      vertex 1.92081 0.5 0.75
      vertex 1.92081 0.5 0
      vertex 1.90211 0.618034 0.75
    endloop
  endfacet
  facet normal 0.891007 0.45399 0
    outer loop
      vertex 1.90211 0.618034 -0.75
      vertex 1.61803 1.17557 -0.75
      vertex 1.61803 1.17557 0.75
    endloop
  endfacet
  facet normal 0.891007 0.45399 -0
    outer loop
      vertex 1.90211 0.618034 0.75
      vertex 1.90211 0.618034 -0.75
      vertex 1.61803 1.17557 0.75
    endloop
  endfacet
  facet normal 0.707107 0.707107 0
    outer loop
      vertex 1.17557 1.61803 -0.75
      vertex 1.17557 1.61803 0.75
      vertex 1.61803 1.17557 -0.75
    endloop
  endfacet
  facet normal 0.707107 0.707107 0
    outer loop
      vertex 1.61803 1.17557 -0.75
      vertex 1.17557 1.61803 0.75
      vertex 1.61803 1.17557 0.75
    endloop
  endfacet
  facet normal 0.45399 0.891007 0
    outer loop
      vertex 0.618034 1.90211 -0.75
      vertex 0.618034 1.90211 0.75
      vertex 1.17557 1.61803 -0.75
    endloop
  endfacet
  facet normal 0.45399 0.891007 0
    outer loop
      vertex 1.17557 1.61803 -0.75
      vertex 0.618034 1.90211 0.75
      vertex 1.17557 1.61803 0.75
    endloop
  endfacet
  facet normal 0.156435 0.987688 0
    outer loop
      vertex 0 2 -0.75
      vertex 0 2 0.75
      vertex 0.618034 1.90211 -0.75
    endloop
  endfacet
  facet normal 0.156435 0.987688 0
    outer loop
      vertex 0.618034 1.90211 -0.75
      vertex 0 2 0.75
      vertex 0.618034 1.90211 0.75
    endloop
  endfacet
  facet normal -0.156435 0.987688 0
    outer loop
      vertex -0.618034 1.90211 -0.75
      vertex -0.618034 1.90211 0.75
      vertex 0 2 -0.75
    endloop
  endfacet
  facet normal -0.156435 0.987688 0
    outer loop
      vertex 0 2 -0.75
      vertex -0.618034 1.90211 0.75
      vertex 0 2 0.75
    endloop
  endfacet
  facet normal -0.45399 0.891007 0
    outer loop
      vertex -1.17557 1.61803 -0.75
      vertex -1.17557 1.61803 0.75
      vertex -0.618034 1.90211 -0.75
    endloop
  endfacet
  facet normal -0.45399 0.891007 0
    outer loop
      vertex -0.618034 1.90211 -0.75
      vertex -1.17557 1.61803 0.75
      vertex -0.618034 1.90211 0.75
    endloop
  endfacet
  facet normal -0.707107 0.707107 0
    outer loop
      vertex -1.61803 1.17557 -0.75
      vertex -1.61803 1.17557 0.75
      vertex -1.17557 1.61803 -0.75
    endloop
  endfacet
  facet normal -0.707107 0.707107 0
    outer loop
      vertex -1.17557 1.61803 -0.75
      vertex -1.61803 1.17557 0.75
      vertex -1.17557 1.61803 0.75
    endloop
  endfacet
  facet normal -0.891006 -0.453992 -0
    outer loop
      vertex -0.951057 -0.309017 -6.75
      vertex -0.809017 -0.587785 -6.75
      vertex -0.951057 -0.309017 -0.75
    endloop
  endfacet
  facet normal -0.891006 -0.453992 0
    outer loop
      vertex -0.951057 -0.309017 -0.75
      vertex -0.809017 -0.587785 -6.75
      vertex -0.809017 -0.587785 -0.75
    endloop
  endfacet
  facet normal -0.987689 -0.156433 -0
    outer loop
      vertex -1 0 -6.75
      vertex -0.951057 -0.309017 -6.75
      vertex -1 0 -0.75
    endloop
  endfacet
  facet normal -0.987689 -0.156433 0
    outer loop
      vertex -1 0 -0.75
      vertex -0.951057 -0.309017 -6.75
      vertex -0.951057 -0.309017 -0.75
    endloop
  endfacet
  facet normal -0.987689 0.156433 0
    outer loop
      vertex -1 0 -6.75
      vertex -1 0 -0.75
      vertex -0.951057 0.309017 -6.75
    endloop
  endfacet
  facet normal -0.987689 0.156433 0
    outer loop
      vertex -0.951057 0.309017 -6.75
      vertex -1 0 -0.75
      vertex -0.951057 0.309017 -0.75
    endloop
  endfacet
  facet normal -0.891006 0.453992 0
    outer loop
      vertex -0.951057 0.309017 -6.75
      vertex -0.951057 0.309017 -0.75
      vertex -0.809017 0.587785 -6.75
    endloop
  endfacet
  facet normal -0.891006 0.453992 0
    outer loop
      vertex -0.809017 0.587785 -6.75
      vertex -0.951057 0.309017 -0.75
      vertex -0.809017 0.587785 -0.75
    endloop
  endfacet
  facet normal -0.707107 0.707107 0
    outer loop
      vertex -0.809017 0.587785 -6.75
      vertex -0.809017 0.587785 -0.75
      vertex -0.587785 0.809017 -6.75
    endloop
  endfacet
  facet normal -0.707107 0.707107 0
    outer loop
      vertex -0.587785 0.809017 -6.75
      vertex -0.809017 0.587785 -0.75
      vertex -0.587785 0.809017 -0.75
    endloop
  endfacet
  facet normal -0.453992 0.891006 0
    outer loop
      vertex -0.587785 0.809017 -6.75
      vertex -0.587785 0.809017 -0.75
      vertex -0.309017 0.951057 -6.75
    endloop
  endfacet
  facet normal -0.453992 0.891006 0
    outer loop
      vertex -0.309017 0.951057 -6.75
      vertex -0.587785 0.809017 -0.75
      vertex -0.309017 0.951057 -0.75
    endloop
  endfacet
  facet normal -0.156433 0.987689 0
    outer loop
      vertex -0.309017 0.951057 -6.75
      vertex -0.309017 0.951057 -0.75
      vertex 0 1 -6.75
    endloop
  endfacet
  facet normal -0.156433 0.987689 0
    outer loop
      vertex 0 1 -6.75
      vertex -0.309017 0.951057 -0.75
      vertex 0 1 -0.75
    endloop
  endfacet
  facet normal 0.156433 0.987689 0
    outer loop
      vertex 0 1 -6.75
      vertex 0 1 -0.75
      vertex 0.309017 0.951057 -6.75
    endloop
  endfacet
  facet normal 0.156433 0.987689 0
    outer loop
      vertex 0.309017 0.951057 -6.75
      vertex 0 1 -0.75
      vertex 0.309017 0.951057 -0.75
    endloop
  endfacet
  facet normal 0.453992 0.891006 0
    outer loop
      vertex 0.309017 0.951057 -6.75
      vertex 0.309017 0.951057 -0.75
      vertex 0.587785 0.809017 -6.75
    endloop
  endfacet
  facet normal 0.453992 0.891006 0
    outer loop
      vertex 0.587785 0.809017 -6.75
      vertex 0.309017 0.951057 -0.75
      vertex 0.587785 0.809017 -0.75
    endloop
  endfacet
  facet normal 0.707107 0.707107 0
    outer loop
      vertex 0.587785 0.809017 -6.75
      vertex 0.587785 0.809017 -0.75
      vertex 0.809017 0.587785 -6.75
    endloop
  endfacet
  facet normal 0.707107 0.707107 0
    outer loop
      vertex 0.809017 0.587785 -6.75
      vertex 0.587785 0.809017 -0.75
      vertex 0.809017 0.587785 -0.75
    endloop
  endfacet
  facet normal 0.891006 0.453992 0
    outer loop
      vertex 0.951057 0.309017 -6.75
      vertex 0.809017 0.587785 -6.75
      vertex 0.809017 0.587785 -0.75
    endloop
  endfacet
  facet normal 0.891006 0.453992 -0
    outer loop
      vertex 0.951057 0.309017 -0.75
      vertex 0.951057 0.309017 -6.75
      vertex 0.809017 0.587785 -0.75
    endloop
  endfacet
  facet normal 0.987689 0.156433 0
    outer loop
      vertex 1 0 -6.75
      vertex 0.951057 0.309017 -6.75
      vertex 0.951057 0.309017 -0.75
    endloop
  endfacet
  facet normal 0.987689 0.156433 -0
    outer loop
      vertex 1 0 -0.75
      vertex 1 0 -6.75
      vertex 0.951057 0.309017 -0.75
    endloop
  endfacet
  facet normal 0.987689 -0.156433 0
    outer loop
      vertex 0.951057 -0.309017 -0.75
      vertex 0.951057 -0.309017 -6.75
      vertex 1 0 -6.75
    endloop
  endfacet
  facet normal 0.987689 -0.156433 0
    outer loop
      vertex 1 0 -0.75
      vertex 0.951057 -0.309017 -0.75
      vertex 1 0 -6.75
    endloop
  endfacet
  facet normal 0.891006 -0.453992 0
    outer loop
      vertex 0.809017 -0.587785 -0.75
      vertex 0.809017 -0.587785 -6.75
      vertex 0.951057 -0.309017 -6.75
    endloop
  endfacet
  facet normal 0.891006 -0.453992 0
    outer loop
      vertex 0.951057 -0.309017 -0.75
      vertex 0.809017 -0.587785 -0.75
      vertex 0.951057 -0.309017 -6.75
    endloop
  endfacet
  facet normal 0.707107 -0.707107 0
    outer loop
      vertex 0.587785 -0.809017 -0.75
      vertex 0.587785 -0.809017 -6.75
      vertex 0.809017 -0.587785 -6.75
    endloop
  endfacet
  facet normal 0.707107 -0.707107 0
    outer loop
      vertex 0.809017 -0.587785 -0.75
      vertex 0.587785 -0.809017 -0.75
      vertex 0.809017 -0.587785 -6.75
    endloop
  endfacet
  facet normal 0.453992 -0.891006 0
    outer loop
      vertex 0.309017 -0.951057 -0.75
      vertex 0.309017 -0.951057 -6.75
      vertex 0.587785 -0.809017 -6.75
    endloop
  endfacet
  facet normal 0.453992 -0.891006 0
    outer loop
      vertex 0.587785 -0.809017 -0.75
      vertex 0.309017 -0.951057 -0.75
      vertex 0.587785 -0.809017 -6.75
    endloop
  endfacet
  facet normal 0.156433 -0.987689 0
    outer loop
      vertex 0 -1 -0.75
      vertex 0 -1 -6.75
      vertex 0.309017 -0.951057 -6.75
    endloop
  endfacet
  facet normal 0.156433 -0.987689 0
    outer loop
      vertex 0.309017 -0.951057 -0.75
      vertex 0 -1 -0.75
      vertex 0.309017 -0.951057 -6.75
    endloop
  endfacet
  facet normal -0.156433 -0.987689 0
    outer loop
      vertex -0.309017 -0.951057 -0.75
      vertex -0.309017 -0.951057 -6.75
      vertex 0 -1 -6.75
    endloop
  endfacet
  facet normal -0.156433 -0.987689 0
    outer loop
      vertex 0 -1 -0.75
      vertex -0.309017 -0.951057 -0.75
      vertex 0 -1 -6.75
    endloop
  endfacet
  facet normal -0.453992 -0.891006 0
    outer loop
      vertex -0.587785 -0.809017 -0.75
      vertex -0.587785 -0.809017 -6.75
      vertex -0.309017 -0.951057 -6.75
    endloop
  endfacet
  facet normal -0.453992 -0.891006 0
    outer loop
      vertex -0.309017 -0.951057 -0.75
      vertex -0.587785 -0.809017 -0.75
      vertex -0.309017 -0.951057 -6.75
    endloop
  endfacet
  facet normal -0.707107 -0.707107 0
    outer loop
      vertex -0.809017 -0.587785 -0.75
      vertex -0.809017 -0.587785 -6.75
      vertex -0.587785 -0.809017 -6.75
    endloop
  endfacet
  facet normal -0.707107 -0.707107 0
    outer loop
      vertex -0.587785 -0.809017 -0.75
      vertex -0.809017 -0.587785 -0.75
      vertex -0.587785 -0.809017 -6.75
    endloop
  endfacet
  facet normal 0 -0 1
    outer loop
      vertex -1.90211 0.618034 0.75
      vertex -1.92081 0.5 0.75
      vertex 1.92081 0.5 0.75
    endloop
  endfacet
  facet normal 0 -0 1
    outer loop
      vertex 1.61803 1.17557 0.75
      vertex -1.90211 0.618034 0.75
      vertex 1.90211 0.618034 0.75
    endloop
  endfacet
  facet normal 0 -0 1
    outer loop
      vertex 1.90211 0.618034 0.75
      vertex -1.90211 0.618034 0.75
      vertex 1.92081 0.5 0.75
    endloop
  endfacet
  facet normal 0 -0 1
    outer loop
      vertex 1.17557 1.61803 0.75
      vertex -1.90211 0.618034 0.75
      vertex 1.61803 1.17557 0.75
    endloop
  endfacet
  facet normal 0 -0 1
    outer loop
      vertex 0.618034 1.90211 0.75
      vertex -1.90211 0.618034 0.75
      vertex 1.17557 1.61803 0.75
    endloop
  endfacet
  facet normal 0 -0 1
    outer loop
      vertex 0 2 0.75
      vertex -1.90211 0.618034 0.75
      vertex 0.618034 1.90211 0.75
    endloop
  endfacet
  facet normal 0 -0 1
    outer loop
      vertex -0.618034 1.90211 0.75
      vertex -1.90211 0.618034 0.75
      vertex 0 2 0.75
    endloop
  endfacet
  facet normal 0 -0 1
    outer loop
      vertex -1.17557 1.61803 0.75
      vertex -1.90211 0.618034 0.75
      vertex -0.618034 1.90211 0.75
    endloop
  endfacet
  facet normal 0 -0 1
    outer loop
      vertex -1.61803 1.17557 0.75
      vertex -1.90211 0.618034 0.75
      vertex -1.17557 1.61803 0.75
    endloop
  endfacet
  facet normal 0 -1 0
    outer loop
      vertex 1.92081 0.5 0
      vertex 1.92081 0.5 0.75
      vertex -1.92081 0.5 0.75
    endloop
  endfacet
  facet normal -0 -1 -0
    outer loop
      vertex -1.92081 0.5 0
      vertex 1.92081 0.5 0
      vertex -1.92081 0.5 0.75
    endloop
  endfacet
  facet normal 0 0 1
    outer loop
      vertex -1.92081 -0.5 0
      vertex 1.92081 -0.5 0
      vertex 2 0 0
    endloop
  endfacet
  facet normal 0 -0 1
    outer loop
      vertex -1.92081 0.5 0
      vertex -1.92081 -0.5 0
      vertex 1.92081 0.5 0
    endloop
  endfacet
  facet normal 0 -0 1
    outer loop
      vertex 1.92081 0.5 0
      vertex -1.92081 -0.5 0
      vertex 2 0 0
    endloop
  endfacet
  facet normal 0 0 1
    outer loop
      vertex -2 0 0
      vertex -1.92081 -0.5 0
      vertex -1.92081 0.5 0
    endloop
  endfacet
  facet normal 0 1 0
    outer loop
      vertex 1.92081 -0.5 0.75
      vertex 1.92081 -0.5 0
      vertex -1.92081 -0.5 0.75
    endloop
  endfacet
  facet normal 0 1 -0
    outer loop
      vertex -1.92081 -0.5 0.75
      vertex 1.92081 -0.5 0
      vertex -1.92081 -0.5 0
    endloop
  endfacet
  facet normal 0 0 1
    outer loop
      vertex 1.92081 -0.5 0.75
      vertex -1.92081 -0.5 0.75
      vertex -1.90211 -0.618034 0.75
    endloop
  endfacet
  facet normal 0 0 1
    outer loop
      vertex -1.17557 -1.61803 0.75
      vertex 1.92081 -0.5 0.75
      vertex -1.61803 -1.17557 0.75
    endloop
  endfacet
  facet normal 0 0 1
    outer loop
      vertex -1.61803 -1.17557 0.75
      vertex 1.92081 -0.5 0.75
      vertex -1.90211 -0.618034 0.75
    endloop
  endfacet
  facet normal 0 0 1
    outer loop
      vertex -0.618034 -1.90211 0.75
      vertex 1.92081 -0.5 0.75
      vertex -1.17557 -1.61803 0.75
    endloop
  endfacet
  facet normal 0 0 1
    outer loop
      vertex 0 -2 0.75
      vertex 1.92081 -0.5 0.75
      vertex -0.618034 -1.90211 0.75
    endloop
  endfacet
  facet normal -0 0 1
    outer loop
      vertex 0.618034 -1.90211 0.75
      vertex 1.92081 -0.5 0.75
      vertex 0 -2 0.75
    endloop
  endfacet
  facet normal -0 0 1
    outer loop
      vertex 1.17557 -1.61803 0.75
      vertex 1.92081 -0.5 0.75
      vertex 0.618034 -1.90211 0.75
    endloop
  endfacet
  facet normal -0 0 1
    outer loop
      vertex 1.61803 -1.17557 0.75
      vertex 1.92081 -0.5 0.75
      vertex 1.17557 -1.61803 0.75
    endloop
  endfacet
  facet normal -0 0 1
    outer loop
      vertex 1.90211 -0.618034 0.75
      vertex 1.92081 -0.5 0.75
      vertex 1.61803 -1.17557 0.75
    endloop
  endfacet
  facet normal -0 0 -1
    outer loop
      vertex -1 0 -6.75
      vertex -0.951057 0.309017 -6.75
      vertex -0.951057 -0.309017 -6.75
    endloop
  endfacet
  facet normal 0 -0 -1
    outer loop
      vertex -0.951057 -0.309017 -6.75
      vertex -0.951057 0.309017 -6.75
      vertex -0.809017 0.587785 -6.75
    endloop
  endfacet
  facet normal 0 0 -1
    outer loop
      vertex -0.951057 -0.309017 -6.75
      vertex -0.809017 0.587785 -6.75
      vertex -0.587785 0.809017 -6.75
    endloop
  endfacet
  facet normal 0 0 -1
    outer loop
      vertex -0.951057 -0.309017 -6.75
      vertex -0.587785 0.809017 -6.75
      vertex -0.309017 0.951057 -6.75
    endloop
  endfacet
  facet normal 0 0 -1
    outer loop
      vertex -0.951057 -0.309017 -6.75
      vertex -0.309017 0.951057 -6.75
      vertex 0 1 -6.75
    endloop
  endfacet
  facet normal 0 0 -1
    outer loop
      vertex -0.951057 -0.309017 -6.75
      vertex 0 1 -6.75
      vertex 0.309017 0.951057 -6.75
    endloop
  endfacet
  facet normal 0 0 -1
    outer loop
      vertex -0.951057 -0.309017 -6.75
      vertex 0.309017 0.951057 -6.75
      vertex 0.587785 0.809017 -6.75
    endloop
  endfacet
  facet normal 0 0 -1
    outer loop
      vertex -0.951057 -0.309017 -6.75
      vertex 0.587785 0.809017 -6.75
      vertex 0.809017 0.587785 -6.75
    endloop
  endfacet
  facet normal 0 0 -1
    outer loop
      vertex -0.951057 -0.309017 -6.75
      vertex 0.809017 0.587785 -6.75
      vertex 0.951057 0.309017 -6.75
    endloop
  endfacet
  facet normal 0 0 -1
    outer loop
      vertex -0.951057 -0.309017 -6.75
      vertex 0.951057 0.309017 -6.75
      vertex 1 0 -6.75
    endloop
  endfacet
  facet normal -0 0 -1
    outer loop
      vertex -0.951057 -0.309017 -6.75
      vertex 1 0 -6.75
      vertex 0.951057 -0.309017 -6.75
    endloop
  endfacet
  facet normal 0 0 -1
    outer loop
      vertex -0.951057 -0.309017 -6.75
      vertex 0.951057 -0.309017 -6.75
      vertex 0.809017 -0.587785 -6.75
    endloop
  endfacet
  facet normal 0 0 -1
    outer loop
      vertex -0.951057 -0.309017 -6.75
      vertex 0.809017 -0.587785 -6.75
      vertex 0.587785 -0.809017 -6.75
    endloop
  endfacet
  facet normal 0 0 -1
    outer loop
      vertex -0.951057 -0.309017 -6.75
      vertex 0.587785 -0.809017 -6.75
      vertex 0.309017 -0.951057 -6.75
    endloop
  endfacet
  facet normal 0 0 -1
    outer loop
      vertex -0.951057 -0.309017 -6.75
      vertex 0.309017 -0.951057 -6.75
      vertex 0 -1 -6.75
    endloop
  endfacet
  facet normal 0 0 -1
    outer loop
      vertex -0.951057 -0.309017 -6.75
      vertex 0 -1 -6.75
      vertex -0.309017 -0.951057 -6.75
    endloop
  endfacet
  facet normal 0 0 -1
    outer loop
      vertex -0.951057 -0.309017 -6.75
      vertex -0.309017 -0.951057 -6.75
      vertex -0.587785 -0.809017 -6.75
    endloop
  endfacet
  facet normal 0 0 -1
    outer loop
      vertex -0.951057 -0.309017 -6.75
      vertex -0.587785 -0.809017 -6.75
      vertex -0.809017 -0.587785 -6.75
    endloop
  endfacet
endsolid OpenSCAD_Model
