solid OpenSCAD_Model
  facet normal -0.979796 0 0.2
    outer loop
      vertex -0.610102 -1.875 -5.48888
      vertex -0.410102 -1.875 -4.50908
      vertex -0.610102 -0.875 -5.48888
    endloop
  endfacet
  facet normal -0.979796 0 0.2
    outer loop
      vertex -0.610102 -0.875 -5.48888
      vertex -0.410102 -1.875 -4.50908
      vertex -0.410102 -0.875 -4.50908
    endloop
  endfacet
  facet normal 0 -1 0
    outer loop
      vertex -0.410102 -1.875 -4.50908
      vertex -0.610102 -1.875 -5.48888
      vertex 8.93982 -1.875 -7.43825
    endloop
  endfacet
  facet normal 0 -1 0
    outer loop
      vertex 9.13982 -1.875 -6.45845
      vertex -0.410102 -1.875 -4.50908
      vertex 8.93982 -1.875 -7.43825
    endloop
  endfacet
  facet normal -0.2 -0 -0.979796
    outer loop
      vertex -0.610102 -1.875 -5.48888
      vertex -0.610102 -0.875 -5.48888
      vertex 8.93982 -1.875 -7.43825
    endloop
  endfacet
  facet normal -0.2 4.58582e-16 -0.979796
    outer loop
      vertex 8.93982 -1.875 -7.43825
      vertex -0.610102 -0.875 -5.48888
      vertex 9.31112 -0.875 -7.51404
    endloop
  endfacet
  facet normal -0.2 2.7003e-16 -0.979796
    outer loop
      vertex 8.93982 -1.875 -7.43825
      vertex 9.31112 -0.875 -7.51404
      vertex 9.46568 -1.97213 -7.54559
    endloop
  endfacet
  facet normal -0.2 -5.03108e-16 -0.979796
    outer loop
      vertex 8.94835 -1.94114 -7.43999
      vertex 9.46568 -1.97213 -7.54559
      vertex 10.2766 -3.78449 -7.71112
    endloop
  endfacet
  facet normal -0.2 -2.27536e-16 -0.979796
    outer loop
      vertex 9.68247 -3.75 -7.58984
      vertex 11.555 -5.29025 -7.97207
      vertex 10.8503 -5.3033 -7.82822
    endloop
  endfacet
  facet normal -0.2 2.60583e-15 -0.979796
    outer loop
      vertex 16.0464 -7.5 -8.88888
      vertex 13.1973 -6.36742 -8.3073
      vertex 15.0704 -6.92875 -8.68964
    endloop
  endfacet
  facet normal -0.2 -8.91174e-16 -0.979796
    outer loop
      vertex 17.9484 -7.24444 -9.27711
      vertex 15.0704 -6.92875 -8.68964
      vertex 17.0225 -6.92875 -9.08812
    endloop
  endfacet
  facet normal -0.2 1.26057e-15 -0.979796
    outer loop
      vertex 19.7207 -6.49519 -9.63888
      vertex 17.0225 -6.92875 -9.08812
      vertex 18.8956 -6.36742 -9.47046
    endloop
  endfacet
  facet normal -0.2 -1.3032e-15 -0.979796
    outer loop
      vertex 21.2426 -5.3033 -9.94954
      vertex 18.8956 -6.36742 -9.47046
      vertex 20.5378 -5.29025 -9.80568
    endloop
  endfacet
  facet normal -0.2 1.4224e-15 -0.979796
    outer loop
      vertex 22.4104 -3.75 -10.1879
      vertex 20.5378 -5.29025 -9.80568
      vertex 21.8162 -3.78449 -10.0666
    endloop
  endfacet
  facet normal -0.2 -8.13908e-16 -0.979796
    outer loop
      vertex 23.1445 -1.94114 -10.3378
      vertex 21.8162 -3.78449 -10.0666
      vertex 22.6272 -1.97213 -10.2322
    endloop
  endfacet
  facet normal -0.2 2.31786e-16 -0.979796
    outer loop
      vertex 23.3949 0 -10.3889
      vertex 22.6272 -1.97213 -10.2322
      vertex 22.905 0 -10.2889
    endloop
  endfacet
  facet normal -0.2 4.43704e-15 -0.979796
    outer loop
      vertex 22.4104 3.75 -10.1879
      vertex 22.905 0 -10.2889
      vertex 22.6272 1.97213 -10.2322
    endloop
  endfacet
  facet normal -0.2 -4.10263e-15 -0.979796
    outer loop
      vertex 21.2426 5.3033 -9.94954
      vertex 22.6272 1.97213 -10.2322
      vertex 21.8162 3.78449 -10.0666
    endloop
  endfacet
  facet normal -0.2 1.11402e-15 -0.979796
    outer loop
      vertex 19.7207 6.49519 -9.63888
      vertex 21.8162 3.78449 -10.0666
      vertex 20.5378 5.29025 -9.80568
    endloop
  endfacet
  facet normal -0.2 -4.45985e-16 -0.979796
    outer loop
      vertex 17.9484 7.24444 -9.27711
      vertex 20.5378 5.29025 -9.80568
      vertex 18.8956 6.36742 -9.47046
    endloop
  endfacet
  facet normal -0.2 -1.27799e-15 -0.979796
    outer loop
      vertex 16.0464 7.5 -8.88888
      vertex 18.8956 6.36742 -9.47046
      vertex 17.0225 6.92875 -9.08812
    endloop
  endfacet
  facet normal -0.2 -2.01364e-15 -0.979796
    outer loop
      vertex 14.1445 7.24444 -8.50065
      vertex 17.0225 6.92875 -9.08812
      vertex 15.0704 6.92875 -8.68964
    endloop
  endfacet
  facet normal -0.2 2.62056e-16 -0.979796
    outer loop
      vertex 12.3722 6.49519 -8.13888
      vertex 15.0704 6.92875 -8.68964
      vertex 13.1973 6.36742 -8.3073
    endloop
  endfacet
  facet normal -0.2 5.07611e-16 -0.979796
    outer loop
      vertex 12.3722 6.49519 -8.13888
      vertex 13.1973 6.36742 -8.3073
      vertex 10.8503 5.3033 -7.82822
    endloop
  endfacet
  facet normal -0.2 -6.0628e-16 -0.979796
    outer loop
      vertex 9.68247 3.75 -7.58984
      vertex 10.2766 3.78449 -7.71112
      vertex 8.94835 1.94114 -7.43999
    endloop
  endfacet
  facet normal -0.2 5.82736e-16 -0.979796
    outer loop
      vertex 10.8503 5.3033 -7.82822
      vertex 13.1973 6.36742 -8.3073
      vertex 11.555 5.29025 -7.97207
    endloop
  endfacet
  facet normal -0.2 5.00808e-16 -0.979796
    outer loop
      vertex 9.46568 1.97213 -7.54559
      vertex 8.94835 1.94114 -7.43999
      vertex 10.2766 3.78449 -7.71112
    endloop
  endfacet
  facet normal -0.2 1.28956e-14 -0.979796
    outer loop
      vertex 9.46568 1.97213 -7.54559
      vertex 8.93982 1.875 -7.43825
      vertex 8.94835 1.94114 -7.43999
    endloop
  endfacet
  facet normal -0.2 0 -0.979796
    outer loop
      vertex 8.93982 1.875 -7.43825
      vertex -0.610102 0.875 -5.48888
      vertex -0.610102 1.875 -5.48888
    endloop
  endfacet
  facet normal -0.2 -4.93444e-16 -0.979796
    outer loop
      vertex 10.8503 -5.3033 -7.82822
      vertex 13.1973 -6.36742 -8.3073
      vertex 12.3722 -6.49519 -8.13888
    endloop
  endfacet
  facet normal -0.2 1.18398e-16 -0.979796
    outer loop
      vertex 13.1973 -6.36742 -8.3073
      vertex 16.0464 -7.5 -8.88888
      vertex 12.3722 -6.49519 -8.13888
    endloop
  endfacet
  facet normal -0.2 -1.12915e-15 -0.979796
    outer loop
      vertex 12.3722 6.49519 -8.13888
      vertex 14.1445 7.24444 -8.50065
      vertex 15.0704 6.92875 -8.68964
    endloop
  endfacet
  facet normal -0.2 -6.71319e-16 -0.979796
    outer loop
      vertex 14.1445 7.24444 -8.50065
      vertex 16.0464 7.5 -8.88888
      vertex 17.0225 6.92875 -9.08812
    endloop
  endfacet
  facet normal -0.2 5.36332e-16 -0.979796
    outer loop
      vertex 16.0464 7.5 -8.88888
      vertex 17.9484 7.24444 -9.27711
      vertex 18.8956 6.36742 -9.47046
    endloop
  endfacet
  facet normal -0.2 -3.33942e-16 -0.979796
    outer loop
      vertex 17.9484 7.24444 -9.27711
      vertex 19.7207 6.49519 -9.63888
      vertex 20.5378 5.29025 -9.80568
    endloop
  endfacet
  facet normal -0.2 9.69242e-17 -0.979796
    outer loop
      vertex 19.7207 6.49519 -9.63888
      vertex 21.2426 5.3033 -9.94954
      vertex 21.8162 3.78449 -10.0666
    endloop
  endfacet
  facet normal -0.2 3.3905e-16 -0.979796
    outer loop
      vertex 21.2426 5.3033 -9.94954
      vertex 22.4104 3.75 -10.1879
      vertex 22.6272 1.97213 -10.2322
    endloop
  endfacet
  facet normal -0.2 -1.17169e-16 -0.979796
    outer loop
      vertex 22.4104 3.75 -10.1879
      vertex 23.1445 1.94114 -10.3378
      vertex 22.905 0 -10.2889
    endloop
  endfacet
  facet normal -0.2 -2.96331e-16 -0.979796
    outer loop
      vertex 23.1445 1.94114 -10.3378
      vertex 23.3949 0 -10.3889
      vertex 22.905 0 -10.2889
    endloop
  endfacet
  facet normal -0.2 3.28356e-16 -0.979796
    outer loop
      vertex 23.3949 0 -10.3889
      vertex 23.1445 -1.94114 -10.3378
      vertex 22.6272 -1.97213 -10.2322
    endloop
  endfacet
  facet normal -0.2 1.75889e-16 -0.979796
    outer loop
      vertex 23.1445 -1.94114 -10.3378
      vertex 22.4104 -3.75 -10.1879
      vertex 21.8162 -3.78449 -10.0666
    endloop
  endfacet
  facet normal -0.2 -8.50828e-16 -0.979796
    outer loop
      vertex 22.4104 -3.75 -10.1879
      vertex 21.2426 -5.3033 -9.94954
      vertex 20.5378 -5.29025 -9.80568
    endloop
  endfacet
  facet normal -0.2 8.1245e-16 -0.979796
    outer loop
      vertex 21.2426 -5.3033 -9.94954
      vertex 19.7207 -6.49519 -9.63888
      vertex 18.8956 -6.36742 -9.47046
    endloop
  endfacet
  facet normal -0.2 -6.72105e-16 -0.979796
    outer loop
      vertex 19.7207 -6.49519 -9.63888
      vertex 17.9484 -7.24444 -9.27711
      vertex 17.0225 -6.92875 -9.08812
    endloop
  endfacet
  facet normal -0.2 1.33358e-15 -0.979796
    outer loop
      vertex 17.9484 -7.24444 -9.27711
      vertex 16.0464 -7.5 -8.88888
      vertex 15.0704 -6.92875 -8.68964
    endloop
  endfacet
  facet normal -0.2 6.79359e-16 -0.979796
    outer loop
      vertex 16.0464 -7.5 -8.88888
      vertex 14.1445 -7.24444 -8.50065
      vertex 12.3722 -6.49519 -8.13888
    endloop
  endfacet
  facet normal -0.2 -5.44597e-16 -0.979796
    outer loop
      vertex 11.555 -5.29025 -7.97207
      vertex 13.1973 -6.36742 -8.3073
      vertex 10.8503 -5.3033 -7.82822
    endloop
  endfacet
  facet normal -0.2 6.02919e-16 -0.979796
    outer loop
      vertex 8.94835 -1.94114 -7.43999
      vertex 10.2766 -3.78449 -7.71112
      vertex 9.68247 -3.75 -7.58984
    endloop
  endfacet
  facet normal -0.2 2.74689e-16 -0.979796
    outer loop
      vertex 10.2766 -3.78449 -7.71112
      vertex 11.555 -5.29025 -7.97207
      vertex 9.68247 -3.75 -7.58984
    endloop
  endfacet
  facet normal -0.2 -1.28553e-14 -0.979796
    outer loop
      vertex 8.93982 -1.875 -7.43825
      vertex 9.46568 -1.97213 -7.54559
      vertex 8.94835 -1.94114 -7.43999
    endloop
  endfacet
  facet normal -0.2 2.15478e-16 -0.979796
    outer loop
      vertex 10.8503 5.3033 -7.82822
      vertex 11.555 5.29025 -7.97207
      vertex 9.68247 3.75 -7.58984
    endloop
  endfacet
  facet normal -0.2 -2.74689e-16 -0.979796
    outer loop
      vertex 10.2766 3.78449 -7.71112
      vertex 9.68247 3.75 -7.58984
      vertex 11.555 5.29025 -7.97207
    endloop
  endfacet
  facet normal -0.2 -2.7003e-16 -0.979796
    outer loop
      vertex 8.93982 1.875 -7.43825
      vertex 9.46568 1.97213 -7.54559
      vertex 9.31112 0.875 -7.51404
    endloop
  endfacet
  facet normal -0.2 -4.6083e-16 -0.979796
    outer loop
      vertex -0.610102 0.875 -5.48888
      vertex 8.93982 1.875 -7.43825
      vertex 9.31112 0.875 -7.51404
    endloop
  endfacet
  facet normal -0 1 0
    outer loop
      vertex 9.51112 -0.875 -6.53424
      vertex 9.31112 -0.875 -7.51404
      vertex -0.410102 -0.875 -4.50908
    endloop
  endfacet
  facet normal 0 1 -0
    outer loop
      vertex -0.410102 -0.875 -4.50908
      vertex 9.31112 -0.875 -7.51404
      vertex -0.610102 -0.875 -5.48888
    endloop
  endfacet
  facet normal 0.2 -8.78216e-15 0.979796
    outer loop
      vertex 9.14835 -1.94114 -6.46019
      vertex 9.88247 -3.75 -6.61004
      vertex 9.13982 -1.875 -6.45845
    endloop
  endfacet
  facet normal 0.2 -0 0.979796
    outer loop
      vertex -0.410102 -0.875 -4.50908
      vertex -0.410102 -1.875 -4.50908
      vertex 9.13982 -1.875 -6.45845
    endloop
  endfacet
  facet normal 0.2 1.60809e-16 0.979796
    outer loop
      vertex 22.8272 -1.97213 -9.25237
      vertex 22.0162 -3.78449 -9.08684
      vertex 22.6104 -3.75 -9.20812
    endloop
  endfacet
  facet normal 0.2 3.15174e-17 0.979796
    outer loop
      vertex 9.88247 -3.75 -6.61004
      vertex 11.0503 -5.3033 -6.84842
      vertex 9.13982 -1.875 -6.45845
    endloop
  endfacet
  facet normal 0.2 3.06343e-16 0.979796
    outer loop
      vertex 9.66568 -1.97213 -6.56579
      vertex 9.51112 -0.875 -6.53424
      vertex 9.13982 -1.875 -6.45845
    endloop
  endfacet
  facet normal 0.2 7.7531e-16 0.979796
    outer loop
      vertex 9.13982 -1.875 -6.45845
      vertex 9.51112 -0.875 -6.53424
      vertex -0.410102 -0.875 -4.50908
    endloop
  endfacet
  facet normal 0.2 -2.9935e-16 0.979796
    outer loop
      vertex 23.105 0 -9.30908
      vertex 23.3445 -1.94114 -9.35797
      vertex 23.5949 0 -9.40908
    endloop
  endfacet
  facet normal 0.2 -1.62555e-16 0.979796
    outer loop
      vertex 22.0162 3.78449 -9.08684
      vertex 22.8272 1.97213 -9.25237
      vertex 22.6104 3.75 -9.20812
    endloop
  endfacet
  facet normal 0.2 -6.87964e-16 0.979796
    outer loop
      vertex 9.88247 3.75 -6.61004
      vertex 9.14835 1.94114 -6.46019
      vertex 10.4766 3.78449 -6.73133
    endloop
  endfacet
  facet normal 0.2 -1.54207e-16 0.979796
    outer loop
      vertex 13.3973 6.36742 -7.3275
      vertex 14.3445 7.24444 -7.52085
      vertex 11.0503 5.3033 -6.84842
    endloop
  endfacet
  facet normal 0.2 7.24811e-16 0.979796
    outer loop
      vertex 20.7378 5.29025 -8.82589
      vertex 22.0162 3.78449 -9.08684
      vertex 21.4426 5.3033 -8.96974
    endloop
  endfacet
  facet normal 0.2 -9.43086e-17 0.979796
    outer loop
      vertex 23.105 0 -9.30908
      vertex 22.8272 -1.97213 -9.25237
      vertex 23.3445 -1.94114 -9.35797
    endloop
  endfacet
  facet normal 0.2 5.82099e-15 0.979796
    outer loop
      vertex 9.66568 1.97213 -6.56579
      vertex 9.14835 1.94114 -6.46019
      vertex 9.13982 1.875 -6.45845
    endloop
  endfacet
  facet normal 0.2 -1.36152e-15 0.979796
    outer loop
      vertex 10.4766 3.78449 -6.73133
      vertex 11.755 5.29025 -6.99228
      vertex 9.88247 3.75 -6.61004
    endloop
  endfacet
  facet normal 0.2 -3.06343e-16 0.979796
    outer loop
      vertex 9.51112 0.875 -6.53424
      vertex 9.66568 1.97213 -6.56579
      vertex 9.13982 1.875 -6.45845
    endloop
  endfacet
  facet normal 0.2 4.39961e-16 0.979796
    outer loop
      vertex 15.2704 6.92875 -7.70984
      vertex 17.2225 6.92875 -8.10832
      vertex 16.2464 7.5 -7.90908
    endloop
  endfacet
  facet normal 0.2 2.63236e-16 0.979796
    outer loop
      vertex 13.3973 6.36742 -7.3275
      vertex 15.2704 6.92875 -7.70984
      vertex 16.2464 7.5 -7.90908
    endloop
  endfacet
  facet normal 0.2 3.35784e-16 0.979796
    outer loop
      vertex 16.2464 7.5 -7.90908
      vertex 14.3445 7.24444 -7.52085
      vertex 13.3973 6.36742 -7.3275
    endloop
  endfacet
  facet normal 0.2 -7.79117e-16 0.979796
    outer loop
      vertex -0.410102 0.875 -4.50908
      vertex 9.51112 0.875 -6.53424
      vertex 9.13982 1.875 -6.45845
    endloop
  endfacet
  facet normal 0.2 2.21509e-16 0.979796
    outer loop
      vertex 11.755 5.29025 -6.99228
      vertex 13.3973 6.36742 -7.3275
      vertex 11.0503 5.3033 -6.84842
    endloop
  endfacet
  facet normal 0.2 2.456e-15 0.979796
    outer loop
      vertex 18.1484 7.24444 -8.29731
      vertex 16.2464 7.5 -7.90908
      vertex 17.2225 6.92875 -8.10832
    endloop
  endfacet
  facet normal 0.2 2.07351e-15 0.979796
    outer loop
      vertex 19.9207 6.49519 -8.65908
      vertex 18.1484 7.24444 -8.29731
      vertex 19.0956 6.36742 -8.49066
    endloop
  endfacet
  facet normal 0.2 4.1756e-16 0.979796
    outer loop
      vertex 19.0956 6.36742 -8.49066
      vertex 20.7378 5.29025 -8.82589
      vertex 19.9207 6.49519 -8.65908
    endloop
  endfacet
  facet normal 0.2 1.29475e-15 0.979796
    outer loop
      vertex 21.4426 5.3033 -8.96974
      vertex 19.9207 6.49519 -8.65908
      vertex 20.7378 5.29025 -8.82589
    endloop
  endfacet
  facet normal 0.2 9.24683e-17 0.979796
    outer loop
      vertex 22.8272 1.97213 -9.25237
      vertex 23.105 0 -9.30908
      vertex 23.3445 1.94114 -9.35797
    endloop
  endfacet
  facet normal 0.2 -6.40659e-16 0.979796
    outer loop
      vertex 22.6104 3.75 -9.20812
      vertex 21.4426 5.3033 -8.96974
      vertex 22.0162 3.78449 -9.08684
    endloop
  endfacet
  facet normal 0.2 2.09482e-16 0.979796
    outer loop
      vertex 23.3445 1.94114 -9.35797
      vertex 22.6104 3.75 -9.20812
      vertex 22.8272 1.97213 -9.25237
    endloop
  endfacet
  facet normal 0.2 2.93175e-16 0.979796
    outer loop
      vertex 23.5949 0 -9.40908
      vertex 23.3445 1.94114 -9.35797
      vertex 23.105 0 -9.30908
    endloop
  endfacet
  facet normal 0.2 -1.91521e-16 0.979796
    outer loop
      vertex 22.6104 -3.75 -9.20812
      vertex 23.3445 -1.94114 -9.35797
      vertex 22.8272 -1.97213 -9.25237
    endloop
  endfacet
  facet normal 0.2 6.68609e-16 0.979796
    outer loop
      vertex 21.4426 -5.3033 -8.96974
      vertex 22.6104 -3.75 -9.20812
      vertex 22.0162 -3.78449 -9.08684
    endloop
  endfacet
  facet normal 0.2 -2.69113e-15 0.979796
    outer loop
      vertex 19.0956 -6.36742 -8.49066
      vertex 17.2225 -6.92875 -8.10832
      vertex 18.1484 -7.24444 -8.29731
    endloop
  endfacet
  facet normal 0.2 -1.29475e-15 0.979796
    outer loop
      vertex 19.9207 -6.49519 -8.65908
      vertex 21.4426 -5.3033 -8.96974
      vertex 20.7378 -5.29025 -8.82589
    endloop
  endfacet
  facet normal 0.2 -4.86427e-16 0.979796
    outer loop
      vertex 17.2225 -6.92875 -8.10832
      vertex 15.2704 -6.92875 -7.70984
      vertex 16.2464 -7.5 -7.90908
    endloop
  endfacet
  facet normal 0.2 -2.12408e-15 0.979796
    outer loop
      vertex 18.1484 -7.24444 -8.29731
      vertex 19.9207 -6.49519 -8.65908
      vertex 19.0956 -6.36742 -8.49066
    endloop
  endfacet
  facet normal 0.2 -2.71614e-16 0.979796
    outer loop
      vertex 15.2704 -6.92875 -7.70984
      vertex 13.3973 -6.36742 -7.3275
      vertex 14.3445 -7.24444 -7.52085
    endloop
  endfacet
  facet normal 0.2 -2.40803e-15 0.979796
    outer loop
      vertex 16.2464 -7.5 -7.90908
      vertex 18.1484 -7.24444 -8.29731
      vertex 17.2225 -6.92875 -8.10832
    endloop
  endfacet
  facet normal 0.2 -2.46623e-15 0.979796
    outer loop
      vertex 11.755 -5.29025 -6.99228
      vertex 10.4766 -3.78449 -6.73133
      vertex 12.5722 -6.49519 -7.15908
    endloop
  endfacet
  facet normal 0.2 -1.35515e-16 0.979796
    outer loop
      vertex 14.3445 -7.24444 -7.52085
      vertex 16.2464 -7.5 -7.90908
      vertex 15.2704 -6.92875 -7.70984
    endloop
  endfacet
  facet normal 0.2 2.96537e-17 0.979796
    outer loop
      vertex 12.5722 -6.49519 -7.15908
      vertex 14.3445 -7.24444 -7.52085
      vertex 13.3973 -6.36742 -7.3275
    endloop
  endfacet
  facet normal 0.2 -1.34321e-16 0.979796
    outer loop
      vertex 12.5722 -6.49519 -7.15908
      vertex 13.3973 -6.36742 -7.3275
      vertex 11.755 -5.29025 -6.99228
    endloop
  endfacet
  facet normal 0.2 1.25808e-15 0.979796
    outer loop
      vertex 11.0503 -5.3033 -6.84842
      vertex 10.4766 -3.78449 -6.73133
      vertex 9.13982 -1.875 -6.45845
    endloop
  endfacet
  facet normal 0.2 6.43894e-16 0.979796
    outer loop
      vertex 11.0503 -5.3033 -6.84842
      vertex 12.5722 -6.49519 -7.15908
      vertex 10.4766 -3.78449 -6.73133
    endloop
  endfacet
  facet normal 0.2 -3.56926e-16 0.979796
    outer loop
      vertex 20.7378 -5.29025 -8.82589
      vertex 19.0956 -6.36742 -8.49066
      vertex 19.9207 -6.49519 -8.65908
    endloop
  endfacet
  facet normal 0.2 -7.19273e-16 0.979796
    outer loop
      vertex 22.0162 -3.78449 -9.08684
      vertex 20.7378 -5.29025 -8.82589
      vertex 21.4426 -5.3033 -8.96974
    endloop
  endfacet
  facet normal 0.2 3.69685e-16 0.979796
    outer loop
      vertex 12.5722 6.49519 -7.15908
      vertex 11.0503 5.3033 -6.84842
      vertex 14.3445 7.24444 -7.52085
    endloop
  endfacet
  facet normal 0.2 2.69113e-15 0.979796
    outer loop
      vertex 17.2225 6.92875 -8.10832
      vertex 19.0956 6.36742 -8.49066
      vertex 18.1484 7.24444 -8.29731
    endloop
  endfacet
  facet normal 0.2 3.52155e-18 0.979796
    outer loop
      vertex 11.0503 5.3033 -6.84842
      vertex 9.88247 3.75 -6.61004
      vertex 11.755 5.29025 -6.99228
    endloop
  endfacet
  facet normal 0.2 -1.78918e-16 0.979796
    outer loop
      vertex 9.66568 1.97213 -6.56579
      vertex 10.4766 3.78449 -6.73133
      vertex 9.14835 1.94114 -6.46019
    endloop
  endfacet
  facet normal 0.2 -2.12027e-16 0.979796
    outer loop
      vertex 9.13982 1.875 -6.45845
      vertex -0.410102 1.875 -4.50908
      vertex -0.410102 0.875 -4.50908
    endloop
  endfacet
  facet normal 0.2 5.45034e-16 0.979796
    outer loop
      vertex 10.4766 -3.78449 -6.73133
      vertex 9.66568 -1.97213 -6.56579
      vertex 9.13982 -1.875 -6.45845
    endloop
  endfacet
  facet normal -0.971414 -0.130526 0.198289
    outer loop
      vertex 8.93982 -1.875 -7.43825
      vertex 8.94835 -1.94114 -7.43999
      vertex 9.13982 -1.875 -6.45845
    endloop
  endfacet
  facet normal -0.971414 -0.130526 0.198289
    outer loop
      vertex 9.13982 -1.875 -6.45845
      vertex 8.94835 -1.94114 -7.43999
      vertex 9.14835 -1.94114 -6.46019
    endloop
  endfacet
  facet normal -0.905213 -0.382683 0.184776
    outer loop
      vertex 8.94835 -1.94114 -7.43999
      vertex 9.68247 -3.75 -7.58984
      vertex 9.14835 -1.94114 -6.46019
    endloop
  endfacet
  facet normal -0.905213 -0.382683 0.184776
    outer loop
      vertex 9.14835 -1.94114 -6.46019
      vertex 9.68247 -3.75 -7.58984
      vertex 9.88247 -3.75 -6.61004
    endloop
  endfacet
  facet normal -0.777324 -0.608762 0.158671
    outer loop
      vertex 9.68247 -3.75 -7.58984
      vertex 10.8503 -5.3033 -7.82822
      vertex 9.88247 -3.75 -6.61004
    endloop
  endfacet
  facet normal -0.777324 -0.608762 0.158671
    outer loop
      vertex 9.88247 -3.75 -6.61004
      vertex 10.8503 -5.3033 -7.82822
      vertex 11.0503 -5.3033 -6.84842
    endloop
  endfacet
  facet normal -0.596462 -0.793353 0.121752
    outer loop
      vertex 11.0503 -5.3033 -6.84842
      vertex 10.8503 -5.3033 -7.82822
      vertex 12.3722 -6.49519 -8.13888
    endloop
  endfacet
  facet normal -0.596462 -0.793353 0.121752
    outer loop
      vertex 12.5722 -6.49519 -7.15908
      vertex 11.0503 -5.3033 -6.84842
      vertex 12.3722 -6.49519 -8.13888
    endloop
  endfacet
  facet normal -0.374952 -0.92388 0.0765367
    outer loop
      vertex 12.5722 -6.49519 -7.15908
      vertex 12.3722 -6.49519 -8.13888
      vertex 14.1445 -7.24444 -8.50065
    endloop
  endfacet
  facet normal -0.374952 -0.92388 0.0765367
    outer loop
      vertex 14.3445 -7.24444 -7.52085
      vertex 12.5722 -6.49519 -7.15908
      vertex 14.1445 -7.24444 -8.50065
    endloop
  endfacet
  facet normal -0.127889 -0.991445 0.0261052
    outer loop
      vertex 14.3445 -7.24444 -7.52085
      vertex 14.1445 -7.24444 -8.50065
      vertex 16.0464 -7.5 -8.88888
    endloop
  endfacet
  facet normal -0.127889 -0.991445 0.0261052
    outer loop
      vertex 16.2464 -7.5 -7.90908
      vertex 14.3445 -7.24444 -7.52085
      vertex 16.0464 -7.5 -8.88888
    endloop
  endfacet
  facet normal 0.127889 -0.991445 -0.0261052
    outer loop
      vertex 16.2464 -7.5 -7.90908
      vertex 16.0464 -7.5 -8.88888
      vertex 17.9484 -7.24444 -9.27711
    endloop
  endfacet
  facet normal 0.127889 -0.991445 -0.0261052
    outer loop
      vertex 18.1484 -7.24444 -8.29731
      vertex 16.2464 -7.5 -7.90908
      vertex 17.9484 -7.24444 -9.27711
    endloop
  endfacet
  facet normal 0.374952 -0.92388 -0.0765367
    outer loop
      vertex 18.1484 -7.24444 -8.29731
      vertex 17.9484 -7.24444 -9.27711
      vertex 19.7207 -6.49519 -9.63888
    endloop
  endfacet
  facet normal 0.374952 -0.92388 -0.0765367
    outer loop
      vertex 19.9207 -6.49519 -8.65908
      vertex 18.1484 -7.24444 -8.29731
      vertex 19.7207 -6.49519 -9.63888
    endloop
  endfacet
  facet normal 0.596462 -0.793353 -0.121752
    outer loop
      vertex 19.9207 -6.49519 -8.65908
      vertex 19.7207 -6.49519 -9.63888
      vertex 21.2426 -5.3033 -9.94954
    endloop
  endfacet
  facet normal 0.596462 -0.793353 -0.121752
    outer loop
      vertex 21.4426 -5.3033 -8.96974
      vertex 19.9207 -6.49519 -8.65908
      vertex 21.2426 -5.3033 -9.94954
    endloop
  endfacet
  facet normal 0.777324 -0.608762 -0.158671
    outer loop
      vertex 21.4426 -5.3033 -8.96974
      vertex 21.2426 -5.3033 -9.94954
      vertex 22.4104 -3.75 -10.1879
    endloop
  endfacet
  facet normal 0.777324 -0.608762 -0.158671
    outer loop
      vertex 22.6104 -3.75 -9.20812
      vertex 21.4426 -5.3033 -8.96974
      vertex 22.4104 -3.75 -10.1879
    endloop
  endfacet
  facet normal 0.905213 -0.382683 -0.184776
    outer loop
      vertex 22.6104 -3.75 -9.20812
      vertex 22.4104 -3.75 -10.1879
      vertex 23.1445 -1.94114 -10.3378
    endloop
  endfacet
  facet normal 0.905213 -0.382683 -0.184776
    outer loop
      vertex 23.3445 -1.94114 -9.35797
      vertex 22.6104 -3.75 -9.20812
      vertex 23.1445 -1.94114 -10.3378
    endloop
  endfacet
  facet normal 0.971414 -0.130526 -0.198289
    outer loop
      vertex 23.3445 -1.94114 -9.35797
      vertex 23.1445 -1.94114 -10.3378
      vertex 23.3949 0 -10.3889
    endloop
  endfacet
  facet normal 0.971414 -0.130526 -0.198289
    outer loop
      vertex 23.5949 0 -9.40908
      vertex 23.3445 -1.94114 -9.35797
      vertex 23.3949 0 -10.3889
    endloop
  endfacet
  facet normal 0.971414 0.130526 -0.198289
    outer loop
      vertex 23.3949 0 -10.3889
      vertex 23.1445 1.94114 -10.3378
      vertex 23.3445 1.94114 -9.35797
    endloop
  endfacet
  facet normal 0.971414 0.130526 -0.198289
    outer loop
      vertex 23.5949 0 -9.40908
      vertex 23.3949 0 -10.3889
      vertex 23.3445 1.94114 -9.35797
    endloop
  endfacet
  facet normal 0.905213 0.382683 -0.184776
    outer loop
      vertex 23.1445 1.94114 -10.3378
      vertex 22.4104 3.75 -10.1879
      vertex 22.6104 3.75 -9.20812
    endloop
  endfacet
  facet normal 0.905213 0.382683 -0.184776
    outer loop
      vertex 23.3445 1.94114 -9.35797
      vertex 23.1445 1.94114 -10.3378
      vertex 22.6104 3.75 -9.20812
    endloop
  endfacet
  facet normal 0.777324 0.608762 -0.158671
    outer loop
      vertex 22.4104 3.75 -10.1879
      vertex 21.2426 5.3033 -9.94954
      vertex 21.4426 5.3033 -8.96974
    endloop
  endfacet
  facet normal 0.777324 0.608762 -0.158671
    outer loop
      vertex 22.6104 3.75 -9.20812
      vertex 22.4104 3.75 -10.1879
      vertex 21.4426 5.3033 -8.96974
    endloop
  endfacet
  facet normal 0.596462 0.793353 -0.121752
    outer loop
      vertex 19.7207 6.49519 -9.63888
      vertex 19.9207 6.49519 -8.65908
      vertex 21.2426 5.3033 -9.94954
    endloop
  endfacet
  facet normal 0.596462 0.793353 -0.121752
    outer loop
      vertex 21.2426 5.3033 -9.94954
      vertex 19.9207 6.49519 -8.65908
      vertex 21.4426 5.3033 -8.96974
    endloop
  endfacet
  facet normal 0.374952 0.92388 -0.0765367
    outer loop
      vertex 17.9484 7.24444 -9.27711
      vertex 18.1484 7.24444 -8.29731
      vertex 19.7207 6.49519 -9.63888
    endloop
  endfacet
  facet normal 0.374952 0.92388 -0.0765367
    outer loop
      vertex 19.7207 6.49519 -9.63888
      vertex 18.1484 7.24444 -8.29731
      vertex 19.9207 6.49519 -8.65908
    endloop
  endfacet
  facet normal 0.127889 0.991445 -0.0261052
    outer loop
      vertex 16.0464 7.5 -8.88888
      vertex 16.2464 7.5 -7.90908
      vertex 17.9484 7.24444 -9.27711
    endloop
  endfacet
  facet normal 0.127889 0.991445 -0.0261052
    outer loop
      vertex 17.9484 7.24444 -9.27711
      vertex 16.2464 7.5 -7.90908
      vertex 18.1484 7.24444 -8.29731
    endloop
  endfacet
  facet normal -0.127889 0.991445 0.0261052
    outer loop
      vertex 14.1445 7.24444 -8.50065
      vertex 14.3445 7.24444 -7.52085
      vertex 16.0464 7.5 -8.88888
    endloop
  endfacet
  facet normal -0.127889 0.991445 0.0261052
    outer loop
      vertex 16.0464 7.5 -8.88888
      vertex 14.3445 7.24444 -7.52085
      vertex 16.2464 7.5 -7.90908
    endloop
  endfacet
  facet normal -0.374952 0.92388 0.0765367
    outer loop
      vertex 12.3722 6.49519 -8.13888
      vertex 12.5722 6.49519 -7.15908
      vertex 14.1445 7.24444 -8.50065
    endloop
  endfacet
  facet normal -0.374952 0.92388 0.0765367
    outer loop
      vertex 14.1445 7.24444 -8.50065
      vertex 12.5722 6.49519 -7.15908
      vertex 14.3445 7.24444 -7.52085
    endloop
  endfacet
  facet normal -0.596462 0.793353 0.121752
    outer loop
      vertex 10.8503 5.3033 -7.82822
      vertex 11.0503 5.3033 -6.84842
      vertex 12.3722 6.49519 -8.13888
    endloop
  endfacet
  facet normal -0.596462 0.793353 0.121752
    outer loop
      vertex 12.3722 6.49519 -8.13888
      vertex 11.0503 5.3033 -6.84842
      vertex 12.5722 6.49519 -7.15908
    endloop
  endfacet
  facet normal -0.777324 0.608762 0.158671
    outer loop
      vertex 9.68247 3.75 -7.58984
      vertex 9.88247 3.75 -6.61004
      vertex 10.8503 5.3033 -7.82822
    endloop
  endfacet
  facet normal -0.777324 0.608762 0.158671
    outer loop
      vertex 10.8503 5.3033 -7.82822
      vertex 9.88247 3.75 -6.61004
      vertex 11.0503 5.3033 -6.84842
    endloop
  endfacet
  facet normal -0.905213 0.382683 0.184776
    outer loop
      vertex 8.94835 1.94114 -7.43999
      vertex 9.14835 1.94114 -6.46019
      vertex 9.68247 3.75 -7.58984
    endloop
  endfacet
  facet normal -0.905213 0.382683 0.184776
    outer loop
      vertex 9.68247 3.75 -7.58984
      vertex 9.14835 1.94114 -6.46019
      vertex 9.88247 3.75 -6.61004
    endloop
  endfacet
  facet normal -0.971414 0.130526 0.198289
    outer loop
      vertex 8.93982 1.875 -7.43825
      vertex 9.13982 1.875 -6.45845
      vertex 8.94835 1.94114 -7.43999
    endloop
  endfacet
  facet normal -0.971414 0.130526 0.198289
    outer loop
      vertex 8.94835 1.94114 -7.43999
      vertex 9.13982 1.875 -6.45845
      vertex 9.14835 1.94114 -6.46019
    endloop
  endfacet
  facet normal 0 1 0
    outer loop
      vertex -0.610102 1.875 -5.48888
      vertex -0.410102 1.875 -4.50908
      vertex 8.93982 1.875 -7.43825
    endloop
  endfacet
  facet normal 0 1 0
    outer loop
      vertex 8.93982 1.875 -7.43825
      vertex -0.410102 1.875 -4.50908
      vertex 9.13982 1.875 -6.45845
    endloop
  endfacet
  facet normal -0.979796 0 0.2
    outer loop
      vertex -0.610102 0.875 -5.48888
      vertex -0.410102 0.875 -4.50908
      vertex -0.610102 1.875 -5.48888
    endloop
  endfacet
  facet normal -0.979796 0 0.2
    outer loop
      vertex -0.610102 1.875 -5.48888
      vertex -0.410102 0.875 -4.50908
      vertex -0.410102 1.875 -4.50908
    endloop
  endfacet
  facet normal 0 -1 -0
    outer loop
      vertex 9.31112 0.875 -7.51404
      vertex 9.51112 0.875 -6.53424
      vertex -0.410102 0.875 -4.50908
    endloop
  endfacet
  facet normal -0 -1 0
    outer loop
      vertex -0.610102 0.875 -5.48888
      vertex 9.31112 0.875 -7.51404
      vertex -0.410102 0.875 -4.50908
    endloop
  endfacet
  facet normal 0.969823 -0.142315 -0.197964
    outer loop
      vertex 9.46568 1.97213 -7.54559
      vertex 9.66568 1.97213 -6.56579
      vertex 9.51112 0.875 -6.53424
    endloop
  endfacet
  facet normal 0.969823 -0.142315 -0.197964
    outer loop
      vertex 9.31112 0.875 -7.51404
      vertex 9.46568 1.97213 -7.54559
      vertex 9.51112 0.875 -6.53424
    endloop
  endfacet
  facet normal 0.891254 -0.415415 -0.181926
    outer loop
      vertex 10.2766 3.78449 -7.71112
      vertex 10.4766 3.78449 -6.73133
      vertex 9.66568 1.97213 -6.56579
    endloop
  endfacet
  facet normal 0.891254 -0.415415 -0.181926
    outer loop
      vertex 9.46568 1.97213 -7.54559
      vertex 10.2766 3.78449 -7.71112
      vertex 9.66568 1.97213 -6.56579
    endloop
  endfacet
  facet normal 0.74048 -0.654861 -0.15115
    outer loop
      vertex 11.555 5.29025 -7.97207
      vertex 11.755 5.29025 -6.99228
      vertex 10.4766 3.78449 -6.73133
    endloop
  endfacet
  facet normal 0.74048 -0.654861 -0.15115
    outer loop
      vertex 10.2766 3.78449 -7.71112
      vertex 11.555 5.29025 -7.97207
      vertex 10.4766 3.78449 -6.73133
    endloop
  endfacet
  facet normal 0.529718 -0.841254 -0.108128
    outer loop
      vertex 13.1973 6.36742 -8.3073
      vertex 13.3973 6.36742 -7.3275
      vertex 11.755 5.29025 -6.99228
    endloop
  endfacet
  facet normal 0.529718 -0.841254 -0.108128
    outer loop
      vertex 11.555 5.29025 -7.97207
      vertex 13.1973 6.36742 -8.3073
      vertex 11.755 5.29025 -6.99228
    endloop
  endfacet
  facet normal 0.27604 -0.959493 -0.0563465
    outer loop
      vertex 15.0704 6.92875 -8.68964
      vertex 15.2704 6.92875 -7.70984
      vertex 13.3973 6.36742 -7.3275
    endloop
  endfacet
  facet normal 0.27604 -0.959493 -0.0563465
    outer loop
      vertex 13.1973 6.36742 -8.3073
      vertex 15.0704 6.92875 -8.68964
      vertex 13.3973 6.36742 -7.3275
    endloop
  endfacet
  facet normal 0 -1 -0
    outer loop
      vertex 17.0225 6.92875 -9.08812
      vertex 17.2225 6.92875 -8.10832
      vertex 15.2704 6.92875 -7.70984
    endloop
  endfacet
  facet normal -0 -1 0
    outer loop
      vertex 15.0704 6.92875 -8.68964
      vertex 17.0225 6.92875 -9.08812
      vertex 15.2704 6.92875 -7.70984
    endloop
  endfacet
  facet normal -0.27604 -0.959493 0.0563465
    outer loop
      vertex 18.8956 6.36742 -9.47046
      vertex 19.0956 6.36742 -8.49066
      vertex 17.2225 6.92875 -8.10832
    endloop
  endfacet
  facet normal -0.27604 -0.959493 0.0563465
    outer loop
      vertex 17.0225 6.92875 -9.08812
      vertex 18.8956 6.36742 -9.47046
      vertex 17.2225 6.92875 -8.10832
    endloop
  endfacet
  facet normal -0.529718 -0.841254 0.108128
    outer loop
      vertex 20.5378 5.29025 -9.80568
      vertex 20.7378 5.29025 -8.82589
      vertex 19.0956 6.36742 -8.49066
    endloop
  endfacet
  facet normal -0.529718 -0.841254 0.108128
    outer loop
      vertex 18.8956 6.36742 -9.47046
      vertex 20.5378 5.29025 -9.80568
      vertex 19.0956 6.36742 -8.49066
    endloop
  endfacet
  facet normal -0.74048 -0.654861 0.15115
    outer loop
      vertex 22.0162 3.78449 -9.08684
      vertex 20.7378 5.29025 -8.82589
      vertex 21.8162 3.78449 -10.0666
    endloop
  endfacet
  facet normal -0.74048 -0.654861 0.15115
    outer loop
      vertex 21.8162 3.78449 -10.0666
      vertex 20.7378 5.29025 -8.82589
      vertex 20.5378 5.29025 -9.80568
    endloop
  endfacet
  facet normal -0.891254 -0.415415 0.181926
    outer loop
      vertex 22.8272 1.97213 -9.25237
      vertex 22.0162 3.78449 -9.08684
      vertex 22.6272 1.97213 -10.2322
    endloop
  endfacet
  facet normal -0.891254 -0.415415 0.181926
    outer loop
      vertex 22.6272 1.97213 -10.2322
      vertex 22.0162 3.78449 -9.08684
      vertex 21.8162 3.78449 -10.0666
    endloop
  endfacet
  facet normal -0.969823 -0.142315 0.197964
    outer loop
      vertex 23.105 0 -9.30908
      vertex 22.8272 1.97213 -9.25237
      vertex 22.905 0 -10.2889
    endloop
  endfacet
  facet normal -0.969823 -0.142315 0.197964
    outer loop
      vertex 22.905 0 -10.2889
      vertex 22.8272 1.97213 -9.25237
      vertex 22.6272 1.97213 -10.2322
    endloop
  endfacet
  facet normal -0.969823 0.142315 0.197964
    outer loop
      vertex 23.105 0 -9.30908
      vertex 22.905 0 -10.2889
      vertex 22.8272 -1.97213 -9.25237
    endloop
  endfacet
  facet normal -0.969823 0.142315 0.197964
    outer loop
      vertex 22.8272 -1.97213 -9.25237
      vertex 22.905 0 -10.2889
      vertex 22.6272 -1.97213 -10.2322
    endloop
  endfacet
  facet normal -0.891254 0.415415 0.181926
    outer loop
      vertex 22.8272 -1.97213 -9.25237
      vertex 22.6272 -1.97213 -10.2322
      vertex 22.0162 -3.78449 -9.08684
    endloop
  endfacet
  facet normal -0.891254 0.415415 0.181926
    outer loop
      vertex 22.0162 -3.78449 -9.08684
      vertex 22.6272 -1.97213 -10.2322
      vertex 21.8162 -3.78449 -10.0666
    endloop
  endfacet
  facet normal -0.74048 0.654861 0.15115
    outer loop
      vertex 22.0162 -3.78449 -9.08684
      vertex 21.8162 -3.78449 -10.0666
      vertex 20.7378 -5.29025 -8.82589
    endloop
  endfacet
  facet normal -0.74048 0.654861 0.15115
    outer loop
      vertex 20.7378 -5.29025 -8.82589
      vertex 21.8162 -3.78449 -10.0666
      vertex 20.5378 -5.29025 -9.80568
    endloop
  endfacet
  facet normal -0.529718 0.841254 0.108128
    outer loop
      vertex 20.7378 -5.29025 -8.82589
      vertex 20.5378 -5.29025 -9.80568
      vertex 19.0956 -6.36742 -8.49066
    endloop
  endfacet
  facet normal -0.529718 0.841254 0.108128
    outer loop
      vertex 19.0956 -6.36742 -8.49066
      vertex 20.5378 -5.29025 -9.80568
      vertex 18.8956 -6.36742 -9.47046
    endloop
  endfacet
  facet normal -0.27604 0.959493 0.0563465
    outer loop
      vertex 19.0956 -6.36742 -8.49066
      vertex 18.8956 -6.36742 -9.47046
      vertex 17.2225 -6.92875 -8.10832
    endloop
  endfacet
  facet normal -0.27604 0.959493 0.0563465
    outer loop
      vertex 17.2225 -6.92875 -8.10832
      vertex 18.8956 -6.36742 -9.47046
      vertex 17.0225 -6.92875 -9.08812
    endloop
  endfacet
  facet normal -0 1 0
    outer loop
      vertex 17.2225 -6.92875 -8.10832
      vertex 17.0225 -6.92875 -9.08812
      vertex 15.2704 -6.92875 -7.70984
    endloop
  endfacet
  facet normal 0 1 -0
    outer loop
      vertex 15.2704 -6.92875 -7.70984
      vertex 17.0225 -6.92875 -9.08812
      vertex 15.0704 -6.92875 -8.68964
    endloop
  endfacet
  facet normal 0.27604 0.959493 -0.0563465
    outer loop
      vertex 15.2704 -6.92875 -7.70984
      vertex 15.0704 -6.92875 -8.68964
      vertex 13.3973 -6.36742 -7.3275
    endloop
  endfacet
  facet normal 0.27604 0.959493 -0.0563465
    outer loop
      vertex 13.3973 -6.36742 -7.3275
      vertex 15.0704 -6.92875 -8.68964
      vertex 13.1973 -6.36742 -8.3073
    endloop
  endfacet
  facet normal 0.529718 0.841254 -0.108128
    outer loop
      vertex 13.3973 -6.36742 -7.3275
      vertex 13.1973 -6.36742 -8.3073
      vertex 11.755 -5.29025 -6.99228
    endloop
  endfacet
  facet normal 0.529718 0.841254 -0.108128
    outer loop
      vertex 11.755 -5.29025 -6.99228
      vertex 13.1973 -6.36742 -8.3073
      vertex 11.555 -5.29025 -7.97207
    endloop
  endfacet
  facet normal 0.74048 0.654861 -0.15115
    outer loop
      vertex 10.4766 -3.78449 -6.73133
      vertex 11.755 -5.29025 -6.99228
      vertex 11.555 -5.29025 -7.97207
    endloop
  endfacet
  facet normal 0.74048 0.654861 -0.15115
    outer loop
      vertex 10.2766 -3.78449 -7.71112
      vertex 10.4766 -3.78449 -6.73133
      vertex 11.555 -5.29025 -7.97207
    endloop
  endfacet
  facet normal 0.891254 0.415415 -0.181926
    outer loop
      vertex 9.66568 -1.97213 -6.56579
      vertex 10.4766 -3.78449 -6.73133
      vertex 10.2766 -3.78449 -7.71112
    endloop
  endfacet
  facet normal 0.891254 0.415415 -0.181926
    outer loop
      vertex 9.46568 -1.97213 -7.54559
      vertex 9.66568 -1.97213 -6.56579
      vertex 10.2766 -3.78449 -7.71112
    endloop
  endfacet
  facet normal 0.969823 0.142315 -0.197964
    outer loop
      vertex 9.51112 -0.875 -6.53424
      vertex 9.66568 -1.97213 -6.56579
      vertex 9.46568 -1.97213 -7.54559
    endloop
  endfacet
  facet normal 0.969823 0.142315 -0.197964
    outer loop
      vertex 9.31112 -0.875 -7.51404
      vertex 9.51112 -0.875 -6.53424
      vertex 9.46568 -1.97213 -7.54559
    endloop
  endfacet
  facet normal -0.979796 -0 -0.2
    outer loop
      vertex -0.610102 -1.875 5.48888
      vertex -0.610102 -0.875 5.48888
      vertex -0.410102 -1.875 4.50908
    endloop
  endfacet
  facet normal -0.979796 -0 -0.2
    outer loop
      vertex -0.410102 -1.875 4.50908
      vertex -0.610102 -0.875 5.48888
      vertex -0.410102 -0.875 4.50908
    endloop
  endfacet
  facet normal -0.2 -1.86886e-14 0.979796
    outer loop
      vertex 8.94835 -1.94114 7.43999
      vertex 9.68247 -3.75 7.58984
      vertex 8.93982 -1.875 7.43825
    endloop
  endfacet
  facet normal -0.2 0 0.979796
    outer loop
      vertex -0.610102 -0.875 5.48888
      vertex -0.610102 -1.875 5.48888
      vertex 8.93982 -1.875 7.43825
    endloop
  endfacet
  facet normal -0.2 -2.07091e-16 0.979796
    outer loop
      vertex 22.6272 -1.97213 10.2322
      vertex 21.8162 -3.78449 10.0666
      vertex 22.4104 -3.75 10.1879
    endloop
  endfacet
  facet normal -0.2 2.07228e-16 0.979796
    outer loop
      vertex 9.68247 -3.75 7.58984
      vertex 10.8503 -5.3033 7.82822
      vertex 8.93982 -1.875 7.43825
    endloop
  endfacet
  facet normal -0.2 2.72011e-16 0.979796
    outer loop
      vertex 9.46568 -1.97213 7.54559
      vertex 9.31112 -0.875 7.51404
      vertex 8.93982 -1.875 7.43825
    endloop
  endfacet
  facet normal -0.2 4.58582e-16 0.979796
    outer loop
      vertex 8.93982 -1.875 7.43825
      vertex 9.31112 -0.875 7.51404
      vertex -0.610102 -0.875 5.48888
    endloop
  endfacet
  facet normal -0.2 2.9935e-16 0.979796
    outer loop
      vertex 22.905 0 10.2889
      vertex 23.1445 -1.94114 10.3378
      vertex 23.3949 0 10.3889
    endloop
  endfacet
  facet normal -0.2 1.85899e-16 0.979796
    outer loop
      vertex 21.8162 3.78449 10.0666
      vertex 22.6272 1.97213 10.2322
      vertex 22.4104 3.75 10.1879
    endloop
  endfacet
  facet normal -0.2 -6.0628e-16 0.979796
    outer loop
      vertex 9.68247 3.75 7.58984
      vertex 8.94835 1.94114 7.43999
      vertex 10.2766 3.78449 7.71112
    endloop
  endfacet
  facet normal -0.2 -1.40914e-15 0.979796
    outer loop
      vertex 13.1973 6.36742 8.3073
      vertex 14.1445 7.24444 8.50065
      vertex 10.8503 5.3033 7.82822
    endloop
  endfacet
  facet normal -0.2 2.14784e-16 0.979796
    outer loop
      vertex 20.5378 5.29025 9.80568
      vertex 21.8162 3.78449 10.0666
      vertex 21.2426 5.3033 9.94954
    endloop
  endfacet
  facet normal -0.2 2.6278e-16 0.979796
    outer loop
      vertex 22.905 0 10.2889
      vertex 22.6272 -1.97213 10.2322
      vertex 23.1445 -1.94114 10.3378
    endloop
  endfacet
  facet normal -0.2 1.28956e-14 0.979796
    outer loop
      vertex 9.46568 1.97213 7.54559
      vertex 8.94835 1.94114 7.43999
      vertex 8.93982 1.875 7.43825
    endloop
  endfacet
  facet normal -0.2 -2.74689e-16 0.979796
    outer loop
      vertex 10.2766 3.78449 7.71112
      vertex 11.555 5.29025 7.97207
      vertex 9.68247 3.75 7.58984
    endloop
  endfacet
  facet normal -0.2 -2.70336e-16 0.979796
    outer loop
      vertex 9.31112 0.875 7.51404
      vertex 9.46568 1.97213 7.54559
      vertex 8.93982 1.875 7.43825
    endloop
  endfacet
  facet normal -0.2 -9.4851e-16 0.979796
    outer loop
      vertex 15.0704 6.92875 8.68964
      vertex 17.0225 6.92875 9.08812
      vertex 16.0464 7.5 8.88888
    endloop
  endfacet
  facet normal -0.2 -2.64454e-15 0.979796
    outer loop
      vertex 13.1973 6.36742 8.3073
      vertex 15.0704 6.92875 8.68964
      vertex 16.0464 7.5 8.88888
    endloop
  endfacet
  facet normal -0.2 -5.89777e-16 0.979796
    outer loop
      vertex 16.0464 7.5 8.88888
      vertex 14.1445 7.24444 8.50065
      vertex 13.1973 6.36742 8.3073
    endloop
  endfacet
  facet normal -0.2 -4.6083e-16 0.979796
    outer loop
      vertex -0.610102 0.875 5.48888
      vertex 9.31112 0.875 7.51404
      vertex 8.93982 1.875 7.43825
    endloop
  endfacet
  facet normal -0.2 5.44597e-16 0.979796
    outer loop
      vertex 11.555 5.29025 7.97207
      vertex 13.1973 6.36742 8.3073
      vertex 10.8503 5.3033 7.82822
    endloop
  endfacet
  facet normal -0.2 -2.3746e-16 0.979796
    outer loop
      vertex 17.9484 7.24444 9.27711
      vertex 16.0464 7.5 8.88888
      vertex 17.0225 6.92875 9.08812
    endloop
  endfacet
  facet normal -0.2 -3.78559e-16 0.979796
    outer loop
      vertex 19.7207 6.49519 9.63888
      vertex 17.9484 7.24444 9.27711
      vertex 18.8956 6.36742 9.47046
    endloop
  endfacet
  facet normal -0.2 -4.1756e-16 0.979796
    outer loop
      vertex 18.8956 6.36742 9.47046
      vertex 20.5378 5.29025 9.80568
      vertex 19.7207 6.49519 9.63888
    endloop
  endfacet
  facet normal -0.2 3.57306e-16 0.979796
    outer loop
      vertex 21.2426 5.3033 9.94954
      vertex 19.7207 6.49519 9.63888
      vertex 20.5378 5.29025 9.80568
    endloop
  endfacet
  facet normal -0.2 -2.57932e-16 0.979796
    outer loop
      vertex 22.6272 1.97213 10.2322
      vertex 22.905 0 10.2889
      vertex 23.1445 1.94114 10.3378
    endloop
  endfacet
  facet normal -0.2 -4.56501e-16 0.979796
    outer loop
      vertex 22.4104 3.75 10.1879
      vertex 21.2426 5.3033 9.94954
      vertex 21.8162 3.78449 10.0666
    endloop
  endfacet
  facet normal -0.2 3.55667e-16 0.979796
    outer loop
      vertex 23.1445 1.94114 10.3378
      vertex 22.4104 3.75 10.1879
      vertex 22.6272 1.97213 10.2322
    endloop
  endfacet
  facet normal -0.2 -2.93175e-16 0.979796
    outer loop
      vertex 23.3949 0 10.3889
      vertex 23.1445 1.94114 10.3378
      vertex 22.905 0 10.2889
    endloop
  endfacet
  facet normal -0.2 -3.77667e-16 0.979796
    outer loop
      vertex 22.4104 -3.75 10.1879
      vertex 23.1445 -1.94114 10.3378
      vertex 22.6272 -1.97213 10.2322
    endloop
  endfacet
  facet normal -0.2 4.84451e-16 0.979796
    outer loop
      vertex 21.2426 -5.3033 9.94954
      vertex 22.4104 -3.75 10.1879
      vertex 21.8162 -3.78449 10.0666
    endloop
  endfacet
  facet normal -0.2 -2.28676e-16 0.979796
    outer loop
      vertex 18.8956 -6.36742 9.47046
      vertex 17.0225 -6.92875 9.08812
      vertex 17.9484 -7.24444 9.27711
    endloop
  endfacet
  facet normal -0.2 -3.57306e-16 0.979796
    outer loop
      vertex 19.7207 -6.49519 9.63888
      vertex 21.2426 -5.3033 9.94954
      vertex 20.5378 -5.29025 9.80568
    endloop
  endfacet
  facet normal -0.2 9.10551e-16 0.979796
    outer loop
      vertex 17.0225 -6.92875 9.08812
      vertex 15.0704 -6.92875 8.68964
      vertex 16.0464 -7.5 8.88888
    endloop
  endfacet
  facet normal -0.2 4.29126e-16 0.979796
    outer loop
      vertex 17.9484 -7.24444 9.27711
      vertex 19.7207 -6.49519 9.63888
      vertex 18.8956 -6.36742 9.47046
    endloop
  endfacet
  facet normal -0.2 8.67613e-16 0.979796
    outer loop
      vertex 15.0704 -6.92875 8.68964
      vertex 13.1973 -6.36742 8.3073
      vertex 14.1445 -7.24444 8.50065
    endloop
  endfacet
  facet normal -0.2 2.85434e-16 0.979796
    outer loop
      vertex 16.0464 -7.5 8.88888
      vertex 17.9484 -7.24444 9.27711
      vertex 17.0225 -6.92875 9.08812
    endloop
  endfacet
  facet normal -0.2 -2.46297e-15 0.979796
    outer loop
      vertex 11.555 -5.29025 7.97207
      vertex 10.2766 -3.78449 7.71112
      vertex 12.3722 -6.49519 8.13888
    endloop
  endfacet
  facet normal -0.2 1.3829e-15 0.979796
    outer loop
      vertex 14.1445 -7.24444 8.50065
      vertex 16.0464 -7.5 8.88888
      vertex 15.0704 -6.92875 8.68964
    endloop
  endfacet
  facet normal -0.2 3.64609e-16 0.979796
    outer loop
      vertex 12.3722 -6.49519 8.13888
      vertex 14.1445 -7.24444 8.50065
      vertex 13.1973 -6.36742 8.3073
    endloop
  endfacet
  facet normal -0.2 -5.05547e-16 0.979796
    outer loop
      vertex 12.3722 -6.49519 8.13888
      vertex 13.1973 -6.36742 8.3073
      vertex 11.555 -5.29025 7.97207
    endloop
  endfacet
  facet normal -0.2 -1.27275e-18 0.979796
    outer loop
      vertex 10.8503 -5.3033 7.82822
      vertex 10.2766 -3.78449 7.71112
      vertex 8.93982 -1.875 7.43825
    endloop
  endfacet
  facet normal -0.2 1.27473e-16 0.979796
    outer loop
      vertex 10.8503 -5.3033 7.82822
      vertex 12.3722 -6.49519 8.13888
      vertex 10.2766 -3.78449 7.71112
    endloop
  endfacet
  facet normal -0.2 3.56926e-16 0.979796
    outer loop
      vertex 20.5378 -5.29025 9.80568
      vertex 18.8956 -6.36742 9.47046
      vertex 19.7207 -6.49519 9.63888
    endloop
  endfacet
  facet normal -0.2 -2.03988e-16 0.979796
    outer loop
      vertex 21.8162 -3.78449 10.0666
      vertex 20.5378 -5.29025 9.80568
      vertex 21.2426 -5.3033 9.94954
    endloop
  endfacet
  facet normal -0.2 1.86245e-15 0.979796
    outer loop
      vertex 12.3722 6.49519 8.13888
      vertex 10.8503 5.3033 7.82822
      vertex 14.1445 7.24444 8.50065
    endloop
  endfacet
  facet normal -0.2 2.71614e-16 0.979796
    outer loop
      vertex 17.0225 6.92875 9.08812
      vertex 18.8956 6.36742 9.47046
      vertex 17.9484 7.24444 9.27711
    endloop
  endfacet
  facet normal -0.2 2.15478e-16 0.979796
    outer loop
      vertex 10.8503 5.3033 7.82822
      vertex 9.68247 3.75 7.58984
      vertex 11.555 5.29025 7.97207
    endloop
  endfacet
  facet normal -0.2 5.00808e-16 0.979796
    outer loop
      vertex 9.46568 1.97213 7.54559
      vertex 10.2766 3.78449 7.71112
      vertex 8.94835 1.94114 7.43999
    endloop
  endfacet
  facet normal -0.2 0 0.979796
    outer loop
      vertex 8.93982 1.875 7.43825
      vertex -0.610102 1.875 5.48888
      vertex -0.610102 0.875 5.48888
    endloop
  endfacet
  facet normal -0.2 2.25639e-16 0.979796
    outer loop
      vertex 10.2766 -3.78449 7.71112
      vertex 9.46568 -1.97213 7.54559
      vertex 8.93982 -1.875 7.43825
    endloop
  endfacet
  facet normal 0 -1 0
    outer loop
      vertex 8.93982 -1.875 7.43825
      vertex -0.610102 -1.875 5.48888
      vertex -0.410102 -1.875 4.50908
    endloop
  endfacet
  facet normal 0 -1 0
    outer loop
      vertex 9.13982 -1.875 6.45845
      vertex 8.93982 -1.875 7.43825
      vertex -0.410102 -1.875 4.50908
    endloop
  endfacet
  facet normal 0.2 0 -0.979796
    outer loop
      vertex -0.410102 -1.875 4.50908
      vertex -0.410102 -0.875 4.50908
      vertex 9.13982 -1.875 6.45845
    endloop
  endfacet
  facet normal 0.2 7.52827e-16 -0.979796
    outer loop
      vertex 9.13982 -1.875 6.45845
      vertex -0.410102 -0.875 4.50908
      vertex 9.51112 -0.875 6.53424
    endloop
  endfacet
  facet normal 0.2 3.01796e-16 -0.979796
    outer loop
      vertex 9.13982 -1.875 6.45845
      vertex 9.51112 -0.875 6.53424
      vertex 9.66568 -1.97213 6.56579
    endloop
  endfacet
  facet normal 0.2 1.75705e-16 -0.979796
    outer loop
      vertex 9.14835 -1.94114 6.46019
      vertex 9.66568 -1.97213 6.56579
      vertex 10.4766 -3.78449 6.73133
    endloop
  endfacet
  facet normal 0.2 -2.16461e-17 -0.979796
    outer loop
      vertex 9.88247 -3.75 6.61004
      vertex 11.755 -5.29025 6.99228
      vertex 11.0503 -5.3033 6.84842
    endloop
  endfacet
  facet normal 0.2 1.59697e-16 -0.979796
    outer loop
      vertex 16.2464 -7.5 7.90908
      vertex 13.3973 -6.36742 7.3275
      vertex 15.2704 -6.92875 7.70984
    endloop
  endfacet
  facet normal 0.2 -5.85639e-15 -0.979796
    outer loop
      vertex 18.1484 -7.24444 8.29731
      vertex 15.2704 -6.92875 7.70984
      vertex 17.2225 -6.92875 8.10832
    endloop
  endfacet
  facet normal 0.2 -1.26057e-15 -0.979796
    outer loop
      vertex 19.9207 -6.49519 8.65908
      vertex 17.2225 -6.92875 8.10832
      vertex 19.0956 -6.36742 8.49066
    endloop
  endfacet
  facet normal 0.2 -2.31286e-15 -0.979796
    outer loop
      vertex 21.4426 -5.3033 8.96974
      vertex 19.0956 -6.36742 8.49066
      vertex 20.7378 -5.29025 8.82589
    endloop
  endfacet
  facet normal 0.2 2.44533e-15 -0.979796
    outer loop
      vertex 22.6104 -3.75 9.20812
      vertex 20.7378 -5.29025 8.82589
      vertex 22.0162 -3.78449 9.08684
    endloop
  endfacet
  facet normal 0.2 -1.22354e-15 -0.979796
    outer loop
      vertex 23.3445 -1.94114 9.35797
      vertex 22.0162 -3.78449 9.08684
      vertex 22.8272 -1.97213 9.25237
    endloop
  endfacet
  facet normal 0.2 1.2348e-16 -0.979796
    outer loop
      vertex 23.5949 0 9.40908
      vertex 22.8272 -1.97213 9.25237
      vertex 23.105 0 9.30908
    endloop
  endfacet
  facet normal 0.2 8.35731e-16 -0.979796
    outer loop
      vertex 22.6104 3.75 9.20812
      vertex 23.105 0 9.30908
      vertex 22.8272 1.97213 9.25237
    endloop
  endfacet
  facet normal 0.2 -3.1379e-15 -0.979796
    outer loop
      vertex 21.4426 5.3033 8.96974
      vertex 22.8272 1.97213 9.25237
      vertex 22.0162 3.78449 9.08684
    endloop
  endfacet
  facet normal 0.2 3.35662e-15 -0.979796
    outer loop
      vertex 19.9207 6.49519 8.65908
      vertex 22.0162 3.78449 9.08684
      vertex 20.7378 5.29025 8.82589
    endloop
  endfacet
  facet normal 0.2 7.2723e-15 -0.979796
    outer loop
      vertex 18.1484 7.24444 8.29731
      vertex 20.7378 5.29025 8.82589
      vertex 19.0956 6.36742 8.49066
    endloop
  endfacet
  facet normal 0.2 1.95425e-15 -0.979796
    outer loop
      vertex 16.2464 7.5 7.90908
      vertex 19.0956 6.36742 8.49066
      vertex 17.2225 6.92875 8.10832
    endloop
  endfacet
  facet normal 0.2 -4.02175e-16 -0.979796
    outer loop
      vertex 14.3445 7.24444 7.52085
      vertex 17.2225 6.92875 8.10832
      vertex 15.2704 6.92875 7.70984
    endloop
  endfacet
  facet normal 0.2 -2.62056e-16 -0.979796
    outer loop
      vertex 12.5722 6.49519 7.15908
      vertex 15.2704 6.92875 7.70984
      vertex 13.3973 6.36742 7.3275
    endloop
  endfacet
  facet normal 0.2 1.01224e-16 -0.979796
    outer loop
      vertex 12.5722 6.49519 7.15908
      vertex 13.3973 6.36742 7.3275
      vertex 11.0503 5.3033 6.84842
    endloop
  endfacet
  facet normal 0.2 -6.87964e-16 -0.979796
    outer loop
      vertex 9.88247 3.75 6.61004
      vertex 10.4766 3.78449 6.73133
      vertex 9.14835 1.94114 6.46019
    endloop
  endfacet
  facet normal 0.2 1.66399e-16 -0.979796
    outer loop
      vertex 11.0503 5.3033 6.84842
      vertex 13.3973 6.36742 7.3275
      vertex 11.755 5.29025 6.99228
    endloop
  endfacet
  facet normal 0.2 -1.78918e-16 -0.979796
    outer loop
      vertex 9.66568 1.97213 6.56579
      vertex 9.14835 1.94114 6.46019
      vertex 10.4766 3.78449 6.73133
    endloop
  endfacet
  facet normal 0.2 5.82099e-15 -0.979796
    outer loop
      vertex 9.66568 1.97213 6.56579
      vertex 9.13982 1.875 6.45845
      vertex 9.14835 1.94114 6.46019
    endloop
  endfacet
  facet normal 0.2 2.12027e-16 -0.979796
    outer loop
      vertex 9.13982 1.875 6.45845
      vertex -0.410102 0.875 4.50908
      vertex -0.410102 1.875 4.50908
    endloop
  endfacet
  facet normal 0.2 -2.14989e-16 -0.979796
    outer loop
      vertex 11.0503 -5.3033 6.84842
      vertex 13.3973 -6.36742 7.3275
      vertex 12.5722 -6.49519 7.15908
    endloop
  endfacet
  facet normal 0.2 2.73612e-16 -0.979796
    outer loop
      vertex 13.3973 -6.36742 7.3275
      vertex 16.2464 -7.5 7.90908
      vertex 12.5722 -6.49519 7.15908
    endloop
  endfacet
  facet normal 0.2 3.55222e-16 -0.979796
    outer loop
      vertex 12.5722 6.49519 7.15908
      vertex 14.3445 7.24444 7.52085
      vertex 15.2704 6.92875 7.70984
    endloop
  endfacet
  facet normal 0.2 7.18083e-16 -0.979796
    outer loop
      vertex 14.3445 7.24444 7.52085
      vertex 16.2464 7.5 7.90908
      vertex 17.2225 6.92875 8.10832
    endloop
  endfacet
  facet normal 0.2 2.96264e-15 -0.979796
    outer loop
      vertex 16.2464 7.5 7.90908
      vertex 18.1484 7.24444 8.29731
      vertex 19.0956 6.36742 8.49066
    endloop
  endfacet
  facet normal 0.2 -5.72782e-16 -0.979796
    outer loop
      vertex 18.1484 7.24444 8.29731
      vertex 19.9207 6.49519 8.65908
      vertex 20.7378 5.29025 8.82589
    endloop
  endfacet
  facet normal 0.2 5.48068e-16 -0.979796
    outer loop
      vertex 19.9207 6.49519 8.65908
      vertex 21.4426 5.3033 8.96974
      vertex 22.0162 3.78449 9.08684
    endloop
  endfacet
  facet normal 0.2 -8.18188e-17 -0.979796
    outer loop
      vertex 21.4426 5.3033 8.96974
      vertex 22.6104 3.75 9.20812
      vertex 22.8272 1.97213 9.25237
    endloop
  endfacet
  facet normal 0.2 1.17169e-16 -0.979796
    outer loop
      vertex 22.6104 3.75 9.20812
      vertex 23.3445 1.94114 9.35797
      vertex 23.105 0 9.30908
    endloop
  endfacet
  facet normal 0.2 2.96331e-16 -0.979796
    outer loop
      vertex 23.3445 1.94114 9.35797
      vertex 23.5949 0 9.40908
      vertex 23.105 0 9.30908
    endloop
  endfacet
  facet normal 0.2 -5.04416e-16 -0.979796
    outer loop
      vertex 23.5949 0 9.40908
      vertex 23.3445 -1.94114 9.35797
      vertex 22.8272 -1.97213 9.25237
    endloop
  endfacet
  facet normal 0.2 1.05146e-15 -0.979796
    outer loop
      vertex 23.3445 -1.94114 9.35797
      vertex 22.6104 -3.75 9.20812
      vertex 22.0162 -3.78449 9.08684
    endloop
  endfacet
  facet normal 0.2 -2.07023e-15 -0.979796
    outer loop
      vertex 22.6104 -3.75 9.20812
      vertex 21.4426 -5.3033 8.96974
      vertex 20.7378 -5.29025 8.82589
    endloop
  endfacet
  facet normal 0.2 3.12237e-16 -0.979796
    outer loop
      vertex 21.4426 -5.3033 8.96974
      vertex 19.9207 -6.49519 8.65908
      vertex 19.0956 -6.36742 8.49066
    endloop
  endfacet
  facet normal 0.2 -2.96141e-15 -0.979796
    outer loop
      vertex 19.9207 -6.49519 8.65908
      vertex 18.1484 -7.24444 8.29731
      vertex 17.2225 -6.92875 8.10832
    endloop
  endfacet
  facet normal 0.2 8.09798e-16 -0.979796
    outer loop
      vertex 18.1484 -7.24444 8.29731
      vertex 16.2464 -7.5 7.90908
      vertex 15.2704 -6.92875 7.70984
    endloop
  endfacet
  facet normal 0.2 -6.32704e-16 -0.979796
    outer loop
      vertex 16.2464 -7.5 7.90908
      vertex 14.3445 -7.24444 7.52085
      vertex 12.5722 -6.49519 7.15908
    endloop
  endfacet
  facet normal 0.2 -2.21509e-16 -0.979796
    outer loop
      vertex 11.755 -5.29025 6.99228
      vertex 13.3973 -6.36742 7.3275
      vertex 11.0503 -5.3033 6.84842
    endloop
  endfacet
  facet normal 0.2 6.58371e-16 -0.979796
    outer loop
      vertex 9.14835 -1.94114 6.46019
      vertex 10.4766 -3.78449 6.73133
      vertex 9.88247 -3.75 6.61004
    endloop
  endfacet
  facet normal 0.2 1.36152e-15 -0.979796
    outer loop
      vertex 10.4766 -3.78449 6.73133
      vertex 11.755 -5.29025 6.99228
      vertex 9.88247 -3.75 6.61004
    endloop
  endfacet
  facet normal 0.2 -5.90922e-15 -0.979796
    outer loop
      vertex 9.13982 -1.875 6.45845
      vertex 9.66568 -1.97213 6.56579
      vertex 9.14835 -1.94114 6.46019
    endloop
  endfacet
  facet normal 0.2 3.52155e-18 -0.979796
    outer loop
      vertex 11.0503 5.3033 6.84842
      vertex 11.755 5.29025 6.99228
      vertex 9.88247 3.75 6.61004
    endloop
  endfacet
  facet normal 0.2 -1.36152e-15 -0.979796
    outer loop
      vertex 10.4766 3.78449 6.73133
      vertex 9.88247 3.75 6.61004
      vertex 11.755 5.29025 6.99228
    endloop
  endfacet
  facet normal 0.2 -3.01796e-16 -0.979796
    outer loop
      vertex 9.13982 1.875 6.45845
      vertex 9.66568 1.97213 6.56579
      vertex 9.51112 0.875 6.53424
    endloop
  endfacet
  facet normal 0.2 -1.03878e-15 -0.979796
    outer loop
      vertex -0.410102 0.875 4.50908
      vertex 9.13982 1.875 6.45845
      vertex 9.51112 0.875 6.53424
    endloop
  endfacet
  facet normal -0 1 0
    outer loop
      vertex 9.51112 -0.875 6.53424
      vertex -0.410102 -0.875 4.50908
      vertex 9.31112 -0.875 7.51404
    endloop
  endfacet
  facet normal 0 1 0
    outer loop
      vertex 9.31112 -0.875 7.51404
      vertex -0.410102 -0.875 4.50908
      vertex -0.610102 -0.875 5.48888
    endloop
  endfacet
  facet normal 0.969823 0.142315 0.197964
    outer loop
      vertex 9.46568 -1.97213 7.54559
      vertex 9.66568 -1.97213 6.56579
      vertex 9.51112 -0.875 6.53424
    endloop
  endfacet
  facet normal 0.969823 0.142315 0.197964
    outer loop
      vertex 9.31112 -0.875 7.51404
      vertex 9.46568 -1.97213 7.54559
      vertex 9.51112 -0.875 6.53424
    endloop
  endfacet
  facet normal 0.891254 0.415415 0.181926
    outer loop
      vertex 10.2766 -3.78449 7.71112
      vertex 10.4766 -3.78449 6.73133
      vertex 9.66568 -1.97213 6.56579
    endloop
  endfacet
  facet normal 0.891254 0.415415 0.181926
    outer loop
      vertex 9.46568 -1.97213 7.54559
      vertex 10.2766 -3.78449 7.71112
      vertex 9.66568 -1.97213 6.56579
    endloop
  endfacet
  facet normal 0.74048 0.654861 0.15115
    outer loop
      vertex 11.555 -5.29025 7.97207
      vertex 11.755 -5.29025 6.99228
      vertex 10.4766 -3.78449 6.73133
    endloop
  endfacet
  facet normal 0.74048 0.654861 0.15115
    outer loop
      vertex 10.2766 -3.78449 7.71112
      vertex 11.555 -5.29025 7.97207
      vertex 10.4766 -3.78449 6.73133
    endloop
  endfacet
  facet normal 0.529718 0.841254 0.108128
    outer loop
      vertex 13.3973 -6.36742 7.3275
      vertex 11.755 -5.29025 6.99228
      vertex 13.1973 -6.36742 8.3073
    endloop
  endfacet
  facet normal 0.529718 0.841254 0.108128
    outer loop
      vertex 13.1973 -6.36742 8.3073
      vertex 11.755 -5.29025 6.99228
      vertex 11.555 -5.29025 7.97207
    endloop
  endfacet
  facet normal 0.27604 0.959493 0.0563465
    outer loop
      vertex 15.2704 -6.92875 7.70984
      vertex 13.3973 -6.36742 7.3275
      vertex 15.0704 -6.92875 8.68964
    endloop
  endfacet
  facet normal 0.27604 0.959493 0.0563465
    outer loop
      vertex 15.0704 -6.92875 8.68964
      vertex 13.3973 -6.36742 7.3275
      vertex 13.1973 -6.36742 8.3073
    endloop
  endfacet
  facet normal -0 1 0
    outer loop
      vertex 17.2225 -6.92875 8.10832
      vertex 15.2704 -6.92875 7.70984
      vertex 17.0225 -6.92875 9.08812
    endloop
  endfacet
  facet normal 0 1 0
    outer loop
      vertex 17.0225 -6.92875 9.08812
      vertex 15.2704 -6.92875 7.70984
      vertex 15.0704 -6.92875 8.68964
    endloop
  endfacet
  facet normal -0.27604 0.959493 -0.0563465
    outer loop
      vertex 19.0956 -6.36742 8.49066
      vertex 17.2225 -6.92875 8.10832
      vertex 18.8956 -6.36742 9.47046
    endloop
  endfacet
  facet normal -0.27604 0.959493 -0.0563465
    outer loop
      vertex 18.8956 -6.36742 9.47046
      vertex 17.2225 -6.92875 8.10832
      vertex 17.0225 -6.92875 9.08812
    endloop
  endfacet
  facet normal -0.529718 0.841254 -0.108128
    outer loop
      vertex 20.7378 -5.29025 8.82589
      vertex 19.0956 -6.36742 8.49066
      vertex 20.5378 -5.29025 9.80568
    endloop
  endfacet
  facet normal -0.529718 0.841254 -0.108128
    outer loop
      vertex 20.5378 -5.29025 9.80568
      vertex 19.0956 -6.36742 8.49066
      vertex 18.8956 -6.36742 9.47046
    endloop
  endfacet
  facet normal -0.74048 0.654861 -0.15115
    outer loop
      vertex 22.0162 -3.78449 9.08684
      vertex 20.7378 -5.29025 8.82589
      vertex 21.8162 -3.78449 10.0666
    endloop
  endfacet
  facet normal -0.74048 0.654861 -0.15115
    outer loop
      vertex 21.8162 -3.78449 10.0666
      vertex 20.7378 -5.29025 8.82589
      vertex 20.5378 -5.29025 9.80568
    endloop
  endfacet
  facet normal -0.891254 0.415415 -0.181926
    outer loop
      vertex 22.8272 -1.97213 9.25237
      vertex 22.0162 -3.78449 9.08684
      vertex 22.6272 -1.97213 10.2322
    endloop
  endfacet
  facet normal -0.891254 0.415415 -0.181926
    outer loop
      vertex 22.6272 -1.97213 10.2322
      vertex 22.0162 -3.78449 9.08684
      vertex 21.8162 -3.78449 10.0666
    endloop
  endfacet
  facet normal -0.969823 0.142315 -0.197964
    outer loop
      vertex 23.105 0 9.30908
      vertex 22.8272 -1.97213 9.25237
      vertex 22.905 0 10.2889
    endloop
  endfacet
  facet normal -0.969823 0.142315 -0.197964
    outer loop
      vertex 22.905 0 10.2889
      vertex 22.8272 -1.97213 9.25237
      vertex 22.6272 -1.97213 10.2322
    endloop
  endfacet
  facet normal -0.969823 -0.142315 -0.197964
    outer loop
      vertex 23.105 0 9.30908
      vertex 22.905 0 10.2889
      vertex 22.8272 1.97213 9.25237
    endloop
  endfacet
  facet normal -0.969823 -0.142315 -0.197964
    outer loop
      vertex 22.8272 1.97213 9.25237
      vertex 22.905 0 10.2889
      vertex 22.6272 1.97213 10.2322
    endloop
  endfacet
  facet normal -0.891254 -0.415415 -0.181926
    outer loop
      vertex 22.8272 1.97213 9.25237
      vertex 22.6272 1.97213 10.2322
      vertex 22.0162 3.78449 9.08684
    endloop
  endfacet
  facet normal -0.891254 -0.415415 -0.181926
    outer loop
      vertex 22.0162 3.78449 9.08684
      vertex 22.6272 1.97213 10.2322
      vertex 21.8162 3.78449 10.0666
    endloop
  endfacet
  facet normal -0.74048 -0.654861 -0.15115
    outer loop
      vertex 22.0162 3.78449 9.08684
      vertex 21.8162 3.78449 10.0666
      vertex 20.7378 5.29025 8.82589
    endloop
  endfacet
  facet normal -0.74048 -0.654861 -0.15115
    outer loop
      vertex 20.7378 5.29025 8.82589
      vertex 21.8162 3.78449 10.0666
      vertex 20.5378 5.29025 9.80568
    endloop
  endfacet
  facet normal -0.529718 -0.841254 -0.108128
    outer loop
      vertex 19.0956 6.36742 8.49066
      vertex 20.7378 5.29025 8.82589
      vertex 20.5378 5.29025 9.80568
    endloop
  endfacet
  facet normal -0.529718 -0.841254 -0.108128
    outer loop
      vertex 18.8956 6.36742 9.47046
      vertex 19.0956 6.36742 8.49066
      vertex 20.5378 5.29025 9.80568
    endloop
  endfacet
  facet normal -0.27604 -0.959493 -0.0563465
    outer loop
      vertex 17.2225 6.92875 8.10832
      vertex 19.0956 6.36742 8.49066
      vertex 18.8956 6.36742 9.47046
    endloop
  endfacet
  facet normal -0.27604 -0.959493 -0.0563465
    outer loop
      vertex 17.0225 6.92875 9.08812
      vertex 17.2225 6.92875 8.10832
      vertex 18.8956 6.36742 9.47046
    endloop
  endfacet
  facet normal 0 -1 0
    outer loop
      vertex 15.2704 6.92875 7.70984
      vertex 17.2225 6.92875 8.10832
      vertex 17.0225 6.92875 9.08812
    endloop
  endfacet
  facet normal -0 -1 0
    outer loop
      vertex 15.0704 6.92875 8.68964
      vertex 15.2704 6.92875 7.70984
      vertex 17.0225 6.92875 9.08812
    endloop
  endfacet
  facet normal 0.27604 -0.959493 0.0563465
    outer loop
      vertex 13.3973 6.36742 7.3275
      vertex 15.2704 6.92875 7.70984
      vertex 15.0704 6.92875 8.68964
    endloop
  endfacet
  facet normal 0.27604 -0.959493 0.0563465
    outer loop
      vertex 13.1973 6.36742 8.3073
      vertex 13.3973 6.36742 7.3275
      vertex 15.0704 6.92875 8.68964
    endloop
  endfacet
  facet normal 0.529718 -0.841254 0.108128
    outer loop
      vertex 11.755 5.29025 6.99228
      vertex 13.3973 6.36742 7.3275
      vertex 13.1973 6.36742 8.3073
    endloop
  endfacet
  facet normal 0.529718 -0.841254 0.108128
    outer loop
      vertex 11.555 5.29025 7.97207
      vertex 11.755 5.29025 6.99228
      vertex 13.1973 6.36742 8.3073
    endloop
  endfacet
  facet normal 0.74048 -0.654861 0.15115
    outer loop
      vertex 10.4766 3.78449 6.73133
      vertex 11.755 5.29025 6.99228
      vertex 11.555 5.29025 7.97207
    endloop
  endfacet
  facet normal 0.74048 -0.654861 0.15115
    outer loop
      vertex 10.2766 3.78449 7.71112
      vertex 10.4766 3.78449 6.73133
      vertex 11.555 5.29025 7.97207
    endloop
  endfacet
  facet normal 0.891254 -0.415415 0.181926
    outer loop
      vertex 9.66568 1.97213 6.56579
      vertex 10.4766 3.78449 6.73133
      vertex 10.2766 3.78449 7.71112
    endloop
  endfacet
  facet normal 0.891254 -0.415415 0.181926
    outer loop
      vertex 9.46568 1.97213 7.54559
      vertex 9.66568 1.97213 6.56579
      vertex 10.2766 3.78449 7.71112
    endloop
  endfacet
  facet normal 0.969823 -0.142315 0.197964
    outer loop
      vertex 9.51112 0.875 6.53424
      vertex 9.66568 1.97213 6.56579
      vertex 9.46568 1.97213 7.54559
    endloop
  endfacet
  facet normal 0.969823 -0.142315 0.197964
    outer loop
      vertex 9.31112 0.875 7.51404
      vertex 9.51112 0.875 6.53424
      vertex 9.46568 1.97213 7.54559
    endloop
  endfacet
  facet normal 0 -1 0
    outer loop
      vertex -0.410102 0.875 4.50908
      vertex 9.51112 0.875 6.53424
      vertex 9.31112 0.875 7.51404
    endloop
  endfacet
  facet normal -0 -1 0
    outer loop
      vertex -0.610102 0.875 5.48888
      vertex -0.410102 0.875 4.50908
      vertex 9.31112 0.875 7.51404
    endloop
  endfacet
  facet normal -0.979796 -0 -0.2
    outer loop
      vertex -0.610102 0.875 5.48888
      vertex -0.610102 1.875 5.48888
      vertex -0.410102 0.875 4.50908
    endloop
  endfacet
  facet normal -0.979796 -0 -0.2
    outer loop
      vertex -0.410102 0.875 4.50908
      vertex -0.610102 1.875 5.48888
      vertex -0.410102 1.875 4.50908
    endloop
  endfacet
  facet normal 0 1 0
    outer loop
      vertex -0.610102 1.875 5.48888
      vertex 8.93982 1.875 7.43825
      vertex -0.410102 1.875 4.50908
    endloop
  endfacet
  facet normal 0 1 0
    outer loop
      vertex -0.410102 1.875 4.50908
      vertex 8.93982 1.875 7.43825
      vertex 9.13982 1.875 6.45845
    endloop
  endfacet
  facet normal -0.971414 0.130526 -0.198289
    outer loop
      vertex 8.93982 1.875 7.43825
      vertex 8.94835 1.94114 7.43999
      vertex 9.13982 1.875 6.45845
    endloop
  endfacet
  facet normal -0.971414 0.130526 -0.198289
    outer loop
      vertex 9.13982 1.875 6.45845
      vertex 8.94835 1.94114 7.43999
      vertex 9.14835 1.94114 6.46019
    endloop
  endfacet
  facet normal -0.905213 0.382683 -0.184776
    outer loop
      vertex 8.94835 1.94114 7.43999
      vertex 9.68247 3.75 7.58984
      vertex 9.14835 1.94114 6.46019
    endloop
  endfacet
  facet normal -0.905213 0.382683 -0.184776
    outer loop
      vertex 9.14835 1.94114 6.46019
      vertex 9.68247 3.75 7.58984
      vertex 9.88247 3.75 6.61004
    endloop
  endfacet
  facet normal -0.777324 0.608762 -0.158671
    outer loop
      vertex 9.68247 3.75 7.58984
      vertex 10.8503 5.3033 7.82822
      vertex 9.88247 3.75 6.61004
    endloop
  endfacet
  facet normal -0.777324 0.608762 -0.158671
    outer loop
      vertex 9.88247 3.75 6.61004
      vertex 10.8503 5.3033 7.82822
      vertex 11.0503 5.3033 6.84842
    endloop
  endfacet
  facet normal -0.596462 0.793353 -0.121752
    outer loop
      vertex 10.8503 5.3033 7.82822
      vertex 12.3722 6.49519 8.13888
      vertex 11.0503 5.3033 6.84842
    endloop
  endfacet
  facet normal -0.596462 0.793353 -0.121752
    outer loop
      vertex 11.0503 5.3033 6.84842
      vertex 12.3722 6.49519 8.13888
      vertex 12.5722 6.49519 7.15908
    endloop
  endfacet
  facet normal -0.374952 0.92388 -0.0765367
    outer loop
      vertex 12.3722 6.49519 8.13888
      vertex 14.1445 7.24444 8.50065
      vertex 12.5722 6.49519 7.15908
    endloop
  endfacet
  facet normal -0.374952 0.92388 -0.0765367
    outer loop
      vertex 12.5722 6.49519 7.15908
      vertex 14.1445 7.24444 8.50065
      vertex 14.3445 7.24444 7.52085
    endloop
  endfacet
  facet normal -0.127889 0.991445 -0.0261052
    outer loop
      vertex 14.1445 7.24444 8.50065
      vertex 16.0464 7.5 8.88888
      vertex 14.3445 7.24444 7.52085
    endloop
  endfacet
  facet normal -0.127889 0.991445 -0.0261052
    outer loop
      vertex 14.3445 7.24444 7.52085
      vertex 16.0464 7.5 8.88888
      vertex 16.2464 7.5 7.90908
    endloop
  endfacet
  facet normal 0.127889 0.991445 0.0261052
    outer loop
      vertex 16.0464 7.5 8.88888
      vertex 17.9484 7.24444 9.27711
      vertex 16.2464 7.5 7.90908
    endloop
  endfacet
  facet normal 0.127889 0.991445 0.0261052
    outer loop
      vertex 16.2464 7.5 7.90908
      vertex 17.9484 7.24444 9.27711
      vertex 18.1484 7.24444 8.29731
    endloop
  endfacet
  facet normal 0.374952 0.92388 0.0765367
    outer loop
      vertex 17.9484 7.24444 9.27711
      vertex 19.7207 6.49519 9.63888
      vertex 18.1484 7.24444 8.29731
    endloop
  endfacet
  facet normal 0.374952 0.92388 0.0765367
    outer loop
      vertex 18.1484 7.24444 8.29731
      vertex 19.7207 6.49519 9.63888
      vertex 19.9207 6.49519 8.65908
    endloop
  endfacet
  facet normal 0.596462 0.793353 0.121752
    outer loop
      vertex 19.7207 6.49519 9.63888
      vertex 21.2426 5.3033 9.94954
      vertex 19.9207 6.49519 8.65908
    endloop
  endfacet
  facet normal 0.596462 0.793353 0.121752
    outer loop
      vertex 19.9207 6.49519 8.65908
      vertex 21.2426 5.3033 9.94954
      vertex 21.4426 5.3033 8.96974
    endloop
  endfacet
  facet normal 0.777324 0.608762 0.158671
    outer loop
      vertex 21.4426 5.3033 8.96974
      vertex 21.2426 5.3033 9.94954
      vertex 22.4104 3.75 10.1879
    endloop
  endfacet
  facet normal 0.777324 0.608762 0.158671
    outer loop
      vertex 22.6104 3.75 9.20812
      vertex 21.4426 5.3033 8.96974
      vertex 22.4104 3.75 10.1879
    endloop
  endfacet
  facet normal 0.905213 0.382683 0.184776
    outer loop
      vertex 22.6104 3.75 9.20812
      vertex 22.4104 3.75 10.1879
      vertex 23.1445 1.94114 10.3378
    endloop
  endfacet
  facet normal 0.905213 0.382683 0.184776
    outer loop
      vertex 23.3445 1.94114 9.35797
      vertex 22.6104 3.75 9.20812
      vertex 23.1445 1.94114 10.3378
    endloop
  endfacet
  facet normal 0.971414 0.130526 0.198289
    outer loop
      vertex 23.3445 1.94114 9.35797
      vertex 23.1445 1.94114 10.3378
      vertex 23.3949 0 10.3889
    endloop
  endfacet
  facet normal 0.971414 0.130526 0.198289
    outer loop
      vertex 23.5949 0 9.40908
      vertex 23.3445 1.94114 9.35797
      vertex 23.3949 0 10.3889
    endloop
  endfacet
  facet normal 0.971414 -0.130526 0.198289
    outer loop
      vertex 23.3949 0 10.3889
      vertex 23.1445 -1.94114 10.3378
      vertex 23.3445 -1.94114 9.35797
    endloop
  endfacet
  facet normal 0.971414 -0.130526 0.198289
    outer loop
      vertex 23.5949 0 9.40908
      vertex 23.3949 0 10.3889
      vertex 23.3445 -1.94114 9.35797
    endloop
  endfacet
  facet normal 0.905213 -0.382683 0.184776
    outer loop
      vertex 23.1445 -1.94114 10.3378
      vertex 22.4104 -3.75 10.1879
      vertex 22.6104 -3.75 9.20812
    endloop
  endfacet
  facet normal 0.905213 -0.382683 0.184776
    outer loop
      vertex 23.3445 -1.94114 9.35797
      vertex 23.1445 -1.94114 10.3378
      vertex 22.6104 -3.75 9.20812
    endloop
  endfacet
  facet normal 0.777324 -0.608762 0.158671
    outer loop
      vertex 22.4104 -3.75 10.1879
      vertex 21.2426 -5.3033 9.94954
      vertex 21.4426 -5.3033 8.96974
    endloop
  endfacet
  facet normal 0.777324 -0.608762 0.158671
    outer loop
      vertex 22.6104 -3.75 9.20812
      vertex 22.4104 -3.75 10.1879
      vertex 21.4426 -5.3033 8.96974
    endloop
  endfacet
  facet normal 0.596462 -0.793353 0.121752
    outer loop
      vertex 21.2426 -5.3033 9.94954
      vertex 19.7207 -6.49519 9.63888
      vertex 19.9207 -6.49519 8.65908
    endloop
  endfacet
  facet normal 0.596462 -0.793353 0.121752
    outer loop
      vertex 21.4426 -5.3033 8.96974
      vertex 21.2426 -5.3033 9.94954
      vertex 19.9207 -6.49519 8.65908
    endloop
  endfacet
  facet normal 0.374952 -0.92388 0.0765367
    outer loop
      vertex 19.7207 -6.49519 9.63888
      vertex 17.9484 -7.24444 9.27711
      vertex 18.1484 -7.24444 8.29731
    endloop
  endfacet
  facet normal 0.374952 -0.92388 0.0765367
    outer loop
      vertex 19.9207 -6.49519 8.65908
      vertex 19.7207 -6.49519 9.63888
      vertex 18.1484 -7.24444 8.29731
    endloop
  endfacet
  facet normal 0.127889 -0.991445 0.0261052
    outer loop
      vertex 17.9484 -7.24444 9.27711
      vertex 16.0464 -7.5 8.88888
      vertex 16.2464 -7.5 7.90908
    endloop
  endfacet
  facet normal 0.127889 -0.991445 0.0261052
    outer loop
      vertex 18.1484 -7.24444 8.29731
      vertex 17.9484 -7.24444 9.27711
      vertex 16.2464 -7.5 7.90908
    endloop
  endfacet
  facet normal -0.127889 -0.991445 -0.0261052
    outer loop
      vertex 16.0464 -7.5 8.88888
      vertex 14.1445 -7.24444 8.50065
      vertex 14.3445 -7.24444 7.52085
    endloop
  endfacet
  facet normal -0.127889 -0.991445 -0.0261052
    outer loop
      vertex 16.2464 -7.5 7.90908
      vertex 16.0464 -7.5 8.88888
      vertex 14.3445 -7.24444 7.52085
    endloop
  endfacet
  facet normal -0.374952 -0.92388 -0.0765367
    outer loop
      vertex 14.1445 -7.24444 8.50065
      vertex 12.3722 -6.49519 8.13888
      vertex 12.5722 -6.49519 7.15908
    endloop
  endfacet
  facet normal -0.374952 -0.92388 -0.0765367
    outer loop
      vertex 14.3445 -7.24444 7.52085
      vertex 14.1445 -7.24444 8.50065
      vertex 12.5722 -6.49519 7.15908
    endloop
  endfacet
  facet normal -0.596462 -0.793353 -0.121752
    outer loop
      vertex 12.3722 -6.49519 8.13888
      vertex 10.8503 -5.3033 7.82822
      vertex 11.0503 -5.3033 6.84842
    endloop
  endfacet
  facet normal -0.596462 -0.793353 -0.121752
    outer loop
      vertex 12.5722 -6.49519 7.15908
      vertex 12.3722 -6.49519 8.13888
      vertex 11.0503 -5.3033 6.84842
    endloop
  endfacet
  facet normal -0.777324 -0.608762 -0.158671
    outer loop
      vertex 9.68247 -3.75 7.58984
      vertex 9.88247 -3.75 6.61004
      vertex 10.8503 -5.3033 7.82822
    endloop
  endfacet
  facet normal -0.777324 -0.608762 -0.158671
    outer loop
      vertex 10.8503 -5.3033 7.82822
      vertex 9.88247 -3.75 6.61004
      vertex 11.0503 -5.3033 6.84842
    endloop
  endfacet
  facet normal -0.905213 -0.382683 -0.184776
    outer loop
      vertex 8.94835 -1.94114 7.43999
      vertex 9.14835 -1.94114 6.46019
      vertex 9.68247 -3.75 7.58984
    endloop
  endfacet
  facet normal -0.905213 -0.382683 -0.184776
    outer loop
      vertex 9.68247 -3.75 7.58984
      vertex 9.14835 -1.94114 6.46019
      vertex 9.88247 -3.75 6.61004
    endloop
  endfacet
  facet normal -0.971414 -0.130526 -0.198289
    outer loop
      vertex 8.93982 -1.875 7.43825
      vertex 9.13982 -1.875 6.45845
      vertex 8.94835 -1.94114 7.43999
    endloop
  endfacet
  facet normal -0.971414 -0.130526 -0.198289
    outer loop
      vertex 8.94835 -1.94114 7.43999
      vertex 9.13982 -1.875 6.45845
      vertex 9.14835 -1.94114 6.46019
    endloop
  endfacet
endsolid OpenSCAD_Model
