solid OpenSCAD_Model
  facet normal -1 -0 -0
    outer loop
      vertex -11.25 -9.25 -35
      vertex -11.25 -9.25 -24
      vertex -11.25 9.25 -35
    endloop
  endfacet
  facet normal -1 0 0
    outer loop
      vertex -11.25 9.25 -35
      vertex -11.25 -9.25 -24
      vertex -11.25 9.25 -24
    endloop
  endfacet
  facet normal 0 -1 0
    outer loop
      vertex 12.25 -9.25 -32.5
      vertex -11.25 -9.25 -35
      vertex 20.25 -9.25 -35
    endloop
  endfacet
  facet normal 0 -1 0
    outer loop
      vertex 10.4866 -9.25 -31.9271
      vertex 9.82295 -9.25 -31.2634
      vertex -11.25 -9.25 -24
    endloop
  endfacet
  facet normal 0 -1 0
    outer loop
      vertex 9.25 -9.25 -29.5
      vertex -11.25 -9.25 -24
      vertex 9.39683 -9.25 -30.4271
    endloop
  endfacet
  facet normal 0 -1 0
    outer loop
      vertex 14.0134 -9.25 -31.9271
      vertex 13.1771 -9.25 -32.3532
      vertex 20.25 -9.25 -35
    endloop
  endfacet
  facet normal 0 -1 0
    outer loop
      vertex 9.39683 -9.25 -28.5729
      vertex -11.25 -9.25 -24
      vertex 9.25 -9.25 -29.5
    endloop
  endfacet
  facet normal 0 -1 0
    outer loop
      vertex 9.82295 -9.25 -27.7366
      vertex -11.25 -9.25 -24
      vertex 9.39683 -9.25 -28.5729
    endloop
  endfacet
  facet normal 0 -1 0
    outer loop
      vertex 10.4866 -9.25 -27.0729
      vertex -11.25 -9.25 -24
      vertex 9.82295 -9.25 -27.7366
    endloop
  endfacet
  facet normal -0 -1 0
    outer loop
      vertex 13.1771 -9.25 -26.6468
      vertex 14.0134 -9.25 -27.0729
      vertex 20.25 -9.25 -24
    endloop
  endfacet
  facet normal 0 -1 0
    outer loop
      vertex 11.3229 -9.25 -26.6468
      vertex -11.25 -9.25 -24
      vertex 10.4866 -9.25 -27.0729
    endloop
  endfacet
  facet normal 0 -1 0
    outer loop
      vertex 20.25 -9.25 -24
      vertex -11.25 -9.25 -24
      vertex 11.3229 -9.25 -26.6468
    endloop
  endfacet
  facet normal -0 -1 0
    outer loop
      vertex 14.0134 -9.25 -27.0729
      vertex 14.6771 -9.25 -27.7366
      vertex 20.25 -9.25 -24
    endloop
  endfacet
  facet normal 0 -1 0
    outer loop
      vertex 20.25 -9.25 -24
      vertex 11.3229 -9.25 -26.6468
      vertex 12.25 -9.25 -26.5
    endloop
  endfacet
  facet normal 0 -1 0
    outer loop
      vertex 13.1771 -9.25 -32.3532
      vertex 12.25 -9.25 -32.5
      vertex 20.25 -9.25 -35
    endloop
  endfacet
  facet normal 0 -1 0
    outer loop
      vertex 20.25 -9.25 -24
      vertex 14.6771 -9.25 -27.7366
      vertex 20.25 -9.25 -35
    endloop
  endfacet
  facet normal 0 -1 0
    outer loop
      vertex 14.6771 -9.25 -27.7366
      vertex 15.1032 -9.25 -28.5729
      vertex 20.25 -9.25 -35
    endloop
  endfacet
  facet normal 0 -1 0
    outer loop
      vertex 15.1032 -9.25 -28.5729
      vertex 15.25 -9.25 -29.5
      vertex 20.25 -9.25 -35
    endloop
  endfacet
  facet normal 0 -1 0
    outer loop
      vertex 15.25 -9.25 -29.5
      vertex 15.1032 -9.25 -30.4271
      vertex 20.25 -9.25 -35
    endloop
  endfacet
  facet normal 0 -1 0
    outer loop
      vertex 15.1032 -9.25 -30.4271
      vertex 14.6771 -9.25 -31.2634
      vertex 20.25 -9.25 -35
    endloop
  endfacet
  facet normal 0 -1 0
    outer loop
      vertex 14.6771 -9.25 -31.2634
      vertex 14.0134 -9.25 -31.9271
      vertex 20.25 -9.25 -35
    endloop
  endfacet
  facet normal 0 -1 0
    outer loop
      vertex 11.3229 -9.25 -32.3532
      vertex -11.25 -9.25 -35
      vertex 12.25 -9.25 -32.5
    endloop
  endfacet
  facet normal 0 -1 0
    outer loop
      vertex -11.25 -9.25 -24
      vertex -11.25 -9.25 -35
      vertex 11.3229 -9.25 -32.3532
    endloop
  endfacet
  facet normal 0 -1 0
    outer loop
      vertex -11.25 -9.25 -24
      vertex 11.3229 -9.25 -32.3532
      vertex 10.4866 -9.25 -31.9271
    endloop
  endfacet
  facet normal 0 -1 0
    outer loop
      vertex 9.82295 -9.25 -31.2634
      vertex 9.39683 -9.25 -30.4271
      vertex -11.25 -9.25 -24
    endloop
  endfacet
  facet normal -0 -1 0
    outer loop
      vertex 12.25 -9.25 -26.5
      vertex 13.1771 -9.25 -26.6468
      vertex 20.25 -9.25 -24
    endloop
  endfacet
  facet normal 0 -0 -1
    outer loop
      vertex -8 0 -35
      vertex -11.25 9.25 -35
      vertex -4 6.9282 -35
    endloop
  endfacet
  facet normal 0 0 -1
    outer loop
      vertex -4 -6.9282 -35
      vertex 20.25 -9.25 -35
      vertex -11.25 -9.25 -35
    endloop
  endfacet
  facet normal 0 0 -1
    outer loop
      vertex 4 -6.9282 -35
      vertex 20.25 -9.25 -35
      vertex -4 -6.9282 -35
    endloop
  endfacet
  facet normal 0 0 -1
    outer loop
      vertex -8 0 -35
      vertex -4 -6.9282 -35
      vertex -11.25 -9.25 -35
    endloop
  endfacet
  facet normal 0 0 -1
    outer loop
      vertex 20.25 9.25 -35
      vertex 20.25 -9.25 -35
      vertex 8 0 -35
    endloop
  endfacet
  facet normal 0 0 -1
    outer loop
      vertex 20.25 9.25 -35
      vertex 8 0 -35
      vertex 4 6.9282 -35
    endloop
  endfacet
  facet normal 0 0 -1
    outer loop
      vertex 20.25 9.25 -35
      vertex 4 6.9282 -35
      vertex -11.25 9.25 -35
    endloop
  endfacet
  facet normal 0 0 -1
    outer loop
      vertex 4 6.9282 -35
      vertex -4 6.9282 -35
      vertex -11.25 9.25 -35
    endloop
  endfacet
  facet normal 0 0 -1
    outer loop
      vertex -11.25 9.25 -35
      vertex -8 0 -35
      vertex -11.25 -9.25 -35
    endloop
  endfacet
  facet normal 0 0 -1
    outer loop
      vertex 8 0 -35
      vertex 20.25 -9.25 -35
      vertex 4 -6.9282 -35
    endloop
  endfacet
  facet normal 0 1 -0
    outer loop
      vertex 13.1771 9.25 -32.3532
      vertex 20.25 9.25 -35
      vertex 12.25 9.25 -32.5
    endloop
  endfacet
  facet normal 0 1 0
    outer loop
      vertex 12.25 9.25 -26.5
      vertex -11.25 9.25 -24
      vertex 20.25 9.25 -24
    endloop
  endfacet
  facet normal 0 1 0
    outer loop
      vertex 9.39683 9.25 -30.4271
      vertex -11.25 9.25 -24
      vertex 9.25 9.25 -29.5
    endloop
  endfacet
  facet normal 0 1 0
    outer loop
      vertex 9.82295 9.25 -31.2634
      vertex -11.25 9.25 -24
      vertex 9.39683 9.25 -30.4271
    endloop
  endfacet
  facet normal 0 1 0
    outer loop
      vertex -11.25 9.25 -35
      vertex -11.25 9.25 -24
      vertex 10.4866 9.25 -31.9271
    endloop
  endfacet
  facet normal 0 1 0
    outer loop
      vertex -11.25 9.25 -35
      vertex 10.4866 9.25 -31.9271
      vertex 11.3229 9.25 -32.3532
    endloop
  endfacet
  facet normal 0 1 0
    outer loop
      vertex -11.25 9.25 -35
      vertex 11.3229 9.25 -32.3532
      vertex 20.25 9.25 -35
    endloop
  endfacet
  facet normal 0 1 0
    outer loop
      vertex 11.3229 9.25 -32.3532
      vertex 12.25 9.25 -32.5
      vertex 20.25 9.25 -35
    endloop
  endfacet
  facet normal 0 1 -0
    outer loop
      vertex 14.0134 9.25 -31.9271
      vertex 20.25 9.25 -35
      vertex 13.1771 9.25 -32.3532
    endloop
  endfacet
  facet normal 0 1 -0
    outer loop
      vertex 14.6771 9.25 -31.2634
      vertex 20.25 9.25 -35
      vertex 14.0134 9.25 -31.9271
    endloop
  endfacet
  facet normal 0 1 0
    outer loop
      vertex 14.0134 9.25 -27.0729
      vertex 20.25 9.25 -24
      vertex 14.6771 9.25 -27.7366
    endloop
  endfacet
  facet normal 0 1 0
    outer loop
      vertex 20.25 9.25 -35
      vertex 14.6771 9.25 -31.2634
      vertex 20.25 9.25 -24
    endloop
  endfacet
  facet normal 0 1 0
    outer loop
      vertex 14.6771 9.25 -31.2634
      vertex 15.1032 9.25 -30.4271
      vertex 20.25 9.25 -24
    endloop
  endfacet
  facet normal 0 1 0
    outer loop
      vertex 15.1032 9.25 -30.4271
      vertex 15.25 9.25 -29.5
      vertex 20.25 9.25 -24
    endloop
  endfacet
  facet normal 0 1 0
    outer loop
      vertex 15.25 9.25 -29.5
      vertex 15.1032 9.25 -28.5729
      vertex 20.25 9.25 -24
    endloop
  endfacet
  facet normal 0 1 0
    outer loop
      vertex 15.1032 9.25 -28.5729
      vertex 14.6771 9.25 -27.7366
      vertex 20.25 9.25 -24
    endloop
  endfacet
  facet normal 0 1 0
    outer loop
      vertex 11.3229 9.25 -26.6468
      vertex -11.25 9.25 -24
      vertex 12.25 9.25 -26.5
    endloop
  endfacet
  facet normal 0 1 0
    outer loop
      vertex 10.4866 9.25 -27.0729
      vertex -11.25 9.25 -24
      vertex 11.3229 9.25 -26.6468
    endloop
  endfacet
  facet normal 0 1 0
    outer loop
      vertex 14.0134 9.25 -27.0729
      vertex 13.1771 9.25 -26.6468
      vertex 20.25 9.25 -24
    endloop
  endfacet
  facet normal 0 1 0
    outer loop
      vertex 13.1771 9.25 -26.6468
      vertex 12.25 9.25 -26.5
      vertex 20.25 9.25 -24
    endloop
  endfacet
  facet normal 0 1 0
    outer loop
      vertex 9.82295 9.25 -27.7366
      vertex -11.25 9.25 -24
      vertex 10.4866 9.25 -27.0729
    endloop
  endfacet
  facet normal 0 1 0
    outer loop
      vertex 9.39683 9.25 -28.5729
      vertex -11.25 9.25 -24
      vertex 9.82295 9.25 -27.7366
    endloop
  endfacet
  facet normal 0 1 0
    outer loop
      vertex 9.25 9.25 -29.5
      vertex -11.25 9.25 -24
      vertex 9.39683 9.25 -28.5729
    endloop
  endfacet
  facet normal 0 1 0
    outer loop
      vertex 10.4866 9.25 -31.9271
      vertex -11.25 9.25 -24
      vertex 9.82295 9.25 -31.2634
    endloop
  endfacet
  facet normal 0 -0 1
    outer loop
      vertex -0.463525 -1.42658 -24
      vertex -11.25 -9.25 -24
      vertex 20.25 -9.25 -24
    endloop
  endfacet
  facet normal 0 0 1
    outer loop
      vertex 20.25 9.25 -24
      vertex -11.25 9.25 -24
      vertex 20.25 -9.25 -24
    endloop
  endfacet
  facet normal 0 -0 1
    outer loop
      vertex -11.25 9.25 -24
      vertex -11.25 -9.25 -24
      vertex -1.21352 -0.881678 -24
    endloop
  endfacet
  facet normal 0 -0 1
    outer loop
      vertex 0.463525 -1.42658 -24
      vertex -0.463525 -1.42658 -24
      vertex 20.25 -9.25 -24
    endloop
  endfacet
  facet normal 0 0 1
    outer loop
      vertex -11.25 9.25 -24
      vertex -1.21352 -0.881678 -24
      vertex -1.5 0 -24
    endloop
  endfacet
  facet normal 0 -0 1
    outer loop
      vertex 1.21352 -0.881678 -24
      vertex 0.463525 -1.42658 -24
      vertex 20.25 -9.25 -24
    endloop
  endfacet
  facet normal 0 0 1
    outer loop
      vertex -11.25 9.25 -24
      vertex -1.5 0 -24
      vertex -1.21352 0.881678 -24
    endloop
  endfacet
  facet normal 0 -0 1
    outer loop
      vertex 1.5 0 -24
      vertex 1.21352 -0.881678 -24
      vertex 20.25 -9.25 -24
    endloop
  endfacet
  facet normal 0 0 1
    outer loop
      vertex -11.25 9.25 -24
      vertex -1.21352 0.881678 -24
      vertex -0.463525 1.42658 -24
    endloop
  endfacet
  facet normal 0 0 1
    outer loop
      vertex -11.25 9.25 -24
      vertex 0.463525 1.42658 -24
      vertex 20.25 -9.25 -24
    endloop
  endfacet
  facet normal 0 0 1
    outer loop
      vertex -11.25 9.25 -24
      vertex -0.463525 1.42658 -24
      vertex 0.463525 1.42658 -24
    endloop
  endfacet
  facet normal 0 0 1
    outer loop
      vertex 0.463525 1.42658 -24
      vertex 1.21352 0.881678 -24
      vertex 20.25 -9.25 -24
    endloop
  endfacet
  facet normal 0 -0 1
    outer loop
      vertex -1.21352 -0.881678 -24
      vertex -11.25 -9.25 -24
      vertex -0.463525 -1.42658 -24
    endloop
  endfacet
  facet normal 0 0 1
    outer loop
      vertex 1.21352 0.881678 -24
      vertex 1.5 0 -24
      vertex 20.25 -9.25 -24
    endloop
  endfacet
  facet normal 1 0 -0
    outer loop
      vertex 20.25 -9.25 -24
      vertex 20.25 -9.25 -35
      vertex 20.25 9.25 -35
    endloop
  endfacet
  facet normal 1 0 0
    outer loop
      vertex 20.25 9.25 -24
      vertex 20.25 -9.25 -24
      vertex 20.25 9.25 -35
    endloop
  endfacet
  facet normal 0.987688 3.00414e-17 0.156434
    outer loop
      vertex 9.39683 -9.25 -30.4271
      vertex 9.39683 9.25 -30.4271
      vertex 9.25 9.25 -29.5
    endloop
  endfacet
  facet normal 0.987688 3.00414e-17 0.156434
    outer loop
      vertex 9.25 -9.25 -29.5
      vertex 9.39683 -9.25 -30.4271
      vertex 9.25 9.25 -29.5
    endloop
  endfacet
  facet normal 0.891006 1.74367e-16 0.453991
    outer loop
      vertex 9.82295 -9.25 -31.2634
      vertex 9.82295 9.25 -31.2634
      vertex 9.39683 9.25 -30.4271
    endloop
  endfacet
  facet normal 0.891006 8.71837e-17 0.453991
    outer loop
      vertex 9.39683 -9.25 -30.4271
      vertex 9.82295 -9.25 -31.2634
      vertex 9.39683 9.25 -30.4271
    endloop
  endfacet
  facet normal 0.707107 1.35792e-16 0.707107
    outer loop
      vertex 10.4866 -9.25 -31.9271
      vertex 10.4866 9.25 -31.9271
      vertex 9.82295 9.25 -31.2634
    endloop
  endfacet
  facet normal 0.707107 2.71584e-16 0.707107
    outer loop
      vertex 9.82295 -9.25 -31.2634
      vertex 10.4866 -9.25 -31.9271
      vertex 9.82295 9.25 -31.2634
    endloop
  endfacet
  facet normal 0.453991 3.42215e-16 0.891006
    outer loop
      vertex 11.3229 -9.25 -32.3532
      vertex 11.3229 9.25 -32.3532
      vertex 10.4866 9.25 -31.9271
    endloop
  endfacet
  facet normal 0.453991 1.71108e-16 0.891006
    outer loop
      vertex 10.4866 -9.25 -31.9271
      vertex 11.3229 -9.25 -32.3532
      vertex 10.4866 9.25 -31.9271
    endloop
  endfacet
  facet normal 0.156434 3.79349e-16 0.987688
    outer loop
      vertex 12.25 -9.25 -32.5
      vertex 12.25 9.25 -32.5
      vertex 11.3229 9.25 -32.3532
    endloop
  endfacet
  facet normal 0.156434 3.79349e-16 0.987688
    outer loop
      vertex 11.3229 -9.25 -32.3532
      vertex 12.25 -9.25 -32.5
      vertex 11.3229 9.25 -32.3532
    endloop
  endfacet
  facet normal -0.156434 3.79349e-16 0.987688
    outer loop
      vertex 13.1771 -9.25 -32.3532
      vertex 13.1771 9.25 -32.3532
      vertex 12.25 9.25 -32.5
    endloop
  endfacet
  facet normal -0.156434 3.79349e-16 0.987688
    outer loop
      vertex 12.25 -9.25 -32.5
      vertex 13.1771 -9.25 -32.3532
      vertex 12.25 9.25 -32.5
    endloop
  endfacet
  facet normal -0.453991 1.71108e-16 0.891006
    outer loop
      vertex 14.0134 -9.25 -31.9271
      vertex 14.0134 9.25 -31.9271
      vertex 13.1771 9.25 -32.3532
    endloop
  endfacet
  facet normal -0.453991 3.42215e-16 0.891006
    outer loop
      vertex 13.1771 -9.25 -32.3532
      vertex 14.0134 -9.25 -31.9271
      vertex 13.1771 9.25 -32.3532
    endloop
  endfacet
  facet normal -0.707107 2.71584e-16 0.707107
    outer loop
      vertex 14.6771 9.25 -31.2634
      vertex 14.0134 9.25 -31.9271
      vertex 14.6771 -9.25 -31.2634
    endloop
  endfacet
  facet normal -0.707107 1.37384e-16 0.707107
    outer loop
      vertex 14.6771 -9.25 -31.2634
      vertex 14.0134 9.25 -31.9271
      vertex 14.0134 -9.25 -31.9271
    endloop
  endfacet
  facet normal -0.891006 8.71837e-17 0.453991
    outer loop
      vertex 15.1032 9.25 -30.4271
      vertex 14.6771 9.25 -31.2634
      vertex 15.1032 -9.25 -30.4271
    endloop
  endfacet
  facet normal -0.891006 1.76411e-16 0.453991
    outer loop
      vertex 15.1032 -9.25 -30.4271
      vertex 14.6771 9.25 -31.2634
      vertex 14.6771 -9.25 -31.2634
    endloop
  endfacet
  facet normal -0.987688 3.00414e-17 0.156434
    outer loop
      vertex 15.25 9.25 -29.5
      vertex 15.1032 9.25 -30.4271
      vertex 15.25 -9.25 -29.5
    endloop
  endfacet
  facet normal -0.987688 3.03934e-17 0.156434
    outer loop
      vertex 15.25 -9.25 -29.5
      vertex 15.1032 9.25 -30.4271
      vertex 15.1032 -9.25 -30.4271
    endloop
  endfacet
  facet normal -0.987688 -3.00414e-17 -0.156434
    outer loop
      vertex 15.25 9.25 -29.5
      vertex 15.25 -9.25 -29.5
      vertex 15.1032 9.25 -28.5729
    endloop
  endfacet
  facet normal -0.987688 -3.00414e-17 -0.156434
    outer loop
      vertex 15.1032 9.25 -28.5729
      vertex 15.25 -9.25 -29.5
      vertex 15.1032 -9.25 -28.5729
    endloop
  endfacet
  facet normal -0.891006 -8.71837e-17 -0.453991
    outer loop
      vertex 15.1032 9.25 -28.5729
      vertex 15.1032 -9.25 -28.5729
      vertex 14.6771 9.25 -27.7366
    endloop
  endfacet
  facet normal -0.891006 -1.74367e-16 -0.453991
    outer loop
      vertex 14.6771 9.25 -27.7366
      vertex 15.1032 -9.25 -28.5729
      vertex 14.6771 -9.25 -27.7366
    endloop
  endfacet
  facet normal -0.707107 -2.71584e-16 -0.707107
    outer loop
      vertex 14.6771 9.25 -27.7366
      vertex 14.6771 -9.25 -27.7366
      vertex 14.0134 9.25 -27.0729
    endloop
  endfacet
  facet normal -0.707107 -1.35792e-16 -0.707107
    outer loop
      vertex 14.0134 9.25 -27.0729
      vertex 14.6771 -9.25 -27.7366
      vertex 14.0134 -9.25 -27.0729
    endloop
  endfacet
  facet normal -0.453991 -1.71108e-16 -0.891006
    outer loop
      vertex 14.0134 9.25 -27.0729
      vertex 14.0134 -9.25 -27.0729
      vertex 13.1771 9.25 -26.6468
    endloop
  endfacet
  facet normal -0.453991 -1.71108e-16 -0.891006
    outer loop
      vertex 13.1771 9.25 -26.6468
      vertex 14.0134 -9.25 -27.0729
      vertex 13.1771 -9.25 -26.6468
    endloop
  endfacet
  facet normal -0.156434 -1.89674e-16 -0.987688
    outer loop
      vertex 13.1771 9.25 -26.6468
      vertex 13.1771 -9.25 -26.6468
      vertex 12.25 9.25 -26.5
    endloop
  endfacet
  facet normal -0.156434 -1.89674e-16 -0.987688
    outer loop
      vertex 12.25 9.25 -26.5
      vertex 13.1771 -9.25 -26.6468
      vertex 12.25 -9.25 -26.5
    endloop
  endfacet
  facet normal 0.156434 -1.89674e-16 -0.987688
    outer loop
      vertex 12.25 9.25 -26.5
      vertex 12.25 -9.25 -26.5
      vertex 11.3229 9.25 -26.6468
    endloop
  endfacet
  facet normal 0.156434 -1.89674e-16 -0.987688
    outer loop
      vertex 11.3229 9.25 -26.6468
      vertex 12.25 -9.25 -26.5
      vertex 11.3229 -9.25 -26.6468
    endloop
  endfacet
  facet normal 0.453991 -1.71108e-16 -0.891006
    outer loop
      vertex 11.3229 9.25 -26.6468
      vertex 11.3229 -9.25 -26.6468
      vertex 10.4866 9.25 -27.0729
    endloop
  endfacet
  facet normal 0.453991 -1.71108e-16 -0.891006
    outer loop
      vertex 10.4866 9.25 -27.0729
      vertex 11.3229 -9.25 -26.6468
      vertex 10.4866 -9.25 -27.0729
    endloop
  endfacet
  facet normal 0.707107 -1.37382e-16 -0.707107
    outer loop
      vertex 9.82295 9.25 -27.7366
      vertex 10.4866 9.25 -27.0729
      vertex 10.4866 -9.25 -27.0729
    endloop
  endfacet
  facet normal 0.707107 -2.71584e-16 -0.707107
    outer loop
      vertex 9.82295 -9.25 -27.7366
      vertex 9.82295 9.25 -27.7366
      vertex 10.4866 -9.25 -27.0729
    endloop
  endfacet
  facet normal 0.891006 -1.76411e-16 -0.453991
    outer loop
      vertex 9.39683 9.25 -28.5729
      vertex 9.82295 9.25 -27.7366
      vertex 9.82295 -9.25 -27.7366
    endloop
  endfacet
  facet normal 0.891006 -8.71837e-17 -0.453991
    outer loop
      vertex 9.39683 -9.25 -28.5729
      vertex 9.39683 9.25 -28.5729
      vertex 9.82295 -9.25 -27.7366
    endloop
  endfacet
  facet normal 0.987688 -3.03934e-17 -0.156434
    outer loop
      vertex 9.25 9.25 -29.5
      vertex 9.39683 9.25 -28.5729
      vertex 9.39683 -9.25 -28.5729
    endloop
  endfacet
  facet normal 0.987688 -3.00414e-17 -0.156434
    outer loop
      vertex 9.25 -9.25 -29.5
      vertex 9.25 9.25 -29.5
      vertex 9.39683 -9.25 -28.5729
    endloop
  endfacet
  facet normal 0 -1 0
    outer loop
      vertex -4 -6.9282 -35
      vertex -4 -6.9282 -41
      vertex 4 -6.9282 -41
    endloop
  endfacet
  facet normal 0 -1 0
    outer loop
      vertex 4 -6.9282 -35
      vertex -4 -6.9282 -35
      vertex 4 -6.9282 -41
    endloop
  endfacet
  facet normal -0.866025 -0.5 -0
    outer loop
      vertex -8 0 -41
      vertex -4 -6.9282 -41
      vertex -8 0 -35
    endloop
  endfacet
  facet normal -0.866025 -0.5 0
    outer loop
      vertex -8 0 -35
      vertex -4 -6.9282 -41
      vertex -4 -6.9282 -35
    endloop
  endfacet
  facet normal -0.866025 0.5 0
    outer loop
      vertex -8 0 -41
      vertex -8 0 -35
      vertex -4 6.9282 -41
    endloop
  endfacet
  facet normal -0.866025 0.5 0
    outer loop
      vertex -4 6.9282 -41
      vertex -8 0 -35
      vertex -4 6.9282 -35
    endloop
  endfacet
  facet normal 0 1 0
    outer loop
      vertex -4 6.9282 -41
      vertex -4 6.9282 -35
      vertex 4 6.9282 -41
    endloop
  endfacet
  facet normal 0 1 0
    outer loop
      vertex 4 6.9282 -41
      vertex -4 6.9282 -35
      vertex 4 6.9282 -35
    endloop
  endfacet
  facet normal 0.866025 0.5 0
    outer loop
      vertex 8 0 -41
      vertex 4 6.9282 -41
      vertex 4 6.9282 -35
    endloop
  endfacet
  facet normal 0.866025 0.5 -0
    outer loop
      vertex 8 0 -35
      vertex 8 0 -41
      vertex 4 6.9282 -35
    endloop
  endfacet
  facet normal 0.866025 -0.5 0
    outer loop
      vertex 4 -6.9282 -35
      vertex 4 -6.9282 -41
      vertex 8 0 -41
    endloop
  endfacet
  facet normal 0.866025 -0.5 0
    outer loop
      vertex 8 0 -35
      vertex 4 -6.9282 -35
      vertex 8 0 -41
    endloop
  endfacet
  facet normal 0.951056 0.309017 0
    outer loop
      vertex -1.5 0 -24
      vertex -1.21352 -0.881678 -24
      vertex -1.21352 -0.881678 -40
    endloop
  endfacet
  facet normal 0.951056 0.309017 0
    outer loop
      vertex -1.5 0 -40
      vertex -1.5 0 -24
      vertex -1.21352 -0.881678 -40
    endloop
  endfacet
  facet normal 0.587785 0.809017 -0
    outer loop
      vertex -0.463525 -1.42658 -24
      vertex -0.463525 -1.42658 -40
      vertex -1.21352 -0.881678 -24
    endloop
  endfacet
  facet normal 0.587785 0.809017 -0
    outer loop
      vertex -1.21352 -0.881678 -24
      vertex -0.463525 -1.42658 -40
      vertex -1.21352 -0.881678 -40
    endloop
  endfacet
  facet normal 0 1 0
    outer loop
      vertex 0.463525 -1.42658 -24
      vertex 0.463525 -1.42658 -40
      vertex -0.463525 -1.42658 -24
    endloop
  endfacet
  facet normal 0 1 -0
    outer loop
      vertex -0.463525 -1.42658 -24
      vertex 0.463525 -1.42658 -40
      vertex -0.463525 -1.42658 -40
    endloop
  endfacet
  facet normal -0.587785 0.809017 0
    outer loop
      vertex 1.21352 -0.881678 -24
      vertex 1.21352 -0.881678 -40
      vertex 0.463525 -1.42658 -24
    endloop
  endfacet
  facet normal -0.587785 0.809017 0
    outer loop
      vertex 0.463525 -1.42658 -24
      vertex 1.21352 -0.881678 -40
      vertex 0.463525 -1.42658 -40
    endloop
  endfacet
  facet normal -0.951056 0.309017 0
    outer loop
      vertex 1.5 0 -24
      vertex 1.5 0 -40
      vertex 1.21352 -0.881678 -24
    endloop
  endfacet
  facet normal -0.951056 0.309017 0
    outer loop
      vertex 1.21352 -0.881678 -24
      vertex 1.5 0 -40
      vertex 1.21352 -0.881678 -40
    endloop
  endfacet
  facet normal -0.951056 -0.309017 0
    outer loop
      vertex 1.5 0 -24
      vertex 1.21352 0.881678 -24
      vertex 1.5 0 -40
    endloop
  endfacet
  facet normal -0.951056 -0.309017 0
    outer loop
      vertex 1.5 0 -40
      vertex 1.21352 0.881678 -24
      vertex 1.21352 0.881678 -40
    endloop
  endfacet
  facet normal -0.587785 -0.809017 -0
    outer loop
      vertex 1.21352 0.881678 -40
      vertex 1.21352 0.881678 -24
      vertex 0.463525 1.42658 -24
    endloop
  endfacet
  facet normal -0.587785 -0.809017 -0
    outer loop
      vertex 0.463525 1.42658 -40
      vertex 1.21352 0.881678 -40
      vertex 0.463525 1.42658 -24
    endloop
  endfacet
  facet normal 0 -1 0
    outer loop
      vertex 0.463525 1.42658 -40
      vertex 0.463525 1.42658 -24
      vertex -0.463525 1.42658 -24
    endloop
  endfacet
  facet normal -0 -1 -0
    outer loop
      vertex -0.463525 1.42658 -40
      vertex 0.463525 1.42658 -40
      vertex -0.463525 1.42658 -24
    endloop
  endfacet
  facet normal 0.587785 -0.809017 0
    outer loop
      vertex -0.463525 1.42658 -40
      vertex -0.463525 1.42658 -24
      vertex -1.21352 0.881678 -24
    endloop
  endfacet
  facet normal 0.587785 -0.809017 0
    outer loop
      vertex -1.21352 0.881678 -40
      vertex -0.463525 1.42658 -40
      vertex -1.21352 0.881678 -24
    endloop
  endfacet
  facet normal 0.951056 -0.309017 0
    outer loop
      vertex -1.21352 0.881678 -40
      vertex -1.21352 0.881678 -24
      vertex -1.5 0 -24
    endloop
  endfacet
  facet normal 0.951056 -0.309017 0
    outer loop
      vertex -1.5 0 -40
      vertex -1.21352 0.881678 -40
      vertex -1.5 0 -24
    endloop
  endfacet
  facet normal 0 -0 -1
    outer loop
      vertex 1.83865 5.65879 -41
      vertex -4 6.9282 -41
      vertex 4 6.9282 -41
    endloop
  endfacet
  facet normal -0 -0 -1
    outer loop
      vertex 5.65879 1.83865 -41
      vertex 4 6.9282 -41
      vertex 8 0 -41
    endloop
  endfacet
  facet normal -0 0 -1
    outer loop
      vertex 4.81365 -3.49732 -41
      vertex 8 0 -41
      vertex 4 -6.9282 -41
    endloop
  endfacet
  facet normal 0 0 -1
    outer loop
      vertex -8 0 -41
      vertex -5.95 0 -41
      vertex -5.94511 -0.0309017 -41
    endloop
  endfacet
  facet normal 0 0 -1
    outer loop
      vertex -8 0 -41
      vertex -5.94511 -0.0309017 -41
      vertex -5.65879 -1.83865 -41
    endloop
  endfacet
  facet normal 0 0 -1
    outer loop
      vertex -8 0 -41
      vertex -5.65879 -1.83865 -41
      vertex -4 -6.9282 -41
    endloop
  endfacet
  facet normal 0 0 -1
    outer loop
      vertex -5.65879 -1.83865 -41
      vertex -5.64458 -1.86653 -41
      vertex -4 -6.9282 -41
    endloop
  endfacet
  facet normal 0 0 -1
    outer loop
      vertex -5.65879 1.83865 -41
      vertex -4 6.9282 -41
      vertex -4.82785 3.46945 -41
    endloop
  endfacet
  facet normal 0 0 -1
    outer loop
      vertex -3.49732 -4.81365 -41
      vertex -4 -6.9282 -41
      vertex -4.81365 -3.49732 -41
    endloop
  endfacet
  facet normal 0 0 -1
    outer loop
      vertex -1.83865 -5.65879 -41
      vertex -4 -6.9282 -41
      vertex -3.46945 -4.82785 -41
    endloop
  endfacet
  facet normal 0 0 -1
    outer loop
      vertex -4 -6.9282 -41
      vertex -3.49732 -4.81365 -41
      vertex -3.46945 -4.82785 -41
    endloop
  endfacet
  facet normal 0 0 -1
    outer loop
      vertex -1.80775 -5.66368 -41
      vertex -4 -6.9282 -41
      vertex -1.83865 -5.65879 -41
    endloop
  endfacet
  facet normal -0 0 -1
    outer loop
      vertex 5.65879 -1.83865 -41
      vertex 8 0 -41
      vertex 4.82785 -3.46945 -41
    endloop
  endfacet
  facet normal -0 0 -1
    outer loop
      vertex -4 -6.9282 -41
      vertex -1.80775 -5.66368 -41
      vertex 4 -6.9282 -41
    endloop
  endfacet
  facet normal 0 0 -1
    outer loop
      vertex -1.80775 -5.66368 -41
      vertex 0 -5.95 -41
      vertex 4 -6.9282 -41
    endloop
  endfacet
  facet normal -0 0 -1
    outer loop
      vertex 0 -5.95 -41
      vertex 0.0309017 -5.94511 -41
      vertex 4 -6.9282 -41
    endloop
  endfacet
  facet normal 0 0 -1
    outer loop
      vertex 5.95 0 -41
      vertex 8 0 -41
      vertex 5.66368 -1.80775 -41
    endloop
  endfacet
  facet normal -0 0 -1
    outer loop
      vertex 0.0309017 -5.94511 -41
      vertex 1.83865 -5.65879 -41
      vertex 4 -6.9282 -41
    endloop
  endfacet
  facet normal -0 0 -1
    outer loop
      vertex 1.83865 -5.65879 -41
      vertex 1.86653 -5.64458 -41
      vertex 4 -6.9282 -41
    endloop
  endfacet
  facet normal -0 0 -1
    outer loop
      vertex 1.86653 -5.64458 -41
      vertex 3.49732 -4.81365 -41
      vertex 4 -6.9282 -41
    endloop
  endfacet
  facet normal -0 0 -1
    outer loop
      vertex 4.82785 -3.46945 -41
      vertex 8 0 -41
      vertex 4.81365 -3.49732 -41
    endloop
  endfacet
  facet normal -0 0 -1
    outer loop
      vertex 3.49732 -4.81365 -41
      vertex 4.81365 -3.49732 -41
      vertex 4 -6.9282 -41
    endloop
  endfacet
  facet normal -0 0 -1
    outer loop
      vertex 5.66368 -1.80775 -41
      vertex 8 0 -41
      vertex 5.65879 -1.83865 -41
    endloop
  endfacet
  facet normal -0 0 -1
    outer loop
      vertex 1.83865 5.65879 -41
      vertex 4 6.9282 -41
      vertex 3.46945 4.82785 -41
    endloop
  endfacet
  facet normal -0 -0 -1
    outer loop
      vertex 4.81365 3.49732 -41
      vertex 4 6.9282 -41
      vertex 5.64458 1.86653 -41
    endloop
  endfacet
  facet normal -0 -0 -1
    outer loop
      vertex 5.95 0 -41
      vertex 5.94511 0.0309017 -41
      vertex 8 0 -41
    endloop
  endfacet
  facet normal -0 -0 -1
    outer loop
      vertex 5.64458 1.86653 -41
      vertex 4 6.9282 -41
      vertex 5.65879 1.83865 -41
    endloop
  endfacet
  facet normal -0 -0 -1
    outer loop
      vertex 5.94511 0.0309017 -41
      vertex 5.65879 1.83865 -41
      vertex 8 0 -41
    endloop
  endfacet
  facet normal -0 0 -1
    outer loop
      vertex 3.49732 4.81365 -41
      vertex 4 6.9282 -41
      vertex 4.81365 3.49732 -41
    endloop
  endfacet
  facet normal -0 0 -1
    outer loop
      vertex 3.46945 4.82785 -41
      vertex 4 6.9282 -41
      vertex 3.49732 4.81365 -41
    endloop
  endfacet
  facet normal -0 -0 -1
    outer loop
      vertex 1.80775 5.66368 -41
      vertex -4 6.9282 -41
      vertex 1.83865 5.65879 -41
    endloop
  endfacet
  facet normal 0 0 -1
    outer loop
      vertex -4.81365 3.49732 -41
      vertex -4 6.9282 -41
      vertex -3.49732 4.81365 -41
    endloop
  endfacet
  facet normal -0 -0 -1
    outer loop
      vertex 0 5.95 -41
      vertex -4 6.9282 -41
      vertex 1.80775 5.66368 -41
    endloop
  endfacet
  facet normal 0 -0 -1
    outer loop
      vertex -0.0309017 5.94511 -41
      vertex -4 6.9282 -41
      vertex 0 5.95 -41
    endloop
  endfacet
  facet normal 0 -0 -1
    outer loop
      vertex -1.83865 5.65879 -41
      vertex -4 6.9282 -41
      vertex -0.0309017 5.94511 -41
    endloop
  endfacet
  facet normal 0 -0 -1
    outer loop
      vertex -1.86653 5.64458 -41
      vertex -4 6.9282 -41
      vertex -1.83865 5.65879 -41
    endloop
  endfacet
  facet normal 0 -0 -1
    outer loop
      vertex -3.49732 4.81365 -41
      vertex -4 6.9282 -41
      vertex -1.86653 5.64458 -41
    endloop
  endfacet
  facet normal 0 0 -1
    outer loop
      vertex -4.82785 3.46945 -41
      vertex -4 6.9282 -41
      vertex -4.81365 3.49732 -41
    endloop
  endfacet
  facet normal 0 0 -1
    outer loop
      vertex -8 0 -41
      vertex -4 6.9282 -41
      vertex -5.65879 1.83865 -41
    endloop
  endfacet
  facet normal -0 0 -1
    outer loop
      vertex -8 0 -41
      vertex -5.65879 1.83865 -41
      vertex -5.95 0 -41
    endloop
  endfacet
  facet normal 0 0 -2.9445e-08
    outer loop
      vertex -5.65879 1.83865 -41
      vertex -5.66368 1.80775 -41
      vertex -5.95 0 -41
    endloop
  endfacet
  facet normal 0 0 -1
    outer loop
      vertex -4.81365 -3.49732 -41
      vertex -4 -6.9282 -41
      vertex -5.64458 -1.86653 -41
    endloop
  endfacet
  facet normal 0 0 1
    outer loop
      vertex -1.21352 0.881678 -40
      vertex -1.5 0 -40
      vertex -1.21352 -0.881678 -40
    endloop
  endfacet
  facet normal -0 0 1
    outer loop
      vertex 0.463525 -1.42658 -40
      vertex -1.21352 0.881678 -40
      vertex -0.463525 -1.42658 -40
    endloop
  endfacet
  facet normal 0 0 1
    outer loop
      vertex -0.463525 -1.42658 -40
      vertex -1.21352 0.881678 -40
      vertex -1.21352 -0.881678 -40
    endloop
  endfacet
  facet normal -0 -0 1
    outer loop
      vertex -0.202254 -0.146946 -40
      vertex -1.21352 0.881678 -40
      vertex 0.463525 -1.42658 -40
    endloop
  endfacet
  facet normal 0 0 1
    outer loop
      vertex 0.077254 0.237764 -40
      vertex 0.202254 0.146946 -40
      vertex 1.5 0 -40
    endloop
  endfacet
  facet normal 0 -0 1
    outer loop
      vertex 1.21352 0.881678 -40
      vertex -1.21352 0.881678 -40
      vertex 1.5 0 -40
    endloop
  endfacet
  facet normal 0 -0 1
    outer loop
      vertex 0.463525 1.42658 -40
      vertex -1.21352 0.881678 -40
      vertex 1.21352 0.881678 -40
    endloop
  endfacet
  facet normal 0 -0 1
    outer loop
      vertex -0.463525 1.42658 -40
      vertex -1.21352 0.881678 -40
      vertex 0.463525 1.42658 -40
    endloop
  endfacet
  facet normal -0 -0 1
    outer loop
      vertex -0.077254 -0.237764 -40
      vertex -0.202254 -0.146946 -40
      vertex 0.463525 -1.42658 -40
    endloop
  endfacet
  facet normal -0 -0 1
    outer loop
      vertex -0.25 0 -40
      vertex -1.21352 0.881678 -40
      vertex -0.202254 -0.146946 -40
    endloop
  endfacet
  facet normal -0 0 1
    outer loop
      vertex -0.202254 0.146946 -40
      vertex -1.21352 0.881678 -40
      vertex -0.25 0 -40
    endloop
  endfacet
  facet normal 0 -0 1
    outer loop
      vertex 0.077254 -0.237764 -40
      vertex -0.077254 -0.237764 -40
      vertex 1.21352 -0.881678 -40
    endloop
  endfacet
  facet normal 0 -0 1
    outer loop
      vertex 0.202254 -0.146946 -40
      vertex 0.077254 -0.237764 -40
      vertex 1.21352 -0.881678 -40
    endloop
  endfacet
  facet normal -0 0 1
    outer loop
      vertex 0.077254 0.237764 -40
      vertex -1.21352 0.881678 -40
      vertex -0.077254 0.237764 -40
    endloop
  endfacet
  facet normal 0 -0 1
    outer loop
      vertex 0.25 0 -40
      vertex 0.202254 -0.146946 -40
      vertex 1.21352 -0.881678 -40
    endloop
  endfacet
  facet normal 0 0 1
    outer loop
      vertex 1.5 0 -40
      vertex -1.21352 0.881678 -40
      vertex 0.077254 0.237764 -40
    endloop
  endfacet
  facet normal -0 0 1
    outer loop
      vertex 1.5 0 -40
      vertex 0.202254 0.146946 -40
      vertex 1.21352 -0.881678 -40
    endloop
  endfacet
  facet normal 0 0 1
    outer loop
      vertex 0.202254 0.146946 -40
      vertex 0.25 0 -40
      vertex 1.21352 -0.881678 -40
    endloop
  endfacet
  facet normal -0 0 1
    outer loop
      vertex 1.21352 -0.881678 -40
      vertex -0.077254 -0.237764 -40
      vertex 0.463525 -1.42658 -40
    endloop
  endfacet
  facet normal 0 0 1
    outer loop
      vertex -0.202254 0.146946 -40
      vertex -0.077254 0.237764 -40
      vertex -1.21352 0.881678 -40
    endloop
  endfacet
  facet normal -0.867898 0.137462 -0.477344
    outer loop
      vertex -1 0 -50
      vertex -5.95 0 -41
      vertex -5.66368 1.80775 -41
    endloop
  endfacet
  facet normal -0.867898 -0.13746 -0.477344
    outer loop
      vertex -5.95 0 -41
      vertex -1 0 -50
      vertex -5.94511 -0.0309017 -41
    endloop
  endfacet
  facet normal -0.867898 -0.13746 -0.477344
    outer loop
      vertex -5.94511 -0.0309017 -41
      vertex -1 0 -50
      vertex -0.951057 -0.309017 -50
    endloop
  endfacet
  facet normal -0.867898 0.13746 -0.477344
    outer loop
      vertex -5.66368 1.80775 -41
      vertex -5.65879 1.83865 -41
      vertex -1 0 -50
    endloop
  endfacet
  facet normal -0.867898 0.13746 -0.477344
    outer loop
      vertex -1 0 -50
      vertex -5.65879 1.83865 -41
      vertex -0.951057 0.309017 -50
    endloop
  endfacet
  facet normal -0.782942 0.398929 -0.477344
    outer loop
      vertex -0.951057 0.309017 -50
      vertex -5.65879 1.83865 -41
      vertex -4.82785 3.46945 -41
    endloop
  endfacet
  facet normal -0.782941 0.39893 -0.477344
    outer loop
      vertex -4.82785 3.46945 -41
      vertex -4.81365 3.49732 -41
      vertex -0.951057 0.309017 -50
    endloop
  endfacet
  facet normal -0.782941 0.39893 -0.477344
    outer loop
      vertex -0.951057 0.309017 -50
      vertex -4.81365 3.49732 -41
      vertex -0.809017 0.587785 -50
    endloop
  endfacet
  facet normal -0.621346 0.621346 -0.477344
    outer loop
      vertex -4.81365 3.49732 -41
      vertex -3.49732 4.81365 -41
      vertex -0.809017 0.587785 -50
    endloop
  endfacet
  facet normal -0.621346 0.621346 -0.477344
    outer loop
      vertex -0.809017 0.587785 -50
      vertex -3.49732 4.81365 -41
      vertex -0.587785 0.809017 -50
    endloop
  endfacet
  facet normal -0.398929 0.782942 -0.477344
    outer loop
      vertex -0.587785 0.809017 -50
      vertex -3.49732 4.81365 -41
      vertex -1.86653 5.64458 -41
    endloop
  endfacet
  facet normal -0.39893 0.782942 -0.477344
    outer loop
      vertex -1.86653 5.64458 -41
      vertex -1.83865 5.65879 -41
      vertex -0.587785 0.809017 -50
    endloop
  endfacet
  facet normal -0.39893 0.782942 -0.477344
    outer loop
      vertex -0.587785 0.809017 -50
      vertex -1.83865 5.65879 -41
      vertex -0.309017 0.951057 -50
    endloop
  endfacet
  facet normal -0.137462 0.867898 -0.477344
    outer loop
      vertex -0.309017 0.951057 -50
      vertex -1.83865 5.65879 -41
      vertex -0.0309017 5.94511 -41
    endloop
  endfacet
  facet normal -0.13746 0.867898 -0.477344
    outer loop
      vertex -0.309017 0.951057 -50
      vertex -0.0309017 5.94511 -41
      vertex 0 1 -50
    endloop
  endfacet
  facet normal -0.13746 0.867898 -0.477344
    outer loop
      vertex 0 1 -50
      vertex -0.0309017 5.94511 -41
      vertex 0 5.95 -41
    endloop
  endfacet
  facet normal 0.137462 0.867898 -0.477344
    outer loop
      vertex 1.80775 5.66368 -41
      vertex 0 1 -50
      vertex 0 5.95 -41
    endloop
  endfacet
  facet normal 0.13746 0.867898 -0.477344
    outer loop
      vertex 0 1 -50
      vertex 1.80775 5.66368 -41
      vertex 0.309017 0.951057 -50
    endloop
  endfacet
  facet normal 0.13746 0.867898 -0.477344
    outer loop
      vertex 0.309017 0.951057 -50
      vertex 1.80775 5.66368 -41
      vertex 1.83865 5.65879 -41
    endloop
  endfacet
  facet normal 0.398929 0.782942 -0.477344
    outer loop
      vertex 3.46945 4.82785 -41
      vertex 0.309017 0.951057 -50
      vertex 1.83865 5.65879 -41
    endloop
  endfacet
  facet normal 0.39893 0.782941 -0.477344
    outer loop
      vertex 0.309017 0.951057 -50
      vertex 3.46945 4.82785 -41
      vertex 0.587785 0.809017 -50
    endloop
  endfacet
  facet normal 0.39893 0.782941 -0.477344
    outer loop
      vertex 0.587785 0.809017 -50
      vertex 3.46945 4.82785 -41
      vertex 3.49732 4.81365 -41
    endloop
  endfacet
  facet normal 0.621346 0.621346 -0.477344
    outer loop
      vertex 0.587785 0.809017 -50
      vertex 3.49732 4.81365 -41
      vertex 0.809017 0.587785 -50
    endloop
  endfacet
  facet normal 0.621346 0.621346 -0.477344
    outer loop
      vertex 0.809017 0.587785 -50
      vertex 3.49732 4.81365 -41
      vertex 4.81365 3.49732 -41
    endloop
  endfacet
  facet normal 0.782942 0.398929 -0.477344
    outer loop
      vertex 5.64458 1.86653 -41
      vertex 0.809017 0.587785 -50
      vertex 4.81365 3.49732 -41
    endloop
  endfacet
  facet normal 0.782942 0.39893 -0.477344
    outer loop
      vertex 0.951057 0.309017 -50
      vertex 0.809017 0.587785 -50
      vertex 5.64458 1.86653 -41
    endloop
  endfacet
  facet normal 0.782942 0.39893 -0.477344
    outer loop
      vertex 5.65879 1.83865 -41
      vertex 0.951057 0.309017 -50
      vertex 5.64458 1.86653 -41
    endloop
  endfacet
  facet normal 0.867898 0.137462 -0.477344
    outer loop
      vertex 5.94511 0.0309017 -41
      vertex 0.951057 0.309017 -50
      vertex 5.65879 1.83865 -41
    endloop
  endfacet
  facet normal 0.867898 0.13746 -0.477344
    outer loop
      vertex 1 0 -50
      vertex 0.951057 0.309017 -50
      vertex 5.94511 0.0309017 -41
    endloop
  endfacet
  facet normal 0.867898 0.13746 -0.477344
    outer loop
      vertex 5.95 0 -41
      vertex 1 0 -50
      vertex 5.94511 0.0309017 -41
    endloop
  endfacet
  facet normal 0.867898 -0.137462 -0.477344
    outer loop
      vertex 5.66368 -1.80775 -41
      vertex 1 0 -50
      vertex 5.95 0 -41
    endloop
  endfacet
  facet normal 0.867898 -0.13746 -0.477344
    outer loop
      vertex 5.65879 -1.83865 -41
      vertex 0.951057 -0.309017 -50
      vertex 1 0 -50
    endloop
  endfacet
  facet normal 0.867898 -0.13746 -0.477344
    outer loop
      vertex 5.66368 -1.80775 -41
      vertex 5.65879 -1.83865 -41
      vertex 1 0 -50
    endloop
  endfacet
  facet normal 0.782942 -0.398929 -0.477344
    outer loop
      vertex 4.82785 -3.46945 -41
      vertex 0.951057 -0.309017 -50
      vertex 5.65879 -1.83865 -41
    endloop
  endfacet
  facet normal 0.782941 -0.39893 -0.477344
    outer loop
      vertex 4.81365 -3.49732 -41
      vertex 0.809017 -0.587785 -50
      vertex 0.951057 -0.309017 -50
    endloop
  endfacet
  facet normal 0.782941 -0.39893 -0.477344
    outer loop
      vertex 4.82785 -3.46945 -41
      vertex 4.81365 -3.49732 -41
      vertex 0.951057 -0.309017 -50
    endloop
  endfacet
  facet normal 0.621346 -0.621346 -0.477344
    outer loop
      vertex 3.49732 -4.81365 -41
      vertex 0.587785 -0.809017 -50
      vertex 0.809017 -0.587785 -50
    endloop
  endfacet
  facet normal 0.621346 -0.621346 -0.477344
    outer loop
      vertex 4.81365 -3.49732 -41
      vertex 3.49732 -4.81365 -41
      vertex 0.809017 -0.587785 -50
    endloop
  endfacet
  facet normal 0.398929 -0.782942 -0.477344
    outer loop
      vertex 1.86653 -5.64458 -41
      vertex 0.587785 -0.809017 -50
      vertex 3.49732 -4.81365 -41
    endloop
  endfacet
  facet normal 0.39893 -0.782942 -0.477344
    outer loop
      vertex 1.83865 -5.65879 -41
      vertex 0.309017 -0.951057 -50
      vertex 0.587785 -0.809017 -50
    endloop
  endfacet
  facet normal 0.39893 -0.782942 -0.477344
    outer loop
      vertex 1.86653 -5.64458 -41
      vertex 1.83865 -5.65879 -41
      vertex 0.587785 -0.809017 -50
    endloop
  endfacet
  facet normal 0.137462 -0.867898 -0.477344
    outer loop
      vertex 1.83865 -5.65879 -41
      vertex 0.0309017 -5.94511 -41
      vertex 0.309017 -0.951057 -50
    endloop
  endfacet
  facet normal 0.13746 -0.867898 -0.477344
    outer loop
      vertex 0.0309017 -5.94511 -41
      vertex 0 -5.95 -41
      vertex 0 -1 -50
    endloop
  endfacet
  facet normal 0.13746 -0.867898 -0.477344
    outer loop
      vertex 0.309017 -0.951057 -50
      vertex 0.0309017 -5.94511 -41
      vertex 0 -1 -50
    endloop
  endfacet
  facet normal -0.137462 -0.867898 -0.477344
    outer loop
      vertex 0 -5.95 -41
      vertex -1.80775 -5.66368 -41
      vertex 0 -1 -50
    endloop
  endfacet
  facet normal -0.13746 -0.867898 -0.477344
    outer loop
      vertex -1.80775 -5.66368 -41
      vertex -1.83865 -5.65879 -41
      vertex -0.309017 -0.951057 -50
    endloop
  endfacet
  facet normal -0.13746 -0.867898 -0.477344
    outer loop
      vertex 0 -1 -50
      vertex -1.80775 -5.66368 -41
      vertex -0.309017 -0.951057 -50
    endloop
  endfacet
  facet normal -0.398929 -0.782942 -0.477344
    outer loop
      vertex -1.83865 -5.65879 -41
      vertex -3.46945 -4.82785 -41
      vertex -0.309017 -0.951057 -50
    endloop
  endfacet
  facet normal -0.39893 -0.782941 -0.477344
    outer loop
      vertex -3.46945 -4.82785 -41
      vertex -3.49732 -4.81365 -41
      vertex -0.587785 -0.809017 -50
    endloop
  endfacet
  facet normal -0.39893 -0.782941 -0.477344
    outer loop
      vertex -0.309017 -0.951057 -50
      vertex -3.46945 -4.82785 -41
      vertex -0.587785 -0.809017 -50
    endloop
  endfacet
  facet normal -0.621346 -0.621346 -0.477344
    outer loop
      vertex -3.49732 -4.81365 -41
      vertex -4.81365 -3.49732 -41
      vertex -0.809017 -0.587785 -50
    endloop
  endfacet
  facet normal -0.621346 -0.621346 -0.477344
    outer loop
      vertex -0.587785 -0.809017 -50
      vertex -3.49732 -4.81365 -41
      vertex -0.809017 -0.587785 -50
    endloop
  endfacet
  facet normal -0.782942 -0.398929 -0.477344
    outer loop
      vertex -4.81365 -3.49732 -41
      vertex -5.64458 -1.86653 -41
      vertex -0.809017 -0.587785 -50
    endloop
  endfacet
  facet normal -0.782942 -0.39893 -0.477344
    outer loop
      vertex -5.65879 -1.83865 -41
      vertex -0.951057 -0.309017 -50
      vertex -5.64458 -1.86653 -41
    endloop
  endfacet
  facet normal -0.782942 -0.39893 -0.477344
    outer loop
      vertex -5.64458 -1.86653 -41
      vertex -0.951057 -0.309017 -50
      vertex -0.809017 -0.587785 -50
    endloop
  endfacet
  facet normal -0.867898 -0.137462 -0.477344
    outer loop
      vertex -5.65879 -1.83865 -41
      vertex -5.94511 -0.0309017 -41
      vertex -0.951057 -0.309017 -50
    endloop
  endfacet
  facet normal 0.951056 0.309019 0
    outer loop
      vertex -0.25 0 -40
      vertex -0.202254 -0.146946 -40
      vertex -0.202254 -0.146946 -50
    endloop
  endfacet
  facet normal 0.951056 0.309019 0
    outer loop
      vertex -0.25 0 -50
      vertex -0.25 0 -40
      vertex -0.202254 -0.146946 -50
    endloop
  endfacet
  facet normal 0.587786 0.809016 -0
    outer loop
      vertex -0.077254 -0.237764 -40
      vertex -0.077254 -0.237764 -50
      vertex -0.202254 -0.146946 -40
    endloop
  endfacet
  facet normal 0.587786 0.809016 -0
    outer loop
      vertex -0.202254 -0.146946 -40
      vertex -0.077254 -0.237764 -50
      vertex -0.202254 -0.146946 -50
    endloop
  endfacet
  facet normal 0 1 0
    outer loop
      vertex 0.077254 -0.237764 -40
      vertex 0.077254 -0.237764 -50
      vertex -0.077254 -0.237764 -40
    endloop
  endfacet
  facet normal 0 1 -0
    outer loop
      vertex -0.077254 -0.237764 -40
      vertex 0.077254 -0.237764 -50
      vertex -0.077254 -0.237764 -50
    endloop
  endfacet
  facet normal -0.587786 0.809016 0
    outer loop
      vertex 0.202254 -0.146946 -40
      vertex 0.202254 -0.146946 -50
      vertex 0.077254 -0.237764 -40
    endloop
  endfacet
  facet normal -0.587786 0.809016 0
    outer loop
      vertex 0.077254 -0.237764 -40
      vertex 0.202254 -0.146946 -50
      vertex 0.077254 -0.237764 -50
    endloop
  endfacet
  facet normal -0.951056 0.309019 0
    outer loop
      vertex 0.25 0 -40
      vertex 0.25 0 -50
      vertex 0.202254 -0.146946 -40
    endloop
  endfacet
  facet normal -0.951056 0.309019 0
    outer loop
      vertex 0.202254 -0.146946 -40
      vertex 0.25 0 -50
      vertex 0.202254 -0.146946 -50
    endloop
  endfacet
  facet normal -0.951056 -0.309019 0
    outer loop
      vertex 0.25 0 -40
      vertex 0.202254 0.146946 -40
      vertex 0.25 0 -50
    endloop
  endfacet
  facet normal -0.951056 -0.309019 0
    outer loop
      vertex 0.25 0 -50
      vertex 0.202254 0.146946 -40
      vertex 0.202254 0.146946 -50
    endloop
  endfacet
  facet normal -0.587786 -0.809016 -0
    outer loop
      vertex 0.202254 0.146946 -50
      vertex 0.202254 0.146946 -40
      vertex 0.077254 0.237764 -40
    endloop
  endfacet
  facet normal -0.587786 -0.809016 -0
    outer loop
      vertex 0.077254 0.237764 -50
      vertex 0.202254 0.146946 -50
      vertex 0.077254 0.237764 -40
    endloop
  endfacet
  facet normal 0 -1 0
    outer loop
      vertex 0.077254 0.237764 -50
      vertex 0.077254 0.237764 -40
      vertex -0.077254 0.237764 -40
    endloop
  endfacet
  facet normal -0 -1 -0
    outer loop
      vertex -0.077254 0.237764 -50
      vertex 0.077254 0.237764 -50
      vertex -0.077254 0.237764 -40
    endloop
  endfacet
  facet normal 0.587786 -0.809016 0
    outer loop
      vertex -0.077254 0.237764 -50
      vertex -0.077254 0.237764 -40
      vertex -0.202254 0.146946 -40
    endloop
  endfacet
  facet normal 0.587786 -0.809016 0
    outer loop
      vertex -0.202254 0.146946 -50
      vertex -0.077254 0.237764 -50
      vertex -0.202254 0.146946 -40
    endloop
  endfacet
  facet normal 0.951056 -0.309019 0
    outer loop
      vertex -0.202254 0.146946 -50
      vertex -0.202254 0.146946 -40
      vertex -0.25 0 -40
    endloop
  endfacet
  facet normal 0.951056 -0.309019 0
    outer loop
      vertex -0.25 0 -50
      vertex -0.202254 0.146946 -50
      vertex -0.25 0 -40
    endloop
  endfacet
  facet normal -0 0 -1
    outer loop
      vertex -1 0 -50
      vertex -0.951057 0.309017 -50
      vertex -0.951057 -0.309017 -50
    endloop
  endfacet
  facet normal 0 -0 -1
    outer loop
      vertex -0.951057 -0.309017 -50
      vertex -0.951057 0.309017 -50
      vertex -0.809017 0.587785 -50
    endloop
  endfacet
  facet normal 0 0 -1
    outer loop
      vertex -0.951057 -0.309017 -50
      vertex -0.809017 0.587785 -50
      vertex -0.587785 0.809017 -50
    endloop
  endfacet
  facet normal 0 0 -1
    outer loop
      vertex -0.951057 -0.309017 -50
      vertex -0.587785 0.809017 -50
      vertex -0.309017 0.951057 -50
    endloop
  endfacet
  facet normal 0 0 -1
    outer loop
      vertex -0.951057 -0.309017 -50
      vertex -0.309017 0.951057 -50
      vertex 0 1 -50
    endloop
  endfacet
  facet normal 0 0 -1
    outer loop
      vertex -0.951057 -0.309017 -50
      vertex 0 1 -50
      vertex 0.309017 0.951057 -50
    endloop
  endfacet
  facet normal 0 0 -1
    outer loop
      vertex -0.951057 -0.309017 -50
      vertex 0.309017 0.951057 -50
      vertex 0.587785 0.809017 -50
    endloop
  endfacet
  facet normal 0 0 -1
    outer loop
      vertex 0.077254 0.237764 -50
      vertex 0.587785 0.809017 -50
      vertex 0.809017 0.587785 -50
    endloop
  endfacet
  facet normal 0 0 -1
    outer loop
      vertex 0.202254 0.146946 -50
      vertex 0.809017 0.587785 -50
      vertex 0.951057 0.309017 -50
    endloop
  endfacet
  facet normal -0 0 -1
    outer loop
      vertex 0.25 0 -50
      vertex 0.951057 0.309017 -50
      vertex 1 0 -50
    endloop
  endfacet
  facet normal -0 0 -1
    outer loop
      vertex 0.077254 -0.237764 -50
      vertex 1 0 -50
      vertex 0.951057 -0.309017 -50
    endloop
  endfacet
  facet normal 0 0 -1
    outer loop
      vertex -0.951057 -0.309017 -50
      vertex 0.951057 -0.309017 -50
      vertex 0.809017 -0.587785 -50
    endloop
  endfacet
  facet normal 0 0 -1
    outer loop
      vertex -0.951057 -0.309017 -50
      vertex 0.809017 -0.587785 -50
      vertex 0.587785 -0.809017 -50
    endloop
  endfacet
  facet normal 0 0 -1
    outer loop
      vertex -0.951057 -0.309017 -50
      vertex 0.587785 -0.809017 -50
      vertex 0.309017 -0.951057 -50
    endloop
  endfacet
  facet normal 0 0 -1
    outer loop
      vertex -0.951057 -0.309017 -50
      vertex 0.309017 -0.951057 -50
      vertex 0 -1 -50
    endloop
  endfacet
  facet normal 0 0 -1
    outer loop
      vertex -0.951057 -0.309017 -50
      vertex 0 -1 -50
      vertex -0.309017 -0.951057 -50
    endloop
  endfacet
  facet normal 0 0 -1
    outer loop
      vertex -0.951057 -0.309017 -50
      vertex -0.309017 -0.951057 -50
      vertex -0.587785 -0.809017 -50
    endloop
  endfacet
  facet normal 0 0 -1
    outer loop
      vertex -0.951057 -0.309017 -50
      vertex -0.587785 -0.809017 -50
      vertex -0.809017 -0.587785 -50
    endloop
  endfacet
  facet normal 0 0 -1
    outer loop
      vertex -0.202254 -0.146946 -50
      vertex -0.951057 -0.309017 -50
      vertex -0.25 0 -50
    endloop
  endfacet
  facet normal 0 0 -1
    outer loop
      vertex -0.077254 -0.237764 -50
      vertex -0.951057 -0.309017 -50
      vertex -0.202254 -0.146946 -50
    endloop
  endfacet
  facet normal 0 0 -1
    outer loop
      vertex 0.25 0 -50
      vertex 1 0 -50
      vertex 0.202254 -0.146946 -50
    endloop
  endfacet
  facet normal -0 0 -1
    outer loop
      vertex -0.951057 -0.309017 -50
      vertex -0.077254 -0.237764 -50
      vertex 0.951057 -0.309017 -50
    endloop
  endfacet
  facet normal 0 0 -1
    outer loop
      vertex -0.077254 -0.237764 -50
      vertex 0.077254 -0.237764 -50
      vertex 0.951057 -0.309017 -50
    endloop
  endfacet
  facet normal -0 0 -1
    outer loop
      vertex 0.202254 -0.146946 -50
      vertex 1 0 -50
      vertex 0.077254 -0.237764 -50
    endloop
  endfacet
  facet normal -0 0 -1
    outer loop
      vertex 0.202254 0.146946 -50
      vertex 0.951057 0.309017 -50
      vertex 0.25 0 -50
    endloop
  endfacet
  facet normal -0 0 -1
    outer loop
      vertex 0.077254 0.237764 -50
      vertex 0.809017 0.587785 -50
      vertex 0.202254 0.146946 -50
    endloop
  endfacet
  facet normal -0 0 -1
    outer loop
      vertex -0.077254 0.237764 -50
      vertex 0.587785 0.809017 -50
      vertex 0.077254 0.237764 -50
    endloop
  endfacet
  facet normal 0 0 -1
    outer loop
      vertex -0.951057 -0.309017 -50
      vertex 0.587785 0.809017 -50
      vertex -0.077254 0.237764 -50
    endloop
  endfacet
  facet normal 0 0 -1
    outer loop
      vertex -0.951057 -0.309017 -50
      vertex -0.077254 0.237764 -50
      vertex -0.202254 0.146946 -50
    endloop
  endfacet
  facet normal 0 -0 -1
    outer loop
      vertex -0.25 0 -50
      vertex -0.951057 -0.309017 -50
      vertex -0.202254 0.146946 -50
    endloop
  endfacet
endsolid OpenSCAD_Model
