solid OpenSCAD_Model
  facet normal -0 0 -1
    outer loop
      vertex -8.25 0 -25
      vertex -8.06972 1.71527 -25
      vertex -8.06972 -1.71527 -25
    endloop
  endfacet
  facet normal 0 -0 -1
    outer loop
      vertex -8.06972 -1.71527 -25
      vertex -8.06972 1.71527 -25
      vertex -7.53675 3.35558 -25
    endloop
  endfacet
  facet normal 0 0 -1
    outer loop
      vertex -8.06972 -1.71527 -25
      vertex -7.53675 3.35558 -25
      vertex -6.67439 4.84923 -25
    endloop
  endfacet
  facet normal 0 0 -1
    outer loop
      vertex -8.06972 -1.71527 -25
      vertex -6.67439 4.84923 -25
      vertex -5.52033 6.13094 -25
    endloop
  endfacet
  facet normal 0 0 -1
    outer loop
      vertex -8.06972 -1.71527 -25
      vertex -5.52033 6.13094 -25
      vertex -4.125 7.14471 -25
    endloop
  endfacet
  facet normal 0 0 -1
    outer loop
      vertex -8.06972 -1.71527 -25
      vertex -4.125 7.14471 -25
      vertex -2.54939 7.84622 -25
    endloop
  endfacet
  facet normal 0 0 -1
    outer loop
      vertex -8.06972 -1.71527 -25
      vertex -2.54939 7.84622 -25
      vertex -0.86236 8.20481 -25
    endloop
  endfacet
  facet normal 0 0 -1
    outer loop
      vertex -8.06972 -1.71527 -25
      vertex -0.86236 8.20481 -25
      vertex 0.86236 8.20481 -25
    endloop
  endfacet
  facet normal 0 0 -1
    outer loop
      vertex -8.06972 -1.71527 -25
      vertex 0.86236 8.20481 -25
      vertex 2.54939 7.84622 -25
    endloop
  endfacet
  facet normal 0 0 -1
    outer loop
      vertex -8.06972 -1.71527 -25
      vertex 2.54939 7.84622 -25
      vertex 4.125 7.14471 -25
    endloop
  endfacet
  facet normal 0 0 -1
    outer loop
      vertex -8.06972 -1.71527 -25
      vertex 4.125 7.14471 -25
      vertex 5.52033 6.13094 -25
    endloop
  endfacet
  facet normal 0 0 -1
    outer loop
      vertex -8.06972 -1.71527 -25
      vertex 5.52033 6.13094 -25
      vertex 6.67439 4.84923 -25
    endloop
  endfacet
  facet normal 0 0 -1
    outer loop
      vertex 0.75 1.29904 -25
      vertex 6.67439 4.84923 -25
      vertex 7.53675 3.35558 -25
    endloop
  endfacet
  facet normal 0 0 -1
    outer loop
      vertex 1.37032 0.610105 -25
      vertex 7.53675 3.35558 -25
      vertex 8.06972 1.71527 -25
    endloop
  endfacet
  facet normal -0 0 -1
    outer loop
      vertex 1.5 0 -25
      vertex 8.06972 1.71527 -25
      vertex 8.25 0 -25
    endloop
  endfacet
  facet normal -0 0 -1
    outer loop
      vertex 1.0037 -1.11472 -25
      vertex 8.25 0 -25
      vertex 8.06972 -1.71527 -25
    endloop
  endfacet
  facet normal 0 0 -1
    outer loop
      vertex -8.06972 -1.71527 -25
      vertex 8.06972 -1.71527 -25
      vertex 7.53675 -3.35558 -25
    endloop
  endfacet
  facet normal 0 0 -1
    outer loop
      vertex -8.06972 -1.71527 -25
      vertex 7.53675 -3.35558 -25
      vertex 6.67439 -4.84923 -25
    endloop
  endfacet
  facet normal 0 0 -1
    outer loop
      vertex -8.06972 -1.71527 -25
      vertex 6.67439 -4.84923 -25
      vertex 5.52033 -6.13094 -25
    endloop
  endfacet
  facet normal 0 0 -1
    outer loop
      vertex -8.06972 -1.71527 -25
      vertex 5.52033 -6.13094 -25
      vertex 4.125 -7.14471 -25
    endloop
  endfacet
  facet normal 0 0 -1
    outer loop
      vertex -8.06972 -1.71527 -25
      vertex 4.125 -7.14471 -25
      vertex 2.54939 -7.84622 -25
    endloop
  endfacet
  facet normal 0 0 -1
    outer loop
      vertex -8.06972 -1.71527 -25
      vertex 2.54939 -7.84622 -25
      vertex 0.86236 -8.20481 -25
    endloop
  endfacet
  facet normal 0 0 -1
    outer loop
      vertex -8.06972 -1.71527 -25
      vertex 0.86236 -8.20481 -25
      vertex -0.86236 -8.20481 -25
    endloop
  endfacet
  facet normal 0 0 -1
    outer loop
      vertex -8.06972 -1.71527 -25
      vertex -0.86236 -8.20481 -25
      vertex -2.54939 -7.84622 -25
    endloop
  endfacet
  facet normal 0 0 -1
    outer loop
      vertex -8.06972 -1.71527 -25
      vertex -2.54939 -7.84622 -25
      vertex -4.125 -7.14471 -25
    endloop
  endfacet
  facet normal 0 0 -1
    outer loop
      vertex -8.06972 -1.71527 -25
      vertex -4.125 -7.14471 -25
      vertex -5.52033 -6.13094 -25
    endloop
  endfacet
  facet normal 0 0 -1
    outer loop
      vertex -8.06972 -1.71527 -25
      vertex -5.52033 -6.13094 -25
      vertex -6.67439 -4.84923 -25
    endloop
  endfacet
  facet normal 0 0 -1
    outer loop
      vertex -8.06972 -1.71527 -25
      vertex -6.67439 -4.84923 -25
      vertex -7.53675 -3.35558 -25
    endloop
  endfacet
  facet normal -0 0 -1
    outer loop
      vertex 0.75 1.29904 -25
      vertex 7.53675 3.35558 -25
      vertex 1.0037 1.11472 -25
    endloop
  endfacet
  facet normal 0 0 -1
    outer loop
      vertex -1.0037 -1.11472 -25
      vertex -8.06972 -1.71527 -25
      vertex -1.21352 -0.881678 -25
    endloop
  endfacet
  facet normal 0 0 -1
    outer loop
      vertex -8.06972 -1.71527 -25
      vertex -1.46722 -0.311868 -25
      vertex -1.37032 -0.610105 -25
    endloop
  endfacet
  facet normal 0 0 -1
    outer loop
      vertex -8.06972 -1.71527 -25
      vertex -1.37032 -0.610105 -25
      vertex -1.21352 -0.881678 -25
    endloop
  endfacet
  facet normal 0 0 -1
    outer loop
      vertex 0.463525 -1.42658 -25
      vertex 8.06972 -1.71527 -25
      vertex 0.156793 -1.49178 -25
    endloop
  endfacet
  facet normal 0 0 -1
    outer loop
      vertex -8.06972 -1.71527 -25
      vertex -1.0037 -1.11472 -25
      vertex -0.75 -1.29904 -25
    endloop
  endfacet
  facet normal 0 0 -1
    outer loop
      vertex -8.06972 -1.71527 -25
      vertex -0.75 -1.29904 -25
      vertex -0.463525 -1.42658 -25
    endloop
  endfacet
  facet normal 0 0 -1
    outer loop
      vertex -8.06972 -1.71527 -25
      vertex -0.463525 -1.42658 -25
      vertex -0.156793 -1.49178 -25
    endloop
  endfacet
  facet normal -0 0 -1
    outer loop
      vertex -8.06972 -1.71527 -25
      vertex -0.156793 -1.49178 -25
      vertex 8.06972 -1.71527 -25
    endloop
  endfacet
  facet normal 0 0 -1
    outer loop
      vertex -0.156793 -1.49178 -25
      vertex 0.156793 -1.49178 -25
      vertex 8.06972 -1.71527 -25
    endloop
  endfacet
  facet normal 0 0 -1
    outer loop
      vertex 0.75 -1.29904 -25
      vertex 8.06972 -1.71527 -25
      vertex 0.463525 -1.42658 -25
    endloop
  endfacet
  facet normal 0 0 -1
    outer loop
      vertex 1.0037 -1.11472 -25
      vertex 8.06972 -1.71527 -25
      vertex 0.75 -1.29904 -25
    endloop
  endfacet
  facet normal -0 0 -1
    outer loop
      vertex 1.21352 -0.881678 -25
      vertex 8.25 0 -25
      vertex 1.0037 -1.11472 -25
    endloop
  endfacet
  facet normal -0 0 -1
    outer loop
      vertex 1.37032 -0.610105 -25
      vertex 8.25 0 -25
      vertex 1.21352 -0.881678 -25
    endloop
  endfacet
  facet normal -0 0 -1
    outer loop
      vertex 1.46722 -0.311868 -25
      vertex 8.25 0 -25
      vertex 1.37032 -0.610105 -25
    endloop
  endfacet
  facet normal 0 0 -1
    outer loop
      vertex 1.5 0 -25
      vertex 8.25 0 -25
      vertex 1.46722 -0.311868 -25
    endloop
  endfacet
  facet normal -0 0 -1
    outer loop
      vertex 1.46722 0.311868 -25
      vertex 8.06972 1.71527 -25
      vertex 1.5 0 -25
    endloop
  endfacet
  facet normal -0 0 -1
    outer loop
      vertex 1.21352 0.881678 -25
      vertex 7.53675 3.35558 -25
      vertex 1.37032 0.610105 -25
    endloop
  endfacet
  facet normal -0 0 -1
    outer loop
      vertex 1.0037 1.11472 -25
      vertex 7.53675 3.35558 -25
      vertex 1.21352 0.881678 -25
    endloop
  endfacet
  facet normal -0 0 -1
    outer loop
      vertex 0.463525 1.42658 -25
      vertex 6.67439 4.84923 -25
      vertex 0.75 1.29904 -25
    endloop
  endfacet
  facet normal 0 -0 -1
    outer loop
      vertex -1.0037 1.11472 -25
      vertex -8.06972 -1.71527 -25
      vertex -0.75 1.29904 -25
    endloop
  endfacet
  facet normal -0 0 -1
    outer loop
      vertex 0.156793 1.49178 -25
      vertex 6.67439 4.84923 -25
      vertex 0.463525 1.42658 -25
    endloop
  endfacet
  facet normal -0 0 -1
    outer loop
      vertex -0.156793 1.49178 -25
      vertex 6.67439 4.84923 -25
      vertex 0.156793 1.49178 -25
    endloop
  endfacet
  facet normal 0 0 -1
    outer loop
      vertex -0.463525 1.42658 -25
      vertex 6.67439 4.84923 -25
      vertex -0.156793 1.49178 -25
    endloop
  endfacet
  facet normal 0 0 -1
    outer loop
      vertex -8.06972 -1.71527 -25
      vertex 6.67439 4.84923 -25
      vertex -0.463525 1.42658 -25
    endloop
  endfacet
  facet normal 0 0 -1
    outer loop
      vertex -8.06972 -1.71527 -25
      vertex -0.463525 1.42658 -25
      vertex -0.75 1.29904 -25
    endloop
  endfacet
  facet normal 0 -0 -1
    outer loop
      vertex -1.21352 0.881678 -25
      vertex -8.06972 -1.71527 -25
      vertex -1.0037 1.11472 -25
    endloop
  endfacet
  facet normal 0 -0 -1
    outer loop
      vertex -1.37032 0.610105 -25
      vertex -8.06972 -1.71527 -25
      vertex -1.21352 0.881678 -25
    endloop
  endfacet
  facet normal 0 -0 -1
    outer loop
      vertex -1.46722 0.311868 -25
      vertex -8.06972 -1.71527 -25
      vertex -1.37032 0.610105 -25
    endloop
  endfacet
  facet normal 0 0 -1
    outer loop
      vertex -8.06972 -1.71527 -25
      vertex -1.46722 0.311868 -25
      vertex -1.5 0 -25
    endloop
  endfacet
  facet normal 0 0 -1
    outer loop
      vertex -1.46722 -0.311868 -25
      vertex -8.06972 -1.71527 -25
      vertex -1.5 0 -25
    endloop
  endfacet
  facet normal -0 0 -1
    outer loop
      vertex 1.37032 0.610105 -25
      vertex 8.06972 1.71527 -25
      vertex 1.46722 0.311868 -25
    endloop
  endfacet
  facet normal -0.994522 0.104528 0
    outer loop
      vertex -8.25 0 -25
      vertex -8.25 0 25
      vertex -8.06972 1.71527 -25
    endloop
  endfacet
  facet normal -0.994522 0.104528 0
    outer loop
      vertex -8.06972 1.71527 -25
      vertex -8.25 0 25
      vertex -8.06972 1.71527 25
    endloop
  endfacet
  facet normal -0.994522 -0.104528 -0
    outer loop
      vertex -8.25 0 -25
      vertex -8.06972 -1.71527 -25
      vertex -8.25 0 25
    endloop
  endfacet
  facet normal -0.994522 -0.104528 0
    outer loop
      vertex -8.25 0 25
      vertex -8.06972 -1.71527 -25
      vertex -8.06972 -1.71527 25
    endloop
  endfacet
  facet normal -0.951056 -0.309017 -0
    outer loop
      vertex -8.06972 -1.71527 -25
      vertex -7.53675 -3.35558 -25
      vertex -8.06972 -1.71527 25
    endloop
  endfacet
  facet normal -0.951056 -0.309017 0
    outer loop
      vertex -8.06972 -1.71527 25
      vertex -7.53675 -3.35558 -25
      vertex -7.53675 -3.35558 25
    endloop
  endfacet
  facet normal -0.866025 -0.5 -0
    outer loop
      vertex -7.53675 -3.35558 -25
      vertex -6.67439 -4.84923 -25
      vertex -7.53675 -3.35558 25
    endloop
  endfacet
  facet normal -0.866025 -0.5 0
    outer loop
      vertex -7.53675 -3.35558 25
      vertex -6.67439 -4.84923 -25
      vertex -6.67439 -4.84923 25
    endloop
  endfacet
  facet normal -0.743145 -0.66913 -0
    outer loop
      vertex -6.67439 -4.84923 -25
      vertex -5.52033 -6.13094 -25
      vertex -6.67439 -4.84923 25
    endloop
  endfacet
  facet normal -0.743145 -0.66913 0
    outer loop
      vertex -6.67439 -4.84923 25
      vertex -5.52033 -6.13094 -25
      vertex -5.52033 -6.13094 25
    endloop
  endfacet
  facet normal -0.587785 -0.809017 0
    outer loop
      vertex -5.52033 -6.13094 25
      vertex -5.52033 -6.13094 -25
      vertex -4.125 -7.14471 -25
    endloop
  endfacet
  facet normal -0.587785 -0.809017 0
    outer loop
      vertex -4.125 -7.14471 25
      vertex -5.52033 -6.13094 25
      vertex -4.125 -7.14471 -25
    endloop
  endfacet
  facet normal -0.406736 -0.913546 0
    outer loop
      vertex -4.125 -7.14471 25
      vertex -4.125 -7.14471 -25
      vertex -2.54939 -7.84622 -25
    endloop
  endfacet
  facet normal -0.406736 -0.913546 0
    outer loop
      vertex -2.54939 -7.84622 25
      vertex -4.125 -7.14471 25
      vertex -2.54939 -7.84622 -25
    endloop
  endfacet
  facet normal -0.207912 -0.978148 0
    outer loop
      vertex -2.54939 -7.84622 25
      vertex -2.54939 -7.84622 -25
      vertex -0.86236 -8.20481 -25
    endloop
  endfacet
  facet normal -0.207912 -0.978148 0
    outer loop
      vertex -0.86236 -8.20481 25
      vertex -2.54939 -7.84622 25
      vertex -0.86236 -8.20481 -25
    endloop
  endfacet
  facet normal 0 -1 0
    outer loop
      vertex -0.86236 -8.20481 25
      vertex -0.86236 -8.20481 -25
      vertex 0.86236 -8.20481 -25
    endloop
  endfacet
  facet normal 0 -1 0
    outer loop
      vertex 0.86236 -8.20481 25
      vertex -0.86236 -8.20481 25
      vertex 0.86236 -8.20481 -25
    endloop
  endfacet
  facet normal 0.207912 -0.978148 0
    outer loop
      vertex 0.86236 -8.20481 25
      vertex 0.86236 -8.20481 -25
      vertex 2.54939 -7.84622 -25
    endloop
  endfacet
  facet normal 0.207912 -0.978148 0
    outer loop
      vertex 2.54939 -7.84622 25
      vertex 0.86236 -8.20481 25
      vertex 2.54939 -7.84622 -25
    endloop
  endfacet
  facet normal 0.406736 -0.913546 0
    outer loop
      vertex 2.54939 -7.84622 25
      vertex 2.54939 -7.84622 -25
      vertex 4.125 -7.14471 -25
    endloop
  endfacet
  facet normal 0.406736 -0.913546 0
    outer loop
      vertex 4.125 -7.14471 25
      vertex 2.54939 -7.84622 25
      vertex 4.125 -7.14471 -25
    endloop
  endfacet
  facet normal 0.587785 -0.809017 0
    outer loop
      vertex 4.125 -7.14471 25
      vertex 4.125 -7.14471 -25
      vertex 5.52033 -6.13094 -25
    endloop
  endfacet
  facet normal 0.587785 -0.809017 0
    outer loop
      vertex 5.52033 -6.13094 25
      vertex 4.125 -7.14471 25
      vertex 5.52033 -6.13094 -25
    endloop
  endfacet
  facet normal 0.743145 -0.66913 0
    outer loop
      vertex 5.52033 -6.13094 25
      vertex 5.52033 -6.13094 -25
      vertex 6.67439 -4.84923 -25
    endloop
  endfacet
  facet normal 0.743145 -0.66913 0
    outer loop
      vertex 6.67439 -4.84923 25
      vertex 5.52033 -6.13094 25
      vertex 6.67439 -4.84923 -25
    endloop
  endfacet
  facet normal 0.866025 -0.5 0
    outer loop
      vertex 6.67439 -4.84923 25
      vertex 6.67439 -4.84923 -25
      vertex 7.53675 -3.35558 -25
    endloop
  endfacet
  facet normal 0.866025 -0.5 0
    outer loop
      vertex 7.53675 -3.35558 25
      vertex 6.67439 -4.84923 25
      vertex 7.53675 -3.35558 -25
    endloop
  endfacet
  facet normal 0.951056 -0.309017 0
    outer loop
      vertex 7.53675 -3.35558 25
      vertex 7.53675 -3.35558 -25
      vertex 8.06972 -1.71527 -25
    endloop
  endfacet
  facet normal 0.951056 -0.309017 0
    outer loop
      vertex 8.06972 -1.71527 25
      vertex 7.53675 -3.35558 25
      vertex 8.06972 -1.71527 -25
    endloop
  endfacet
  facet normal 0.994522 -0.104528 0
    outer loop
      vertex 8.06972 -1.71527 25
      vertex 8.06972 -1.71527 -25
      vertex 8.25 0 -25
    endloop
  endfacet
  facet normal 0.994522 -0.104528 0
    outer loop
      vertex 8.25 0 25
      vertex 8.06972 -1.71527 25
      vertex 8.25 0 -25
    endloop
  endfacet
  facet normal 0.994522 0.104528 0
    outer loop
      vertex 8.25 0 -25
      vertex 8.06972 1.71527 -25
      vertex 8.06972 1.71527 25
    endloop
  endfacet
  facet normal 0.994522 0.104528 -0
    outer loop
      vertex 8.25 0 25
      vertex 8.25 0 -25
      vertex 8.06972 1.71527 25
    endloop
  endfacet
  facet normal 0.951056 0.309017 0
    outer loop
      vertex 8.06972 1.71527 -25
      vertex 7.53675 3.35558 -25
      vertex 7.53675 3.35558 25
    endloop
  endfacet
  facet normal 0.951056 0.309017 -0
    outer loop
      vertex 8.06972 1.71527 25
      vertex 8.06972 1.71527 -25
      vertex 7.53675 3.35558 25
    endloop
  endfacet
  facet normal 0.866025 0.5 0
    outer loop
      vertex 7.53675 3.35558 -25
      vertex 6.67439 4.84923 -25
      vertex 6.67439 4.84923 25
    endloop
  endfacet
  facet normal 0.866025 0.5 -0
    outer loop
      vertex 7.53675 3.35558 25
      vertex 7.53675 3.35558 -25
      vertex 6.67439 4.84923 25
    endloop
  endfacet
  facet normal 0.743145 0.66913 0
    outer loop
      vertex 6.67439 4.84923 -25
      vertex 5.52033 6.13094 -25
      vertex 5.52033 6.13094 25
    endloop
  endfacet
  facet normal 0.743145 0.66913 -0
    outer loop
      vertex 6.67439 4.84923 25
      vertex 6.67439 4.84923 -25
      vertex 5.52033 6.13094 25
    endloop
  endfacet
  facet normal 0.587785 0.809017 0
    outer loop
      vertex 4.125 7.14471 -25
      vertex 4.125 7.14471 25
      vertex 5.52033 6.13094 -25
    endloop
  endfacet
  facet normal 0.587785 0.809017 0
    outer loop
      vertex 5.52033 6.13094 -25
      vertex 4.125 7.14471 25
      vertex 5.52033 6.13094 25
    endloop
  endfacet
  facet normal 0.406736 0.913546 0
    outer loop
      vertex 2.54939 7.84622 -25
      vertex 2.54939 7.84622 25
      vertex 4.125 7.14471 -25
    endloop
  endfacet
  facet normal 0.406736 0.913546 0
    outer loop
      vertex 4.125 7.14471 -25
      vertex 2.54939 7.84622 25
      vertex 4.125 7.14471 25
    endloop
  endfacet
  facet normal 0.207912 0.978148 0
    outer loop
      vertex 0.86236 8.20481 -25
      vertex 0.86236 8.20481 25
      vertex 2.54939 7.84622 -25
    endloop
  endfacet
  facet normal 0.207912 0.978148 0
    outer loop
      vertex 2.54939 7.84622 -25
      vertex 0.86236 8.20481 25
      vertex 2.54939 7.84622 25
    endloop
  endfacet
  facet normal 0 1 0
    outer loop
      vertex -0.86236 8.20481 -25
      vertex -0.86236 8.20481 25
      vertex 0.86236 8.20481 -25
    endloop
  endfacet
  facet normal 0 1 0
    outer loop
      vertex 0.86236 8.20481 -25
      vertex -0.86236 8.20481 25
      vertex 0.86236 8.20481 25
    endloop
  endfacet
  facet normal -0.207912 0.978148 0
    outer loop
      vertex -2.54939 7.84622 -25
      vertex -2.54939 7.84622 25
      vertex -0.86236 8.20481 -25
    endloop
  endfacet
  facet normal -0.207912 0.978148 0
    outer loop
      vertex -0.86236 8.20481 -25
      vertex -2.54939 7.84622 25
      vertex -0.86236 8.20481 25
    endloop
  endfacet
  facet normal -0.406736 0.913546 0
    outer loop
      vertex -4.125 7.14471 -25
      vertex -4.125 7.14471 25
      vertex -2.54939 7.84622 -25
    endloop
  endfacet
  facet normal -0.406736 0.913546 0
    outer loop
      vertex -2.54939 7.84622 -25
      vertex -4.125 7.14471 25
      vertex -2.54939 7.84622 25
    endloop
  endfacet
  facet normal -0.587785 0.809017 0
    outer loop
      vertex -5.52033 6.13094 -25
      vertex -5.52033 6.13094 25
      vertex -4.125 7.14471 -25
    endloop
  endfacet
  facet normal -0.587785 0.809017 0
    outer loop
      vertex -4.125 7.14471 -25
      vertex -5.52033 6.13094 25
      vertex -4.125 7.14471 25
    endloop
  endfacet
  facet normal -0.743145 0.66913 0
    outer loop
      vertex -6.67439 4.84923 -25
      vertex -6.67439 4.84923 25
      vertex -5.52033 6.13094 -25
    endloop
  endfacet
  facet normal -0.743145 0.66913 0
    outer loop
      vertex -5.52033 6.13094 -25
      vertex -6.67439 4.84923 25
      vertex -5.52033 6.13094 25
    endloop
  endfacet
  facet normal -0.866025 0.5 0
    outer loop
      vertex -7.53675 3.35558 -25
      vertex -7.53675 3.35558 25
      vertex -6.67439 4.84923 -25
    endloop
  endfacet
  facet normal -0.866025 0.5 0
    outer loop
      vertex -6.67439 4.84923 -25
      vertex -7.53675 3.35558 25
      vertex -6.67439 4.84923 25
    endloop
  endfacet
  facet normal -0.951056 0.309017 0
    outer loop
      vertex -8.06972 1.71527 -25
      vertex -8.06972 1.71527 25
      vertex -7.53675 3.35558 -25
    endloop
  endfacet
  facet normal -0.951056 0.309017 0
    outer loop
      vertex -7.53675 3.35558 -25
      vertex -8.06972 1.71527 25
      vertex -7.53675 3.35558 25
    endloop
  endfacet
  facet normal 0.994522 0.10453 0
    outer loop
      vertex -1.5 0 25
      vertex -1.46722 -0.311868 25
      vertex -1.46722 -0.311868 -25
    endloop
  endfacet
  facet normal 0.994522 0.10453 0
    outer loop
      vertex -1.5 0 -25
      vertex -1.5 0 25
      vertex -1.46722 -0.311868 -25
    endloop
  endfacet
  facet normal 0.994522 -0.10453 0
    outer loop
      vertex -1.46722 0.311868 -25
      vertex -1.46722 0.311868 25
      vertex -1.5 0 25
    endloop
  endfacet
  facet normal 0.994522 -0.10453 0
    outer loop
      vertex -1.5 0 -25
      vertex -1.46722 0.311868 -25
      vertex -1.5 0 25
    endloop
  endfacet
  facet normal 0.951057 -0.309017 0
    outer loop
      vertex -1.37032 0.610105 -25
      vertex -1.37032 0.610105 25
      vertex -1.46722 0.311868 25
    endloop
  endfacet
  facet normal 0.951057 -0.309017 0
    outer loop
      vertex -1.46722 0.311868 -25
      vertex -1.37032 0.610105 -25
      vertex -1.46722 0.311868 25
    endloop
  endfacet
  facet normal 0.866025 -0.500001 0
    outer loop
      vertex -1.21352 0.881678 -25
      vertex -1.21352 0.881678 25
      vertex -1.37032 0.610105 25
    endloop
  endfacet
  facet normal 0.866025 -0.500001 0
    outer loop
      vertex -1.37032 0.610105 -25
      vertex -1.21352 0.881678 -25
      vertex -1.37032 0.610105 25
    endloop
  endfacet
  facet normal 0.743145 -0.66913 0
    outer loop
      vertex -1.0037 1.11472 -25
      vertex -1.0037 1.11472 25
      vertex -1.21352 0.881678 25
    endloop
  endfacet
  facet normal 0.743145 -0.66913 0
    outer loop
      vertex -1.21352 0.881678 -25
      vertex -1.0037 1.11472 -25
      vertex -1.21352 0.881678 25
    endloop
  endfacet
  facet normal 0.587785 -0.809017 0
    outer loop
      vertex -0.75 1.29904 -25
      vertex -0.75 1.29904 25
      vertex -1.0037 1.11472 25
    endloop
  endfacet
  facet normal 0.587785 -0.809017 0
    outer loop
      vertex -1.0037 1.11472 -25
      vertex -0.75 1.29904 -25
      vertex -1.0037 1.11472 25
    endloop
  endfacet
  facet normal 0.406737 -0.913545 0
    outer loop
      vertex -0.463525 1.42658 -25
      vertex -0.463525 1.42658 25
      vertex -0.75 1.29904 25
    endloop
  endfacet
  facet normal 0.406737 -0.913545 0
    outer loop
      vertex -0.75 1.29904 -25
      vertex -0.463525 1.42658 -25
      vertex -0.75 1.29904 25
    endloop
  endfacet
  facet normal 0.207912 -0.978148 0
    outer loop
      vertex -0.156793 1.49178 -25
      vertex -0.156793 1.49178 25
      vertex -0.463525 1.42658 25
    endloop
  endfacet
  facet normal 0.207912 -0.978148 0
    outer loop
      vertex -0.463525 1.42658 -25
      vertex -0.156793 1.49178 -25
      vertex -0.463525 1.42658 25
    endloop
  endfacet
  facet normal 0 -1 0
    outer loop
      vertex 0.156793 1.49178 -25
      vertex 0.156793 1.49178 25
      vertex -0.156793 1.49178 25
    endloop
  endfacet
  facet normal -0 -1 -0
    outer loop
      vertex -0.156793 1.49178 -25
      vertex 0.156793 1.49178 -25
      vertex -0.156793 1.49178 25
    endloop
  endfacet
  facet normal -0.207912 -0.978148 -0
    outer loop
      vertex 0.463525 1.42658 -25
      vertex 0.463525 1.42658 25
      vertex 0.156793 1.49178 25
    endloop
  endfacet
  facet normal -0.207912 -0.978148 -0
    outer loop
      vertex 0.156793 1.49178 -25
      vertex 0.463525 1.42658 -25
      vertex 0.156793 1.49178 25
    endloop
  endfacet
  facet normal -0.406737 -0.913545 -0
    outer loop
      vertex 0.75 1.29904 -25
      vertex 0.75 1.29904 25
      vertex 0.463525 1.42658 25
    endloop
  endfacet
  facet normal -0.406737 -0.913545 -0
    outer loop
      vertex 0.463525 1.42658 -25
      vertex 0.75 1.29904 -25
      vertex 0.463525 1.42658 25
    endloop
  endfacet
  facet normal -0.587785 -0.809017 -0
    outer loop
      vertex 1.0037 1.11472 -25
      vertex 1.0037 1.11472 25
      vertex 0.75 1.29904 25
    endloop
  endfacet
  facet normal -0.587785 -0.809017 -0
    outer loop
      vertex 0.75 1.29904 -25
      vertex 1.0037 1.11472 -25
      vertex 0.75 1.29904 25
    endloop
  endfacet
  facet normal -0.743145 -0.66913 0
    outer loop
      vertex 1.21352 0.881678 25
      vertex 1.0037 1.11472 25
      vertex 1.21352 0.881678 -25
    endloop
  endfacet
  facet normal -0.743145 -0.66913 0
    outer loop
      vertex 1.21352 0.881678 -25
      vertex 1.0037 1.11472 25
      vertex 1.0037 1.11472 -25
    endloop
  endfacet
  facet normal -0.866025 -0.500001 0
    outer loop
      vertex 1.37032 0.610105 25
      vertex 1.21352 0.881678 25
      vertex 1.37032 0.610105 -25
    endloop
  endfacet
  facet normal -0.866025 -0.500001 0
    outer loop
      vertex 1.37032 0.610105 -25
      vertex 1.21352 0.881678 25
      vertex 1.21352 0.881678 -25
    endloop
  endfacet
  facet normal -0.951057 -0.309017 0
    outer loop
      vertex 1.46722 0.311868 25
      vertex 1.37032 0.610105 25
      vertex 1.46722 0.311868 -25
    endloop
  endfacet
  facet normal -0.951057 -0.309017 0
    outer loop
      vertex 1.46722 0.311868 -25
      vertex 1.37032 0.610105 25
      vertex 1.37032 0.610105 -25
    endloop
  endfacet
  facet normal -0.994522 -0.10453 0
    outer loop
      vertex 1.5 0 25
      vertex 1.46722 0.311868 25
      vertex 1.5 0 -25
    endloop
  endfacet
  facet normal -0.994522 -0.10453 0
    outer loop
      vertex 1.5 0 -25
      vertex 1.46722 0.311868 25
      vertex 1.46722 0.311868 -25
    endloop
  endfacet
  facet normal -0.994522 0.10453 0
    outer loop
      vertex 1.5 0 25
      vertex 1.5 0 -25
      vertex 1.46722 -0.311868 25
    endloop
  endfacet
  facet normal -0.994522 0.10453 0
    outer loop
      vertex 1.46722 -0.311868 25
      vertex 1.5 0 -25
      vertex 1.46722 -0.311868 -25
    endloop
  endfacet
  facet normal -0.951057 0.309017 0
    outer loop
      vertex 1.46722 -0.311868 25
      vertex 1.46722 -0.311868 -25
      vertex 1.37032 -0.610105 25
    endloop
  endfacet
  facet normal -0.951057 0.309017 0
    outer loop
      vertex 1.37032 -0.610105 25
      vertex 1.46722 -0.311868 -25
      vertex 1.37032 -0.610105 -25
    endloop
  endfacet
  facet normal -0.866025 0.500001 0
    outer loop
      vertex 1.37032 -0.610105 25
      vertex 1.37032 -0.610105 -25
      vertex 1.21352 -0.881678 25
    endloop
  endfacet
  facet normal -0.866025 0.500001 0
    outer loop
      vertex 1.21352 -0.881678 25
      vertex 1.37032 -0.610105 -25
      vertex 1.21352 -0.881678 -25
    endloop
  endfacet
  facet normal -0.743145 0.66913 0
    outer loop
      vertex 1.21352 -0.881678 25
      vertex 1.21352 -0.881678 -25
      vertex 1.0037 -1.11472 25
    endloop
  endfacet
  facet normal -0.743145 0.66913 0
    outer loop
      vertex 1.0037 -1.11472 25
      vertex 1.21352 -0.881678 -25
      vertex 1.0037 -1.11472 -25
    endloop
  endfacet
  facet normal -0.587785 0.809017 0
    outer loop
      vertex 1.0037 -1.11472 25
      vertex 1.0037 -1.11472 -25
      vertex 0.75 -1.29904 25
    endloop
  endfacet
  facet normal -0.587785 0.809017 0
    outer loop
      vertex 0.75 -1.29904 25
      vertex 1.0037 -1.11472 -25
      vertex 0.75 -1.29904 -25
    endloop
  endfacet
  facet normal -0.406737 0.913545 0
    outer loop
      vertex 0.75 -1.29904 25
      vertex 0.75 -1.29904 -25
      vertex 0.463525 -1.42658 25
    endloop
  endfacet
  facet normal -0.406737 0.913545 0
    outer loop
      vertex 0.463525 -1.42658 25
      vertex 0.75 -1.29904 -25
      vertex 0.463525 -1.42658 -25
    endloop
  endfacet
  facet normal -0.207912 0.978148 0
    outer loop
      vertex 0.463525 -1.42658 25
      vertex 0.463525 -1.42658 -25
      vertex 0.156793 -1.49178 25
    endloop
  endfacet
  facet normal -0.207912 0.978148 0
    outer loop
      vertex 0.156793 -1.49178 25
      vertex 0.463525 -1.42658 -25
      vertex 0.156793 -1.49178 -25
    endloop
  endfacet
  facet normal 0 1 0
    outer loop
      vertex 0.156793 -1.49178 25
      vertex 0.156793 -1.49178 -25
      vertex -0.156793 -1.49178 25
    endloop
  endfacet
  facet normal 0 1 -0
    outer loop
      vertex -0.156793 -1.49178 25
      vertex 0.156793 -1.49178 -25
      vertex -0.156793 -1.49178 -25
    endloop
  endfacet
  facet normal 0.207912 0.978148 -0
    outer loop
      vertex -0.156793 -1.49178 25
      vertex -0.156793 -1.49178 -25
      vertex -0.463525 -1.42658 25
    endloop
  endfacet
  facet normal 0.207912 0.978148 -0
    outer loop
      vertex -0.463525 -1.42658 25
      vertex -0.156793 -1.49178 -25
      vertex -0.463525 -1.42658 -25
    endloop
  endfacet
  facet normal 0.406737 0.913545 -0
    outer loop
      vertex -0.463525 -1.42658 25
      vertex -0.463525 -1.42658 -25
      vertex -0.75 -1.29904 25
    endloop
  endfacet
  facet normal 0.406737 0.913545 -0
    outer loop
      vertex -0.75 -1.29904 25
      vertex -0.463525 -1.42658 -25
      vertex -0.75 -1.29904 -25
    endloop
  endfacet
  facet normal 0.587785 0.809017 -0
    outer loop
      vertex -0.75 -1.29904 25
      vertex -0.75 -1.29904 -25
      vertex -1.0037 -1.11472 25
    endloop
  endfacet
  facet normal 0.587785 0.809017 -0
    outer loop
      vertex -1.0037 -1.11472 25
      vertex -0.75 -1.29904 -25
      vertex -1.0037 -1.11472 -25
    endloop
  endfacet
  facet normal 0.743145 0.66913 0
    outer loop
      vertex -1.21352 -0.881678 25
      vertex -1.0037 -1.11472 25
      vertex -1.0037 -1.11472 -25
    endloop
  endfacet
  facet normal 0.743145 0.66913 0
    outer loop
      vertex -1.21352 -0.881678 -25
      vertex -1.21352 -0.881678 25
      vertex -1.0037 -1.11472 -25
    endloop
  endfacet
  facet normal 0.866025 0.500001 0
    outer loop
      vertex -1.37032 -0.610105 25
      vertex -1.21352 -0.881678 25
      vertex -1.21352 -0.881678 -25
    endloop
  endfacet
  facet normal 0.866025 0.500001 0
    outer loop
      vertex -1.37032 -0.610105 -25
      vertex -1.37032 -0.610105 25
      vertex -1.21352 -0.881678 -25
    endloop
  endfacet
  facet normal 0.951057 0.309017 0
    outer loop
      vertex -1.46722 -0.311868 25
      vertex -1.37032 -0.610105 25
      vertex -1.37032 -0.610105 -25
    endloop
  endfacet
  facet normal 0.951057 0.309017 0
    outer loop
      vertex -1.46722 -0.311868 -25
      vertex -1.46722 -0.311868 25
      vertex -1.37032 -0.610105 -25
    endloop
  endfacet
  facet normal 0 0 1
    outer loop
      vertex -8.06972 1.71527 25
      vertex -8.25 0 25
      vertex -8.06972 -1.71527 25
    endloop
  endfacet
  facet normal 0 0 1
    outer loop
      vertex -6.67439 -4.84923 25
      vertex -8.06972 1.71527 25
      vertex -7.53675 -3.35558 25
    endloop
  endfacet
  facet normal 0 0 1
    outer loop
      vertex -7.53675 -3.35558 25
      vertex -8.06972 1.71527 25
      vertex -8.06972 -1.71527 25
    endloop
  endfacet
  facet normal 0 0 1
    outer loop
      vertex -5.52033 -6.13094 25
      vertex -8.06972 1.71527 25
      vertex -6.67439 -4.84923 25
    endloop
  endfacet
  facet normal 0 0 1
    outer loop
      vertex -4.125 -7.14471 25
      vertex -8.06972 1.71527 25
      vertex -5.52033 -6.13094 25
    endloop
  endfacet
  facet normal 0 0 1
    outer loop
      vertex -2.54939 -7.84622 25
      vertex -8.06972 1.71527 25
      vertex -4.125 -7.14471 25
    endloop
  endfacet
  facet normal 0 0 1
    outer loop
      vertex -0.86236 -8.20481 25
      vertex -8.06972 1.71527 25
      vertex -2.54939 -7.84622 25
    endloop
  endfacet
  facet normal -0 0 1
    outer loop
      vertex 0.86236 -8.20481 25
      vertex -8.06972 1.71527 25
      vertex -0.86236 -8.20481 25
    endloop
  endfacet
  facet normal -0 0 1
    outer loop
      vertex 2.54939 -7.84622 25
      vertex -8.06972 1.71527 25
      vertex 0.86236 -8.20481 25
    endloop
  endfacet
  facet normal -0 0 1
    outer loop
      vertex 4.125 -7.14471 25
      vertex -8.06972 1.71527 25
      vertex 2.54939 -7.84622 25
    endloop
  endfacet
  facet normal -0 0 1
    outer loop
      vertex 5.52033 -6.13094 25
      vertex -8.06972 1.71527 25
      vertex 4.125 -7.14471 25
    endloop
  endfacet
  facet normal -0 0 1
    outer loop
      vertex 6.67439 -4.84923 25
      vertex -8.06972 1.71527 25
      vertex 5.52033 -6.13094 25
    endloop
  endfacet
  facet normal -0 -0 1
    outer loop
      vertex -0.463525 -1.42658 25
      vertex -8.06972 1.71527 25
      vertex 6.67439 -4.84923 25
    endloop
  endfacet
  facet normal 0 0 1
    outer loop
      vertex 1.37032 0.610105 25
      vertex 1.46722 0.311868 25
      vertex 8.25 0 25
    endloop
  endfacet
  facet normal 0 -0 1
    outer loop
      vertex 7.53675 3.35558 25
      vertex -8.06972 1.71527 25
      vertex 8.06972 1.71527 25
    endloop
  endfacet
  facet normal 0 -0 1
    outer loop
      vertex 6.67439 4.84923 25
      vertex -8.06972 1.71527 25
      vertex 7.53675 3.35558 25
    endloop
  endfacet
  facet normal 0 -0 1
    outer loop
      vertex 5.52033 6.13094 25
      vertex -8.06972 1.71527 25
      vertex 6.67439 4.84923 25
    endloop
  endfacet
  facet normal 0 -0 1
    outer loop
      vertex 4.125 7.14471 25
      vertex -8.06972 1.71527 25
      vertex 5.52033 6.13094 25
    endloop
  endfacet
  facet normal 0 -0 1
    outer loop
      vertex 2.54939 7.84622 25
      vertex -8.06972 1.71527 25
      vertex 4.125 7.14471 25
    endloop
  endfacet
  facet normal 0 -0 1
    outer loop
      vertex 0.86236 8.20481 25
      vertex -8.06972 1.71527 25
      vertex 2.54939 7.84622 25
    endloop
  endfacet
  facet normal 0 -0 1
    outer loop
      vertex -0.86236 8.20481 25
      vertex -8.06972 1.71527 25
      vertex 0.86236 8.20481 25
    endloop
  endfacet
  facet normal 0 -0 1
    outer loop
      vertex -2.54939 7.84622 25
      vertex -8.06972 1.71527 25
      vertex -0.86236 8.20481 25
    endloop
  endfacet
  facet normal 0 -0 1
    outer loop
      vertex -4.125 7.14471 25
      vertex -8.06972 1.71527 25
      vertex -2.54939 7.84622 25
    endloop
  endfacet
  facet normal 0 -0 1
    outer loop
      vertex -5.52033 6.13094 25
      vertex -8.06972 1.71527 25
      vertex -4.125 7.14471 25
    endloop
  endfacet
  facet normal 0 -0 1
    outer loop
      vertex -6.67439 4.84923 25
      vertex -8.06972 1.71527 25
      vertex -5.52033 6.13094 25
    endloop
  endfacet
  facet normal 0 -0 1
    outer loop
      vertex -7.53675 3.35558 25
      vertex -8.06972 1.71527 25
      vertex -6.67439 4.84923 25
    endloop
  endfacet
  facet normal 0 0 1
    outer loop
      vertex -0.75 -1.29904 25
      vertex -1.0037 -1.11472 25
      vertex -8.06972 1.71527 25
    endloop
  endfacet
  facet normal -0 -0 1
    outer loop
      vertex -1.5 0 25
      vertex -8.06972 1.71527 25
      vertex -1.46722 -0.311868 25
    endloop
  endfacet
  facet normal 0 0 1
    outer loop
      vertex 1.21352 0.881678 25
      vertex 1.37032 0.610105 25
      vertex 8.25 0 25
    endloop
  endfacet
  facet normal 0 -0 1
    outer loop
      vertex 1.46722 -0.311868 25
      vertex 1.37032 -0.610105 25
      vertex 8.06972 -1.71527 25
    endloop
  endfacet
  facet normal -0 0 1
    outer loop
      vertex -1.37032 0.610105 25
      vertex -8.06972 1.71527 25
      vertex -1.46722 0.311868 25
    endloop
  endfacet
  facet normal -0 0 1
    outer loop
      vertex -1.21352 0.881678 25
      vertex -8.06972 1.71527 25
      vertex -1.37032 0.610105 25
    endloop
  endfacet
  facet normal 0 0 1
    outer loop
      vertex 0.156793 1.49178 25
      vertex 0.463525 1.42658 25
      vertex 8.06972 1.71527 25
    endloop
  endfacet
  facet normal -0 0 1
    outer loop
      vertex -0.75 1.29904 25
      vertex -8.06972 1.71527 25
      vertex -1.0037 1.11472 25
    endloop
  endfacet
  facet normal -0 0 1
    outer loop
      vertex -0.463525 1.42658 25
      vertex -8.06972 1.71527 25
      vertex -0.75 1.29904 25
    endloop
  endfacet
  facet normal -0 0 1
    outer loop
      vertex -0.156793 1.49178 25
      vertex -8.06972 1.71527 25
      vertex -0.463525 1.42658 25
    endloop
  endfacet
  facet normal 0 0 1
    outer loop
      vertex 8.06972 1.71527 25
      vertex -8.06972 1.71527 25
      vertex -0.156793 1.49178 25
    endloop
  endfacet
  facet normal 0 0 1
    outer loop
      vertex 0.463525 1.42658 25
      vertex 0.75 1.29904 25
      vertex 8.06972 1.71527 25
    endloop
  endfacet
  facet normal 0 0 1
    outer loop
      vertex 8.06972 1.71527 25
      vertex -0.156793 1.49178 25
      vertex 0.156793 1.49178 25
    endloop
  endfacet
  facet normal 0 0 1
    outer loop
      vertex 0.75 1.29904 25
      vertex 1.0037 1.11472 25
      vertex 8.06972 1.71527 25
    endloop
  endfacet
  facet normal 0 -0 1
    outer loop
      vertex 8.06972 1.71527 25
      vertex 1.0037 1.11472 25
      vertex 8.25 0 25
    endloop
  endfacet
  facet normal 0 0 1
    outer loop
      vertex 1.0037 1.11472 25
      vertex 1.21352 0.881678 25
      vertex 8.25 0 25
    endloop
  endfacet
  facet normal 0 0 1
    outer loop
      vertex 1.46722 0.311868 25
      vertex 1.5 0 25
      vertex 8.25 0 25
    endloop
  endfacet
  facet normal 0 -0 1
    outer loop
      vertex 1.5 0 25
      vertex 1.46722 -0.311868 25
      vertex 8.06972 -1.71527 25
    endloop
  endfacet
  facet normal 0 0 1
    outer loop
      vertex 8.25 0 25
      vertex 1.5 0 25
      vertex 8.06972 -1.71527 25
    endloop
  endfacet
  facet normal 0 -0 1
    outer loop
      vertex 1.37032 -0.610105 25
      vertex 1.21352 -0.881678 25
      vertex 8.06972 -1.71527 25
    endloop
  endfacet
  facet normal 0 0 1
    outer loop
      vertex -1.21352 0.881678 25
      vertex -1.0037 1.11472 25
      vertex -8.06972 1.71527 25
    endloop
  endfacet
  facet normal 0 -0 1
    outer loop
      vertex 1.0037 -1.11472 25
      vertex 0.75 -1.29904 25
      vertex 7.53675 -3.35558 25
    endloop
  endfacet
  facet normal -0 0 1
    outer loop
      vertex 8.06972 -1.71527 25
      vertex 1.21352 -0.881678 25
      vertex 7.53675 -3.35558 25
    endloop
  endfacet
  facet normal 0 -0 1
    outer loop
      vertex 1.21352 -0.881678 25
      vertex 1.0037 -1.11472 25
      vertex 7.53675 -3.35558 25
    endloop
  endfacet
  facet normal -0 0 1
    outer loop
      vertex 7.53675 -3.35558 25
      vertex 0.75 -1.29904 25
      vertex 6.67439 -4.84923 25
    endloop
  endfacet
  facet normal 0 -0 1
    outer loop
      vertex 0.75 -1.29904 25
      vertex 0.463525 -1.42658 25
      vertex 6.67439 -4.84923 25
    endloop
  endfacet
  facet normal 0 -0 1
    outer loop
      vertex 0.463525 -1.42658 25
      vertex 0.156793 -1.49178 25
      vertex 6.67439 -4.84923 25
    endloop
  endfacet
  facet normal 0 -0 1
    outer loop
      vertex 0.156793 -1.49178 25
      vertex -0.156793 -1.49178 25
      vertex 6.67439 -4.84923 25
    endloop
  endfacet
  facet normal -0 -0 1
    outer loop
      vertex -0.156793 -1.49178 25
      vertex -0.463525 -1.42658 25
      vertex 6.67439 -4.84923 25
    endloop
  endfacet
  facet normal -0 -0 1
    outer loop
      vertex -0.75 -1.29904 25
      vertex -8.06972 1.71527 25
      vertex -0.463525 -1.42658 25
    endloop
  endfacet
  facet normal 0 0 1
    outer loop
      vertex -1.0037 -1.11472 25
      vertex -1.21352 -0.881678 25
      vertex -8.06972 1.71527 25
    endloop
  endfacet
  facet normal 0 0 1
    outer loop
      vertex -1.21352 -0.881678 25
      vertex -1.37032 -0.610105 25
      vertex -8.06972 1.71527 25
    endloop
  endfacet
  facet normal 0 0 1
    outer loop
      vertex -1.5 0 25
      vertex -1.46722 0.311868 25
      vertex -8.06972 1.71527 25
    endloop
  endfacet
  facet normal 0 0 1
    outer loop
      vertex -1.37032 -0.610105 25
      vertex -1.46722 -0.311868 25
      vertex -8.06972 1.71527 25
    endloop
  endfacet
endsolid OpenSCAD_Model
