solid OpenSCAD_Model
  facet normal -0 0 -1
    outer loop
      vertex -8 0 -12.5
      vertex -7.82518 1.66329 -12.5
      vertex -7.82518 -1.66329 -12.5
    endloop
  endfacet
  facet normal 0 -0 -1
    outer loop
      vertex -7.82518 -1.66329 -12.5
      vertex -7.82518 1.66329 -12.5
      vertex -7.30836 3.25389 -12.5
    endloop
  endfacet
  facet normal 0 0 -1
    outer loop
      vertex -7.82518 -1.66329 -12.5
      vertex -7.30836 3.25389 -12.5
      vertex -6.47214 4.70228 -12.5
    endloop
  endfacet
  facet normal 0 0 -1
    outer loop
      vertex -7.82518 -1.66329 -12.5
      vertex -6.47214 4.70228 -12.5
      vertex -5.35304 5.94516 -12.5
    endloop
  endfacet
  facet normal 0 0 -1
    outer loop
      vertex -7.82518 -1.66329 -12.5
      vertex -5.35304 5.94516 -12.5
      vertex -4 6.9282 -12.5
    endloop
  endfacet
  facet normal 0 0 -1
    outer loop
      vertex -7.82518 -1.66329 -12.5
      vertex -4 6.9282 -12.5
      vertex -2.47214 7.60845 -12.5
    endloop
  endfacet
  facet normal 0 0 -1
    outer loop
      vertex -7.82518 -1.66329 -12.5
      vertex -2.47214 7.60845 -12.5
      vertex -0.836228 7.95617 -12.5
    endloop
  endfacet
  facet normal 0 0 -1
    outer loop
      vertex -7.82518 -1.66329 -12.5
      vertex -0.836228 7.95617 -12.5
      vertex 0.836228 7.95617 -12.5
    endloop
  endfacet
  facet normal 0 0 -1
    outer loop
      vertex -7.82518 -1.66329 -12.5
      vertex 0.836228 7.95617 -12.5
      vertex 2.47214 7.60845 -12.5
    endloop
  endfacet
  facet normal 0 0 -1
    outer loop
      vertex -1.23607 3.80423 -12.5
      vertex 2.47214 7.60845 -12.5
      vertex 4 6.9282 -12.5
    endloop
  endfacet
  facet normal 0 0 -1
    outer loop
      vertex 1.23607 3.80423 -12.5
      vertex 4 6.9282 -12.5
      vertex 5.35304 5.94516 -12.5
    endloop
  endfacet
  facet normal 0 0 -1
    outer loop
      vertex 2.35114 3.23607 -12.5
      vertex 5.35304 5.94516 -12.5
      vertex 6.47214 4.70228 -12.5
    endloop
  endfacet
  facet normal 0 0 -1
    outer loop
      vertex 3.23607 2.35114 -12.5
      vertex 6.47214 4.70228 -12.5
      vertex 7.30836 3.25389 -12.5
    endloop
  endfacet
  facet normal 0 0 -1
    outer loop
      vertex 3.80423 1.23607 -12.5
      vertex 7.30836 3.25389 -12.5
      vertex 7.82518 1.66329 -12.5
    endloop
  endfacet
  facet normal -0 0 -1
    outer loop
      vertex 4 0 -12.5
      vertex 7.82518 1.66329 -12.5
      vertex 8 0 -12.5
    endloop
  endfacet
  facet normal -0 0 -1
    outer loop
      vertex 3.80423 -1.23607 -12.5
      vertex 8 0 -12.5
      vertex 7.82518 -1.66329 -12.5
    endloop
  endfacet
  facet normal -0 0 -1
    outer loop
      vertex 3.23607 -2.35114 -12.5
      vertex 7.82518 -1.66329 -12.5
      vertex 7.30836 -3.25389 -12.5
    endloop
  endfacet
  facet normal 0 0 -1
    outer loop
      vertex 2.35114 -3.23607 -12.5
      vertex 7.30836 -3.25389 -12.5
      vertex 6.47214 -4.70228 -12.5
    endloop
  endfacet
  facet normal 0 0 -1
    outer loop
      vertex 0 -4 -12.5
      vertex 6.47214 -4.70228 -12.5
      vertex 5.35304 -5.94516 -12.5
    endloop
  endfacet
  facet normal 0 0 -1
    outer loop
      vertex -7.82518 -1.66329 -12.5
      vertex 5.35304 -5.94516 -12.5
      vertex 4 -6.9282 -12.5
    endloop
  endfacet
  facet normal 0 0 -1
    outer loop
      vertex -7.82518 -1.66329 -12.5
      vertex 4 -6.9282 -12.5
      vertex 2.47214 -7.60845 -12.5
    endloop
  endfacet
  facet normal 0 0 -1
    outer loop
      vertex -7.82518 -1.66329 -12.5
      vertex 2.47214 -7.60845 -12.5
      vertex 0.836228 -7.95617 -12.5
    endloop
  endfacet
  facet normal 0 0 -1
    outer loop
      vertex -7.82518 -1.66329 -12.5
      vertex 0.836228 -7.95617 -12.5
      vertex -0.836228 -7.95617 -12.5
    endloop
  endfacet
  facet normal 0 0 -1
    outer loop
      vertex -7.82518 -1.66329 -12.5
      vertex -0.836228 -7.95617 -12.5
      vertex -2.47214 -7.60845 -12.5
    endloop
  endfacet
  facet normal 0 0 -1
    outer loop
      vertex -7.82518 -1.66329 -12.5
      vertex -2.47214 -7.60845 -12.5
      vertex -4 -6.9282 -12.5
    endloop
  endfacet
  facet normal 0 0 -1
    outer loop
      vertex -7.82518 -1.66329 -12.5
      vertex -4 -6.9282 -12.5
      vertex -5.35304 -5.94516 -12.5
    endloop
  endfacet
  facet normal 0 0 -1
    outer loop
      vertex -7.82518 -1.66329 -12.5
      vertex -5.35304 -5.94516 -12.5
      vertex -6.47214 -4.70228 -12.5
    endloop
  endfacet
  facet normal 0 0 -1
    outer loop
      vertex -7.82518 -1.66329 -12.5
      vertex -6.47214 -4.70228 -12.5
      vertex -7.30836 -3.25389 -12.5
    endloop
  endfacet
  facet normal 0 0 -1
    outer loop
      vertex -3.80423 -1.23607 -12.5
      vertex -7.82518 -1.66329 -12.5
      vertex -4 0 -12.5
    endloop
  endfacet
  facet normal 0 0 -1
    outer loop
      vertex -3.23607 -2.35114 -12.5
      vertex -7.82518 -1.66329 -12.5
      vertex -3.80423 -1.23607 -12.5
    endloop
  endfacet
  facet normal 0 0 -1
    outer loop
      vertex -2.35114 -3.23607 -12.5
      vertex -7.82518 -1.66329 -12.5
      vertex -3.23607 -2.35114 -12.5
    endloop
  endfacet
  facet normal 0 0 -1
    outer loop
      vertex 2.35114 -3.23607 -12.5
      vertex 6.47214 -4.70228 -12.5
      vertex 1.23607 -3.80423 -12.5
    endloop
  endfacet
  facet normal 0 0 -1
    outer loop
      vertex -7.82518 -1.66329 -12.5
      vertex -2.35114 -3.23607 -12.5
      vertex -1.23607 -3.80423 -12.5
    endloop
  endfacet
  facet normal 0 0 -3.79414e-08
    outer loop
      vertex -7.82518 -1.66329 -12.5
      vertex -1.23607 -3.80423 -12.5
      vertex 5.35304 -5.94516 -12.5
    endloop
  endfacet
  facet normal 0 0 -1
    outer loop
      vertex 1.23607 -3.80423 -12.5
      vertex 6.47214 -4.70228 -12.5
      vertex 0 -4 -12.5
    endloop
  endfacet
  facet normal 0 0 -1
    outer loop
      vertex 0 -4 -12.5
      vertex 5.35304 -5.94516 -12.5
      vertex -1.23607 -3.80423 -12.5
    endloop
  endfacet
  facet normal 0 0 -1
    outer loop
      vertex 3.23607 -2.35114 -12.5
      vertex 7.30836 -3.25389 -12.5
      vertex 2.35114 -3.23607 -12.5
    endloop
  endfacet
  facet normal -0 0 -1
    outer loop
      vertex 3.80423 1.23607 -12.5
      vertex 7.82518 1.66329 -12.5
      vertex 4 0 -12.5
    endloop
  endfacet
  facet normal 0 0 -1
    outer loop
      vertex 4 0 -12.5
      vertex 8 0 -12.5
      vertex 3.80423 -1.23607 -12.5
    endloop
  endfacet
  facet normal -0 0 -1
    outer loop
      vertex 2.35114 3.23607 -12.5
      vertex 6.47214 4.70228 -12.5
      vertex 3.23607 2.35114 -12.5
    endloop
  endfacet
  facet normal -0 0 -1
    outer loop
      vertex 3.23607 2.35114 -12.5
      vertex 7.30836 3.25389 -12.5
      vertex 3.80423 1.23607 -12.5
    endloop
  endfacet
  facet normal -0 0 -1
    outer loop
      vertex 0 4 -12.5
      vertex 4 6.9282 -12.5
      vertex 1.23607 3.80423 -12.5
    endloop
  endfacet
  facet normal 0 0 -1
    outer loop
      vertex -2.35114 3.23607 -12.5
      vertex 2.47214 7.60845 -12.5
      vertex -1.23607 3.80423 -12.5
    endloop
  endfacet
  facet normal 0 -0 -1
    outer loop
      vertex -3.80423 1.23607 -12.5
      vertex -7.82518 -1.66329 -12.5
      vertex -3.23607 2.35114 -12.5
    endloop
  endfacet
  facet normal 0 0 -1
    outer loop
      vertex -7.82518 -1.66329 -12.5
      vertex 2.47214 7.60845 -12.5
      vertex -2.35114 3.23607 -12.5
    endloop
  endfacet
  facet normal 0 0 -1
    outer loop
      vertex -7.82518 -1.66329 -12.5
      vertex -2.35114 3.23607 -12.5
      vertex -3.23607 2.35114 -12.5
    endloop
  endfacet
  facet normal 0 0 -1
    outer loop
      vertex 3.80423 -1.23607 -12.5
      vertex 7.82518 -1.66329 -12.5
      vertex 3.23607 -2.35114 -12.5
    endloop
  endfacet
  facet normal 0 -0 -1
    outer loop
      vertex -4 0 -12.5
      vertex -7.82518 -1.66329 -12.5
      vertex -3.80423 1.23607 -12.5
    endloop
  endfacet
  facet normal -0 0 -1
    outer loop
      vertex 1.23607 3.80423 -12.5
      vertex 5.35304 5.94516 -12.5
      vertex 2.35114 3.23607 -12.5
    endloop
  endfacet
  facet normal 0 0 -1
    outer loop
      vertex -1.23607 3.80423 -12.5
      vertex 4 6.9282 -12.5
      vertex 0 4 -12.5
    endloop
  endfacet
  facet normal -0.994522 0.104528 0
    outer loop
      vertex -8 0 -12.5
      vertex -8 0 12.5
      vertex -7.82518 1.66329 -12.5
    endloop
  endfacet
  facet normal -0.994522 0.104528 0
    outer loop
      vertex -7.82518 1.66329 -12.5
      vertex -8 0 12.5
      vertex -7.82518 1.66329 12.5
    endloop
  endfacet
  facet normal -0.994522 -0.104528 -0
    outer loop
      vertex -8 0 -12.5
      vertex -7.82518 -1.66329 -12.5
      vertex -8 0 12.5
    endloop
  endfacet
  facet normal -0.994522 -0.104528 0
    outer loop
      vertex -8 0 12.5
      vertex -7.82518 -1.66329 -12.5
      vertex -7.82518 -1.66329 12.5
    endloop
  endfacet
  facet normal -0.951057 -0.309017 -0
    outer loop
      vertex -7.82518 -1.66329 -12.5
      vertex -7.30836 -3.25389 -12.5
      vertex -7.82518 -1.66329 12.5
    endloop
  endfacet
  facet normal -0.951057 -0.309017 0
    outer loop
      vertex -7.82518 -1.66329 12.5
      vertex -7.30836 -3.25389 -12.5
      vertex -7.30836 -3.25389 12.5
    endloop
  endfacet
  facet normal -0.866025 -0.5 -0
    outer loop
      vertex -7.30836 -3.25389 -12.5
      vertex -6.47214 -4.70228 -12.5
      vertex -7.30836 -3.25389 12.5
    endloop
  endfacet
  facet normal -0.866025 -0.5 0
    outer loop
      vertex -7.30836 -3.25389 12.5
      vertex -6.47214 -4.70228 -12.5
      vertex -6.47214 -4.70228 12.5
    endloop
  endfacet
  facet normal -0.743145 -0.66913 -0
    outer loop
      vertex -6.47214 -4.70228 -12.5
      vertex -5.35304 -5.94516 -12.5
      vertex -6.47214 -4.70228 12.5
    endloop
  endfacet
  facet normal -0.743145 -0.66913 0
    outer loop
      vertex -6.47214 -4.70228 12.5
      vertex -5.35304 -5.94516 -12.5
      vertex -5.35304 -5.94516 12.5
    endloop
  endfacet
  facet normal -0.587785 -0.809017 0
    outer loop
      vertex -5.35304 -5.94516 12.5
      vertex -5.35304 -5.94516 -12.5
      vertex -4 -6.9282 -12.5
    endloop
  endfacet
  facet normal -0.587785 -0.809017 0
    outer loop
      vertex -4 -6.9282 12.5
      vertex -5.35304 -5.94516 12.5
      vertex -4 -6.9282 -12.5
    endloop
  endfacet
  facet normal -0.406737 -0.913545 0
    outer loop
      vertex -4 -6.9282 12.5
      vertex -4 -6.9282 -12.5
      vertex -2.47214 -7.60845 -12.5
    endloop
  endfacet
  facet normal -0.406737 -0.913545 0
    outer loop
      vertex -2.47214 -7.60845 12.5
      vertex -4 -6.9282 12.5
      vertex -2.47214 -7.60845 -12.5
    endloop
  endfacet
  facet normal -0.207912 -0.978148 0
    outer loop
      vertex -2.47214 -7.60845 12.5
      vertex -2.47214 -7.60845 -12.5
      vertex -0.836228 -7.95617 -12.5
    endloop
  endfacet
  facet normal -0.207912 -0.978148 0
    outer loop
      vertex -0.836228 -7.95617 12.5
      vertex -2.47214 -7.60845 12.5
      vertex -0.836228 -7.95617 -12.5
    endloop
  endfacet
  facet normal 0 -1 0
    outer loop
      vertex -0.836228 -7.95617 12.5
      vertex -0.836228 -7.95617 -12.5
      vertex 0.836228 -7.95617 -12.5
    endloop
  endfacet
  facet normal 0 -1 0
    outer loop
      vertex 0.836228 -7.95617 12.5
      vertex -0.836228 -7.95617 12.5
      vertex 0.836228 -7.95617 -12.5
    endloop
  endfacet
  facet normal 0.207912 -0.978148 0
    outer loop
      vertex 0.836228 -7.95617 12.5
      vertex 0.836228 -7.95617 -12.5
      vertex 2.47214 -7.60845 -12.5
    endloop
  endfacet
  facet normal 0.207912 -0.978148 0
    outer loop
      vertex 2.47214 -7.60845 12.5
      vertex 0.836228 -7.95617 12.5
      vertex 2.47214 -7.60845 -12.5
    endloop
  endfacet
  facet normal 0.406737 -0.913545 0
    outer loop
      vertex 2.47214 -7.60845 12.5
      vertex 2.47214 -7.60845 -12.5
      vertex 4 -6.9282 -12.5
    endloop
  endfacet
  facet normal 0.406737 -0.913545 0
    outer loop
      vertex 4 -6.9282 12.5
      vertex 2.47214 -7.60845 12.5
      vertex 4 -6.9282 -12.5
    endloop
  endfacet
  facet normal 0.587785 -0.809017 0
    outer loop
      vertex 4 -6.9282 12.5
      vertex 4 -6.9282 -12.5
      vertex 5.35304 -5.94516 -12.5
    endloop
  endfacet
  facet normal 0.587785 -0.809017 0
    outer loop
      vertex 5.35304 -5.94516 12.5
      vertex 4 -6.9282 12.5
      vertex 5.35304 -5.94516 -12.5
    endloop
  endfacet
  facet normal 0.743145 -0.66913 0
    outer loop
      vertex 5.35304 -5.94516 12.5
      vertex 5.35304 -5.94516 -12.5
      vertex 6.47214 -4.70228 -12.5
    endloop
  endfacet
  facet normal 0.743145 -0.66913 0
    outer loop
      vertex 6.47214 -4.70228 12.5
      vertex 5.35304 -5.94516 12.5
      vertex 6.47214 -4.70228 -12.5
    endloop
  endfacet
  facet normal 0.866025 -0.5 0
    outer loop
      vertex 6.47214 -4.70228 12.5
      vertex 6.47214 -4.70228 -12.5
      vertex 7.30836 -3.25389 -12.5
    endloop
  endfacet
  facet normal 0.866025 -0.5 0
    outer loop
      vertex 7.30836 -3.25389 12.5
      vertex 6.47214 -4.70228 12.5
      vertex 7.30836 -3.25389 -12.5
    endloop
  endfacet
  facet normal 0.951057 -0.309017 0
    outer loop
      vertex 7.30836 -3.25389 12.5
      vertex 7.30836 -3.25389 -12.5
      vertex 7.82518 -1.66329 -12.5
    endloop
  endfacet
  facet normal 0.951057 -0.309017 0
    outer loop
      vertex 7.82518 -1.66329 12.5
      vertex 7.30836 -3.25389 12.5
      vertex 7.82518 -1.66329 -12.5
    endloop
  endfacet
  facet normal 0.994522 -0.104528 0
    outer loop
      vertex 7.82518 -1.66329 12.5
      vertex 7.82518 -1.66329 -12.5
      vertex 8 0 -12.5
    endloop
  endfacet
  facet normal 0.994522 -0.104528 0
    outer loop
      vertex 8 0 12.5
      vertex 7.82518 -1.66329 12.5
      vertex 8 0 -12.5
    endloop
  endfacet
  facet normal 0.994522 0.104528 0
    outer loop
      vertex 8 0 -12.5
      vertex 7.82518 1.66329 -12.5
      vertex 7.82518 1.66329 12.5
    endloop
  endfacet
  facet normal 0.994522 0.104528 -0
    outer loop
      vertex 8 0 12.5
      vertex 8 0 -12.5
      vertex 7.82518 1.66329 12.5
    endloop
  endfacet
  facet normal 0.951057 0.309017 0
    outer loop
      vertex 7.82518 1.66329 -12.5
      vertex 7.30836 3.25389 -12.5
      vertex 7.30836 3.25389 12.5
    endloop
  endfacet
  facet normal 0.951057 0.309017 -0
    outer loop
      vertex 7.82518 1.66329 12.5
      vertex 7.82518 1.66329 -12.5
      vertex 7.30836 3.25389 12.5
    endloop
  endfacet
  facet normal 0.866025 0.5 0
    outer loop
      vertex 7.30836 3.25389 -12.5
      vertex 6.47214 4.70228 -12.5
      vertex 6.47214 4.70228 12.5
    endloop
  endfacet
  facet normal 0.866025 0.5 -0
    outer loop
      vertex 7.30836 3.25389 12.5
      vertex 7.30836 3.25389 -12.5
      vertex 6.47214 4.70228 12.5
    endloop
  endfacet
  facet normal 0.743145 0.66913 0
    outer loop
      vertex 6.47214 4.70228 -12.5
      vertex 5.35304 5.94516 -12.5
      vertex 5.35304 5.94516 12.5
    endloop
  endfacet
  facet normal 0.743145 0.66913 -0
    outer loop
      vertex 6.47214 4.70228 12.5
      vertex 6.47214 4.70228 -12.5
      vertex 5.35304 5.94516 12.5
    endloop
  endfacet
  facet normal 0.587785 0.809017 0
    outer loop
      vertex 4 6.9282 -12.5
      vertex 4 6.9282 12.5
      vertex 5.35304 5.94516 -12.5
    endloop
  endfacet
  facet normal 0.587785 0.809017 0
    outer loop
      vertex 5.35304 5.94516 -12.5
      vertex 4 6.9282 12.5
      vertex 5.35304 5.94516 12.5
    endloop
  endfacet
  facet normal 0.406737 0.913545 0
    outer loop
      vertex 2.47214 7.60845 -12.5
      vertex 2.47214 7.60845 12.5
      vertex 4 6.9282 -12.5
    endloop
  endfacet
  facet normal 0.406737 0.913545 0
    outer loop
      vertex 4 6.9282 -12.5
      vertex 2.47214 7.60845 12.5
      vertex 4 6.9282 12.5
    endloop
  endfacet
  facet normal 0.207912 0.978148 0
    outer loop
      vertex 0.836228 7.95617 -12.5
      vertex 0.836228 7.95617 12.5
      vertex 2.47214 7.60845 -12.5
    endloop
  endfacet
  facet normal 0.207912 0.978148 0
    outer loop
      vertex 2.47214 7.60845 -12.5
      vertex 0.836228 7.95617 12.5
      vertex 2.47214 7.60845 12.5
    endloop
  endfacet
  facet normal 0 1 0
    outer loop
      vertex -0.836228 7.95617 -12.5
      vertex -0.836228 7.95617 12.5
      vertex 0.836228 7.95617 -12.5
    endloop
  endfacet
  facet normal 0 1 0
    outer loop
      vertex 0.836228 7.95617 -12.5
      vertex -0.836228 7.95617 12.5
      vertex 0.836228 7.95617 12.5
    endloop
  endfacet
  facet normal -0.207912 0.978148 0
    outer loop
      vertex -2.47214 7.60845 -12.5
      vertex -2.47214 7.60845 12.5
      vertex -0.836228 7.95617 -12.5
    endloop
  endfacet
  facet normal -0.207912 0.978148 0
    outer loop
      vertex -0.836228 7.95617 -12.5
      vertex -2.47214 7.60845 12.5
      vertex -0.836228 7.95617 12.5
    endloop
  endfacet
  facet normal -0.406737 0.913545 0
    outer loop
      vertex -4 6.9282 -12.5
      vertex -4 6.9282 12.5
      vertex -2.47214 7.60845 -12.5
    endloop
  endfacet
  facet normal -0.406737 0.913545 0
    outer loop
      vertex -2.47214 7.60845 -12.5
      vertex -4 6.9282 12.5
      vertex -2.47214 7.60845 12.5
    endloop
  endfacet
  facet normal -0.587785 0.809017 0
    outer loop
      vertex -5.35304 5.94516 -12.5
      vertex -5.35304 5.94516 12.5
      vertex -4 6.9282 -12.5
    endloop
  endfacet
  facet normal -0.587785 0.809017 0
    outer loop
      vertex -4 6.9282 -12.5
      vertex -5.35304 5.94516 12.5
      vertex -4 6.9282 12.5
    endloop
  endfacet
  facet normal -0.743145 0.66913 0
    outer loop
      vertex -6.47214 4.70228 -12.5
      vertex -6.47214 4.70228 12.5
      vertex -5.35304 5.94516 -12.5
    endloop
  endfacet
  facet normal -0.743145 0.66913 0
    outer loop
      vertex -5.35304 5.94516 -12.5
      vertex -6.47214 4.70228 12.5
      vertex -5.35304 5.94516 12.5
    endloop
  endfacet
  facet normal -0.866025 0.5 0
    outer loop
      vertex -7.30836 3.25389 -12.5
      vertex -7.30836 3.25389 12.5
      vertex -6.47214 4.70228 -12.5
    endloop
  endfacet
  facet normal -0.866025 0.5 0
    outer loop
      vertex -6.47214 4.70228 -12.5
      vertex -7.30836 3.25389 12.5
      vertex -6.47214 4.70228 12.5
    endloop
  endfacet
  facet normal -0.951057 0.309017 0
    outer loop
      vertex -7.82518 1.66329 -12.5
      vertex -7.82518 1.66329 12.5
      vertex -7.30836 3.25389 -12.5
    endloop
  endfacet
  facet normal -0.951057 0.309017 0
    outer loop
      vertex -7.30836 3.25389 -12.5
      vertex -7.82518 1.66329 12.5
      vertex -7.30836 3.25389 12.5
    endloop
  endfacet
  facet normal 0.987688 -0.156435 0
    outer loop
      vertex -3.80423 1.23607 -12.5
      vertex -3.80423 1.23607 12.5
      vertex -4 0 12.5
    endloop
  endfacet
  facet normal 0.987688 -0.156435 0
    outer loop
      vertex -4 0 -12.5
      vertex -3.80423 1.23607 -12.5
      vertex -4 0 12.5
    endloop
  endfacet
  facet normal 0.987688 0.156435 0
    outer loop
      vertex -4 0 12.5
      vertex -3.80423 -1.23607 12.5
      vertex -3.80423 -1.23607 -12.5
    endloop
  endfacet
  facet normal 0.987688 0.156435 0
    outer loop
      vertex -4 0 -12.5
      vertex -4 0 12.5
      vertex -3.80423 -1.23607 -12.5
    endloop
  endfacet
  facet normal 0.891007 -0.45399 0
    outer loop
      vertex -3.23607 2.35114 -12.5
      vertex -3.23607 2.35114 12.5
      vertex -3.80423 1.23607 12.5
    endloop
  endfacet
  facet normal 0.891007 -0.45399 0
    outer loop
      vertex -3.80423 1.23607 -12.5
      vertex -3.23607 2.35114 -12.5
      vertex -3.80423 1.23607 12.5
    endloop
  endfacet
  facet normal 0.707107 -0.707107 0
    outer loop
      vertex -2.35114 3.23607 -12.5
      vertex -2.35114 3.23607 12.5
      vertex -3.23607 2.35114 12.5
    endloop
  endfacet
  facet normal 0.707107 -0.707107 0
    outer loop
      vertex -3.23607 2.35114 -12.5
      vertex -2.35114 3.23607 -12.5
      vertex -3.23607 2.35114 12.5
    endloop
  endfacet
  facet normal 0.45399 -0.891007 0
    outer loop
      vertex -1.23607 3.80423 -12.5
      vertex -1.23607 3.80423 12.5
      vertex -2.35114 3.23607 12.5
    endloop
  endfacet
  facet normal 0.45399 -0.891007 0
    outer loop
      vertex -2.35114 3.23607 -12.5
      vertex -1.23607 3.80423 -12.5
      vertex -2.35114 3.23607 12.5
    endloop
  endfacet
  facet normal 0.156435 -0.987688 0
    outer loop
      vertex 0 4 -12.5
      vertex 0 4 12.5
      vertex -1.23607 3.80423 12.5
    endloop
  endfacet
  facet normal 0.156435 -0.987688 0
    outer loop
      vertex -1.23607 3.80423 -12.5
      vertex 0 4 -12.5
      vertex -1.23607 3.80423 12.5
    endloop
  endfacet
  facet normal -0.156435 -0.987688 -0
    outer loop
      vertex 1.23607 3.80423 -12.5
      vertex 1.23607 3.80423 12.5
      vertex 0 4 12.5
    endloop
  endfacet
  facet normal -0.156435 -0.987688 -0
    outer loop
      vertex 0 4 -12.5
      vertex 1.23607 3.80423 -12.5
      vertex 0 4 12.5
    endloop
  endfacet
  facet normal -0.45399 -0.891007 -0
    outer loop
      vertex 2.35114 3.23607 -12.5
      vertex 2.35114 3.23607 12.5
      vertex 1.23607 3.80423 12.5
    endloop
  endfacet
  facet normal -0.45399 -0.891007 -0
    outer loop
      vertex 1.23607 3.80423 -12.5
      vertex 2.35114 3.23607 -12.5
      vertex 1.23607 3.80423 12.5
    endloop
  endfacet
  facet normal -0.707107 -0.707107 -0
    outer loop
      vertex 3.23607 2.35114 -12.5
      vertex 3.23607 2.35114 12.5
      vertex 2.35114 3.23607 12.5
    endloop
  endfacet
  facet normal -0.707107 -0.707107 -0
    outer loop
      vertex 2.35114 3.23607 -12.5
      vertex 3.23607 2.35114 -12.5
      vertex 2.35114 3.23607 12.5
    endloop
  endfacet
  facet normal -0.891007 -0.45399 0
    outer loop
      vertex 3.80423 1.23607 12.5
      vertex 3.23607 2.35114 12.5
      vertex 3.80423 1.23607 -12.5
    endloop
  endfacet
  facet normal -0.891007 -0.45399 0
    outer loop
      vertex 3.80423 1.23607 -12.5
      vertex 3.23607 2.35114 12.5
      vertex 3.23607 2.35114 -12.5
    endloop
  endfacet
  facet normal -0.987688 -0.156435 0
    outer loop
      vertex 4 0 12.5
      vertex 3.80423 1.23607 12.5
      vertex 4 0 -12.5
    endloop
  endfacet
  facet normal -0.987688 -0.156435 0
    outer loop
      vertex 4 0 -12.5
      vertex 3.80423 1.23607 12.5
      vertex 3.80423 1.23607 -12.5
    endloop
  endfacet
  facet normal -0.987688 0.156435 0
    outer loop
      vertex 4 0 12.5
      vertex 4 0 -12.5
      vertex 3.80423 -1.23607 12.5
    endloop
  endfacet
  facet normal -0.987688 0.156435 0
    outer loop
      vertex 3.80423 -1.23607 12.5
      vertex 4 0 -12.5
      vertex 3.80423 -1.23607 -12.5
    endloop
  endfacet
  facet normal -0.891007 0.45399 0
    outer loop
      vertex 3.80423 -1.23607 12.5
      vertex 3.80423 -1.23607 -12.5
      vertex 3.23607 -2.35114 12.5
    endloop
  endfacet
  facet normal -0.891007 0.45399 0
    outer loop
      vertex 3.23607 -2.35114 12.5
      vertex 3.80423 -1.23607 -12.5
      vertex 3.23607 -2.35114 -12.5
    endloop
  endfacet
  facet normal -0.707107 0.707107 0
    outer loop
      vertex 3.23607 -2.35114 12.5
      vertex 3.23607 -2.35114 -12.5
      vertex 2.35114 -3.23607 12.5
    endloop
  endfacet
  facet normal -0.707107 0.707107 0
    outer loop
      vertex 2.35114 -3.23607 12.5
      vertex 3.23607 -2.35114 -12.5
      vertex 2.35114 -3.23607 -12.5
    endloop
  endfacet
  facet normal -0.45399 0.891007 0
    outer loop
      vertex 2.35114 -3.23607 12.5
      vertex 2.35114 -3.23607 -12.5
      vertex 1.23607 -3.80423 12.5
    endloop
  endfacet
  facet normal -0.45399 0.891007 0
    outer loop
      vertex 1.23607 -3.80423 12.5
      vertex 2.35114 -3.23607 -12.5
      vertex 1.23607 -3.80423 -12.5
    endloop
  endfacet
  facet normal -0.156435 0.987688 0
    outer loop
      vertex 1.23607 -3.80423 12.5
      vertex 1.23607 -3.80423 -12.5
      vertex 0 -4 12.5
    endloop
  endfacet
  facet normal -0.156435 0.987688 0
    outer loop
      vertex 0 -4 12.5
      vertex 1.23607 -3.80423 -12.5
      vertex 0 -4 -12.5
    endloop
  endfacet
  facet normal 0.156435 0.987688 -0
    outer loop
      vertex 0 -4 12.5
      vertex 0 -4 -12.5
      vertex -1.23607 -3.80423 12.5
    endloop
  endfacet
  facet normal 0.156435 0.987688 -0
    outer loop
      vertex -1.23607 -3.80423 12.5
      vertex 0 -4 -12.5
      vertex -1.23607 -3.80423 -12.5
    endloop
  endfacet
  facet normal 0.45399 0.891007 -0
    outer loop
      vertex -1.23607 -3.80423 12.5
      vertex -1.23607 -3.80423 -12.5
      vertex -2.35114 -3.23607 12.5
    endloop
  endfacet
  facet normal 0.45399 0.891007 -0
    outer loop
      vertex -2.35114 -3.23607 12.5
      vertex -1.23607 -3.80423 -12.5
      vertex -2.35114 -3.23607 -12.5
    endloop
  endfacet
  facet normal 0.707107 0.707107 -0
    outer loop
      vertex -2.35114 -3.23607 12.5
      vertex -2.35114 -3.23607 -12.5
      vertex -3.23607 -2.35114 12.5
    endloop
  endfacet
  facet normal 0.707107 0.707107 -0
    outer loop
      vertex -3.23607 -2.35114 12.5
      vertex -2.35114 -3.23607 -12.5
      vertex -3.23607 -2.35114 -12.5
    endloop
  endfacet
  facet normal 0.891007 0.45399 0
    outer loop
      vertex -3.80423 -1.23607 12.5
      vertex -3.23607 -2.35114 12.5
      vertex -3.23607 -2.35114 -12.5
    endloop
  endfacet
  facet normal 0.891007 0.45399 0
    outer loop
      vertex -3.80423 -1.23607 -12.5
      vertex -3.80423 -1.23607 12.5
      vertex -3.23607 -2.35114 -12.5
    endloop
  endfacet
  facet normal 0 0 1
    outer loop
      vertex -7.82518 1.66329 12.5
      vertex -8 0 12.5
      vertex -7.82518 -1.66329 12.5
    endloop
  endfacet
  facet normal 0 0 1
    outer loop
      vertex -6.47214 -4.70228 12.5
      vertex -7.82518 1.66329 12.5
      vertex -7.30836 -3.25389 12.5
    endloop
  endfacet
  facet normal 0 0 1
    outer loop
      vertex -7.30836 -3.25389 12.5
      vertex -7.82518 1.66329 12.5
      vertex -7.82518 -1.66329 12.5
    endloop
  endfacet
  facet normal 0 0 1
    outer loop
      vertex -5.35304 -5.94516 12.5
      vertex -7.82518 1.66329 12.5
      vertex -6.47214 -4.70228 12.5
    endloop
  endfacet
  facet normal 0 0 1
    outer loop
      vertex -4 -6.9282 12.5
      vertex -7.82518 1.66329 12.5
      vertex -5.35304 -5.94516 12.5
    endloop
  endfacet
  facet normal 0 0 1
    outer loop
      vertex -2.47214 -7.60845 12.5
      vertex -7.82518 1.66329 12.5
      vertex -4 -6.9282 12.5
    endloop
  endfacet
  facet normal 0 0 1
    outer loop
      vertex -0.836228 -7.95617 12.5
      vertex -7.82518 1.66329 12.5
      vertex -2.47214 -7.60845 12.5
    endloop
  endfacet
  facet normal -0 0 1
    outer loop
      vertex 0.836228 -7.95617 12.5
      vertex -7.82518 1.66329 12.5
      vertex -0.836228 -7.95617 12.5
    endloop
  endfacet
  facet normal -0 0 1
    outer loop
      vertex 2.47214 -7.60845 12.5
      vertex -7.82518 1.66329 12.5
      vertex 0.836228 -7.95617 12.5
    endloop
  endfacet
  facet normal -0 -0 1
    outer loop
      vertex -2.35114 -3.23607 12.5
      vertex -7.82518 1.66329 12.5
      vertex 2.47214 -7.60845 12.5
    endloop
  endfacet
  facet normal 0 -0 1
    outer loop
      vertex 3.23607 -2.35114 12.5
      vertex 2.35114 -3.23607 12.5
      vertex 6.47214 -4.70228 12.5
    endloop
  endfacet
  facet normal -0 0 1
    outer loop
      vertex -3.23607 2.35114 12.5
      vertex -2.35114 3.23607 12.5
      vertex -7.82518 1.66329 12.5
    endloop
  endfacet
  facet normal 0 0 1
    outer loop
      vertex 2.35114 3.23607 12.5
      vertex 3.23607 2.35114 12.5
      vertex 7.30836 3.25389 12.5
    endloop
  endfacet
  facet normal 0 0 1
    outer loop
      vertex -1.23607 3.80423 12.5
      vertex 0 4 12.5
      vertex 5.35304 5.94516 12.5
    endloop
  endfacet
  facet normal 0 -0 1
    outer loop
      vertex 4 6.9282 12.5
      vertex -7.82518 1.66329 12.5
      vertex 5.35304 5.94516 12.5
    endloop
  endfacet
  facet normal 0 -0 1
    outer loop
      vertex 2.47214 7.60845 12.5
      vertex -7.82518 1.66329 12.5
      vertex 4 6.9282 12.5
    endloop
  endfacet
  facet normal 0 -0 1
    outer loop
      vertex 0.836228 7.95617 12.5
      vertex -7.82518 1.66329 12.5
      vertex 2.47214 7.60845 12.5
    endloop
  endfacet
  facet normal 0 -0 1
    outer loop
      vertex -0.836228 7.95617 12.5
      vertex -7.82518 1.66329 12.5
      vertex 0.836228 7.95617 12.5
    endloop
  endfacet
  facet normal 0 -0 1
    outer loop
      vertex -2.47214 7.60845 12.5
      vertex -7.82518 1.66329 12.5
      vertex -0.836228 7.95617 12.5
    endloop
  endfacet
  facet normal 0 -0 1
    outer loop
      vertex -4 6.9282 12.5
      vertex -7.82518 1.66329 12.5
      vertex -2.47214 7.60845 12.5
    endloop
  endfacet
  facet normal 0 -0 1
    outer loop
      vertex -5.35304 5.94516 12.5
      vertex -7.82518 1.66329 12.5
      vertex -4 6.9282 12.5
    endloop
  endfacet
  facet normal 0 -0 1
    outer loop
      vertex -6.47214 4.70228 12.5
      vertex -7.82518 1.66329 12.5
      vertex -5.35304 5.94516 12.5
    endloop
  endfacet
  facet normal 0 -0 1
    outer loop
      vertex -7.30836 3.25389 12.5
      vertex -7.82518 1.66329 12.5
      vertex -6.47214 4.70228 12.5
    endloop
  endfacet
  facet normal 0 -0 1
    outer loop
      vertex 4 0 12.5
      vertex 3.80423 -1.23607 12.5
      vertex 7.82518 -1.66329 12.5
    endloop
  endfacet
  facet normal 0 -0 1
    outer loop
      vertex 2.35114 -3.23607 12.5
      vertex 1.23607 -3.80423 12.5
      vertex 5.35304 -5.94516 12.5
    endloop
  endfacet
  facet normal 0 -0 1
    outer loop
      vertex 3.80423 -1.23607 12.5
      vertex 3.23607 -2.35114 12.5
      vertex 7.30836 -3.25389 12.5
    endloop
  endfacet
  facet normal 0 0 1
    outer loop
      vertex 3.23607 2.35114 12.5
      vertex 3.80423 1.23607 12.5
      vertex 7.82518 1.66329 12.5
    endloop
  endfacet
  facet normal 0 0 1
    outer loop
      vertex 3.80423 1.23607 12.5
      vertex 4 0 12.5
      vertex 8 0 12.5
    endloop
  endfacet
  facet normal 0 0 1
    outer loop
      vertex 1.23607 3.80423 12.5
      vertex 2.35114 3.23607 12.5
      vertex 6.47214 4.70228 12.5
    endloop
  endfacet
  facet normal 0 0 1
    outer loop
      vertex -1.23607 3.80423 12.5
      vertex -7.82518 1.66329 12.5
      vertex -2.35114 3.23607 12.5
    endloop
  endfacet
  facet normal 0 0 1
    outer loop
      vertex 0 4 12.5
      vertex 1.23607 3.80423 12.5
      vertex 6.47214 4.70228 12.5
    endloop
  endfacet
  facet normal 0 0 3.79414e-08
    outer loop
      vertex 5.35304 5.94516 12.5
      vertex -7.82518 1.66329 12.5
      vertex -1.23607 3.80423 12.5
    endloop
  endfacet
  facet normal 0 -0 1
    outer loop
      vertex 5.35304 5.94516 12.5
      vertex 0 4 12.5
      vertex 6.47214 4.70228 12.5
    endloop
  endfacet
  facet normal 0 -0 1
    outer loop
      vertex 6.47214 4.70228 12.5
      vertex 2.35114 3.23607 12.5
      vertex 7.30836 3.25389 12.5
    endloop
  endfacet
  facet normal 0 -0 1
    outer loop
      vertex 7.30836 3.25389 12.5
      vertex 3.23607 2.35114 12.5
      vertex 7.82518 1.66329 12.5
    endloop
  endfacet
  facet normal 0 -0 1
    outer loop
      vertex 7.82518 1.66329 12.5
      vertex 3.80423 1.23607 12.5
      vertex 8 0 12.5
    endloop
  endfacet
  facet normal 0 0 1
    outer loop
      vertex 8 0 12.5
      vertex 4 0 12.5
      vertex 7.82518 -1.66329 12.5
    endloop
  endfacet
  facet normal -0 0 1
    outer loop
      vertex 7.82518 -1.66329 12.5
      vertex 3.80423 -1.23607 12.5
      vertex 7.30836 -3.25389 12.5
    endloop
  endfacet
  facet normal -0 0 1
    outer loop
      vertex 7.30836 -3.25389 12.5
      vertex 3.23607 -2.35114 12.5
      vertex 6.47214 -4.70228 12.5
    endloop
  endfacet
  facet normal -0 0 1
    outer loop
      vertex 6.47214 -4.70228 12.5
      vertex 2.35114 -3.23607 12.5
      vertex 5.35304 -5.94516 12.5
    endloop
  endfacet
  facet normal -0 -0 1
    outer loop
      vertex 0 -4 12.5
      vertex -1.23607 -3.80423 12.5
      vertex 4 -6.9282 12.5
    endloop
  endfacet
  facet normal 0 0 1
    outer loop
      vertex -4 0 12.5
      vertex -3.80423 1.23607 12.5
      vertex -7.82518 1.66329 12.5
    endloop
  endfacet
  facet normal -0 0 1
    outer loop
      vertex 5.35304 -5.94516 12.5
      vertex 0 -4 12.5
      vertex 4 -6.9282 12.5
    endloop
  endfacet
  facet normal -0 0 1
    outer loop
      vertex 4 -6.9282 12.5
      vertex -1.23607 -3.80423 12.5
      vertex 2.47214 -7.60845 12.5
    endloop
  endfacet
  facet normal 0 -0 1
    outer loop
      vertex 1.23607 -3.80423 12.5
      vertex 0 -4 12.5
      vertex 5.35304 -5.94516 12.5
    endloop
  endfacet
  facet normal -0 -0 1
    outer loop
      vertex -1.23607 -3.80423 12.5
      vertex -2.35114 -3.23607 12.5
      vertex 2.47214 -7.60845 12.5
    endloop
  endfacet
  facet normal -0 -0 1
    outer loop
      vertex -3.23607 -2.35114 12.5
      vertex -7.82518 1.66329 12.5
      vertex -2.35114 -3.23607 12.5
    endloop
  endfacet
  facet normal 0 0 1
    outer loop
      vertex -3.23607 -2.35114 12.5
      vertex -3.80423 -1.23607 12.5
      vertex -7.82518 1.66329 12.5
    endloop
  endfacet
  facet normal 0 0 1
    outer loop
      vertex -3.80423 -1.23607 12.5
      vertex -4 0 12.5
      vertex -7.82518 1.66329 12.5
    endloop
  endfacet
  facet normal 0 0 1
    outer loop
      vertex -3.80423 1.23607 12.5
      vertex -3.23607 2.35114 12.5
      vertex -7.82518 1.66329 12.5
    endloop
  endfacet
endsolid OpenSCAD_Model
