solid OpenSCAD_Model
  facet normal -0 0 -1
    outer loop
      vertex -4.2 0 -1.7
      vertex -2.1 3.63731 -1.7
      vertex -2.1 -3.63731 -1.7
    endloop
  endfacet
  facet normal 0 -0 -1
    outer loop
      vertex 0 2 -1.7
      vertex -2.1 3.63731 -1.7
      vertex 2.1 3.63731 -1.7
    endloop
  endfacet
  facet normal -0 0 -1
    outer loop
      vertex 2 0 -1.7
      vertex 2.1 3.63731 -1.7
      vertex 4.2 0 -1.7
    endloop
  endfacet
  facet normal -0 0 -1
    outer loop
      vertex -2.1 -3.63731 -1.7
      vertex 4.2 0 -1.7
      vertex 2.1 -3.63731 -1.7
    endloop
  endfacet
  facet normal 0 -0 -1
    outer loop
      vertex -2.1 -3.63731 -1.7
      vertex -2.1 3.63731 -1.7
      vertex -2 0 -1.7
    endloop
  endfacet
  facet normal 0 0 -1
    outer loop
      vertex -2.1 -3.63731 -1.7
      vertex -2 0 -1.7
      vertex -1.90211 -0.618034 -1.7
    endloop
  endfacet
  facet normal 0 0 -1
    outer loop
      vertex -2.1 -3.63731 -1.7
      vertex -1.90211 -0.618034 -1.7
      vertex -1.61803 -1.17557 -1.7
    endloop
  endfacet
  facet normal 0 0 -1
    outer loop
      vertex -2.1 -3.63731 -1.7
      vertex -1.61803 -1.17557 -1.7
      vertex -1.17557 -1.61803 -1.7
    endloop
  endfacet
  facet normal -0 0 -1
    outer loop
      vertex 1.61803 -1.17557 -1.7
      vertex 4.2 0 -1.7
      vertex 1.17557 -1.61803 -1.7
    endloop
  endfacet
  facet normal 0 0 -1
    outer loop
      vertex -2.1 -3.63731 -1.7
      vertex -0.618034 -1.90211 -1.7
      vertex 0 -2 -1.7
    endloop
  endfacet
  facet normal 0 0 -1
    outer loop
      vertex -2.1 -3.63731 -1.7
      vertex 0 -2 -1.7
      vertex 0.618034 -1.90211 -1.7
    endloop
  endfacet
  facet normal 0 0 -1
    outer loop
      vertex -2.1 -3.63731 -1.7
      vertex 0.618034 -1.90211 -1.7
      vertex 1.17557 -1.61803 -1.7
    endloop
  endfacet
  facet normal 0 0 -1
    outer loop
      vertex -2.1 -3.63731 -1.7
      vertex 1.17557 -1.61803 -1.7
      vertex 4.2 0 -1.7
    endloop
  endfacet
  facet normal -0 0 -1
    outer loop
      vertex 1.90211 -0.618034 -1.7
      vertex 4.2 0 -1.7
      vertex 1.61803 -1.17557 -1.7
    endloop
  endfacet
  facet normal -0 0 -1
    outer loop
      vertex 0.618034 1.90211 -1.7
      vertex 2.1 3.63731 -1.7
      vertex 1.17557 1.61803 -1.7
    endloop
  endfacet
  facet normal -0 0 -1
    outer loop
      vertex 1.90211 0.618034 -1.7
      vertex 2.1 3.63731 -1.7
      vertex 2 0 -1.7
    endloop
  endfacet
  facet normal 0 0 -1
    outer loop
      vertex 1.90211 -0.618034 -1.7
      vertex 2 0 -1.7
      vertex 4.2 0 -1.7
    endloop
  endfacet
  facet normal -0 0 -1
    outer loop
      vertex 1.61803 1.17557 -1.7
      vertex 2.1 3.63731 -1.7
      vertex 1.90211 0.618034 -1.7
    endloop
  endfacet
  facet normal -0 0 -1
    outer loop
      vertex 1.17557 1.61803 -1.7
      vertex 2.1 3.63731 -1.7
      vertex 1.61803 1.17557 -1.7
    endloop
  endfacet
  facet normal -0 0 -1
    outer loop
      vertex 0 2 -1.7
      vertex 2.1 3.63731 -1.7
      vertex 0.618034 1.90211 -1.7
    endloop
  endfacet
  facet normal 0 -0 -1
    outer loop
      vertex -0.618034 1.90211 -1.7
      vertex -2.1 3.63731 -1.7
      vertex 0 2 -1.7
    endloop
  endfacet
  facet normal 0 -0 -1
    outer loop
      vertex -1.17557 1.61803 -1.7
      vertex -2.1 3.63731 -1.7
      vertex -0.618034 1.90211 -1.7
    endloop
  endfacet
  facet normal 0 -0 -1
    outer loop
      vertex -1.61803 1.17557 -1.7
      vertex -2.1 3.63731 -1.7
      vertex -1.17557 1.61803 -1.7
    endloop
  endfacet
  facet normal 0 -0 -1
    outer loop
      vertex -1.90211 0.618034 -1.7
      vertex -2.1 3.63731 -1.7
      vertex -1.61803 1.17557 -1.7
    endloop
  endfacet
  facet normal 0 -0 -1
    outer loop
      vertex -2 0 -1.7
      vertex -2.1 3.63731 -1.7
      vertex -1.90211 0.618034 -1.7
    endloop
  endfacet
  facet normal 0 0 -1
    outer loop
      vertex -0.618034 -1.90211 -1.7
      vertex -2.1 -3.63731 -1.7
      vertex -1.17557 -1.61803 -1.7
    endloop
  endfacet
  facet normal -0.866025 0.5 0
    outer loop
      vertex -4.2 0 -1.7
      vertex -4.2 0 1.7
      vertex -2.1 3.63731 -1.7
    endloop
  endfacet
  facet normal -0.866025 0.5 0
    outer loop
      vertex -2.1 3.63731 -1.7
      vertex -4.2 0 1.7
      vertex -2.1 3.63731 1.7
    endloop
  endfacet
  facet normal -0.866025 -0.5 -0
    outer loop
      vertex -4.2 0 -1.7
      vertex -2.1 -3.63731 -1.7
      vertex -4.2 0 1.7
    endloop
  endfacet
  facet normal -0.866025 -0.5 0
    outer loop
      vertex -4.2 0 1.7
      vertex -2.1 -3.63731 -1.7
      vertex -2.1 -3.63731 1.7
    endloop
  endfacet
  facet normal 0 -1 0
    outer loop
      vertex -2.1 -3.63731 1.7
      vertex -2.1 -3.63731 -1.7
      vertex 2.1 -3.63731 -1.7
    endloop
  endfacet
  facet normal 0 -1 0
    outer loop
      vertex 2.1 -3.63731 1.7
      vertex -2.1 -3.63731 1.7
      vertex 2.1 -3.63731 -1.7
    endloop
  endfacet
  facet normal 0.866025 -0.5 0
    outer loop
      vertex 2.1 -3.63731 1.7
      vertex 2.1 -3.63731 -1.7
      vertex 4.2 0 -1.7
    endloop
  endfacet
  facet normal 0.866025 -0.5 0
    outer loop
      vertex 4.2 0 1.7
      vertex 2.1 -3.63731 1.7
      vertex 4.2 0 -1.7
    endloop
  endfacet
  facet normal 0.866025 0.5 0
    outer loop
      vertex 4.2 0 -1.7
      vertex 2.1 3.63731 -1.7
      vertex 2.1 3.63731 1.7
    endloop
  endfacet
  facet normal 0.866025 0.5 -0
    outer loop
      vertex 4.2 0 1.7
      vertex 4.2 0 -1.7
      vertex 2.1 3.63731 1.7
    endloop
  endfacet
  facet normal 0 1 0
    outer loop
      vertex -2.1 3.63731 -1.7
      vertex -2.1 3.63731 1.7
      vertex 2.1 3.63731 -1.7
    endloop
  endfacet
  facet normal 0 1 0
    outer loop
      vertex 2.1 3.63731 -1.7
      vertex -2.1 3.63731 1.7
      vertex 2.1 3.63731 1.7
    endloop
  endfacet
  facet normal 0.987688 -0.156435 0
    outer loop
      vertex -1.90211 0.618034 -1.7
      vertex -1.90211 0.618034 1.7
      vertex -2 0 1.7
    endloop
  endfacet
  facet normal 0.987688 -0.156435 0
    outer loop
      vertex -2 0 -1.7
      vertex -1.90211 0.618034 -1.7
      vertex -2 0 1.7
    endloop
  endfacet
  facet normal 0.987688 0.156435 0
    outer loop
      vertex -2 0 1.7
      vertex -1.90211 -0.618034 1.7
      vertex -1.90211 -0.618034 -1.7
    endloop
  endfacet
  facet normal 0.987688 0.156435 0
    outer loop
      vertex -2 0 -1.7
      vertex -2 0 1.7
      vertex -1.90211 -0.618034 -1.7
    endloop
  endfacet
  facet normal 0.891007 -0.45399 0
    outer loop
      vertex -1.61803 1.17557 -1.7
      vertex -1.61803 1.17557 1.7
      vertex -1.90211 0.618034 1.7
    endloop
  endfacet
  facet normal 0.891007 -0.45399 0
    outer loop
      vertex -1.90211 0.618034 -1.7
      vertex -1.61803 1.17557 -1.7
      vertex -1.90211 0.618034 1.7
    endloop
  endfacet
  facet normal 0.707107 -0.707107 0
    outer loop
      vertex -1.17557 1.61803 -1.7
      vertex -1.17557 1.61803 1.7
      vertex -1.61803 1.17557 1.7
    endloop
  endfacet
  facet normal 0.707107 -0.707107 0
    outer loop
      vertex -1.61803 1.17557 -1.7
      vertex -1.17557 1.61803 -1.7
      vertex -1.61803 1.17557 1.7
    endloop
  endfacet
  facet normal 0.45399 -0.891007 0
    outer loop
      vertex -0.618034 1.90211 -1.7
      vertex -0.618034 1.90211 1.7
      vertex -1.17557 1.61803 1.7
    endloop
  endfacet
  facet normal 0.45399 -0.891007 0
    outer loop
      vertex -1.17557 1.61803 -1.7
      vertex -0.618034 1.90211 -1.7
      vertex -1.17557 1.61803 1.7
    endloop
  endfacet
  facet normal 0.156435 -0.987688 0
    outer loop
      vertex 0 2 -1.7
      vertex 0 2 1.7
      vertex -0.618034 1.90211 1.7
    endloop
  endfacet
  facet normal 0.156435 -0.987688 0
    outer loop
      vertex -0.618034 1.90211 -1.7
      vertex 0 2 -1.7
      vertex -0.618034 1.90211 1.7
    endloop
  endfacet
  facet normal -0.156435 -0.987688 -0
    outer loop
      vertex 0.618034 1.90211 -1.7
      vertex 0.618034 1.90211 1.7
      vertex 0 2 1.7
    endloop
  endfacet
  facet normal -0.156435 -0.987688 -0
    outer loop
      vertex 0 2 -1.7
      vertex 0.618034 1.90211 -1.7
      vertex 0 2 1.7
    endloop
  endfacet
  facet normal -0.45399 -0.891007 -0
    outer loop
      vertex 1.17557 1.61803 -1.7
      vertex 1.17557 1.61803 1.7
      vertex 0.618034 1.90211 1.7
    endloop
  endfacet
  facet normal -0.45399 -0.891007 -0
    outer loop
      vertex 0.618034 1.90211 -1.7
      vertex 1.17557 1.61803 -1.7
      vertex 0.618034 1.90211 1.7
    endloop
  endfacet
  facet normal -0.707107 -0.707107 -0
    outer loop
      vertex 1.61803 1.17557 -1.7
      vertex 1.61803 1.17557 1.7
      vertex 1.17557 1.61803 1.7
    endloop
  endfacet
  facet normal -0.707107 -0.707107 -0
    outer loop
      vertex 1.17557 1.61803 -1.7
      vertex 1.61803 1.17557 -1.7
      vertex 1.17557 1.61803 1.7
    endloop
  endfacet
  facet normal -0.891007 -0.45399 0
    outer loop
      vertex 1.90211 0.618034 1.7
      vertex 1.61803 1.17557 1.7
      vertex 1.90211 0.618034 -1.7
    endloop
  endfacet
  facet normal -0.891007 -0.45399 0
    outer loop
      vertex 1.90211 0.618034 -1.7
      vertex 1.61803 1.17557 1.7
      vertex 1.61803 1.17557 -1.7
    endloop
  endfacet
  facet normal -0.987688 -0.156435 0
    outer loop
      vertex 2 0 1.7
      vertex 1.90211 0.618034 1.7
      vertex 2 0 -1.7
    endloop
  endfacet
  facet normal -0.987688 -0.156435 0
    outer loop
      vertex 2 0 -1.7
      vertex 1.90211 0.618034 1.7
      vertex 1.90211 0.618034 -1.7
    endloop
  endfacet
  facet normal -0.987688 0.156435 0
    outer loop
      vertex 2 0 1.7
      vertex 2 0 -1.7
      vertex 1.90211 -0.618034 1.7
    endloop
  endfacet
  facet normal -0.987688 0.156435 0
    outer loop
      vertex 1.90211 -0.618034 1.7
      vertex 2 0 -1.7
      vertex 1.90211 -0.618034 -1.7
    endloop
  endfacet
  facet normal -0.891007 0.45399 0
    outer loop
      vertex 1.90211 -0.618034 1.7
      vertex 1.90211 -0.618034 -1.7
      vertex 1.61803 -1.17557 1.7
    endloop
  endfacet
  facet normal -0.891007 0.45399 0
    outer loop
      vertex 1.61803 -1.17557 1.7
      vertex 1.90211 -0.618034 -1.7
      vertex 1.61803 -1.17557 -1.7
    endloop
  endfacet
  facet normal -0.707107 0.707107 0
    outer loop
      vertex 1.61803 -1.17557 1.7
      vertex 1.61803 -1.17557 -1.7
      vertex 1.17557 -1.61803 1.7
    endloop
  endfacet
  facet normal -0.707107 0.707107 0
    outer loop
      vertex 1.17557 -1.61803 1.7
      vertex 1.61803 -1.17557 -1.7
      vertex 1.17557 -1.61803 -1.7
    endloop
  endfacet
  facet normal -0.45399 0.891007 0
    outer loop
      vertex 1.17557 -1.61803 1.7
      vertex 1.17557 -1.61803 -1.7
      vertex 0.618034 -1.90211 1.7
    endloop
  endfacet
  facet normal -0.45399 0.891007 0
    outer loop
      vertex 0.618034 -1.90211 1.7
      vertex 1.17557 -1.61803 -1.7
      vertex 0.618034 -1.90211 -1.7
    endloop
  endfacet
  facet normal -0.156435 0.987688 0
    outer loop
      vertex 0.618034 -1.90211 1.7
      vertex 0.618034 -1.90211 -1.7
      vertex 0 -2 1.7
    endloop
  endfacet
  facet normal -0.156435 0.987688 0
    outer loop
      vertex 0 -2 1.7
      vertex 0.618034 -1.90211 -1.7
      vertex 0 -2 -1.7
    endloop
  endfacet
  facet normal 0.156435 0.987688 -0
    outer loop
      vertex 0 -2 1.7
      vertex 0 -2 -1.7
      vertex -0.618034 -1.90211 1.7
    endloop
  endfacet
  facet normal 0.156435 0.987688 -0
    outer loop
      vertex -0.618034 -1.90211 1.7
      vertex 0 -2 -1.7
      vertex -0.618034 -1.90211 -1.7
    endloop
  endfacet
  facet normal 0.45399 0.891007 -0
    outer loop
      vertex -0.618034 -1.90211 1.7
      vertex -0.618034 -1.90211 -1.7
      vertex -1.17557 -1.61803 1.7
    endloop
  endfacet
  facet normal 0.45399 0.891007 -0
    outer loop
      vertex -1.17557 -1.61803 1.7
      vertex -0.618034 -1.90211 -1.7
      vertex -1.17557 -1.61803 -1.7
    endloop
  endfacet
  facet normal 0.707107 0.707107 -0
    outer loop
      vertex -1.17557 -1.61803 1.7
      vertex -1.17557 -1.61803 -1.7
      vertex -1.61803 -1.17557 1.7
    endloop
  endfacet
  facet normal 0.707107 0.707107 -0
    outer loop
      vertex -1.61803 -1.17557 1.7
      vertex -1.17557 -1.61803 -1.7
      vertex -1.61803 -1.17557 -1.7
    endloop
  endfacet
  facet normal 0.891007 0.45399 0
    outer loop
      vertex -1.90211 -0.618034 1.7
      vertex -1.61803 -1.17557 1.7
      vertex -1.61803 -1.17557 -1.7
    endloop
  endfacet
  facet normal 0.891007 0.45399 0
    outer loop
      vertex -1.90211 -0.618034 -1.7
      vertex -1.90211 -0.618034 1.7
      vertex -1.61803 -1.17557 -1.7
    endloop
  endfacet
  facet normal 0 0 1
    outer loop
      vertex -2.1 3.63731 1.7
      vertex -4.2 0 1.7
      vertex -2.1 -3.63731 1.7
    endloop
  endfacet
  facet normal -0 0 1
    outer loop
      vertex -2 0 1.7
      vertex -2.1 3.63731 1.7
      vertex -2.1 -3.63731 1.7
    endloop
  endfacet
  facet normal 0 -0 1
    outer loop
      vertex 2.1 3.63731 1.7
      vertex -2.1 3.63731 1.7
      vertex 4.2 0 1.7
    endloop
  endfacet
  facet normal -0 0 1
    outer loop
      vertex -1.61803 -1.17557 1.7
      vertex -1.90211 -0.618034 1.7
      vertex -2.1 -3.63731 1.7
    endloop
  endfacet
  facet normal -0 0 1
    outer loop
      vertex -1.90211 -0.618034 1.7
      vertex -2 0 1.7
      vertex -2.1 -3.63731 1.7
    endloop
  endfacet
  facet normal 0 0 1
    outer loop
      vertex -1.17557 1.61803 1.7
      vertex -0.618034 1.90211 1.7
      vertex -2.1 3.63731 1.7
    endloop
  endfacet
  facet normal -0 0 1
    outer loop
      vertex -1.61803 1.17557 1.7
      vertex -2.1 3.63731 1.7
      vertex -1.90211 0.618034 1.7
    endloop
  endfacet
  facet normal -0 0 1
    outer loop
      vertex -1.17557 1.61803 1.7
      vertex -2.1 3.63731 1.7
      vertex -1.61803 1.17557 1.7
    endloop
  endfacet
  facet normal 0 -0 1
    outer loop
      vertex 0.618034 -1.90211 1.7
      vertex 0 -2 1.7
      vertex 2.1 -3.63731 1.7
    endloop
  endfacet
  facet normal -0 0 1
    outer loop
      vertex 0 2 1.7
      vertex -2.1 3.63731 1.7
      vertex -0.618034 1.90211 1.7
    endloop
  endfacet
  facet normal 0 0 1
    outer loop
      vertex 0.618034 1.90211 1.7
      vertex -2.1 3.63731 1.7
      vertex 0 2 1.7
    endloop
  endfacet
  facet normal 0 0 1
    outer loop
      vertex 1.61803 1.17557 1.7
      vertex 1.90211 0.618034 1.7
      vertex 4.2 0 1.7
    endloop
  endfacet
  facet normal 0 0 1
    outer loop
      vertex 1.17557 1.61803 1.7
      vertex -2.1 3.63731 1.7
      vertex 0.618034 1.90211 1.7
    endloop
  endfacet
  facet normal 0 0 1
    outer loop
      vertex 4.2 0 1.7
      vertex -2.1 3.63731 1.7
      vertex 1.17557 1.61803 1.7
    endloop
  endfacet
  facet normal 0 -0 1
    outer loop
      vertex 2 0 1.7
      vertex 1.90211 -0.618034 1.7
      vertex 2.1 -3.63731 1.7
    endloop
  endfacet
  facet normal 0 0 1
    outer loop
      vertex 4.2 0 1.7
      vertex 2 0 1.7
      vertex 2.1 -3.63731 1.7
    endloop
  endfacet
  facet normal -0 0 1
    outer loop
      vertex 4.2 0 1.7
      vertex 1.90211 0.618034 1.7
      vertex 2 0 1.7
    endloop
  endfacet
  facet normal 0 -0 1
    outer loop
      vertex 1.90211 -0.618034 1.7
      vertex 1.61803 -1.17557 1.7
      vertex 2.1 -3.63731 1.7
    endloop
  endfacet
  facet normal 0 -0 1
    outer loop
      vertex 1.61803 -1.17557 1.7
      vertex 1.17557 -1.61803 1.7
      vertex 2.1 -3.63731 1.7
    endloop
  endfacet
  facet normal -0 -0 1
    outer loop
      vertex 0 -2 1.7
      vertex -0.618034 -1.90211 1.7
      vertex 2.1 -3.63731 1.7
    endloop
  endfacet
  facet normal -0 0 1
    outer loop
      vertex 2.1 -3.63731 1.7
      vertex -0.618034 -1.90211 1.7
      vertex -2.1 -3.63731 1.7
    endloop
  endfacet
  facet normal -0 0 1
    outer loop
      vertex -0.618034 -1.90211 1.7
      vertex -1.17557 -1.61803 1.7
      vertex -2.1 -3.63731 1.7
    endloop
  endfacet
  facet normal -0 0 1
    outer loop
      vertex -1.17557 -1.61803 1.7
      vertex -1.61803 -1.17557 1.7
      vertex -2.1 -3.63731 1.7
    endloop
  endfacet
  facet normal 0 0 1
    outer loop
      vertex -2 0 1.7
      vertex -1.90211 0.618034 1.7
      vertex -2.1 3.63731 1.7
    endloop
  endfacet
  facet normal 0 0 1
    outer loop
      vertex 1.17557 1.61803 1.7
      vertex 1.61803 1.17557 1.7
      vertex 4.2 0 1.7
    endloop
  endfacet
  facet normal 0 -0 1
    outer loop
      vertex 1.17557 -1.61803 1.7
      vertex 0.618034 -1.90211 1.7
      vertex 2.1 -3.63731 1.7
    endloop
  endfacet
endsolid OpenSCAD_Model
