solid OpenSCAD_Model
  facet normal -0 0 -1
    outer loop
      vertex -3.5 0 -10
      vertex -3.42352 0.727691 -10
      vertex -3.42352 -0.727691 -10
    endloop
  endfacet
  facet normal 0 -0 -1
    outer loop
      vertex -3.42352 -0.727691 -10
      vertex -3.42352 0.727691 -10
      vertex -3.19741 1.42358 -10
    endloop
  endfacet
  facet normal 0 0 -1
    outer loop
      vertex -3.42352 -0.727691 -10
      vertex -3.19741 1.42358 -10
      vertex -2.83156 2.05725 -10
    endloop
  endfacet
  facet normal 0 0 -1
    outer loop
      vertex -3.42352 -0.727691 -10
      vertex -2.83156 2.05725 -10
      vertex -2.34196 2.60101 -10
    endloop
  endfacet
  facet normal 0 0 -1
    outer loop
      vertex -3.42352 -0.727691 -10
      vertex -2.34196 2.60101 -10
      vertex -1.75 3.03109 -10
    endloop
  endfacet
  facet normal 0 0 -1
    outer loop
      vertex -3.42352 -0.727691 -10
      vertex -1.75 3.03109 -10
      vertex -1.08156 3.3287 -10
    endloop
  endfacet
  facet normal 0 0 -1
    outer loop
      vertex -1.46946 2.02254 -10
      vertex -1.08156 3.3287 -10
      vertex -0.36585 3.48083 -10
    endloop
  endfacet
  facet normal 0 0 -1
    outer loop
      vertex -0.772542 2.37764 -10
      vertex -0.36585 3.48083 -10
      vertex 0.36585 3.48083 -10
    endloop
  endfacet
  facet normal 0 0 -1
    outer loop
      vertex 0 2.5 -10
      vertex 0.36585 3.48083 -10
      vertex 1.08156 3.3287 -10
    endloop
  endfacet
  facet normal 0 0 -1
    outer loop
      vertex 0.772542 2.37764 -10
      vertex 1.08156 3.3287 -10
      vertex 1.75 3.03109 -10
    endloop
  endfacet
  facet normal 0 0 -1
    outer loop
      vertex 1.46946 2.02254 -10
      vertex 2.34196 2.60101 -10
      vertex 2.83156 2.05725 -10
    endloop
  endfacet
  facet normal -0 0 -1
    outer loop
      vertex 2.02254 1.46946 -10
      vertex 2.83156 2.05725 -10
      vertex 3.19741 1.42358 -10
    endloop
  endfacet
  facet normal -0 0 -1
    outer loop
      vertex 2.37764 0.772542 -10
      vertex 3.19741 1.42358 -10
      vertex 3.42352 0.727691 -10
    endloop
  endfacet
  facet normal -0 0 -1
    outer loop
      vertex 2.5 0 -10
      vertex 3.42352 0.727691 -10
      vertex 3.5 0 -10
    endloop
  endfacet
  facet normal -0 0 -1
    outer loop
      vertex 2.37764 -0.772542 -10
      vertex 3.42352 -0.727691 -10
      vertex 3.19741 -1.42358 -10
    endloop
  endfacet
  facet normal -0 0 -1
    outer loop
      vertex 2.02254 -1.46946 -10
      vertex 3.19741 -1.42358 -10
      vertex 2.83156 -2.05725 -10
    endloop
  endfacet
  facet normal 0 0 -1
    outer loop
      vertex 1.46946 -2.02254 -10
      vertex 2.83156 -2.05725 -10
      vertex 2.34196 -2.60101 -10
    endloop
  endfacet
  facet normal 0 0 -1
    outer loop
      vertex 0.772542 -2.37764 -10
      vertex 2.34196 -2.60101 -10
      vertex 1.75 -3.03109 -10
    endloop
  endfacet
  facet normal 0 0 -1
    outer loop
      vertex 0 -2.5 -10
      vertex 1.75 -3.03109 -10
      vertex 1.08156 -3.3287 -10
    endloop
  endfacet
  facet normal 0 0 -1
    outer loop
      vertex -1.46946 -2.02254 -10
      vertex 1.08156 -3.3287 -10
      vertex 0.36585 -3.48083 -10
    endloop
  endfacet
  facet normal 0 0 -1
    outer loop
      vertex -3.42352 -0.727691 -10
      vertex 0.36585 -3.48083 -10
      vertex -0.36585 -3.48083 -10
    endloop
  endfacet
  facet normal 0 0 -1
    outer loop
      vertex -3.42352 -0.727691 -10
      vertex -0.36585 -3.48083 -10
      vertex -1.08156 -3.3287 -10
    endloop
  endfacet
  facet normal 0 0 -1
    outer loop
      vertex -3.42352 -0.727691 -10
      vertex -1.08156 -3.3287 -10
      vertex -1.75 -3.03109 -10
    endloop
  endfacet
  facet normal 0 0 -1
    outer loop
      vertex -3.42352 -0.727691 -10
      vertex -1.75 -3.03109 -10
      vertex -2.34196 -2.60101 -10
    endloop
  endfacet
  facet normal 0 0 -1
    outer loop
      vertex -3.42352 -0.727691 -10
      vertex -2.34196 -2.60101 -10
      vertex -2.83156 -2.05725 -10
    endloop
  endfacet
  facet normal 0 0 -1
    outer loop
      vertex -3.42352 -0.727691 -10
      vertex -2.83156 -2.05725 -10
      vertex -3.19741 -1.42358 -10
    endloop
  endfacet
  facet normal 0 0 -1
    outer loop
      vertex -2.37764 -0.772542 -10
      vertex -3.42352 -0.727691 -10
      vertex -2.5 0 -10
    endloop
  endfacet
  facet normal 0 0 -1
    outer loop
      vertex -2.02254 -1.46946 -10
      vertex -3.42352 -0.727691 -10
      vertex -2.37764 -0.772542 -10
    endloop
  endfacet
  facet normal 0 0 -1
    outer loop
      vertex -1.46946 -2.02254 -10
      vertex -3.42352 -0.727691 -10
      vertex -2.02254 -1.46946 -10
    endloop
  endfacet
  facet normal 0 0 -1
    outer loop
      vertex -0.772542 -2.37764 -10
      vertex 1.08156 -3.3287 -10
      vertex -1.46946 -2.02254 -10
    endloop
  endfacet
  facet normal 0 0 -1
    outer loop
      vertex -3.42352 -0.727691 -10
      vertex -1.46946 -2.02254 -10
      vertex 0.36585 -3.48083 -10
    endloop
  endfacet
  facet normal 0 0 -1
    outer loop
      vertex 0 -2.5 -10
      vertex 1.08156 -3.3287 -10
      vertex -0.772542 -2.37764 -10
    endloop
  endfacet
  facet normal 0 0 -1
    outer loop
      vertex 0.772542 -2.37764 -10
      vertex 1.75 -3.03109 -10
      vertex 0 -2.5 -10
    endloop
  endfacet
  facet normal 0 0 -1
    outer loop
      vertex 2.5 0 -10
      vertex 3.42352 -0.727691 -10
      vertex 2.37764 -0.772542 -10
    endloop
  endfacet
  facet normal 0 0 -1
    outer loop
      vertex 2.37764 -0.772542 -10
      vertex 3.19741 -1.42358 -10
      vertex 2.02254 -1.46946 -10
    endloop
  endfacet
  facet normal 0 0 -1
    outer loop
      vertex 2.02254 -1.46946 -10
      vertex 2.83156 -2.05725 -10
      vertex 1.46946 -2.02254 -10
    endloop
  endfacet
  facet normal 0 0 -1
    outer loop
      vertex 1.46946 -2.02254 -10
      vertex 2.34196 -2.60101 -10
      vertex 0.772542 -2.37764 -10
    endloop
  endfacet
  facet normal -0 0 -1
    outer loop
      vertex 0 2.5 -10
      vertex 1.08156 3.3287 -10
      vertex 0.772542 2.37764 -10
    endloop
  endfacet
  facet normal -0 0 -1
    outer loop
      vertex 0.772542 2.37764 -10
      vertex 2.34196 2.60101 -10
      vertex 1.46946 2.02254 -10
    endloop
  endfacet
  facet normal 0 0 -1
    outer loop
      vertex 0.772542 2.37764 -10
      vertex 1.75 3.03109 -10
      vertex 2.34196 2.60101 -10
    endloop
  endfacet
  facet normal 0 0 -1
    outer loop
      vertex -2.02254 1.46946 -10
      vertex -1.08156 3.3287 -10
      vertex -1.46946 2.02254 -10
    endloop
  endfacet
  facet normal -0 0 -1
    outer loop
      vertex 1.46946 2.02254 -10
      vertex 2.83156 2.05725 -10
      vertex 2.02254 1.46946 -10
    endloop
  endfacet
  facet normal 0 0 -1
    outer loop
      vertex -3.42352 -0.727691 -10
      vertex -1.08156 3.3287 -10
      vertex -2.02254 1.46946 -10
    endloop
  endfacet
  facet normal 0 0 -1
    outer loop
      vertex -3.42352 -0.727691 -10
      vertex -2.02254 1.46946 -10
      vertex -2.37764 0.772542 -10
    endloop
  endfacet
  facet normal 0 -0 -1
    outer loop
      vertex -2.5 0 -10
      vertex -3.42352 -0.727691 -10
      vertex -2.37764 0.772542 -10
    endloop
  endfacet
  facet normal 0 0 -1
    outer loop
      vertex -1.46946 2.02254 -10
      vertex -0.36585 3.48083 -10
      vertex -0.772542 2.37764 -10
    endloop
  endfacet
  facet normal 0 0 -1
    outer loop
      vertex -0.772542 2.37764 -10
      vertex 0.36585 3.48083 -10
      vertex 0 2.5 -10
    endloop
  endfacet
  facet normal 0 0 -1
    outer loop
      vertex 2.02254 1.46946 -10
      vertex 3.19741 1.42358 -10
      vertex 2.37764 0.772542 -10
    endloop
  endfacet
  facet normal 0 0 -1
    outer loop
      vertex 2.5 0 -10
      vertex 3.5 0 -10
      vertex 3.42352 -0.727691 -10
    endloop
  endfacet
  facet normal 0 0 -1
    outer loop
      vertex 2.37764 0.772542 -10
      vertex 3.42352 0.727691 -10
      vertex 2.5 0 -10
    endloop
  endfacet
  facet normal -0.994522 0.104528 0
    outer loop
      vertex -3.5 0 -10
      vertex -3.5 0 10
      vertex -3.42352 0.727691 -10
    endloop
  endfacet
  facet normal -0.994522 0.104528 0
    outer loop
      vertex -3.42352 0.727691 -10
      vertex -3.5 0 10
      vertex -3.42352 0.727691 10
    endloop
  endfacet
  facet normal -0.994522 -0.104528 -0
    outer loop
      vertex -3.5 0 -10
      vertex -3.42352 -0.727691 -10
      vertex -3.5 0 10
    endloop
  endfacet
  facet normal -0.994522 -0.104528 0
    outer loop
      vertex -3.5 0 10
      vertex -3.42352 -0.727691 -10
      vertex -3.42352 -0.727691 10
    endloop
  endfacet
  facet normal -0.951056 -0.309018 -0
    outer loop
      vertex -3.42352 -0.727691 -10
      vertex -3.19741 -1.42358 -10
      vertex -3.42352 -0.727691 10
    endloop
  endfacet
  facet normal -0.951056 -0.309018 0
    outer loop
      vertex -3.42352 -0.727691 10
      vertex -3.19741 -1.42358 -10
      vertex -3.19741 -1.42358 10
    endloop
  endfacet
  facet normal -0.866025 -0.5 -0
    outer loop
      vertex -3.19741 -1.42358 -10
      vertex -2.83156 -2.05725 -10
      vertex -3.19741 -1.42358 10
    endloop
  endfacet
  facet normal -0.866025 -0.5 0
    outer loop
      vertex -3.19741 -1.42358 10
      vertex -2.83156 -2.05725 -10
      vertex -2.83156 -2.05725 10
    endloop
  endfacet
  facet normal -0.743145 -0.66913 -0
    outer loop
      vertex -2.83156 -2.05725 -10
      vertex -2.34196 -2.60101 -10
      vertex -2.83156 -2.05725 10
    endloop
  endfacet
  facet normal -0.743145 -0.66913 0
    outer loop
      vertex -2.83156 -2.05725 10
      vertex -2.34196 -2.60101 -10
      vertex -2.34196 -2.60101 10
    endloop
  endfacet
  facet normal -0.587785 -0.809017 0
    outer loop
      vertex -2.34196 -2.60101 10
      vertex -2.34196 -2.60101 -10
      vertex -1.75 -3.03109 -10
    endloop
  endfacet
  facet normal -0.587785 -0.809017 0
    outer loop
      vertex -1.75 -3.03109 10
      vertex -2.34196 -2.60101 10
      vertex -1.75 -3.03109 -10
    endloop
  endfacet
  facet normal -0.406737 -0.913546 0
    outer loop
      vertex -1.75 -3.03109 10
      vertex -1.75 -3.03109 -10
      vertex -1.08156 -3.3287 -10
    endloop
  endfacet
  facet normal -0.406737 -0.913546 0
    outer loop
      vertex -1.08156 -3.3287 10
      vertex -1.75 -3.03109 10
      vertex -1.08156 -3.3287 -10
    endloop
  endfacet
  facet normal -0.207912 -0.978148 0
    outer loop
      vertex -1.08156 -3.3287 10
      vertex -1.08156 -3.3287 -10
      vertex -0.36585 -3.48083 -10
    endloop
  endfacet
  facet normal -0.207912 -0.978148 0
    outer loop
      vertex -0.36585 -3.48083 10
      vertex -1.08156 -3.3287 10
      vertex -0.36585 -3.48083 -10
    endloop
  endfacet
  facet normal 0 -1 0
    outer loop
      vertex -0.36585 -3.48083 10
      vertex -0.36585 -3.48083 -10
      vertex 0.36585 -3.48083 -10
    endloop
  endfacet
  facet normal 0 -1 0
    outer loop
      vertex 0.36585 -3.48083 10
      vertex -0.36585 -3.48083 10
      vertex 0.36585 -3.48083 -10
    endloop
  endfacet
  facet normal 0.207912 -0.978148 0
    outer loop
      vertex 0.36585 -3.48083 10
      vertex 0.36585 -3.48083 -10
      vertex 1.08156 -3.3287 -10
    endloop
  endfacet
  facet normal 0.207912 -0.978148 0
    outer loop
      vertex 1.08156 -3.3287 10
      vertex 0.36585 -3.48083 10
      vertex 1.08156 -3.3287 -10
    endloop
  endfacet
  facet normal 0.406737 -0.913546 0
    outer loop
      vertex 1.08156 -3.3287 10
      vertex 1.08156 -3.3287 -10
      vertex 1.75 -3.03109 -10
    endloop
  endfacet
  facet normal 0.406737 -0.913546 0
    outer loop
      vertex 1.75 -3.03109 10
      vertex 1.08156 -3.3287 10
      vertex 1.75 -3.03109 -10
    endloop
  endfacet
  facet normal 0.587785 -0.809017 0
    outer loop
      vertex 1.75 -3.03109 10
      vertex 1.75 -3.03109 -10
      vertex 2.34196 -2.60101 -10
    endloop
  endfacet
  facet normal 0.587785 -0.809017 0
    outer loop
      vertex 2.34196 -2.60101 10
      vertex 1.75 -3.03109 10
      vertex 2.34196 -2.60101 -10
    endloop
  endfacet
  facet normal 0.743145 -0.66913 0
    outer loop
      vertex 2.34196 -2.60101 10
      vertex 2.34196 -2.60101 -10
      vertex 2.83156 -2.05725 -10
    endloop
  endfacet
  facet normal 0.743145 -0.66913 0
    outer loop
      vertex 2.83156 -2.05725 10
      vertex 2.34196 -2.60101 10
      vertex 2.83156 -2.05725 -10
    endloop
  endfacet
  facet normal 0.866025 -0.5 0
    outer loop
      vertex 2.83156 -2.05725 10
      vertex 2.83156 -2.05725 -10
      vertex 3.19741 -1.42358 -10
    endloop
  endfacet
  facet normal 0.866025 -0.5 0
    outer loop
      vertex 3.19741 -1.42358 10
      vertex 2.83156 -2.05725 10
      vertex 3.19741 -1.42358 -10
    endloop
  endfacet
  facet normal 0.951056 -0.309018 0
    outer loop
      vertex 3.19741 -1.42358 10
      vertex 3.19741 -1.42358 -10
      vertex 3.42352 -0.727691 -10
    endloop
  endfacet
  facet normal 0.951056 -0.309018 0
    outer loop
      vertex 3.42352 -0.727691 10
      vertex 3.19741 -1.42358 10
      vertex 3.42352 -0.727691 -10
    endloop
  endfacet
  facet normal 0.994522 -0.104528 0
    outer loop
      vertex 3.42352 -0.727691 10
      vertex 3.42352 -0.727691 -10
      vertex 3.5 0 -10
    endloop
  endfacet
  facet normal 0.994522 -0.104528 0
    outer loop
      vertex 3.5 0 10
      vertex 3.42352 -0.727691 10
      vertex 3.5 0 -10
    endloop
  endfacet
  facet normal 0.994522 0.104528 0
    outer loop
      vertex 3.5 0 -10
      vertex 3.42352 0.727691 -10
      vertex 3.42352 0.727691 10
    endloop
  endfacet
  facet normal 0.994522 0.104528 -0
    outer loop
      vertex 3.5 0 10
      vertex 3.5 0 -10
      vertex 3.42352 0.727691 10
    endloop
  endfacet
  facet normal 0.951056 0.309018 0
    outer loop
      vertex 3.42352 0.727691 -10
      vertex 3.19741 1.42358 -10
      vertex 3.19741 1.42358 10
    endloop
  endfacet
  facet normal 0.951056 0.309018 -0
    outer loop
      vertex 3.42352 0.727691 10
      vertex 3.42352 0.727691 -10
      vertex 3.19741 1.42358 10
    endloop
  endfacet
  facet normal 0.866025 0.5 0
    outer loop
      vertex 3.19741 1.42358 -10
      vertex 2.83156 2.05725 -10
      vertex 2.83156 2.05725 10
    endloop
  endfacet
  facet normal 0.866025 0.5 -0
    outer loop
      vertex 3.19741 1.42358 10
      vertex 3.19741 1.42358 -10
      vertex 2.83156 2.05725 10
    endloop
  endfacet
  facet normal 0.743145 0.66913 0
    outer loop
      vertex 2.83156 2.05725 -10
      vertex 2.34196 2.60101 -10
      vertex 2.34196 2.60101 10
    endloop
  endfacet
  facet normal 0.743145 0.66913 -0
    outer loop
      vertex 2.83156 2.05725 10
      vertex 2.83156 2.05725 -10
      vertex 2.34196 2.60101 10
    endloop
  endfacet
  facet normal 0.587785 0.809017 0
    outer loop
      vertex 1.75 3.03109 -10
      vertex 1.75 3.03109 10
      vertex 2.34196 2.60101 -10
    endloop
  endfacet
  facet normal 0.587785 0.809017 0
    outer loop
      vertex 2.34196 2.60101 -10
      vertex 1.75 3.03109 10
      vertex 2.34196 2.60101 10
    endloop
  endfacet
  facet normal 0.406737 0.913546 0
    outer loop
      vertex 1.08156 3.3287 -10
      vertex 1.08156 3.3287 10
      vertex 1.75 3.03109 -10
    endloop
  endfacet
  facet normal 0.406737 0.913546 0
    outer loop
      vertex 1.75 3.03109 -10
      vertex 1.08156 3.3287 10
      vertex 1.75 3.03109 10
    endloop
  endfacet
  facet normal 0.207912 0.978148 0
    outer loop
      vertex 0.36585 3.48083 -10
      vertex 0.36585 3.48083 10
      vertex 1.08156 3.3287 -10
    endloop
  endfacet
  facet normal 0.207912 0.978148 0
    outer loop
      vertex 1.08156 3.3287 -10
      vertex 0.36585 3.48083 10
      vertex 1.08156 3.3287 10
    endloop
  endfacet
  facet normal 0 1 0
    outer loop
      vertex -0.36585 3.48083 -10
      vertex -0.36585 3.48083 10
      vertex 0.36585 3.48083 -10
    endloop
  endfacet
  facet normal 0 1 0
    outer loop
      vertex 0.36585 3.48083 -10
      vertex -0.36585 3.48083 10
      vertex 0.36585 3.48083 10
    endloop
  endfacet
  facet normal -0.207912 0.978148 0
    outer loop
      vertex -1.08156 3.3287 -10
      vertex -1.08156 3.3287 10
      vertex -0.36585 3.48083 -10
    endloop
  endfacet
  facet normal -0.207912 0.978148 0
    outer loop
      vertex -0.36585 3.48083 -10
      vertex -1.08156 3.3287 10
      vertex -0.36585 3.48083 10
    endloop
  endfacet
  facet normal -0.406737 0.913546 0
    outer loop
      vertex -1.75 3.03109 -10
      vertex -1.75 3.03109 10
      vertex -1.08156 3.3287 -10
    endloop
  endfacet
  facet normal -0.406737 0.913546 0
    outer loop
      vertex -1.08156 3.3287 -10
      vertex -1.75 3.03109 10
      vertex -1.08156 3.3287 10
    endloop
  endfacet
  facet normal -0.587785 0.809017 0
    outer loop
      vertex -2.34196 2.60101 -10
      vertex -2.34196 2.60101 10
      vertex -1.75 3.03109 -10
    endloop
  endfacet
  facet normal -0.587785 0.809017 0
    outer loop
      vertex -1.75 3.03109 -10
      vertex -2.34196 2.60101 10
      vertex -1.75 3.03109 10
    endloop
  endfacet
  facet normal -0.743145 0.66913 0
    outer loop
      vertex -2.83156 2.05725 -10
      vertex -2.83156 2.05725 10
      vertex -2.34196 2.60101 -10
    endloop
  endfacet
  facet normal -0.743145 0.66913 0
    outer loop
      vertex -2.34196 2.60101 -10
      vertex -2.83156 2.05725 10
      vertex -2.34196 2.60101 10
    endloop
  endfacet
  facet normal -0.866025 0.5 0
    outer loop
      vertex -3.19741 1.42358 -10
      vertex -3.19741 1.42358 10
      vertex -2.83156 2.05725 -10
    endloop
  endfacet
  facet normal -0.866025 0.5 0
    outer loop
      vertex -2.83156 2.05725 -10
      vertex -3.19741 1.42358 10
      vertex -2.83156 2.05725 10
    endloop
  endfacet
  facet normal -0.951056 0.309018 0
    outer loop
      vertex -3.42352 0.727691 -10
      vertex -3.42352 0.727691 10
      vertex -3.19741 1.42358 -10
    endloop
  endfacet
  facet normal -0.951056 0.309018 0
    outer loop
      vertex -3.19741 1.42358 -10
      vertex -3.42352 0.727691 10
      vertex -3.19741 1.42358 10
    endloop
  endfacet
  facet normal 0.987688 -0.156435 0
    outer loop
      vertex -2.37764 0.772542 -10
      vertex -2.37764 0.772542 10
      vertex -2.5 0 10
    endloop
  endfacet
  facet normal 0.987688 -0.156435 0
    outer loop
      vertex -2.5 0 -10
      vertex -2.37764 0.772542 -10
      vertex -2.5 0 10
    endloop
  endfacet
  facet normal 0.987688 0.156435 0
    outer loop
      vertex -2.5 0 10
      vertex -2.37764 -0.772542 10
      vertex -2.37764 -0.772542 -10
    endloop
  endfacet
  facet normal 0.987688 0.156435 0
    outer loop
      vertex -2.5 0 -10
      vertex -2.5 0 10
      vertex -2.37764 -0.772542 -10
    endloop
  endfacet
  facet normal 0.891007 -0.453991 0
    outer loop
      vertex -2.02254 1.46946 -10
      vertex -2.02254 1.46946 10
      vertex -2.37764 0.772542 10
    endloop
  endfacet
  facet normal 0.891007 -0.453991 0
    outer loop
      vertex -2.37764 0.772542 -10
      vertex -2.02254 1.46946 -10
      vertex -2.37764 0.772542 10
    endloop
  endfacet
  facet normal 0.707107 -0.707107 0
    outer loop
      vertex -1.46946 2.02254 -10
      vertex -1.46946 2.02254 10
      vertex -2.02254 1.46946 10
    endloop
  endfacet
  facet normal 0.707107 -0.707107 0
    outer loop
      vertex -2.02254 1.46946 -10
      vertex -1.46946 2.02254 -10
      vertex -2.02254 1.46946 10
    endloop
  endfacet
  facet normal 0.453991 -0.891007 0
    outer loop
      vertex -0.772542 2.37764 -10
      vertex -0.772542 2.37764 10
      vertex -1.46946 2.02254 10
    endloop
  endfacet
  facet normal 0.453991 -0.891007 0
    outer loop
      vertex -1.46946 2.02254 -10
      vertex -0.772542 2.37764 -10
      vertex -1.46946 2.02254 10
    endloop
  endfacet
  facet normal 0.156435 -0.987688 0
    outer loop
      vertex 0 2.5 -10
      vertex 0 2.5 10
      vertex -0.772542 2.37764 10
    endloop
  endfacet
  facet normal 0.156435 -0.987688 0
    outer loop
      vertex -0.772542 2.37764 -10
      vertex 0 2.5 -10
      vertex -0.772542 2.37764 10
    endloop
  endfacet
  facet normal -0.156435 -0.987688 -0
    outer loop
      vertex 0.772542 2.37764 -10
      vertex 0.772542 2.37764 10
      vertex 0 2.5 10
    endloop
  endfacet
  facet normal -0.156435 -0.987688 -0
    outer loop
      vertex 0 2.5 -10
      vertex 0.772542 2.37764 -10
      vertex 0 2.5 10
    endloop
  endfacet
  facet normal -0.453991 -0.891007 -0
    outer loop
      vertex 1.46946 2.02254 -10
      vertex 1.46946 2.02254 10
      vertex 0.772542 2.37764 10
    endloop
  endfacet
  facet normal -0.453991 -0.891007 -0
    outer loop
      vertex 0.772542 2.37764 -10
      vertex 1.46946 2.02254 -10
      vertex 0.772542 2.37764 10
    endloop
  endfacet
  facet normal -0.707107 -0.707107 -0
    outer loop
      vertex 2.02254 1.46946 -10
      vertex 2.02254 1.46946 10
      vertex 1.46946 2.02254 10
    endloop
  endfacet
  facet normal -0.707107 -0.707107 -0
    outer loop
      vertex 1.46946 2.02254 -10
      vertex 2.02254 1.46946 -10
      vertex 1.46946 2.02254 10
    endloop
  endfacet
  facet normal -0.891007 -0.453991 0
    outer loop
      vertex 2.37764 0.772542 10
      vertex 2.02254 1.46946 10
      vertex 2.37764 0.772542 -10
    endloop
  endfacet
  facet normal -0.891007 -0.453991 0
    outer loop
      vertex 2.37764 0.772542 -10
      vertex 2.02254 1.46946 10
      vertex 2.02254 1.46946 -10
    endloop
  endfacet
  facet normal -0.987688 -0.156435 0
    outer loop
      vertex 2.5 0 10
      vertex 2.37764 0.772542 10
      vertex 2.5 0 -10
    endloop
  endfacet
  facet normal -0.987688 -0.156435 0
    outer loop
      vertex 2.5 0 -10
      vertex 2.37764 0.772542 10
      vertex 2.37764 0.772542 -10
    endloop
  endfacet
  facet normal -0.987688 0.156435 0
    outer loop
      vertex 2.5 0 10
      vertex 2.5 0 -10
      vertex 2.37764 -0.772542 10
    endloop
  endfacet
  facet normal -0.987688 0.156435 0
    outer loop
      vertex 2.37764 -0.772542 10
      vertex 2.5 0 -10
      vertex 2.37764 -0.772542 -10
    endloop
  endfacet
  facet normal -0.891007 0.453991 0
    outer loop
      vertex 2.37764 -0.772542 10
      vertex 2.37764 -0.772542 -10
      vertex 2.02254 -1.46946 10
    endloop
  endfacet
  facet normal -0.891007 0.453991 0
    outer loop
      vertex 2.02254 -1.46946 10
      vertex 2.37764 -0.772542 -10
      vertex 2.02254 -1.46946 -10
    endloop
  endfacet
  facet normal -0.707107 0.707107 0
    outer loop
      vertex 2.02254 -1.46946 10
      vertex 2.02254 -1.46946 -10
      vertex 1.46946 -2.02254 10
    endloop
  endfacet
  facet normal -0.707107 0.707107 0
    outer loop
      vertex 1.46946 -2.02254 10
      vertex 2.02254 -1.46946 -10
      vertex 1.46946 -2.02254 -10
    endloop
  endfacet
  facet normal -0.453991 0.891007 0
    outer loop
      vertex 1.46946 -2.02254 10
      vertex 1.46946 -2.02254 -10
      vertex 0.772542 -2.37764 10
    endloop
  endfacet
  facet normal -0.453991 0.891007 0
    outer loop
      vertex 0.772542 -2.37764 10
      vertex 1.46946 -2.02254 -10
      vertex 0.772542 -2.37764 -10
    endloop
  endfacet
  facet normal -0.156435 0.987688 0
    outer loop
      vertex 0.772542 -2.37764 10
      vertex 0.772542 -2.37764 -10
      vertex 0 -2.5 10
    endloop
  endfacet
  facet normal -0.156435 0.987688 0
    outer loop
      vertex 0 -2.5 10
      vertex 0.772542 -2.37764 -10
      vertex 0 -2.5 -10
    endloop
  endfacet
  facet normal 0.156435 0.987688 -0
    outer loop
      vertex 0 -2.5 10
      vertex 0 -2.5 -10
      vertex -0.772542 -2.37764 10
    endloop
  endfacet
  facet normal 0.156435 0.987688 -0
    outer loop
      vertex -0.772542 -2.37764 10
      vertex 0 -2.5 -10
      vertex -0.772542 -2.37764 -10
    endloop
  endfacet
  facet normal 0.453991 0.891007 -0
    outer loop
      vertex -0.772542 -2.37764 10
      vertex -0.772542 -2.37764 -10
      vertex -1.46946 -2.02254 10
    endloop
  endfacet
  facet normal 0.453991 0.891007 -0
    outer loop
      vertex -1.46946 -2.02254 10
      vertex -0.772542 -2.37764 -10
      vertex -1.46946 -2.02254 -10
    endloop
  endfacet
  facet normal 0.707107 0.707107 -0
    outer loop
      vertex -1.46946 -2.02254 10
      vertex -1.46946 -2.02254 -10
      vertex -2.02254 -1.46946 10
    endloop
  endfacet
  facet normal 0.707107 0.707107 -0
    outer loop
      vertex -2.02254 -1.46946 10
      vertex -1.46946 -2.02254 -10
      vertex -2.02254 -1.46946 -10
    endloop
  endfacet
  facet normal 0.891007 0.453991 0
    outer loop
      vertex -2.37764 -0.772542 10
      vertex -2.02254 -1.46946 10
      vertex -2.02254 -1.46946 -10
    endloop
  endfacet
  facet normal 0.891007 0.453991 0
    outer loop
      vertex -2.37764 -0.772542 -10
      vertex -2.37764 -0.772542 10
      vertex -2.02254 -1.46946 -10
    endloop
  endfacet
  facet normal 0 0 1
    outer loop
      vertex -3.42352 0.727691 10
      vertex -3.5 0 10
      vertex -3.42352 -0.727691 10
    endloop
  endfacet
  facet normal 0 0 1
    outer loop
      vertex -2.83156 -2.05725 10
      vertex -3.42352 0.727691 10
      vertex -3.19741 -1.42358 10
    endloop
  endfacet
  facet normal 0 0 1
    outer loop
      vertex -3.19741 -1.42358 10
      vertex -3.42352 0.727691 10
      vertex -3.42352 -0.727691 10
    endloop
  endfacet
  facet normal 0 0 1
    outer loop
      vertex -2.34196 -2.60101 10
      vertex -3.42352 0.727691 10
      vertex -2.83156 -2.05725 10
    endloop
  endfacet
  facet normal 0 0 1
    outer loop
      vertex -1.75 -3.03109 10
      vertex -3.42352 0.727691 10
      vertex -2.34196 -2.60101 10
    endloop
  endfacet
  facet normal 0 0 1
    outer loop
      vertex -1.08156 -3.3287 10
      vertex -3.42352 0.727691 10
      vertex -1.75 -3.03109 10
    endloop
  endfacet
  facet normal -0 -0 1
    outer loop
      vertex -2.37764 -0.772542 10
      vertex -3.42352 0.727691 10
      vertex -1.08156 -3.3287 10
    endloop
  endfacet
  facet normal 0 -0 1
    outer loop
      vertex 2.02254 -1.46946 10
      vertex 1.46946 -2.02254 10
      vertex 2.83156 -2.05725 10
    endloop
  endfacet
  facet normal 0 -0 1
    outer loop
      vertex 2.37764 -0.772542 10
      vertex 2.02254 -1.46946 10
      vertex 3.19741 -1.42358 10
    endloop
  endfacet
  facet normal 0 -0 1
    outer loop
      vertex 2.5 0 10
      vertex 2.37764 -0.772542 10
      vertex 3.42352 -0.727691 10
    endloop
  endfacet
  facet normal -0 0 1
    outer loop
      vertex -2.37764 0.772542 10
      vertex -2.02254 1.46946 10
      vertex -3.42352 0.727691 10
    endloop
  endfacet
  facet normal 0 0 1
    outer loop
      vertex 2.37764 0.772542 10
      vertex 2.5 0 10
      vertex 3.5 0 10
    endloop
  endfacet
  facet normal 0 0 1
    outer loop
      vertex 1.46946 2.02254 10
      vertex 2.02254 1.46946 10
      vertex 2.83156 2.05725 10
    endloop
  endfacet
  facet normal -0 0 1
    outer loop
      vertex -2.02254 1.46946 10
      vertex -1.46946 2.02254 10
      vertex -3.42352 0.727691 10
    endloop
  endfacet
  facet normal 0 0 1
    outer loop
      vertex 0 2.5 10
      vertex 0.772542 2.37764 10
      vertex 1.75 3.03109 10
    endloop
  endfacet
  facet normal 0 0 1
    outer loop
      vertex -0.772542 2.37764 10
      vertex 0 2.5 10
      vertex 1.08156 3.3287 10
    endloop
  endfacet
  facet normal 0 -0 1
    outer loop
      vertex -0.36585 3.48083 10
      vertex -3.42352 0.727691 10
      vertex 0.36585 3.48083 10
    endloop
  endfacet
  facet normal 0 -0 1
    outer loop
      vertex -1.08156 3.3287 10
      vertex -3.42352 0.727691 10
      vertex -0.36585 3.48083 10
    endloop
  endfacet
  facet normal 0 -0 1
    outer loop
      vertex -1.75 3.03109 10
      vertex -3.42352 0.727691 10
      vertex -1.08156 3.3287 10
    endloop
  endfacet
  facet normal 0 -0 1
    outer loop
      vertex -2.34196 2.60101 10
      vertex -3.42352 0.727691 10
      vertex -1.75 3.03109 10
    endloop
  endfacet
  facet normal 0 -0 1
    outer loop
      vertex -2.83156 2.05725 10
      vertex -3.42352 0.727691 10
      vertex -2.34196 2.60101 10
    endloop
  endfacet
  facet normal 0 -0 1
    outer loop
      vertex -3.19741 1.42358 10
      vertex -3.42352 0.727691 10
      vertex -2.83156 2.05725 10
    endloop
  endfacet
  facet normal -0 -0 1
    outer loop
      vertex -2.02254 -1.46946 10
      vertex -2.37764 -0.772542 10
      vertex -1.08156 -3.3287 10
    endloop
  endfacet
  facet normal -0 -0 1
    outer loop
      vertex 0 -2.5 10
      vertex -0.772542 -2.37764 10
      vertex 0.36585 -3.48083 10
    endloop
  endfacet
  facet normal 0 -0 1
    outer loop
      vertex 1.46946 -2.02254 10
      vertex 0.772542 -2.37764 10
      vertex 1.75 -3.03109 10
    endloop
  endfacet
  facet normal 0 0 1
    outer loop
      vertex 0.772542 2.37764 10
      vertex 1.46946 2.02254 10
      vertex 2.34196 2.60101 10
    endloop
  endfacet
  facet normal 0 0 1
    outer loop
      vertex 2.02254 1.46946 10
      vertex 2.37764 0.772542 10
      vertex 3.19741 1.42358 10
    endloop
  endfacet
  facet normal 0 -0 1
    outer loop
      vertex 0.36585 3.48083 10
      vertex -1.46946 2.02254 10
      vertex 1.08156 3.3287 10
    endloop
  endfacet
  facet normal 0 0 1
    outer loop
      vertex 0.36585 3.48083 10
      vertex -3.42352 0.727691 10
      vertex -1.46946 2.02254 10
    endloop
  endfacet
  facet normal 0 0 1
    outer loop
      vertex -1.46946 2.02254 10
      vertex -0.772542 2.37764 10
      vertex 1.08156 3.3287 10
    endloop
  endfacet
  facet normal 0 -0 1
    outer loop
      vertex 1.08156 3.3287 10
      vertex 0 2.5 10
      vertex 1.75 3.03109 10
    endloop
  endfacet
  facet normal 0 -0 1
    outer loop
      vertex 1.75 3.03109 10
      vertex 0.772542 2.37764 10
      vertex 2.34196 2.60101 10
    endloop
  endfacet
  facet normal 0 -0 1
    outer loop
      vertex 2.34196 2.60101 10
      vertex 1.46946 2.02254 10
      vertex 2.83156 2.05725 10
    endloop
  endfacet
  facet normal 0 -0 1
    outer loop
      vertex 2.83156 2.05725 10
      vertex 2.02254 1.46946 10
      vertex 3.19741 1.42358 10
    endloop
  endfacet
  facet normal 0 -0 1
    outer loop
      vertex 3.19741 1.42358 10
      vertex 2.37764 0.772542 10
      vertex 3.42352 0.727691 10
    endloop
  endfacet
  facet normal 0 0 1
    outer loop
      vertex 3.5 0 10
      vertex 2.5 0 10
      vertex 3.42352 -0.727691 10
    endloop
  endfacet
  facet normal 0 0 1
    outer loop
      vertex 3.42352 -0.727691 10
      vertex 2.37764 -0.772542 10
      vertex 3.19741 -1.42358 10
    endloop
  endfacet
  facet normal 0 0 1
    outer loop
      vertex 3.19741 -1.42358 10
      vertex 2.02254 -1.46946 10
      vertex 2.83156 -2.05725 10
    endloop
  endfacet
  facet normal 0 0 1
    outer loop
      vertex 2.37764 0.772542 10
      vertex 3.5 0 10
      vertex 3.42352 0.727691 10
    endloop
  endfacet
  facet normal -0 0 1
    outer loop
      vertex 2.83156 -2.05725 10
      vertex 1.46946 -2.02254 10
      vertex 2.34196 -2.60101 10
    endloop
  endfacet
  facet normal -0 0 1
    outer loop
      vertex 1.75 -3.03109 10
      vertex 0.772542 -2.37764 10
      vertex 1.08156 -3.3287 10
    endloop
  endfacet
  facet normal -0 0 1
    outer loop
      vertex 1.08156 -3.3287 10
      vertex 0 -2.5 10
      vertex 0.36585 -3.48083 10
    endloop
  endfacet
  facet normal -0 0 1
    outer loop
      vertex 0.36585 -3.48083 10
      vertex -0.772542 -2.37764 10
      vertex -0.36585 -3.48083 10
    endloop
  endfacet
  facet normal 0 0 1
    outer loop
      vertex -0.36585 -3.48083 10
      vertex -1.46946 -2.02254 10
      vertex -1.08156 -3.3287 10
    endloop
  endfacet
  facet normal -0 -0 1
    outer loop
      vertex -1.46946 -2.02254 10
      vertex -2.02254 -1.46946 10
      vertex -1.08156 -3.3287 10
    endloop
  endfacet
  facet normal 0 0 1
    outer loop
      vertex -2.37764 -0.772542 10
      vertex -2.5 0 10
      vertex -3.42352 0.727691 10
    endloop
  endfacet
  facet normal 0 0 1
    outer loop
      vertex 1.46946 -2.02254 10
      vertex 1.75 -3.03109 10
      vertex 2.34196 -2.60101 10
    endloop
  endfacet
  facet normal -0 -0 1
    outer loop
      vertex -0.772542 -2.37764 10
      vertex -1.46946 -2.02254 10
      vertex -0.36585 -3.48083 10
    endloop
  endfacet
  facet normal 0 -0 1
    outer loop
      vertex 0.772542 -2.37764 10
      vertex 0 -2.5 10
      vertex 1.08156 -3.3287 10
    endloop
  endfacet
  facet normal 0 0 1
    outer loop
      vertex -2.5 0 10
      vertex -2.37764 0.772542 10
      vertex -3.42352 0.727691 10
    endloop
  endfacet
endsolid OpenSCAD_Model
