solid OpenSCAD_Model
  facet normal -0 0 -1
    outer loop
      vertex -4.25 0 -0.3
      vertex -4.04199 1.31332 -0.3
      vertex -4.04199 -1.31332 -0.3
    endloop
  endfacet
  facet normal 0 -0 -1
    outer loop
      vertex -4.04199 -1.31332 -0.3
      vertex -4.04199 1.31332 -0.3
      vertex -3.43832 2.49809 -0.3
    endloop
  endfacet
  facet normal 0 0 -1
    outer loop
      vertex -4.04199 -1.31332 -0.3
      vertex -3.43832 2.49809 -0.3
      vertex -2.49809 3.43832 -0.3
    endloop
  endfacet
  facet normal 0 0 -1
    outer loop
      vertex -4.04199 -1.31332 -0.3
      vertex -2.49809 3.43832 -0.3
      vertex -1.31332 4.04199 -0.3
    endloop
  endfacet
  facet normal 0 0 -1
    outer loop
      vertex -4.04199 -1.31332 -0.3
      vertex -1.31332 4.04199 -0.3
      vertex 0 4.25 -0.3
    endloop
  endfacet
  facet normal 0 0 -1
    outer loop
      vertex -1.17557 1.61803 -0.3
      vertex 0 4.25 -0.3
      vertex 1.31332 4.04199 -0.3
    endloop
  endfacet
  facet normal 0 0 -1
    outer loop
      vertex 0 2 -0.3
      vertex 1.31332 4.04199 -0.3
      vertex 2.49809 3.43832 -0.3
    endloop
  endfacet
  facet normal 0 0 -1
    outer loop
      vertex 1.17557 1.61803 -0.3
      vertex 2.49809 3.43832 -0.3
      vertex 3.43832 2.49809 -0.3
    endloop
  endfacet
  facet normal 0 0 -1
    outer loop
      vertex 1.90211 0.618034 -0.3
      vertex 3.43832 2.49809 -0.3
      vertex 4.04199 1.31332 -0.3
    endloop
  endfacet
  facet normal -0 0 -1
    outer loop
      vertex 2 0 -0.3
      vertex 4.04199 1.31332 -0.3
      vertex 4.25 0 -0.3
    endloop
  endfacet
  facet normal -0 0 -1
    outer loop
      vertex 1.61803 -1.17557 -0.3
      vertex 4.25 0 -0.3
      vertex 4.04199 -1.31332 -0.3
    endloop
  endfacet
  facet normal -0 0 -1
    outer loop
      vertex 0.618034 -1.90211 -0.3
      vertex 4.04199 -1.31332 -0.3
      vertex 3.43832 -2.49809 -0.3
    endloop
  endfacet
  facet normal 0 0 -1
    outer loop
      vertex 0 -2 -0.3
      vertex 3.43832 -2.49809 -0.3
      vertex 2.49809 -3.43832 -0.3
    endloop
  endfacet
  facet normal 0 0 -1
    outer loop
      vertex -4.04199 -1.31332 -0.3
      vertex 2.49809 -3.43832 -0.3
      vertex 1.31332 -4.04199 -0.3
    endloop
  endfacet
  facet normal 0 0 -1
    outer loop
      vertex -4.04199 -1.31332 -0.3
      vertex 1.31332 -4.04199 -0.3
      vertex 0 -4.25 -0.3
    endloop
  endfacet
  facet normal 0 0 -1
    outer loop
      vertex -4.04199 -1.31332 -0.3
      vertex 0 -4.25 -0.3
      vertex -1.31332 -4.04199 -0.3
    endloop
  endfacet
  facet normal 0 0 -1
    outer loop
      vertex -4.04199 -1.31332 -0.3
      vertex -1.31332 -4.04199 -0.3
      vertex -2.49809 -3.43832 -0.3
    endloop
  endfacet
  facet normal 0 0 -1
    outer loop
      vertex -4.04199 -1.31332 -0.3
      vertex -2.49809 -3.43832 -0.3
      vertex -3.43832 -2.49809 -0.3
    endloop
  endfacet
  facet normal 0 0 -1
    outer loop
      vertex -1.90211 -0.618034 -0.3
      vertex -4.04199 -1.31332 -0.3
      vertex -2 0 -0.3
    endloop
  endfacet
  facet normal 0 0 -1
    outer loop
      vertex -1.61803 -1.17557 -0.3
      vertex -4.04199 -1.31332 -0.3
      vertex -1.90211 -0.618034 -0.3
    endloop
  endfacet
  facet normal 0 0 -1
    outer loop
      vertex -1.17557 -1.61803 -0.3
      vertex -4.04199 -1.31332 -0.3
      vertex -1.61803 -1.17557 -0.3
    endloop
  endfacet
  facet normal 0 0 -1
    outer loop
      vertex -0.618034 -1.90211 -0.3
      vertex -4.04199 -1.31332 -0.3
      vertex -1.17557 -1.61803 -0.3
    endloop
  endfacet
  facet normal 0 0 -1
    outer loop
      vertex 0.618034 -1.90211 -0.3
      vertex 3.43832 -2.49809 -0.3
      vertex 0 -2 -0.3
    endloop
  endfacet
  facet normal 0 0 -1
    outer loop
      vertex -4.04199 -1.31332 -0.3
      vertex -0.618034 -1.90211 -0.3
      vertex 2.49809 -3.43832 -0.3
    endloop
  endfacet
  facet normal 0 0 -1
    outer loop
      vertex -0.618034 -1.90211 -0.3
      vertex 0 -2 -0.3
      vertex 2.49809 -3.43832 -0.3
    endloop
  endfacet
  facet normal -0 0 -1
    outer loop
      vertex 1.17557 -1.61803 -0.3
      vertex 4.04199 -1.31332 -0.3
      vertex 0.618034 -1.90211 -0.3
    endloop
  endfacet
  facet normal 0 0 -1
    outer loop
      vertex 1.61803 -1.17557 -0.3
      vertex 4.04199 -1.31332 -0.3
      vertex 1.17557 -1.61803 -0.3
    endloop
  endfacet
  facet normal -0 0 -1
    outer loop
      vertex 1.90211 -0.618034 -0.3
      vertex 4.25 0 -0.3
      vertex 1.61803 -1.17557 -0.3
    endloop
  endfacet
  facet normal 0 0 -1
    outer loop
      vertex 2 0 -0.3
      vertex 4.25 0 -0.3
      vertex 1.90211 -0.618034 -0.3
    endloop
  endfacet
  facet normal -0 0 -1
    outer loop
      vertex 1.90211 0.618034 -0.3
      vertex 4.04199 1.31332 -0.3
      vertex 2 0 -0.3
    endloop
  endfacet
  facet normal -0 0 -1
    outer loop
      vertex 1.61803 1.17557 -0.3
      vertex 3.43832 2.49809 -0.3
      vertex 1.90211 0.618034 -0.3
    endloop
  endfacet
  facet normal -0 0 -1
    outer loop
      vertex 0.618034 1.90211 -0.3
      vertex 2.49809 3.43832 -0.3
      vertex 1.17557 1.61803 -0.3
    endloop
  endfacet
  facet normal -0 0 -1
    outer loop
      vertex 0 2 -0.3
      vertex 2.49809 3.43832 -0.3
      vertex 0.618034 1.90211 -0.3
    endloop
  endfacet
  facet normal 0 0 -1
    outer loop
      vertex -0.618034 1.90211 -0.3
      vertex 1.31332 4.04199 -0.3
      vertex 0 2 -0.3
    endloop
  endfacet
  facet normal 0 0 -1
    outer loop
      vertex -1.61803 1.17557 -0.3
      vertex 0 4.25 -0.3
      vertex -1.17557 1.61803 -0.3
    endloop
  endfacet
  facet normal 0 -0 -1
    outer loop
      vertex -1.90211 0.618034 -0.3
      vertex -4.04199 -1.31332 -0.3
      vertex -1.61803 1.17557 -0.3
    endloop
  endfacet
  facet normal 0 0 -1
    outer loop
      vertex -4.04199 -1.31332 -0.3
      vertex 0 4.25 -0.3
      vertex -1.61803 1.17557 -0.3
    endloop
  endfacet
  facet normal 0 -0 -1
    outer loop
      vertex -2 0 -0.3
      vertex -4.04199 -1.31332 -0.3
      vertex -1.90211 0.618034 -0.3
    endloop
  endfacet
  facet normal 0 0 -1
    outer loop
      vertex -1.17557 1.61803 -0.3
      vertex 1.31332 4.04199 -0.3
      vertex -0.618034 1.90211 -0.3
    endloop
  endfacet
  facet normal -0 0 -1
    outer loop
      vertex 1.17557 1.61803 -0.3
      vertex 3.43832 2.49809 -0.3
      vertex 1.61803 1.17557 -0.3
    endloop
  endfacet
  facet normal -0.987688 0.156435 0
    outer loop
      vertex -4.25 0 -0.3
      vertex -4.25 0 0.3
      vertex -4.04199 1.31332 -0.3
    endloop
  endfacet
  facet normal -0.987688 0.156435 0
    outer loop
      vertex -4.04199 1.31332 -0.3
      vertex -4.25 0 0.3
      vertex -4.04199 1.31332 0.3
    endloop
  endfacet
  facet normal -0.987688 -0.156435 -0
    outer loop
      vertex -4.25 0 -0.3
      vertex -4.04199 -1.31332 -0.3
      vertex -4.25 0 0.3
    endloop
  endfacet
  facet normal -0.987688 -0.156435 0
    outer loop
      vertex -4.25 0 0.3
      vertex -4.04199 -1.31332 -0.3
      vertex -4.04199 -1.31332 0.3
    endloop
  endfacet
  facet normal -0.891006 -0.453991 -0
    outer loop
      vertex -4.04199 -1.31332 -0.3
      vertex -3.43832 -2.49809 -0.3
      vertex -4.04199 -1.31332 0.3
    endloop
  endfacet
  facet normal -0.891006 -0.453991 0
    outer loop
      vertex -4.04199 -1.31332 0.3
      vertex -3.43832 -2.49809 -0.3
      vertex -3.43832 -2.49809 0.3
    endloop
  endfacet
  facet normal -0.707107 -0.707107 0
    outer loop
      vertex -3.43832 -2.49809 0.3
      vertex -3.43832 -2.49809 -0.3
      vertex -2.49809 -3.43832 -0.3
    endloop
  endfacet
  facet normal -0.707107 -0.707107 0
    outer loop
      vertex -2.49809 -3.43832 0.3
      vertex -3.43832 -2.49809 0.3
      vertex -2.49809 -3.43832 -0.3
    endloop
  endfacet
  facet normal -0.453991 -0.891006 0
    outer loop
      vertex -2.49809 -3.43832 0.3
      vertex -2.49809 -3.43832 -0.3
      vertex -1.31332 -4.04199 -0.3
    endloop
  endfacet
  facet normal -0.453991 -0.891006 0
    outer loop
      vertex -1.31332 -4.04199 0.3
      vertex -2.49809 -3.43832 0.3
      vertex -1.31332 -4.04199 -0.3
    endloop
  endfacet
  facet normal -0.156435 -0.987688 0
    outer loop
      vertex -1.31332 -4.04199 0.3
      vertex -1.31332 -4.04199 -0.3
      vertex 0 -4.25 -0.3
    endloop
  endfacet
  facet normal -0.156435 -0.987688 0
    outer loop
      vertex 0 -4.25 0.3
      vertex -1.31332 -4.04199 0.3
      vertex 0 -4.25 -0.3
    endloop
  endfacet
  facet normal 0.156435 -0.987688 0
    outer loop
      vertex 0 -4.25 0.3
      vertex 0 -4.25 -0.3
      vertex 1.31332 -4.04199 -0.3
    endloop
  endfacet
  facet normal 0.156435 -0.987688 0
    outer loop
      vertex 1.31332 -4.04199 0.3
      vertex 0 -4.25 0.3
      vertex 1.31332 -4.04199 -0.3
    endloop
  endfacet
  facet normal 0.453991 -0.891006 0
    outer loop
      vertex 1.31332 -4.04199 0.3
      vertex 1.31332 -4.04199 -0.3
      vertex 2.49809 -3.43832 -0.3
    endloop
  endfacet
  facet normal 0.453991 -0.891006 0
    outer loop
      vertex 2.49809 -3.43832 0.3
      vertex 1.31332 -4.04199 0.3
      vertex 2.49809 -3.43832 -0.3
    endloop
  endfacet
  facet normal 0.707107 -0.707107 0
    outer loop
      vertex 2.49809 -3.43832 0.3
      vertex 2.49809 -3.43832 -0.3
      vertex 3.43832 -2.49809 -0.3
    endloop
  endfacet
  facet normal 0.707107 -0.707107 0
    outer loop
      vertex 3.43832 -2.49809 0.3
      vertex 2.49809 -3.43832 0.3
      vertex 3.43832 -2.49809 -0.3
    endloop
  endfacet
  facet normal 0.891006 -0.453991 0
    outer loop
      vertex 3.43832 -2.49809 0.3
      vertex 3.43832 -2.49809 -0.3
      vertex 4.04199 -1.31332 -0.3
    endloop
  endfacet
  facet normal 0.891006 -0.453991 0
    outer loop
      vertex 4.04199 -1.31332 0.3
      vertex 3.43832 -2.49809 0.3
      vertex 4.04199 -1.31332 -0.3
    endloop
  endfacet
  facet normal 0.987688 -0.156435 0
    outer loop
      vertex 4.04199 -1.31332 0.3
      vertex 4.04199 -1.31332 -0.3
      vertex 4.25 0 -0.3
    endloop
  endfacet
  facet normal 0.987688 -0.156435 0
    outer loop
      vertex 4.25 0 0.3
      vertex 4.04199 -1.31332 0.3
      vertex 4.25 0 -0.3
    endloop
  endfacet
  facet normal 0.987688 0.156435 0
    outer loop
      vertex 4.25 0 -0.3
      vertex 4.04199 1.31332 -0.3
      vertex 4.04199 1.31332 0.3
    endloop
  endfacet
  facet normal 0.987688 0.156435 -0
    outer loop
      vertex 4.25 0 0.3
      vertex 4.25 0 -0.3
      vertex 4.04199 1.31332 0.3
    endloop
  endfacet
  facet normal 0.891006 0.453991 0
    outer loop
      vertex 4.04199 1.31332 -0.3
      vertex 3.43832 2.49809 -0.3
      vertex 3.43832 2.49809 0.3
    endloop
  endfacet
  facet normal 0.891006 0.453991 -0
    outer loop
      vertex 4.04199 1.31332 0.3
      vertex 4.04199 1.31332 -0.3
      vertex 3.43832 2.49809 0.3
    endloop
  endfacet
  facet normal 0.707107 0.707107 0
    outer loop
      vertex 2.49809 3.43832 -0.3
      vertex 2.49809 3.43832 0.3
      vertex 3.43832 2.49809 -0.3
    endloop
  endfacet
  facet normal 0.707107 0.707107 0
    outer loop
      vertex 3.43832 2.49809 -0.3
      vertex 2.49809 3.43832 0.3
      vertex 3.43832 2.49809 0.3
    endloop
  endfacet
  facet normal 0.453991 0.891006 0
    outer loop
      vertex 1.31332 4.04199 -0.3
      vertex 1.31332 4.04199 0.3
      vertex 2.49809 3.43832 -0.3
    endloop
  endfacet
  facet normal 0.453991 0.891006 0
    outer loop
      vertex 2.49809 3.43832 -0.3
      vertex 1.31332 4.04199 0.3
      vertex 2.49809 3.43832 0.3
    endloop
  endfacet
  facet normal 0.156435 0.987688 0
    outer loop
      vertex 0 4.25 -0.3
      vertex 0 4.25 0.3
      vertex 1.31332 4.04199 -0.3
    endloop
  endfacet
  facet normal 0.156435 0.987688 0
    outer loop
      vertex 1.31332 4.04199 -0.3
      vertex 0 4.25 0.3
      vertex 1.31332 4.04199 0.3
    endloop
  endfacet
  facet normal -0.156435 0.987688 0
    outer loop
      vertex -1.31332 4.04199 -0.3
      vertex -1.31332 4.04199 0.3
      vertex 0 4.25 -0.3
    endloop
  endfacet
  facet normal -0.156435 0.987688 0
    outer loop
      vertex 0 4.25 -0.3
      vertex -1.31332 4.04199 0.3
      vertex 0 4.25 0.3
    endloop
  endfacet
  facet normal -0.453991 0.891006 0
    outer loop
      vertex -2.49809 3.43832 -0.3
      vertex -2.49809 3.43832 0.3
      vertex -1.31332 4.04199 -0.3
    endloop
  endfacet
  facet normal -0.453991 0.891006 0
    outer loop
      vertex -1.31332 4.04199 -0.3
      vertex -2.49809 3.43832 0.3
      vertex -1.31332 4.04199 0.3
    endloop
  endfacet
  facet normal -0.707107 0.707107 0
    outer loop
      vertex -3.43832 2.49809 -0.3
      vertex -3.43832 2.49809 0.3
      vertex -2.49809 3.43832 -0.3
    endloop
  endfacet
  facet normal -0.707107 0.707107 0
    outer loop
      vertex -2.49809 3.43832 -0.3
      vertex -3.43832 2.49809 0.3
      vertex -2.49809 3.43832 0.3
    endloop
  endfacet
  facet normal -0.891006 0.453991 0
    outer loop
      vertex -4.04199 1.31332 -0.3
      vertex -4.04199 1.31332 0.3
      vertex -3.43832 2.49809 -0.3
    endloop
  endfacet
  facet normal -0.891006 0.453991 0
    outer loop
      vertex -3.43832 2.49809 -0.3
      vertex -4.04199 1.31332 0.3
      vertex -3.43832 2.49809 0.3
    endloop
  endfacet
  facet normal 0.987688 -0.156435 0
    outer loop
      vertex -1.90211 0.618034 -0.3
      vertex -1.90211 0.618034 0.3
      vertex -2 0 0.3
    endloop
  endfacet
  facet normal 0.987688 -0.156435 0
    outer loop
      vertex -2 0 -0.3
      vertex -1.90211 0.618034 -0.3
      vertex -2 0 0.3
    endloop
  endfacet
  facet normal 0.987688 0.156435 0
    outer loop
      vertex -2 0 0.3
      vertex -1.90211 -0.618034 0.3
      vertex -1.90211 -0.618034 -0.3
    endloop
  endfacet
  facet normal 0.987688 0.156435 0
    outer loop
      vertex -2 0 -0.3
      vertex -2 0 0.3
      vertex -1.90211 -0.618034 -0.3
    endloop
  endfacet
  facet normal 0.891007 -0.45399 0
    outer loop
      vertex -1.61803 1.17557 -0.3
      vertex -1.61803 1.17557 0.3
      vertex -1.90211 0.618034 0.3
    endloop
  endfacet
  facet normal 0.891007 -0.45399 0
    outer loop
      vertex -1.90211 0.618034 -0.3
      vertex -1.61803 1.17557 -0.3
      vertex -1.90211 0.618034 0.3
    endloop
  endfacet
  facet normal 0.707107 -0.707107 0
    outer loop
      vertex -1.17557 1.61803 -0.3
      vertex -1.17557 1.61803 0.3
      vertex -1.61803 1.17557 0.3
    endloop
  endfacet
  facet normal 0.707107 -0.707107 0
    outer loop
      vertex -1.61803 1.17557 -0.3
      vertex -1.17557 1.61803 -0.3
      vertex -1.61803 1.17557 0.3
    endloop
  endfacet
  facet normal 0.45399 -0.891007 0
    outer loop
      vertex -0.618034 1.90211 -0.3
      vertex -0.618034 1.90211 0.3
      vertex -1.17557 1.61803 0.3
    endloop
  endfacet
  facet normal 0.45399 -0.891007 0
    outer loop
      vertex -1.17557 1.61803 -0.3
      vertex -0.618034 1.90211 -0.3
      vertex -1.17557 1.61803 0.3
    endloop
  endfacet
  facet normal 0.156435 -0.987688 0
    outer loop
      vertex 0 2 -0.3
      vertex 0 2 0.3
      vertex -0.618034 1.90211 0.3
    endloop
  endfacet
  facet normal 0.156435 -0.987688 0
    outer loop
      vertex -0.618034 1.90211 -0.3
      vertex 0 2 -0.3
      vertex -0.618034 1.90211 0.3
    endloop
  endfacet
  facet normal -0.156435 -0.987688 -0
    outer loop
      vertex 0.618034 1.90211 -0.3
      vertex 0.618034 1.90211 0.3
      vertex 0 2 0.3
    endloop
  endfacet
  facet normal -0.156435 -0.987688 -0
    outer loop
      vertex 0 2 -0.3
      vertex 0.618034 1.90211 -0.3
      vertex 0 2 0.3
    endloop
  endfacet
  facet normal -0.45399 -0.891007 -0
    outer loop
      vertex 1.17557 1.61803 -0.3
      vertex 1.17557 1.61803 0.3
      vertex 0.618034 1.90211 0.3
    endloop
  endfacet
  facet normal -0.45399 -0.891007 -0
    outer loop
      vertex 0.618034 1.90211 -0.3
      vertex 1.17557 1.61803 -0.3
      vertex 0.618034 1.90211 0.3
    endloop
  endfacet
  facet normal -0.707107 -0.707107 -0
    outer loop
      vertex 1.61803 1.17557 -0.3
      vertex 1.61803 1.17557 0.3
      vertex 1.17557 1.61803 0.3
    endloop
  endfacet
  facet normal -0.707107 -0.707107 -0
    outer loop
      vertex 1.17557 1.61803 -0.3
      vertex 1.61803 1.17557 -0.3
      vertex 1.17557 1.61803 0.3
    endloop
  endfacet
  facet normal -0.891007 -0.45399 0
    outer loop
      vertex 1.90211 0.618034 0.3
      vertex 1.61803 1.17557 0.3
      vertex 1.90211 0.618034 -0.3
    endloop
  endfacet
  facet normal -0.891007 -0.45399 0
    outer loop
      vertex 1.90211 0.618034 -0.3
      vertex 1.61803 1.17557 0.3
      vertex 1.61803 1.17557 -0.3
    endloop
  endfacet
  facet normal -0.987688 -0.156435 0
    outer loop
      vertex 2 0 0.3
      vertex 1.90211 0.618034 0.3
      vertex 2 0 -0.3
    endloop
  endfacet
  facet normal -0.987688 -0.156435 0
    outer loop
      vertex 2 0 -0.3
      vertex 1.90211 0.618034 0.3
      vertex 1.90211 0.618034 -0.3
    endloop
  endfacet
  facet normal -0.987688 0.156435 0
    outer loop
      vertex 2 0 0.3
      vertex 2 0 -0.3
      vertex 1.90211 -0.618034 0.3
    endloop
  endfacet
  facet normal -0.987688 0.156435 0
    outer loop
      vertex 1.90211 -0.618034 0.3
      vertex 2 0 -0.3
      vertex 1.90211 -0.618034 -0.3
    endloop
  endfacet
  facet normal -0.891007 0.45399 0
    outer loop
      vertex 1.90211 -0.618034 0.3
      vertex 1.90211 -0.618034 -0.3
      vertex 1.61803 -1.17557 0.3
    endloop
  endfacet
  facet normal -0.891007 0.45399 0
    outer loop
      vertex 1.61803 -1.17557 0.3
      vertex 1.90211 -0.618034 -0.3
      vertex 1.61803 -1.17557 -0.3
    endloop
  endfacet
  facet normal -0.707107 0.707107 0
    outer loop
      vertex 1.61803 -1.17557 0.3
      vertex 1.61803 -1.17557 -0.3
      vertex 1.17557 -1.61803 0.3
    endloop
  endfacet
  facet normal -0.707107 0.707107 0
    outer loop
      vertex 1.17557 -1.61803 0.3
      vertex 1.61803 -1.17557 -0.3
      vertex 1.17557 -1.61803 -0.3
    endloop
  endfacet
  facet normal -0.45399 0.891007 0
    outer loop
      vertex 1.17557 -1.61803 0.3
      vertex 1.17557 -1.61803 -0.3
      vertex 0.618034 -1.90211 0.3
    endloop
  endfacet
  facet normal -0.45399 0.891007 0
    outer loop
      vertex 0.618034 -1.90211 0.3
      vertex 1.17557 -1.61803 -0.3
      vertex 0.618034 -1.90211 -0.3
    endloop
  endfacet
  facet normal -0.156435 0.987688 0
    outer loop
      vertex 0.618034 -1.90211 0.3
      vertex 0.618034 -1.90211 -0.3
      vertex 0 -2 0.3
    endloop
  endfacet
  facet normal -0.156435 0.987688 0
    outer loop
      vertex 0 -2 0.3
      vertex 0.618034 -1.90211 -0.3
      vertex 0 -2 -0.3
    endloop
  endfacet
  facet normal 0.156435 0.987688 -0
    outer loop
      vertex 0 -2 0.3
      vertex 0 -2 -0.3
      vertex -0.618034 -1.90211 0.3
    endloop
  endfacet
  facet normal 0.156435 0.987688 -0
    outer loop
      vertex -0.618034 -1.90211 0.3
      vertex 0 -2 -0.3
      vertex -0.618034 -1.90211 -0.3
    endloop
  endfacet
  facet normal 0.45399 0.891007 -0
    outer loop
      vertex -0.618034 -1.90211 0.3
      vertex -0.618034 -1.90211 -0.3
      vertex -1.17557 -1.61803 0.3
    endloop
  endfacet
  facet normal 0.45399 0.891007 -0
    outer loop
      vertex -1.17557 -1.61803 0.3
      vertex -0.618034 -1.90211 -0.3
      vertex -1.17557 -1.61803 -0.3
    endloop
  endfacet
  facet normal 0.707107 0.707107 -0
    outer loop
      vertex -1.17557 -1.61803 0.3
      vertex -1.17557 -1.61803 -0.3
      vertex -1.61803 -1.17557 0.3
    endloop
  endfacet
  facet normal 0.707107 0.707107 -0
    outer loop
      vertex -1.61803 -1.17557 0.3
      vertex -1.17557 -1.61803 -0.3
      vertex -1.61803 -1.17557 -0.3
    endloop
  endfacet
  facet normal 0.891007 0.45399 0
    outer loop
      vertex -1.90211 -0.618034 0.3
      vertex -1.61803 -1.17557 0.3
      vertex -1.61803 -1.17557 -0.3
    endloop
  endfacet
  facet normal 0.891007 0.45399 0
    outer loop
      vertex -1.90211 -0.618034 -0.3
      vertex -1.90211 -0.618034 0.3
      vertex -1.61803 -1.17557 -0.3
    endloop
  endfacet
  facet normal 0 0 1
    outer loop
      vertex -4.04199 1.31332 0.3
      vertex -4.25 0 0.3
      vertex -4.04199 -1.31332 0.3
    endloop
  endfacet
  facet normal 0 0 1
    outer loop
      vertex -2.49809 -3.43832 0.3
      vertex -4.04199 1.31332 0.3
      vertex -3.43832 -2.49809 0.3
    endloop
  endfacet
  facet normal 0 0 1
    outer loop
      vertex -3.43832 -2.49809 0.3
      vertex -4.04199 1.31332 0.3
      vertex -4.04199 -1.31332 0.3
    endloop
  endfacet
  facet normal 0 0 1
    outer loop
      vertex -1.31332 -4.04199 0.3
      vertex -4.04199 1.31332 0.3
      vertex -2.49809 -3.43832 0.3
    endloop
  endfacet
  facet normal 0 0 1
    outer loop
      vertex 0 -4.25 0.3
      vertex -4.04199 1.31332 0.3
      vertex -1.31332 -4.04199 0.3
    endloop
  endfacet
  facet normal -0 -0 1
    outer loop
      vertex -1.61803 -1.17557 0.3
      vertex -4.04199 1.31332 0.3
      vertex 0 -4.25 0.3
    endloop
  endfacet
  facet normal -0 -0 1
    outer loop
      vertex -0.618034 -1.90211 0.3
      vertex -1.17557 -1.61803 0.3
      vertex 1.31332 -4.04199 0.3
    endloop
  endfacet
  facet normal 0 -0 1
    outer loop
      vertex 2 0 0.3
      vertex 1.90211 -0.618034 0.3
      vertex 4.04199 -1.31332 0.3
    endloop
  endfacet
  facet normal 0 -0 1
    outer loop
      vertex 1.31332 4.04199 0.3
      vertex -4.04199 1.31332 0.3
      vertex 2.49809 3.43832 0.3
    endloop
  endfacet
  facet normal 0 -0 1
    outer loop
      vertex 0 4.25 0.3
      vertex -4.04199 1.31332 0.3
      vertex 1.31332 4.04199 0.3
    endloop
  endfacet
  facet normal 0 -0 1
    outer loop
      vertex -1.31332 4.04199 0.3
      vertex -4.04199 1.31332 0.3
      vertex 0 4.25 0.3
    endloop
  endfacet
  facet normal 0 -0 1
    outer loop
      vertex -2.49809 3.43832 0.3
      vertex -4.04199 1.31332 0.3
      vertex -1.31332 4.04199 0.3
    endloop
  endfacet
  facet normal 0 -0 1
    outer loop
      vertex -3.43832 2.49809 0.3
      vertex -4.04199 1.31332 0.3
      vertex -2.49809 3.43832 0.3
    endloop
  endfacet
  facet normal 0 0 1
    outer loop
      vertex -1.61803 1.17557 0.3
      vertex -1.17557 1.61803 0.3
      vertex -4.04199 1.31332 0.3
    endloop
  endfacet
  facet normal 0 -0 1
    outer loop
      vertex 1.61803 -1.17557 0.3
      vertex 1.17557 -1.61803 0.3
      vertex 3.43832 -2.49809 0.3
    endloop
  endfacet
  facet normal -0 0 1
    outer loop
      vertex -1.17557 1.61803 0.3
      vertex -0.618034 1.90211 0.3
      vertex -4.04199 1.31332 0.3
    endloop
  endfacet
  facet normal 0 0 1
    outer loop
      vertex 1.90211 0.618034 0.3
      vertex 2 0 0.3
      vertex 4.25 0 0.3
    endloop
  endfacet
  facet normal 0 0 1
    outer loop
      vertex 1.17557 1.61803 0.3
      vertex 1.61803 1.17557 0.3
      vertex 4.04199 1.31332 0.3
    endloop
  endfacet
  facet normal 0 0 1
    outer loop
      vertex 2.49809 3.43832 0.3
      vertex -4.04199 1.31332 0.3
      vertex -0.618034 1.90211 0.3
    endloop
  endfacet
  facet normal 0 -0 1
    outer loop
      vertex 2.49809 3.43832 0.3
      vertex 0 2 0.3
      vertex 3.43832 2.49809 0.3
    endloop
  endfacet
  facet normal 0 0 1
    outer loop
      vertex 2.49809 3.43832 0.3
      vertex -0.618034 1.90211 0.3
      vertex 0 2 0.3
    endloop
  endfacet
  facet normal 0 -0 1
    outer loop
      vertex 3.43832 2.49809 0.3
      vertex 0.618034 1.90211 0.3
      vertex 4.04199 1.31332 0.3
    endloop
  endfacet
  facet normal 0 0 1
    outer loop
      vertex 0.618034 1.90211 0.3
      vertex 1.17557 1.61803 0.3
      vertex 4.04199 1.31332 0.3
    endloop
  endfacet
  facet normal 0 -0 1
    outer loop
      vertex 4.04199 1.31332 0.3
      vertex 1.61803 1.17557 0.3
      vertex 4.25 0 0.3
    endloop
  endfacet
  facet normal 0 0 1
    outer loop
      vertex 1.61803 1.17557 0.3
      vertex 1.90211 0.618034 0.3
      vertex 4.25 0 0.3
    endloop
  endfacet
  facet normal 0 0 1
    outer loop
      vertex 4.25 0 0.3
      vertex 2 0 0.3
      vertex 4.04199 -1.31332 0.3
    endloop
  endfacet
  facet normal -0 0 1
    outer loop
      vertex 4.04199 -1.31332 0.3
      vertex 1.90211 -0.618034 0.3
      vertex 3.43832 -2.49809 0.3
    endloop
  endfacet
  facet normal 0 0 1
    outer loop
      vertex -1.90211 0.618034 0.3
      vertex -1.61803 1.17557 0.3
      vertex -4.04199 1.31332 0.3
    endloop
  endfacet
  facet normal 0 -0 1
    outer loop
      vertex 1.90211 -0.618034 0.3
      vertex 1.61803 -1.17557 0.3
      vertex 3.43832 -2.49809 0.3
    endloop
  endfacet
  facet normal 0 0 1
    outer loop
      vertex 0 2 0.3
      vertex 0.618034 1.90211 0.3
      vertex 3.43832 2.49809 0.3
    endloop
  endfacet
  facet normal -0 0 1
    outer loop
      vertex 3.43832 -2.49809 0.3
      vertex 1.17557 -1.61803 0.3
      vertex 2.49809 -3.43832 0.3
    endloop
  endfacet
  facet normal 0 -0 1
    outer loop
      vertex 1.17557 -1.61803 0.3
      vertex 0.618034 -1.90211 0.3
      vertex 2.49809 -3.43832 0.3
    endloop
  endfacet
  facet normal -0 0 1
    outer loop
      vertex 2.49809 -3.43832 0.3
      vertex 0 -2 0.3
      vertex 1.31332 -4.04199 0.3
    endloop
  endfacet
  facet normal -0 -0 1
    outer loop
      vertex 0 -2 0.3
      vertex -0.618034 -1.90211 0.3
      vertex 1.31332 -4.04199 0.3
    endloop
  endfacet
  facet normal -0 0 1
    outer loop
      vertex 1.31332 -4.04199 0.3
      vertex -1.17557 -1.61803 0.3
      vertex 0 -4.25 0.3
    endloop
  endfacet
  facet normal 0 0 1
    outer loop
      vertex -1.90211 -0.618034 0.3
      vertex -2 0 0.3
      vertex -4.04199 1.31332 0.3
    endloop
  endfacet
  facet normal -0 -0 1
    outer loop
      vertex -1.17557 -1.61803 0.3
      vertex -1.61803 -1.17557 0.3
      vertex 0 -4.25 0.3
    endloop
  endfacet
  facet normal 0 -0 1
    outer loop
      vertex 0.618034 -1.90211 0.3
      vertex 0 -2 0.3
      vertex 2.49809 -3.43832 0.3
    endloop
  endfacet
  facet normal 0 0 1
    outer loop
      vertex -1.61803 -1.17557 0.3
      vertex -1.90211 -0.618034 0.3
      vertex -4.04199 1.31332 0.3
    endloop
  endfacet
  facet normal 0 0 1
    outer loop
      vertex -2 0 0.3
      vertex -1.90211 0.618034 0.3
      vertex -4.04199 1.31332 0.3
    endloop
  endfacet
endsolid OpenSCAD_Model
